%TF.GenerationSoftware,KiCad,Pcbnew,9.0.7*%
%TF.CreationDate,2026-02-19T04:12:07+03:00*%
%TF.ProjectId,shell-bms,7368656c-6c2d-4626-9d73-2e6b69636164,rev?*%
%TF.SameCoordinates,Original*%
%TF.FileFunction,Copper,L2,Inr*%
%TF.FilePolarity,Positive*%
%FSLAX46Y46*%
G04 Gerber Fmt 4.6, Leading zero omitted, Abs format (unit mm)*
G04 Created by KiCad (PCBNEW 9.0.7) date 2026-02-19 04:12:07*
%MOMM*%
%LPD*%
G01*
G04 APERTURE LIST*
G04 Aperture macros list*
%AMRoundRect*
0 Rectangle with rounded corners*
0 $1 Rounding radius*
0 $2 $3 $4 $5 $6 $7 $8 $9 X,Y pos of 4 corners*
0 Add a 4 corners polygon primitive as box body*
4,1,4,$2,$3,$4,$5,$6,$7,$8,$9,$2,$3,0*
0 Add four circle primitives for the rounded corners*
1,1,$1+$1,$2,$3*
1,1,$1+$1,$4,$5*
1,1,$1+$1,$6,$7*
1,1,$1+$1,$8,$9*
0 Add four rect primitives between the rounded corners*
20,1,$1+$1,$2,$3,$4,$5,0*
20,1,$1+$1,$4,$5,$6,$7,0*
20,1,$1+$1,$6,$7,$8,$9,0*
20,1,$1+$1,$8,$9,$2,$3,0*%
G04 Aperture macros list end*
%TA.AperFunction,EtchedComponent*%
%ADD10C,0.000000*%
%TD*%
%TA.AperFunction,ComponentPad*%
%ADD11RoundRect,0.250000X-0.550000X0.550000X-0.550000X-0.550000X0.550000X-0.550000X0.550000X0.550000X0*%
%TD*%
%TA.AperFunction,ComponentPad*%
%ADD12C,1.600000*%
%TD*%
%TA.AperFunction,ComponentPad*%
%ADD13R,1.350000X1.350000*%
%TD*%
%TA.AperFunction,ComponentPad*%
%ADD14C,1.350000*%
%TD*%
%TA.AperFunction,ComponentPad*%
%ADD15RoundRect,0.250000X0.550000X0.550000X-0.550000X0.550000X-0.550000X-0.550000X0.550000X-0.550000X0*%
%TD*%
%TA.AperFunction,ComponentPad*%
%ADD16C,1.800000*%
%TD*%
%TA.AperFunction,ComponentPad*%
%ADD17C,2.000000*%
%TD*%
%TA.AperFunction,ComponentPad*%
%ADD18R,1.905000X2.000000*%
%TD*%
%TA.AperFunction,ComponentPad*%
%ADD19O,1.905000X2.000000*%
%TD*%
%TA.AperFunction,ComponentPad*%
%ADD20C,0.600000*%
%TD*%
%TA.AperFunction,ComponentPad*%
%ADD21RoundRect,0.250000X-1.050000X1.050000X-1.050000X-1.050000X1.050000X-1.050000X1.050000X1.050000X0*%
%TD*%
%TA.AperFunction,ComponentPad*%
%ADD22C,2.600000*%
%TD*%
%TA.AperFunction,ComponentPad*%
%ADD23R,2.000000X2.000000*%
%TD*%
%TA.AperFunction,ComponentPad*%
%ADD24C,1.500000*%
%TD*%
%TA.AperFunction,HeatsinkPad*%
%ADD25C,0.500000*%
%TD*%
%TA.AperFunction,ComponentPad*%
%ADD26RoundRect,0.250000X0.550000X-0.550000X0.550000X0.550000X-0.550000X0.550000X-0.550000X-0.550000X0*%
%TD*%
%TA.AperFunction,HeatsinkPad*%
%ADD27O,1.000000X2.100000*%
%TD*%
%TA.AperFunction,HeatsinkPad*%
%ADD28O,1.000000X1.600000*%
%TD*%
%TA.AperFunction,ComponentPad*%
%ADD29C,1.700000*%
%TD*%
%TA.AperFunction,ComponentPad*%
%ADD30R,1.700000X1.700000*%
%TD*%
%TA.AperFunction,ComponentPad*%
%ADD31R,1.800000X1.100000*%
%TD*%
%TA.AperFunction,ComponentPad*%
%ADD32RoundRect,0.275000X-0.625000X0.275000X-0.625000X-0.275000X0.625000X-0.275000X0.625000X0.275000X0*%
%TD*%
%TA.AperFunction,ComponentPad*%
%ADD33R,1.000000X1.000000*%
%TD*%
%TA.AperFunction,ComponentPad*%
%ADD34C,1.000000*%
%TD*%
%TA.AperFunction,ComponentPad*%
%ADD35RoundRect,0.250000X0.650000X0.650000X-0.650000X0.650000X-0.650000X-0.650000X0.650000X-0.650000X0*%
%TD*%
%TA.AperFunction,ComponentPad*%
%ADD36R,1.800000X1.800000*%
%TD*%
%TA.AperFunction,HeatsinkPad*%
%ADD37O,2.100000X1.000000*%
%TD*%
%TA.AperFunction,HeatsinkPad*%
%ADD38O,1.600000X1.000000*%
%TD*%
%TA.AperFunction,ViaPad*%
%ADD39C,0.600000*%
%TD*%
%TA.AperFunction,ViaPad*%
%ADD40C,0.450000*%
%TD*%
%TA.AperFunction,ViaPad*%
%ADD41C,0.550000*%
%TD*%
%TA.AperFunction,ViaPad*%
%ADD42C,0.650000*%
%TD*%
%TA.AperFunction,Conductor*%
%ADD43C,1.000000*%
%TD*%
%TA.AperFunction,Conductor*%
%ADD44C,0.800000*%
%TD*%
G04 APERTURE END LIST*
D10*
%TA.AperFunction,EtchedComponent*%
%TO.C,NT1*%
G36*
X104004831Y-90975000D02*
G01*
X99704831Y-90975000D01*
X99704831Y-85975000D01*
X104004831Y-85975000D01*
X104004831Y-90975000D01*
G37*
%TD.AperFunction*%
%TD*%
D11*
%TO.N,+5V*%
%TO.C,D7*%
X52500000Y-103600000D03*
D12*
%TO.N,Net-(D7-A)*%
X52500000Y-111220000D03*
%TD*%
%TO.N,/Protection/B_Pos*%
%TO.C,R32*%
X121525000Y-69920000D03*
%TO.N,Net-(D3-K)*%
X121525000Y-54680000D03*
%TD*%
D13*
%TO.N,+5V*%
%TO.C,J7*%
X49300000Y-106100000D03*
D14*
%TO.N,Net-(D7-A)*%
X49300000Y-108100000D03*
%TD*%
D15*
%TO.N,+5V*%
%TO.C,D5*%
X67760000Y-104750000D03*
D12*
%TO.N,Net-(BZ1--)*%
X60140000Y-104750000D03*
%TD*%
D13*
%TO.N,Net-(J9-Pin_1)*%
%TO.C,J9*%
X81978000Y-106832400D03*
D14*
%TO.N,Net-(J9-Pin_2)*%
X79978000Y-106832400D03*
%TO.N,+3V3*%
X77978000Y-106832400D03*
%TO.N,GND*%
X75978000Y-106832400D03*
%TD*%
D12*
%TO.N,BAT*%
%TO.C,R22*%
X128142000Y-104854000D03*
%TO.N,Net-(D1-K)*%
X128142000Y-89614000D03*
%TD*%
D16*
%TO.N,Net-(D4-A)*%
%TO.C,MP3*%
X155865000Y-80690000D03*
X158405000Y-80690000D03*
X160945000Y-80690000D03*
X163485000Y-80690000D03*
X163485000Y-88310000D03*
X160945000Y-88310000D03*
X158405000Y-88310000D03*
X155865000Y-88310000D03*
%TD*%
D17*
%TO.N,Net-(U7-TOUT)*%
%TO.C,TP1*%
X52700000Y-141750000D03*
%TD*%
%TO.N,GND*%
%TO.C,SW1*%
X57577600Y-116281200D03*
X57577600Y-109781200D03*
%TO.N,/MCU/NRST*%
X62077600Y-116281200D03*
X62077600Y-109781200D03*
%TD*%
D18*
%TO.N,/Protection/CD*%
%TO.C,Q9*%
X131275000Y-58000000D03*
D19*
%TO.N,Net-(D3-K)*%
X128735000Y-58000000D03*
%TO.N,/Protection/B_Pos*%
X126195000Y-58000000D03*
%TD*%
D13*
%TO.N,+5V*%
%TO.C,J8*%
X48600000Y-78550000D03*
D14*
%TO.N,Net-(D8-A)*%
X48600000Y-76550000D03*
%TD*%
D13*
%TO.N,GND*%
%TO.C,J10*%
X48700000Y-92200000D03*
D14*
%TO.N,/Data_Utils/PB3*%
X48700000Y-94200000D03*
%TO.N,/Data_Utils/PB4*%
X48700000Y-96200000D03*
%TO.N,/Data_Utils/PB5*%
X48700000Y-98200000D03*
%TO.N,+3V3*%
X48700000Y-100200000D03*
%TD*%
D17*
%TO.N,GND*%
%TO.C,NT1*%
X99708800Y-86175000D03*
%TO.N,GNDPWR*%
X103808800Y-86175000D03*
D20*
%TO.N,Net-(MP2-Pad1)*%
X101958800Y-90700000D03*
%TD*%
D13*
%TO.N,GND*%
%TO.C,J13*%
X61525000Y-87450000D03*
D14*
%TO.N,Net-(J13-Pin_2)*%
X61525000Y-89450000D03*
%TD*%
D21*
%TO.N,Net-(D3-K)*%
%TO.C,D3*%
X116775000Y-55180000D03*
D22*
%TO.N,/Protection/B_Pos*%
X116775000Y-70420000D03*
%TD*%
D23*
%TO.N,+5V*%
%TO.C,BZ1*%
X67550000Y-97250000D03*
D17*
%TO.N,Net-(BZ1--)*%
X59950000Y-97250000D03*
%TD*%
D13*
%TO.N,Net-(J6-Pin_1)*%
%TO.C,J6*%
X49200000Y-123950000D03*
D14*
%TO.N,Net-(J6-Pin_2)*%
X49200000Y-125950000D03*
%TD*%
D24*
%TO.N,Net-(U3-PF0)*%
%TO.C,Y1*%
X69646800Y-114186800D03*
%TO.N,Net-(U3-PF1)*%
X69646800Y-119086800D03*
%TD*%
D16*
%TO.N,Net-(MP2-Pad1)*%
%TO.C,MP2*%
X98315000Y-105035000D03*
X98315000Y-102495000D03*
X98315000Y-99955000D03*
X98315000Y-97415000D03*
X105935000Y-97415000D03*
X105935000Y-99955000D03*
X105935000Y-102495000D03*
X105935000Y-105035000D03*
%TD*%
D25*
%TO.N,GNDPWR*%
%TO.C,U2*%
X83427400Y-76791531D03*
X82127400Y-76791531D03*
X80827400Y-76791531D03*
X79527400Y-76791531D03*
X83427400Y-78091531D03*
X82127400Y-78091531D03*
X80827400Y-78091531D03*
X79527400Y-78091531D03*
%TD*%
D12*
%TO.N,/MCU/NRST*%
%TO.C,R55*%
X65125600Y-116687600D03*
%TO.N,+3V3*%
X65125600Y-109067600D03*
%TD*%
%TO.N,Net-(D2-K)*%
%TO.C,R30*%
X131202000Y-97694000D03*
%TO.N,Net-(Q1-C)*%
X146442000Y-97694000D03*
%TD*%
D18*
%TO.N,/Protection/CD*%
%TO.C,Q3*%
X147095000Y-69550000D03*
D19*
%TO.N,Net-(D4-K)*%
X149635000Y-69550000D03*
%TO.N,Net-(D4-A)*%
X152175000Y-69550000D03*
%TD*%
D18*
%TO.N,/Protection/CD*%
%TO.C,Q2*%
X131405000Y-69500000D03*
D19*
%TO.N,Net-(D3-K)*%
X128865000Y-69500000D03*
%TO.N,/Protection/B_Pos*%
X126325000Y-69500000D03*
%TD*%
D26*
%TO.N,Net-(D2-K)*%
%TO.C,D2*%
X139175000Y-70770000D03*
D12*
%TO.N,/Protection/CD*%
X139175000Y-63150000D03*
%TD*%
D27*
%TO.N,GND*%
%TO.C,J11*%
X67910000Y-162320000D03*
D28*
X67910000Y-166500000D03*
D27*
X76550000Y-162320000D03*
D28*
X76550000Y-166500000D03*
%TD*%
D29*
%TO.N,/ReaderIC/Balance-Input/B_0*%
%TO.C,J2*%
X151364000Y-158761500D03*
%TO.N,/ReaderIC/Balance-Input/B_1*%
X148824000Y-158761500D03*
%TO.N,/ReaderIC/Balance-Input/B_2*%
X146284000Y-158761500D03*
%TO.N,/ReaderIC/Balance-Input/B_3*%
X143744000Y-158761500D03*
%TO.N,/ReaderIC/Balance-Input/B_4*%
X141204000Y-158761500D03*
%TO.N,/ReaderIC/Balance-Input/B_5*%
X138664000Y-158761500D03*
%TO.N,/ReaderIC/Balance-Input/B_6*%
X136124000Y-158761500D03*
%TO.N,/ReaderIC/Balance-Input/B_7*%
X133584000Y-158761500D03*
%TO.N,/ReaderIC/Balance-Input/B_8*%
X131044000Y-158761500D03*
%TO.N,/ReaderIC/Balance-Input/B_9*%
X128504000Y-158761500D03*
%TO.N,/ReaderIC/Balance-Input/B_10*%
X125964000Y-158761500D03*
%TO.N,/ReaderIC/Balance-Input/B_11*%
X123424000Y-158761500D03*
%TO.N,/ReaderIC/Balance-Input/B_12*%
X120884000Y-158761500D03*
%TO.N,/ReaderIC/Balance-Input/B_13*%
X118344000Y-158761500D03*
%TO.N,/ReaderIC/Balance-Input/B_14*%
X115804000Y-158761500D03*
%TO.N,/ReaderIC/Balance-Input/B_15*%
X113264000Y-158761500D03*
%TO.N,/ReaderIC/Balance-Input/B_16*%
X110724000Y-158761500D03*
%TO.N,unconnected-(J2-Pin_18-Pad18)*%
X108184000Y-158761500D03*
%TO.N,unconnected-(J2-Pin_19-Pad19)*%
X105644000Y-158761500D03*
D30*
%TO.N,unconnected-(J2-Pin_20-Pad20)*%
X103104000Y-158761500D03*
%TD*%
D31*
%TO.N,Net-(Q1-C)*%
%TO.C,Q1*%
X146042000Y-101104000D03*
D32*
%TO.N,Net-(Q1-B)*%
X148112000Y-102374000D03*
%TO.N,Net-(Q1-E)*%
X146042000Y-103644000D03*
%TD*%
D21*
%TO.N,Net-(D4-K)*%
%TO.C,D4*%
X161925000Y-54580000D03*
D22*
%TO.N,Net-(D4-A)*%
X161925000Y-69820000D03*
%TD*%
D26*
%TO.N,+5V*%
%TO.C,D8*%
X52032500Y-81910000D03*
D12*
%TO.N,Net-(D8-A)*%
X52032500Y-74290000D03*
%TD*%
D33*
%TO.N,Net-(JP1-A)*%
%TO.C,JP1*%
X75850000Y-96600000D03*
D34*
%TO.N,Net-(JP1-C)*%
X75850000Y-97870000D03*
%TO.N,Net-(JP1-B)*%
X75850000Y-99140000D03*
%TD*%
D18*
%TO.N,/Protection/CD*%
%TO.C,Q8*%
X147125000Y-57150000D03*
D19*
%TO.N,Net-(D4-K)*%
X149665000Y-57150000D03*
%TO.N,Net-(D4-A)*%
X152205000Y-57150000D03*
%TD*%
D35*
%TO.N,Net-(D1-K)*%
%TO.C,D1*%
X124840000Y-94694000D03*
D16*
%TO.N,/ReaderIC/Balance-Input/B_16*%
X117220000Y-94694000D03*
%TD*%
%TO.N,GNDPWR*%
%TO.C,MP4*%
X114190000Y-82440000D03*
X116730000Y-82440000D03*
X119270000Y-82440000D03*
X121810000Y-82440000D03*
X121810000Y-90060000D03*
X119270000Y-90060000D03*
X116730000Y-90060000D03*
X114190000Y-90060000D03*
%TD*%
%TO.N,/Protection/B_Pos*%
%TO.C,MP1*%
X100115000Y-69690000D03*
X102655000Y-69690000D03*
X105195000Y-69690000D03*
X107735000Y-69690000D03*
X107735000Y-77310000D03*
X105195000Y-77310000D03*
X102655000Y-77310000D03*
X100115000Y-77310000D03*
%TD*%
D36*
%TO.N,GND*%
%TO.C,D6*%
X70200000Y-86000000D03*
D16*
%TO.N,Net-(D6-A)*%
X72740000Y-86000000D03*
%TD*%
D17*
%TO.N,GND*%
%TO.C,C58*%
X63957200Y-125853200D03*
%TO.N,/MCU/NRST*%
X63957200Y-120853200D03*
%TD*%
D12*
%TO.N,Net-(D4-A)*%
%TO.C,R39*%
X156775000Y-69790000D03*
%TO.N,Net-(D4-K)*%
X156775000Y-54550000D03*
%TD*%
D30*
%TO.N,/ReaderIC/Balance-Input/TS1*%
%TO.C,J3*%
X161867000Y-110844000D03*
D29*
%TO.N,/ReaderIC/Balance-Input/TS2*%
X161867000Y-108304000D03*
%TO.N,/ReaderIC/Balance-Input/TS3*%
X161867000Y-105764000D03*
%TO.N,GNDPWR*%
X161867000Y-103224000D03*
%TD*%
D37*
%TO.N,GND*%
%TO.C,J5*%
X54955000Y-129230000D03*
D38*
X50775000Y-129230000D03*
D37*
X54955000Y-137870000D03*
D38*
X50775000Y-137870000D03*
%TD*%
D39*
%TO.N,+5V*%
X84650000Y-96900000D03*
D40*
%TO.N,GND*%
X53850000Y-168750000D03*
D39*
X69887500Y-134050000D03*
D41*
X57050000Y-158700000D03*
X73250000Y-120750000D03*
D39*
X57450000Y-125250000D03*
X81750000Y-119938800D03*
D41*
X73250000Y-112750000D03*
X84250000Y-127750000D03*
X61750000Y-159500000D03*
D39*
X78450000Y-96000000D03*
X69050000Y-132600000D03*
X80300000Y-114900000D03*
X70700000Y-132650000D03*
D41*
X56168037Y-152925000D03*
X69000000Y-110000000D03*
D40*
X57950000Y-148050000D03*
D39*
X82700000Y-92550000D03*
D40*
X69150000Y-157475000D03*
D42*
X75050000Y-137550000D03*
D39*
X54600000Y-120500000D03*
X54700000Y-127500000D03*
D40*
X55425000Y-168600000D03*
D42*
X56250000Y-103200000D03*
D39*
X70650000Y-135500000D03*
X82950000Y-99350000D03*
D41*
X79200000Y-153100000D03*
X53900000Y-164050000D03*
D39*
X87238500Y-98138500D03*
X77571600Y-111353600D03*
X69000000Y-135450000D03*
D40*
X76175000Y-159775000D03*
D39*
%TO.N,/ReaderIC/Balance-Input/TS3*%
X138242000Y-113293997D03*
X158442000Y-105844000D03*
%TO.N,/ReaderIC/Balance-Input/TS2*%
X158392000Y-108394000D03*
X140617000Y-117831500D03*
%TO.N,/ReaderIC/Balance-Input/TS1*%
X158592000Y-111544000D03*
X138242000Y-114094000D03*
D40*
%TO.N,+3V3*%
X89400000Y-127150000D03*
X88400000Y-126150000D03*
D42*
X73525000Y-127950000D03*
X88442800Y-121108400D03*
X88442800Y-112978000D03*
X74612500Y-135237500D03*
D41*
X53916000Y-166166000D03*
D40*
X88900000Y-127650000D03*
X89900000Y-127150000D03*
X88400000Y-128150000D03*
D39*
X81889600Y-114141000D03*
D40*
X89400000Y-126150000D03*
X88400000Y-127150000D03*
X70675000Y-151950000D03*
X88400000Y-127650000D03*
X88400000Y-126650000D03*
X88900000Y-126150000D03*
X89900000Y-128150000D03*
D39*
X76352400Y-115366800D03*
D40*
X89900000Y-127650000D03*
D41*
X55600000Y-164850000D03*
D40*
X90400000Y-128150000D03*
X89400000Y-128150000D03*
X69150000Y-155400000D03*
X90400000Y-126650000D03*
D42*
X82644400Y-127355600D03*
D40*
X88900000Y-126650000D03*
X88900000Y-127150000D03*
X89900000Y-126650000D03*
X88900000Y-128150000D03*
D42*
X77833400Y-127355600D03*
D40*
X89400000Y-127650000D03*
X89400000Y-126650000D03*
X90400000Y-126150000D03*
X89900000Y-126150000D03*
X90400000Y-127150000D03*
X90400000Y-127650000D03*
D39*
%TO.N,GNDPWR*%
X150418800Y-96164400D03*
D41*
X156750000Y-138000000D03*
D39*
X131200000Y-100600000D03*
X161086800Y-131368800D03*
X149809200Y-112064800D03*
X153568400Y-109118400D03*
X163423600Y-127660400D03*
X150418800Y-99060000D03*
X160629600Y-116381500D03*
X162217000Y-122682000D03*
X152349200Y-110490000D03*
X162217000Y-120142000D03*
X162147550Y-117862050D03*
X161137600Y-127660400D03*
X162204400Y-133451600D03*
X151790400Y-97637600D03*
X133750000Y-100650000D03*
X163474400Y-131419600D03*
X163372800Y-101904800D03*
X136906000Y-114757200D03*
X152298400Y-107645200D03*
D41*
X156750000Y-134250000D03*
X157750000Y-136000000D03*
D39*
X149758400Y-113995200D03*
X163423600Y-104292400D03*
X160629600Y-101955600D03*
%TO.N,Net-(U2-FB)*%
X82100000Y-85300000D03*
X78600000Y-80100000D03*
X85000000Y-80100000D03*
%TO.N,/MCU/NRST*%
X77520800Y-116738400D03*
%TO.N,/Data_Utils/USB-*%
X53400000Y-133000000D03*
X58700000Y-133800000D03*
D42*
%TO.N,/Data_Utils/PB4*%
X56450000Y-95050000D03*
X78850000Y-110450000D03*
%TO.N,/Data_Utils/PB5*%
X78750000Y-111350000D03*
X56150000Y-96450000D03*
%TO.N,/Data_Utils/PB3*%
X57350000Y-93850000D03*
X79200000Y-109450000D03*
D39*
%TO.N,Net-(JP1-C)*%
X69350000Y-89500000D03*
%TO.N,Net-(JP1-B)*%
X77250000Y-89100000D03*
%TO.N,/Data_Utils/STAT_LED*%
X72100000Y-101750000D03*
X80718785Y-118022969D03*
%TO.N,Net-(Q4-B)*%
X56100000Y-106650000D03*
D42*
%TO.N,Net-(Q5-B)*%
X48850000Y-115950000D03*
D39*
%TO.N,/MCU/IC_SDA*%
X141042000Y-113294000D03*
X86360000Y-117500400D03*
%TO.N,/MCU/IC_SCL*%
X141342000Y-114244000D03*
X86410800Y-116535200D03*
%TO.N,/Data_Utils/BUZZER*%
X58150000Y-100950000D03*
X80772000Y-118821200D03*
D41*
%TO.N,/Data_Utils/FAN1*%
X52000000Y-118250000D03*
D39*
X78186959Y-118517319D03*
D42*
%TO.N,/Data_Utils/FAN2*%
X56125000Y-81475000D03*
D39*
X78587600Y-117246400D03*
%TO.N,/Data_Utils/CAN_TX*%
X79550000Y-116950000D03*
X61400000Y-126350000D03*
%TO.N,/Data_Utils/CAN_RX*%
X67250000Y-128150000D03*
X81250000Y-116850000D03*
%TO.N,/Data_Utils/TXD*%
X78638400Y-119888000D03*
D42*
X77550000Y-131250000D03*
%TO.N,/Data_Utils/RXD*%
X75126885Y-130709752D03*
D39*
X77571600Y-119938800D03*
D40*
X76250000Y-139200000D03*
%TO.N,Net-(U7-RST)*%
X54200000Y-146800000D03*
%TO.N,Net-(U7-EN)*%
X51200000Y-155350000D03*
%TO.N,Net-(JP2-A)*%
X58300000Y-141950000D03*
X67400000Y-151950000D03*
%TO.N,Net-(U7-IO15)*%
X57300000Y-160550000D03*
D41*
%TO.N,Net-(SW2-C)*%
X57200000Y-167900000D03*
%TO.N,Net-(SW2-A)*%
X63750000Y-168150000D03*
%TO.N,Net-(U7-IO2)*%
X58850000Y-164150000D03*
%TD*%
D43*
%TO.N,+5V*%
X80050000Y-104750000D02*
X67760000Y-104750000D01*
X84549000Y-100251000D02*
X80050000Y-104750000D01*
X84549000Y-97001000D02*
X84549000Y-100251000D01*
X84650000Y-96900000D02*
X84549000Y-97001000D01*
D44*
%TO.N,GND*%
X70500000Y-86300000D02*
X70500000Y-92300000D01*
D43*
X55250000Y-92200000D02*
X55300000Y-92150000D01*
D44*
X70200000Y-86000000D02*
X70500000Y-86300000D01*
D43*
X48700000Y-92200000D02*
X55250000Y-92200000D01*
%TO.N,+3V3*%
X74169400Y-127355600D02*
X73550000Y-127975000D01*
X50550000Y-102050000D02*
X59562735Y-102050000D01*
X77833400Y-127355600D02*
X74169400Y-127355600D01*
X65125600Y-107612865D02*
X65125600Y-109067600D01*
X73550000Y-134175000D02*
X73550000Y-127975000D01*
X73550000Y-127975000D02*
X73525000Y-127950000D01*
X74612500Y-135237500D02*
X73550000Y-134175000D01*
X59562735Y-102050000D02*
X65125600Y-107612865D01*
X48700000Y-100200000D02*
X50550000Y-102050000D01*
D44*
%TO.N,Net-(JP1-C)*%
X69350000Y-89500000D02*
X69350000Y-93650000D01*
X73570000Y-97870000D02*
X75850000Y-97870000D01*
X69350000Y-93650000D02*
X73570000Y-97870000D01*
%TO.N,Net-(JP1-B)*%
X76137050Y-99140000D02*
X77250000Y-98027050D01*
X77250000Y-98027050D02*
X77250000Y-93450000D01*
X77250000Y-93450000D02*
X77250000Y-89100000D01*
X75850000Y-99140000D02*
X76137050Y-99140000D01*
%TD*%
%TA.AperFunction,Conductor*%
%TO.N,/Protection/B_Pos*%
G36*
X103783743Y-67455389D02*
G01*
X103829727Y-67507993D01*
X103841148Y-67558418D01*
X104003188Y-80302379D01*
X103984357Y-80369664D01*
X103932139Y-80416086D01*
X103879223Y-80427956D01*
X102552836Y-80428223D01*
X102485793Y-80408552D01*
X102440027Y-80355757D01*
X102428816Y-80303189D01*
X102429427Y-80230187D01*
X102417948Y-80118760D01*
X102406366Y-80065386D01*
X102370634Y-79959233D01*
X102291963Y-79838765D01*
X102245823Y-79786297D01*
X102245821Y-79786295D01*
X102136396Y-79692872D01*
X102082016Y-79668517D01*
X102005085Y-79634062D01*
X101978207Y-79626383D01*
X101937903Y-79614869D01*
X101937900Y-79614868D01*
X101937898Y-79614868D01*
X101795343Y-79595436D01*
X101795342Y-79595436D01*
X101795341Y-79595436D01*
X100028078Y-79608376D01*
X85889971Y-79711898D01*
X85889966Y-79711898D01*
X85833306Y-79715502D01*
X85833297Y-79715503D01*
X85805708Y-79718822D01*
X85805696Y-79718823D01*
X85798199Y-79720156D01*
X85728750Y-79712503D01*
X85674463Y-79668517D01*
X85673405Y-79666959D01*
X85621789Y-79589711D01*
X85621786Y-79589707D01*
X85510292Y-79478213D01*
X85510288Y-79478210D01*
X85379185Y-79390609D01*
X85379172Y-79390602D01*
X85233501Y-79330264D01*
X85233489Y-79330261D01*
X85078845Y-79299500D01*
X85078842Y-79299500D01*
X84921158Y-79299500D01*
X84921155Y-79299500D01*
X84766510Y-79330261D01*
X84766498Y-79330264D01*
X84620827Y-79390602D01*
X84620814Y-79390609D01*
X84489711Y-79478210D01*
X84489707Y-79478213D01*
X84378213Y-79589707D01*
X84378210Y-79589711D01*
X84315489Y-79683580D01*
X84261877Y-79728385D01*
X84195639Y-79737552D01*
X84168303Y-79733826D01*
X84103398Y-79724979D01*
X84103397Y-79724979D01*
X84103396Y-79724979D01*
X84088750Y-79725086D01*
X80675907Y-79750074D01*
X80608725Y-79730880D01*
X80562585Y-79678413D01*
X80551011Y-79627771D01*
X80541808Y-78952705D01*
X80560576Y-78885407D01*
X80612752Y-78838936D01*
X80681768Y-78828051D01*
X80689988Y-78829401D01*
X80753480Y-78842031D01*
X80753482Y-78842031D01*
X80901320Y-78842031D01*
X80998862Y-78822627D01*
X81046313Y-78813189D01*
X81182895Y-78756615D01*
X81305816Y-78674482D01*
X81305819Y-78674479D01*
X81389719Y-78590580D01*
X81451042Y-78557095D01*
X81520734Y-78562079D01*
X81565081Y-78590580D01*
X81648980Y-78674479D01*
X81648984Y-78674482D01*
X81771898Y-78756611D01*
X81771911Y-78756618D01*
X81908482Y-78813187D01*
X81908487Y-78813189D01*
X81908491Y-78813189D01*
X81908492Y-78813190D01*
X82053479Y-78842031D01*
X82053482Y-78842031D01*
X82201320Y-78842031D01*
X82298862Y-78822627D01*
X82346313Y-78813189D01*
X82482895Y-78756615D01*
X82605816Y-78674482D01*
X82605819Y-78674479D01*
X82689719Y-78590580D01*
X82751042Y-78557095D01*
X82820734Y-78562079D01*
X82865081Y-78590580D01*
X82948980Y-78674479D01*
X82948984Y-78674482D01*
X83071898Y-78756611D01*
X83071911Y-78756618D01*
X83208482Y-78813187D01*
X83208487Y-78813189D01*
X83208491Y-78813189D01*
X83208492Y-78813190D01*
X83353479Y-78842031D01*
X83353482Y-78842031D01*
X83501320Y-78842031D01*
X83598862Y-78822627D01*
X83646313Y-78813189D01*
X83782895Y-78756615D01*
X83905816Y-78674482D01*
X84010351Y-78569947D01*
X84092484Y-78447026D01*
X84149058Y-78310444D01*
X84177900Y-78165449D01*
X84177900Y-78017613D01*
X84177900Y-78017610D01*
X84149059Y-77872623D01*
X84149058Y-77872622D01*
X84149058Y-77872618D01*
X84149056Y-77872613D01*
X84092487Y-77736042D01*
X84092480Y-77736029D01*
X84010351Y-77613115D01*
X84010348Y-77613111D01*
X83926449Y-77529212D01*
X83892964Y-77467889D01*
X83897948Y-77398197D01*
X83926449Y-77353850D01*
X84010348Y-77269950D01*
X84010351Y-77269947D01*
X84092484Y-77147026D01*
X84149058Y-77010444D01*
X84177900Y-76865449D01*
X84177900Y-76717613D01*
X84177900Y-76717610D01*
X84149059Y-76572623D01*
X84149058Y-76572622D01*
X84149058Y-76572618D01*
X84149056Y-76572613D01*
X84092487Y-76436042D01*
X84092480Y-76436029D01*
X84010351Y-76313115D01*
X84010348Y-76313111D01*
X83905819Y-76208582D01*
X83905815Y-76208579D01*
X83782901Y-76126450D01*
X83782888Y-76126443D01*
X83646317Y-76069874D01*
X83646307Y-76069871D01*
X83501320Y-76041031D01*
X83501318Y-76041031D01*
X83353482Y-76041031D01*
X83353480Y-76041031D01*
X83208492Y-76069871D01*
X83208482Y-76069874D01*
X83071911Y-76126443D01*
X83071898Y-76126450D01*
X82948984Y-76208579D01*
X82948980Y-76208582D01*
X82865081Y-76292482D01*
X82803758Y-76325967D01*
X82734066Y-76320983D01*
X82689719Y-76292482D01*
X82605819Y-76208582D01*
X82605815Y-76208579D01*
X82482901Y-76126450D01*
X82482888Y-76126443D01*
X82346317Y-76069874D01*
X82346307Y-76069871D01*
X82201320Y-76041031D01*
X82201318Y-76041031D01*
X82053482Y-76041031D01*
X82053480Y-76041031D01*
X81908492Y-76069871D01*
X81908482Y-76069874D01*
X81771911Y-76126443D01*
X81771898Y-76126450D01*
X81648984Y-76208579D01*
X81648980Y-76208582D01*
X81565081Y-76292482D01*
X81503758Y-76325967D01*
X81434066Y-76320983D01*
X81389719Y-76292482D01*
X81305819Y-76208582D01*
X81305815Y-76208579D01*
X81182901Y-76126450D01*
X81182888Y-76126443D01*
X81046317Y-76069874D01*
X81046307Y-76069871D01*
X80901320Y-76041031D01*
X80901318Y-76041031D01*
X80753482Y-76041031D01*
X80753479Y-76041031D01*
X80648941Y-76061825D01*
X80579350Y-76055598D01*
X80524172Y-76012735D01*
X80500928Y-75946845D01*
X80500762Y-75941923D01*
X80387891Y-67662605D01*
X80406659Y-67595305D01*
X80458835Y-67548834D01*
X80511336Y-67536917D01*
X103716621Y-67435996D01*
X103783743Y-67455389D01*
G37*
%TD.AperFunction*%
%TD*%
%TA.AperFunction,Conductor*%
%TO.N,GND*%
G36*
X76393672Y-69069937D02*
G01*
X76439664Y-69122535D01*
X76451097Y-69173451D01*
X76549872Y-80285800D01*
X76549872Y-80285799D01*
X76549873Y-80285801D01*
X76549873Y-80285800D01*
X76622479Y-88454019D01*
X76550538Y-88525961D01*
X76550535Y-88525965D01*
X76451990Y-88673446D01*
X76451983Y-88673459D01*
X76384106Y-88837332D01*
X76384103Y-88837341D01*
X76349500Y-89011304D01*
X76349500Y-91551332D01*
X70250500Y-91578379D01*
X70250500Y-89411306D01*
X70250499Y-89411304D01*
X70215896Y-89237341D01*
X70215893Y-89237332D01*
X70148016Y-89073459D01*
X70148009Y-89073446D01*
X70049464Y-88925965D01*
X70049461Y-88925961D01*
X69924038Y-88800538D01*
X69924034Y-88800535D01*
X69776553Y-88701990D01*
X69776540Y-88701983D01*
X69612667Y-88634106D01*
X69612658Y-88634103D01*
X69438694Y-88599500D01*
X69438691Y-88599500D01*
X69261309Y-88599500D01*
X69261306Y-88599500D01*
X69087341Y-88634103D01*
X69087332Y-88634106D01*
X68923459Y-88701983D01*
X68923446Y-88701990D01*
X68775965Y-88800535D01*
X68775961Y-88800538D01*
X68650538Y-88925961D01*
X68650535Y-88925965D01*
X68551990Y-89073446D01*
X68551983Y-89073459D01*
X68484106Y-89237332D01*
X68484103Y-89237341D01*
X68449500Y-89411304D01*
X68449500Y-91586365D01*
X54100000Y-91650000D01*
X54110189Y-89357486D01*
X60349500Y-89357486D01*
X60349500Y-89542513D01*
X60378445Y-89725265D01*
X60435619Y-89901232D01*
X60435620Y-89901235D01*
X60519622Y-90066096D01*
X60628379Y-90215787D01*
X60759213Y-90346621D01*
X60908904Y-90455378D01*
X60989763Y-90496577D01*
X61073764Y-90539379D01*
X61073767Y-90539380D01*
X61161750Y-90567967D01*
X61249736Y-90596555D01*
X61432486Y-90625500D01*
X61432487Y-90625500D01*
X61617513Y-90625500D01*
X61617514Y-90625500D01*
X61800264Y-90596555D01*
X61976235Y-90539379D01*
X62141096Y-90455378D01*
X62290787Y-90346621D01*
X62421621Y-90215787D01*
X62530378Y-90066096D01*
X62614379Y-89901235D01*
X62671555Y-89725264D01*
X62700500Y-89542514D01*
X62700500Y-89357486D01*
X62671555Y-89174736D01*
X62614379Y-88998765D01*
X62614379Y-88998764D01*
X62532129Y-88837341D01*
X62530378Y-88833904D01*
X62446159Y-88717987D01*
X62422680Y-88652183D01*
X62438505Y-88584129D01*
X62472167Y-88545836D01*
X62557190Y-88482186D01*
X62643350Y-88367093D01*
X62643354Y-88367086D01*
X62693596Y-88232379D01*
X62693598Y-88232372D01*
X62699999Y-88172844D01*
X62700000Y-88172827D01*
X62700000Y-87700000D01*
X61840686Y-87700000D01*
X61845080Y-87695606D01*
X61897741Y-87604394D01*
X61925000Y-87502661D01*
X61925000Y-87397339D01*
X61897741Y-87295606D01*
X61845080Y-87204394D01*
X61840686Y-87200000D01*
X62700000Y-87200000D01*
X62700000Y-86727172D01*
X62699999Y-86727155D01*
X62693598Y-86667627D01*
X62693596Y-86667620D01*
X62643354Y-86532913D01*
X62643350Y-86532906D01*
X62557190Y-86417812D01*
X62557187Y-86417809D01*
X62442093Y-86331649D01*
X62442086Y-86331645D01*
X62396975Y-86314820D01*
X62307379Y-86281403D01*
X62307372Y-86281401D01*
X62247844Y-86275000D01*
X61775000Y-86275000D01*
X61775000Y-87134314D01*
X61770606Y-87129920D01*
X61679394Y-87077259D01*
X61577661Y-87050000D01*
X61472339Y-87050000D01*
X61370606Y-87077259D01*
X61279394Y-87129920D01*
X61275000Y-87134314D01*
X61275000Y-86275000D01*
X60802155Y-86275000D01*
X60742627Y-86281401D01*
X60742620Y-86281403D01*
X60607913Y-86331645D01*
X60607906Y-86331649D01*
X60492812Y-86417809D01*
X60492809Y-86417812D01*
X60406649Y-86532906D01*
X60406645Y-86532913D01*
X60356403Y-86667620D01*
X60356401Y-86667627D01*
X60350000Y-86727155D01*
X60350000Y-87200000D01*
X61209314Y-87200000D01*
X61204920Y-87204394D01*
X61152259Y-87295606D01*
X61125000Y-87397339D01*
X61125000Y-87502661D01*
X61152259Y-87604394D01*
X61204920Y-87695606D01*
X61209314Y-87700000D01*
X60350000Y-87700000D01*
X60350000Y-88172844D01*
X60356401Y-88232372D01*
X60356403Y-88232379D01*
X60406645Y-88367086D01*
X60406649Y-88367093D01*
X60492809Y-88482186D01*
X60577832Y-88545835D01*
X60619703Y-88601769D01*
X60624687Y-88671461D01*
X60603839Y-88717987D01*
X60519624Y-88833900D01*
X60435620Y-88998764D01*
X60435619Y-88998767D01*
X60378445Y-89174734D01*
X60349500Y-89357486D01*
X54110189Y-89357486D01*
X54129323Y-85052155D01*
X68800000Y-85052155D01*
X68800000Y-85750000D01*
X69824722Y-85750000D01*
X69780667Y-85826306D01*
X69750000Y-85940756D01*
X69750000Y-86059244D01*
X69780667Y-86173694D01*
X69824722Y-86250000D01*
X68800000Y-86250000D01*
X68800000Y-86947844D01*
X68806401Y-87007372D01*
X68806403Y-87007379D01*
X68856645Y-87142086D01*
X68856649Y-87142093D01*
X68942809Y-87257187D01*
X68942812Y-87257190D01*
X69057906Y-87343350D01*
X69057913Y-87343354D01*
X69192620Y-87393596D01*
X69192627Y-87393598D01*
X69252155Y-87399999D01*
X69252172Y-87400000D01*
X69950000Y-87400000D01*
X69950000Y-86375277D01*
X70026306Y-86419333D01*
X70140756Y-86450000D01*
X70259244Y-86450000D01*
X70373694Y-86419333D01*
X70450000Y-86375277D01*
X70450000Y-87400000D01*
X71147828Y-87400000D01*
X71147844Y-87399999D01*
X71207372Y-87393598D01*
X71207379Y-87393596D01*
X71342086Y-87343354D01*
X71342093Y-87343350D01*
X71457187Y-87257190D01*
X71457190Y-87257187D01*
X71543350Y-87142093D01*
X71543354Y-87142086D01*
X71573213Y-87062031D01*
X71615084Y-87006097D01*
X71680548Y-86981680D01*
X71748821Y-86996531D01*
X71777076Y-87017683D01*
X71827636Y-87068243D01*
X71827641Y-87068247D01*
X71983192Y-87181260D01*
X72005978Y-87197815D01*
X72122501Y-87257187D01*
X72202393Y-87297895D01*
X72202396Y-87297896D01*
X72307221Y-87331955D01*
X72412049Y-87366015D01*
X72629778Y-87400500D01*
X72629779Y-87400500D01*
X72850221Y-87400500D01*
X72850222Y-87400500D01*
X73067951Y-87366015D01*
X73277606Y-87297895D01*
X73474022Y-87197815D01*
X73652365Y-87068242D01*
X73808242Y-86912365D01*
X73937815Y-86734022D01*
X74037895Y-86537606D01*
X74106015Y-86327951D01*
X74140500Y-86110222D01*
X74140500Y-85889778D01*
X74106015Y-85672049D01*
X74071955Y-85567221D01*
X74037896Y-85462396D01*
X74037895Y-85462393D01*
X74003237Y-85394375D01*
X73937815Y-85265978D01*
X73921260Y-85243192D01*
X73808247Y-85087641D01*
X73808243Y-85087636D01*
X73652363Y-84931756D01*
X73652358Y-84931752D01*
X73474025Y-84802187D01*
X73474024Y-84802186D01*
X73474022Y-84802185D01*
X73411096Y-84770122D01*
X73277606Y-84702104D01*
X73277603Y-84702103D01*
X73067952Y-84633985D01*
X72959086Y-84616742D01*
X72850222Y-84599500D01*
X72629778Y-84599500D01*
X72557201Y-84610995D01*
X72412047Y-84633985D01*
X72202396Y-84702103D01*
X72202393Y-84702104D01*
X72005974Y-84802187D01*
X71827641Y-84931752D01*
X71827636Y-84931756D01*
X71777075Y-84982317D01*
X71715752Y-85015801D01*
X71646060Y-85010816D01*
X71590127Y-84968945D01*
X71573213Y-84937968D01*
X71543354Y-84857913D01*
X71543350Y-84857906D01*
X71457190Y-84742812D01*
X71457187Y-84742809D01*
X71342093Y-84656649D01*
X71342086Y-84656645D01*
X71207379Y-84606403D01*
X71207372Y-84606401D01*
X71147844Y-84600000D01*
X70450000Y-84600000D01*
X70450000Y-85624722D01*
X70373694Y-85580667D01*
X70259244Y-85550000D01*
X70140756Y-85550000D01*
X70026306Y-85580667D01*
X69950000Y-85624722D01*
X69950000Y-84600000D01*
X69252155Y-84600000D01*
X69192627Y-84606401D01*
X69192620Y-84606403D01*
X69057913Y-84656645D01*
X69057906Y-84656649D01*
X68942812Y-84742809D01*
X68942809Y-84742812D01*
X68856649Y-84857906D01*
X68856645Y-84857913D01*
X68806403Y-84992620D01*
X68806401Y-84992627D01*
X68800000Y-85052155D01*
X54129323Y-85052155D01*
X54144860Y-81556307D01*
X55299499Y-81556307D01*
X55331222Y-81715783D01*
X55331225Y-81715793D01*
X55393450Y-81866019D01*
X55393452Y-81866023D01*
X55483788Y-82001220D01*
X55483794Y-82001228D01*
X55598771Y-82116205D01*
X55598779Y-82116211D01*
X55733976Y-82206547D01*
X55733980Y-82206549D01*
X55884206Y-82268774D01*
X55884211Y-82268776D01*
X55884215Y-82268776D01*
X55884216Y-82268777D01*
X56043692Y-82300500D01*
X56043695Y-82300500D01*
X56206307Y-82300500D01*
X56313598Y-82279157D01*
X56365789Y-82268776D01*
X56516021Y-82206548D01*
X56516023Y-82206547D01*
X56583169Y-82161680D01*
X56651225Y-82116208D01*
X56766208Y-82001225D01*
X56856548Y-81866021D01*
X56918776Y-81715789D01*
X56950500Y-81556305D01*
X56950500Y-81393695D01*
X56950500Y-81393692D01*
X56918777Y-81234216D01*
X56918776Y-81234215D01*
X56918776Y-81234211D01*
X56918774Y-81234206D01*
X56856549Y-81083980D01*
X56856547Y-81083976D01*
X56766211Y-80948779D01*
X56766205Y-80948771D01*
X56651228Y-80833794D01*
X56651220Y-80833788D01*
X56516023Y-80743452D01*
X56516019Y-80743450D01*
X56365793Y-80681225D01*
X56365783Y-80681222D01*
X56206307Y-80649500D01*
X56206305Y-80649500D01*
X56043695Y-80649500D01*
X56043693Y-80649500D01*
X55884216Y-80681222D01*
X55884206Y-80681225D01*
X55733980Y-80743450D01*
X55733976Y-80743452D01*
X55598779Y-80833788D01*
X55598771Y-80833794D01*
X55483794Y-80948771D01*
X55483788Y-80948779D01*
X55393452Y-81083976D01*
X55393450Y-81083980D01*
X55331225Y-81234206D01*
X55331222Y-81234216D01*
X55299500Y-81393692D01*
X55299500Y-81393695D01*
X55299500Y-81556305D01*
X55299500Y-81556307D01*
X55299499Y-81556307D01*
X54144860Y-81556307D01*
X54199453Y-69272892D01*
X54219436Y-69205944D01*
X54272442Y-69160424D01*
X54322891Y-69149447D01*
X67767473Y-69089022D01*
X67834598Y-69108405D01*
X67866402Y-69137532D01*
X67875545Y-69149447D01*
X67881081Y-69156661D01*
X67997312Y-69272892D01*
X68043338Y-69318918D01*
X68225382Y-69458607D01*
X68225385Y-69458608D01*
X68225388Y-69458611D01*
X68424112Y-69573344D01*
X68424117Y-69573346D01*
X68424123Y-69573349D01*
X68515480Y-69611190D01*
X68636113Y-69661158D01*
X68857762Y-69720548D01*
X69085266Y-69750500D01*
X69085273Y-69750500D01*
X69314727Y-69750500D01*
X69314734Y-69750500D01*
X69542238Y-69720548D01*
X69763887Y-69661158D01*
X69975888Y-69573344D01*
X70174612Y-69458611D01*
X70356661Y-69318919D01*
X70356665Y-69318914D01*
X70356670Y-69318911D01*
X70518914Y-69156666D01*
X70518919Y-69156661D01*
X70543507Y-69124617D01*
X70599929Y-69083416D01*
X70641315Y-69076106D01*
X76326547Y-69050554D01*
X76393672Y-69069937D01*
G37*
%TD.AperFunction*%
%TD*%
%TA.AperFunction,Conductor*%
%TO.N,GNDPWR*%
G36*
X150470960Y-80111518D02*
G01*
X150517206Y-80163892D01*
X150528303Y-80204321D01*
X151293401Y-87985600D01*
X154367436Y-87865494D01*
X154435191Y-87882546D01*
X154482972Y-87933523D01*
X154495608Y-88002241D01*
X154494748Y-88008797D01*
X154464500Y-88199778D01*
X154464500Y-88420222D01*
X154475564Y-88490075D01*
X154498985Y-88637952D01*
X154567103Y-88847603D01*
X154567104Y-88847606D01*
X154610303Y-88932386D01*
X154662129Y-89034100D01*
X154667187Y-89044025D01*
X154796752Y-89222358D01*
X154796756Y-89222363D01*
X154952636Y-89378243D01*
X154952641Y-89378247D01*
X155102531Y-89487147D01*
X155130978Y-89507815D01*
X155259375Y-89573237D01*
X155327393Y-89607895D01*
X155327396Y-89607896D01*
X155432221Y-89641955D01*
X155537049Y-89676015D01*
X155754778Y-89710500D01*
X155754779Y-89710500D01*
X155975221Y-89710500D01*
X155975222Y-89710500D01*
X156192951Y-89676015D01*
X156402606Y-89607895D01*
X156599022Y-89507815D01*
X156777365Y-89378242D01*
X156933242Y-89222365D01*
X157011410Y-89114776D01*
X157034682Y-89082745D01*
X157090011Y-89040079D01*
X157159625Y-89034100D01*
X157221420Y-89066705D01*
X157235318Y-89082745D01*
X157336752Y-89222358D01*
X157336756Y-89222363D01*
X157492636Y-89378243D01*
X157492641Y-89378247D01*
X157642531Y-89487147D01*
X157670978Y-89507815D01*
X157799375Y-89573237D01*
X157867393Y-89607895D01*
X157867396Y-89607896D01*
X157972221Y-89641955D01*
X158077049Y-89676015D01*
X158294778Y-89710500D01*
X158294779Y-89710500D01*
X158515221Y-89710500D01*
X158515222Y-89710500D01*
X158732951Y-89676015D01*
X158942606Y-89607895D01*
X159139022Y-89507815D01*
X159317365Y-89378242D01*
X159473242Y-89222365D01*
X159551410Y-89114776D01*
X159574682Y-89082745D01*
X159630011Y-89040079D01*
X159699625Y-89034100D01*
X159761420Y-89066705D01*
X159775318Y-89082745D01*
X159876752Y-89222358D01*
X159876756Y-89222363D01*
X160032636Y-89378243D01*
X160032641Y-89378247D01*
X160182531Y-89487147D01*
X160210978Y-89507815D01*
X160339375Y-89573237D01*
X160407393Y-89607895D01*
X160407396Y-89607896D01*
X160512221Y-89641955D01*
X160617049Y-89676015D01*
X160834778Y-89710500D01*
X160834779Y-89710500D01*
X161055221Y-89710500D01*
X161055222Y-89710500D01*
X161272951Y-89676015D01*
X161482606Y-89607895D01*
X161679022Y-89507815D01*
X161857365Y-89378242D01*
X162013242Y-89222365D01*
X162091410Y-89114776D01*
X162114682Y-89082745D01*
X162170011Y-89040079D01*
X162239625Y-89034100D01*
X162301420Y-89066705D01*
X162315318Y-89082745D01*
X162416752Y-89222358D01*
X162416756Y-89222363D01*
X162572636Y-89378243D01*
X162572641Y-89378247D01*
X162722531Y-89487147D01*
X162750978Y-89507815D01*
X162879375Y-89573237D01*
X162947393Y-89607895D01*
X162947396Y-89607896D01*
X163052221Y-89641955D01*
X163157049Y-89676015D01*
X163374778Y-89710500D01*
X163374779Y-89710500D01*
X163595221Y-89710500D01*
X163595222Y-89710500D01*
X163812951Y-89676015D01*
X164022606Y-89607895D01*
X164219022Y-89507815D01*
X164397365Y-89378242D01*
X164553242Y-89222365D01*
X164682815Y-89044022D01*
X164782895Y-88847606D01*
X164851015Y-88637951D01*
X164885500Y-88420222D01*
X164885500Y-88199778D01*
X164851015Y-87982049D01*
X164826405Y-87906309D01*
X164824411Y-87836469D01*
X164860491Y-87776636D01*
X164923192Y-87745808D01*
X164943195Y-87743997D01*
X170588348Y-87692346D01*
X170655565Y-87711417D01*
X170701801Y-87763800D01*
X170713483Y-87816456D01*
X170662915Y-142228098D01*
X170643168Y-142295119D01*
X170590322Y-142340825D01*
X170538899Y-142351983D01*
X91789564Y-142341664D01*
X91722527Y-142321971D01*
X91676779Y-142269161D01*
X91665585Y-142216506D01*
X91793689Y-128530756D01*
X91783063Y-128433663D01*
X91780701Y-128412083D01*
X91780697Y-128412064D01*
X91767591Y-128355419D01*
X91767589Y-128355410D01*
X91727129Y-128243085D01*
X91645070Y-128124899D01*
X91597459Y-128073762D01*
X91597455Y-128073758D01*
X91550992Y-128036317D01*
X91485423Y-127983480D01*
X91468630Y-127976525D01*
X91454659Y-127970738D01*
X91400256Y-127926899D01*
X91378190Y-127860605D01*
X91378114Y-127855558D01*
X91385548Y-126516462D01*
X91405603Y-126449536D01*
X91443485Y-126412216D01*
X91567273Y-126334289D01*
X91567274Y-126334287D01*
X91567282Y-126334283D01*
X91620512Y-126289024D01*
X91715743Y-126181180D01*
X91776737Y-126050867D01*
X91797049Y-125984015D01*
X91797050Y-125984009D01*
X91818859Y-125841791D01*
X91894576Y-117752653D01*
X139816500Y-117752653D01*
X139816500Y-117910346D01*
X139847261Y-118064989D01*
X139847264Y-118065001D01*
X139907602Y-118210672D01*
X139907609Y-118210685D01*
X139995210Y-118341788D01*
X139995213Y-118341792D01*
X140106707Y-118453286D01*
X140106711Y-118453289D01*
X140237814Y-118540890D01*
X140237827Y-118540897D01*
X140383498Y-118601235D01*
X140383503Y-118601237D01*
X140538153Y-118631999D01*
X140538156Y-118632000D01*
X140538158Y-118632000D01*
X140695844Y-118632000D01*
X140695845Y-118631999D01*
X140850497Y-118601237D01*
X140996179Y-118540894D01*
X141127289Y-118453289D01*
X141238789Y-118341789D01*
X141326394Y-118210679D01*
X141386737Y-118064997D01*
X141417500Y-117910342D01*
X141417500Y-117752658D01*
X141417500Y-117752655D01*
X141417499Y-117752653D01*
X141396010Y-117644622D01*
X141386737Y-117598003D01*
X141334632Y-117472209D01*
X141326397Y-117452327D01*
X141326390Y-117452314D01*
X141238789Y-117321211D01*
X141238786Y-117321207D01*
X141127292Y-117209713D01*
X141127288Y-117209710D01*
X140996185Y-117122109D01*
X140996172Y-117122102D01*
X140850501Y-117061764D01*
X140850489Y-117061761D01*
X140695845Y-117031000D01*
X140695842Y-117031000D01*
X140538158Y-117031000D01*
X140538155Y-117031000D01*
X140383510Y-117061761D01*
X140383498Y-117061764D01*
X140237827Y-117122102D01*
X140237814Y-117122109D01*
X140106711Y-117209710D01*
X140106707Y-117209713D01*
X139995213Y-117321207D01*
X139995210Y-117321211D01*
X139907609Y-117452314D01*
X139907602Y-117452327D01*
X139847264Y-117597998D01*
X139847261Y-117598010D01*
X139816500Y-117752653D01*
X91894576Y-117752653D01*
X91937049Y-113215150D01*
X137441500Y-113215150D01*
X137441500Y-113372843D01*
X137472261Y-113527486D01*
X137472264Y-113527498D01*
X137521575Y-113646546D01*
X137529044Y-113716015D01*
X137521575Y-113741450D01*
X137472264Y-113860498D01*
X137472261Y-113860510D01*
X137441500Y-114015153D01*
X137441500Y-114172846D01*
X137472261Y-114327489D01*
X137472264Y-114327501D01*
X137532602Y-114473172D01*
X137532609Y-114473185D01*
X137620210Y-114604288D01*
X137620213Y-114604292D01*
X137731707Y-114715786D01*
X137731711Y-114715789D01*
X137862814Y-114803390D01*
X137862827Y-114803397D01*
X138008498Y-114863735D01*
X138008503Y-114863737D01*
X138163153Y-114894499D01*
X138163156Y-114894500D01*
X138163158Y-114894500D01*
X138320844Y-114894500D01*
X138320845Y-114894499D01*
X138475497Y-114863737D01*
X138621179Y-114803394D01*
X138752289Y-114715789D01*
X138863789Y-114604289D01*
X138951394Y-114473179D01*
X139011737Y-114327497D01*
X139042500Y-114172842D01*
X139042500Y-114015158D01*
X139042500Y-114015155D01*
X139042499Y-114015153D01*
X139031039Y-113957542D01*
X139011737Y-113860503D01*
X138962423Y-113741449D01*
X138954955Y-113671981D01*
X138962424Y-113646546D01*
X139011737Y-113527494D01*
X139042500Y-113372839D01*
X139042500Y-113215155D01*
X139042500Y-113215153D01*
X140241500Y-113215153D01*
X140241500Y-113372846D01*
X140272261Y-113527489D01*
X140272264Y-113527501D01*
X140332602Y-113673172D01*
X140332609Y-113673185D01*
X140420210Y-113804288D01*
X140420213Y-113804292D01*
X140534382Y-113918461D01*
X140567867Y-113979784D01*
X140568318Y-114030333D01*
X140541500Y-114165153D01*
X140541500Y-114322846D01*
X140572261Y-114477489D01*
X140572264Y-114477501D01*
X140632602Y-114623172D01*
X140632609Y-114623185D01*
X140720210Y-114754288D01*
X140720213Y-114754292D01*
X140831707Y-114865786D01*
X140831711Y-114865789D01*
X140962814Y-114953390D01*
X140962827Y-114953397D01*
X141108498Y-115013735D01*
X141108503Y-115013737D01*
X141263153Y-115044499D01*
X141263156Y-115044500D01*
X141263158Y-115044500D01*
X141420844Y-115044500D01*
X141420845Y-115044499D01*
X141575497Y-115013737D01*
X141721179Y-114953394D01*
X141852289Y-114865789D01*
X141963789Y-114754289D01*
X142051394Y-114623179D01*
X142111737Y-114477497D01*
X142142500Y-114322842D01*
X142142500Y-114165158D01*
X142142500Y-114165155D01*
X142142499Y-114165153D01*
X142131914Y-114111941D01*
X142111737Y-114010503D01*
X142087897Y-113952947D01*
X142051397Y-113864827D01*
X142051390Y-113864814D01*
X141963789Y-113733711D01*
X141963786Y-113733707D01*
X141849617Y-113619538D01*
X141816132Y-113558215D01*
X141815681Y-113507669D01*
X141833995Y-113415596D01*
X141842500Y-113372844D01*
X141842500Y-113215155D01*
X141842499Y-113215153D01*
X141811738Y-113060510D01*
X141811737Y-113060503D01*
X141790617Y-113009514D01*
X141751397Y-112914827D01*
X141751390Y-112914814D01*
X141663789Y-112783711D01*
X141663786Y-112783707D01*
X141552292Y-112672213D01*
X141552288Y-112672210D01*
X141421185Y-112584609D01*
X141421172Y-112584602D01*
X141275501Y-112524264D01*
X141275489Y-112524261D01*
X141120845Y-112493500D01*
X141120842Y-112493500D01*
X140963158Y-112493500D01*
X140963155Y-112493500D01*
X140808510Y-112524261D01*
X140808498Y-112524264D01*
X140662827Y-112584602D01*
X140662814Y-112584609D01*
X140531711Y-112672210D01*
X140531707Y-112672213D01*
X140420213Y-112783707D01*
X140420210Y-112783711D01*
X140332609Y-112914814D01*
X140332602Y-112914827D01*
X140272264Y-113060498D01*
X140272261Y-113060510D01*
X140241500Y-113215153D01*
X139042500Y-113215153D01*
X139042500Y-113215152D01*
X139042499Y-113215150D01*
X139025477Y-113129574D01*
X139011737Y-113060500D01*
X138951398Y-112914827D01*
X138951397Y-112914824D01*
X138951390Y-112914811D01*
X138863789Y-112783708D01*
X138863786Y-112783704D01*
X138752292Y-112672210D01*
X138752288Y-112672207D01*
X138621185Y-112584606D01*
X138621172Y-112584599D01*
X138475501Y-112524261D01*
X138475489Y-112524258D01*
X138320845Y-112493497D01*
X138320842Y-112493497D01*
X138163158Y-112493497D01*
X138163155Y-112493497D01*
X138008510Y-112524258D01*
X138008498Y-112524261D01*
X137862827Y-112584599D01*
X137862814Y-112584606D01*
X137731711Y-112672207D01*
X137731707Y-112672210D01*
X137620213Y-112783704D01*
X137620210Y-112783708D01*
X137532609Y-112914811D01*
X137532602Y-112914824D01*
X137472264Y-113060495D01*
X137472261Y-113060507D01*
X137441500Y-113215150D01*
X91937049Y-113215150D01*
X91947915Y-112054289D01*
X91953430Y-111465153D01*
X157791500Y-111465153D01*
X157791500Y-111622846D01*
X157822261Y-111777489D01*
X157822264Y-111777501D01*
X157882602Y-111923172D01*
X157882609Y-111923185D01*
X157970210Y-112054288D01*
X157970213Y-112054292D01*
X158081707Y-112165786D01*
X158081711Y-112165789D01*
X158212814Y-112253390D01*
X158212827Y-112253397D01*
X158358498Y-112313735D01*
X158358503Y-112313737D01*
X158513153Y-112344499D01*
X158513156Y-112344500D01*
X158513158Y-112344500D01*
X158670844Y-112344500D01*
X158670845Y-112344499D01*
X158825497Y-112313737D01*
X158971179Y-112253394D01*
X159102289Y-112165789D01*
X159213789Y-112054289D01*
X159301394Y-111923179D01*
X159361737Y-111777497D01*
X159392500Y-111622842D01*
X159392500Y-111465158D01*
X159392500Y-111465155D01*
X159392499Y-111465153D01*
X159375862Y-111381514D01*
X159361737Y-111310503D01*
X159361735Y-111310498D01*
X159301397Y-111164827D01*
X159301390Y-111164814D01*
X159213789Y-111033711D01*
X159213786Y-111033707D01*
X159102292Y-110922213D01*
X159102288Y-110922210D01*
X158971185Y-110834609D01*
X158971172Y-110834602D01*
X158825501Y-110774264D01*
X158825489Y-110774261D01*
X158670845Y-110743500D01*
X158670842Y-110743500D01*
X158513158Y-110743500D01*
X158513155Y-110743500D01*
X158358510Y-110774261D01*
X158358498Y-110774264D01*
X158212827Y-110834602D01*
X158212814Y-110834609D01*
X158081711Y-110922210D01*
X158081707Y-110922213D01*
X157970213Y-111033707D01*
X157970210Y-111033711D01*
X157882609Y-111164814D01*
X157882602Y-111164827D01*
X157822264Y-111310498D01*
X157822261Y-111310510D01*
X157791500Y-111465153D01*
X91953430Y-111465153D01*
X91953498Y-111457905D01*
X91979772Y-108650925D01*
X91982915Y-108315153D01*
X157591500Y-108315153D01*
X157591500Y-108472846D01*
X157622261Y-108627489D01*
X157622264Y-108627501D01*
X157682602Y-108773172D01*
X157682609Y-108773185D01*
X157770210Y-108904288D01*
X157770213Y-108904292D01*
X157881707Y-109015786D01*
X157881711Y-109015789D01*
X158012814Y-109103390D01*
X158012827Y-109103397D01*
X158158498Y-109163735D01*
X158158503Y-109163737D01*
X158259326Y-109183792D01*
X158313153Y-109194499D01*
X158313156Y-109194500D01*
X158313158Y-109194500D01*
X158470844Y-109194500D01*
X158470845Y-109194499D01*
X158625497Y-109163737D01*
X158771179Y-109103394D01*
X158902289Y-109015789D01*
X159013789Y-108904289D01*
X159101394Y-108773179D01*
X159161737Y-108627497D01*
X159192500Y-108472842D01*
X159192500Y-108315158D01*
X159192500Y-108315155D01*
X159192499Y-108315153D01*
X159170838Y-108206256D01*
X159161737Y-108160503D01*
X159161735Y-108160498D01*
X159101397Y-108014827D01*
X159101390Y-108014814D01*
X159013789Y-107883711D01*
X159013786Y-107883707D01*
X158902292Y-107772213D01*
X158902288Y-107772210D01*
X158771185Y-107684609D01*
X158771172Y-107684602D01*
X158625501Y-107624264D01*
X158625489Y-107624261D01*
X158470845Y-107593500D01*
X158470842Y-107593500D01*
X158313158Y-107593500D01*
X158313155Y-107593500D01*
X158158510Y-107624261D01*
X158158498Y-107624264D01*
X158012827Y-107684602D01*
X158012814Y-107684609D01*
X157881711Y-107772210D01*
X157881707Y-107772213D01*
X157770213Y-107883707D01*
X157770210Y-107883711D01*
X157682609Y-108014814D01*
X157682602Y-108014827D01*
X157622264Y-108160498D01*
X157622261Y-108160510D01*
X157591500Y-108315153D01*
X91982915Y-108315153D01*
X92002677Y-106203894D01*
X92022989Y-106137044D01*
X92049267Y-106108183D01*
X93886118Y-104640604D01*
X93905536Y-104627875D01*
X96885650Y-103051894D01*
X96954114Y-103037956D01*
X97019246Y-103063245D01*
X97054102Y-103105216D01*
X97114626Y-103224000D01*
X97117187Y-103229025D01*
X97246752Y-103407358D01*
X97246756Y-103407363D01*
X97402636Y-103563243D01*
X97402641Y-103563247D01*
X97542254Y-103664682D01*
X97584920Y-103720012D01*
X97590899Y-103789625D01*
X97558293Y-103851420D01*
X97542254Y-103865318D01*
X97402641Y-103966752D01*
X97402636Y-103966756D01*
X97246756Y-104122636D01*
X97246752Y-104122641D01*
X97117187Y-104300974D01*
X97017104Y-104497393D01*
X97017103Y-104497396D01*
X96948985Y-104707047D01*
X96932273Y-104812566D01*
X96914500Y-104924778D01*
X96914500Y-105145222D01*
X96917898Y-105166674D01*
X96948985Y-105362952D01*
X97017103Y-105572603D01*
X97017104Y-105572606D01*
X97070313Y-105677032D01*
X97115216Y-105765158D01*
X97117187Y-105769025D01*
X97246752Y-105947358D01*
X97246756Y-105947363D01*
X97402636Y-106103243D01*
X97402641Y-106103247D01*
X97541174Y-106203896D01*
X97580978Y-106232815D01*
X97686801Y-106286735D01*
X97777393Y-106332895D01*
X97777396Y-106332896D01*
X97870231Y-106363059D01*
X97987049Y-106401015D01*
X98204778Y-106435500D01*
X98204779Y-106435500D01*
X98425221Y-106435500D01*
X98425222Y-106435500D01*
X98642951Y-106401015D01*
X98852606Y-106332895D01*
X99049022Y-106232815D01*
X99227365Y-106103242D01*
X99383242Y-105947365D01*
X99512815Y-105769022D01*
X99612895Y-105572606D01*
X99681015Y-105362951D01*
X99715500Y-105145222D01*
X99715500Y-104924778D01*
X99681015Y-104707049D01*
X99646955Y-104602221D01*
X99612896Y-104497396D01*
X99612895Y-104497393D01*
X99540229Y-104354781D01*
X99512815Y-104300978D01*
X99479410Y-104255000D01*
X99383247Y-104122641D01*
X99383243Y-104122636D01*
X99227363Y-103966756D01*
X99227358Y-103966752D01*
X99087745Y-103865318D01*
X99045079Y-103809989D01*
X99039100Y-103740375D01*
X99071705Y-103678580D01*
X99087745Y-103664682D01*
X99227358Y-103563247D01*
X99227356Y-103563247D01*
X99227365Y-103563242D01*
X99383242Y-103407365D01*
X99512815Y-103229022D01*
X99612895Y-103032606D01*
X99681015Y-102822951D01*
X99715500Y-102605222D01*
X99715500Y-102384778D01*
X99681015Y-102167049D01*
X99644752Y-102055441D01*
X99612896Y-101957396D01*
X99612895Y-101957393D01*
X99528760Y-101792271D01*
X99515864Y-101723602D01*
X99542140Y-101658862D01*
X99581274Y-101626362D01*
X104643819Y-98949125D01*
X104712278Y-98935188D01*
X104777410Y-98960477D01*
X104818531Y-99016965D01*
X104822584Y-99086717D01*
X104802100Y-99131627D01*
X104737186Y-99220975D01*
X104637104Y-99417393D01*
X104637103Y-99417396D01*
X104568985Y-99627047D01*
X104543054Y-99790769D01*
X104534500Y-99844778D01*
X104534500Y-100065222D01*
X104541625Y-100110206D01*
X104568985Y-100282952D01*
X104637103Y-100492603D01*
X104637104Y-100492606D01*
X104705122Y-100626096D01*
X104736956Y-100688573D01*
X104737187Y-100689025D01*
X104866752Y-100867358D01*
X104866756Y-100867363D01*
X105022636Y-101023243D01*
X105022641Y-101023247D01*
X105162254Y-101124682D01*
X105204920Y-101180012D01*
X105210899Y-101249625D01*
X105178293Y-101311420D01*
X105162254Y-101325318D01*
X105022641Y-101426752D01*
X105022636Y-101426756D01*
X104866756Y-101582636D01*
X104866752Y-101582641D01*
X104737187Y-101760974D01*
X104637104Y-101957393D01*
X104637103Y-101957396D01*
X104568985Y-102167047D01*
X104534500Y-102384778D01*
X104534500Y-102605221D01*
X104568985Y-102822952D01*
X104637103Y-103032603D01*
X104637104Y-103032606D01*
X104674102Y-103105216D01*
X104734626Y-103224000D01*
X104737187Y-103229025D01*
X104866752Y-103407358D01*
X104866756Y-103407363D01*
X105022636Y-103563243D01*
X105022641Y-103563247D01*
X105162254Y-103664682D01*
X105204920Y-103720012D01*
X105210899Y-103789625D01*
X105178293Y-103851420D01*
X105162254Y-103865318D01*
X105022641Y-103966752D01*
X105022636Y-103966756D01*
X104866756Y-104122636D01*
X104866752Y-104122641D01*
X104737187Y-104300974D01*
X104637104Y-104497393D01*
X104637103Y-104497396D01*
X104568985Y-104707047D01*
X104552273Y-104812566D01*
X104534500Y-104924778D01*
X104534500Y-105145222D01*
X104537898Y-105166674D01*
X104568985Y-105362952D01*
X104637103Y-105572603D01*
X104637104Y-105572606D01*
X104690313Y-105677032D01*
X104735216Y-105765158D01*
X104737187Y-105769025D01*
X104866752Y-105947358D01*
X104866756Y-105947363D01*
X105022636Y-106103243D01*
X105022641Y-106103247D01*
X105161174Y-106203896D01*
X105200978Y-106232815D01*
X105306801Y-106286735D01*
X105397393Y-106332895D01*
X105397396Y-106332896D01*
X105490231Y-106363059D01*
X105607049Y-106401015D01*
X105824778Y-106435500D01*
X105824779Y-106435500D01*
X106045221Y-106435500D01*
X106045222Y-106435500D01*
X106262951Y-106401015D01*
X106472606Y-106332895D01*
X106669022Y-106232815D01*
X106847365Y-106103242D01*
X107003242Y-105947365D01*
X107132815Y-105769022D01*
X107232895Y-105572606D01*
X107301015Y-105362951D01*
X107335500Y-105145222D01*
X107335500Y-104924778D01*
X107335500Y-104924777D01*
X107310380Y-104766173D01*
X107308079Y-104751648D01*
X126841500Y-104751648D01*
X126841500Y-104956351D01*
X126873522Y-105158534D01*
X126936781Y-105353223D01*
X126993644Y-105464821D01*
X127029712Y-105535609D01*
X127029715Y-105535613D01*
X127150028Y-105701213D01*
X127294786Y-105845971D01*
X127400595Y-105922844D01*
X127460390Y-105966287D01*
X127576607Y-106025503D01*
X127642776Y-106059218D01*
X127642778Y-106059218D01*
X127642781Y-106059220D01*
X127747137Y-106093127D01*
X127837465Y-106122477D01*
X127910906Y-106134109D01*
X128039648Y-106154500D01*
X128039649Y-106154500D01*
X128244351Y-106154500D01*
X128244352Y-106154500D01*
X128446534Y-106122477D01*
X128641219Y-106059220D01*
X128823610Y-105966287D01*
X128955744Y-105870287D01*
X128989213Y-105845971D01*
X128989215Y-105845968D01*
X128989219Y-105845966D01*
X129070032Y-105765153D01*
X157641500Y-105765153D01*
X157641500Y-105922846D01*
X157672261Y-106077489D01*
X157672264Y-106077501D01*
X157732602Y-106223172D01*
X157732609Y-106223185D01*
X157820210Y-106354288D01*
X157820213Y-106354292D01*
X157931707Y-106465786D01*
X157931711Y-106465789D01*
X158062814Y-106553390D01*
X158062827Y-106553397D01*
X158115487Y-106575209D01*
X158208503Y-106613737D01*
X158359569Y-106643786D01*
X158363153Y-106644499D01*
X158363156Y-106644500D01*
X158363158Y-106644500D01*
X158520844Y-106644500D01*
X158520845Y-106644499D01*
X158675497Y-106613737D01*
X158821179Y-106553394D01*
X158952289Y-106465789D01*
X159063789Y-106354289D01*
X159151394Y-106223179D01*
X159211737Y-106077497D01*
X159242500Y-105922842D01*
X159242500Y-105765158D01*
X159242500Y-105765155D01*
X159224971Y-105677033D01*
X159224971Y-105677032D01*
X159221128Y-105657713D01*
X160516500Y-105657713D01*
X160516500Y-105870286D01*
X160549319Y-106077501D01*
X160549754Y-106080243D01*
X160589931Y-106203896D01*
X160615444Y-106282414D01*
X160711951Y-106471820D01*
X160836890Y-106643786D01*
X160987213Y-106794109D01*
X161159182Y-106919050D01*
X161167946Y-106923516D01*
X161218742Y-106971491D01*
X161235536Y-107039312D01*
X161212998Y-107105447D01*
X161167946Y-107144484D01*
X161159182Y-107148949D01*
X160987213Y-107273890D01*
X160836890Y-107424213D01*
X160711951Y-107596179D01*
X160615444Y-107785585D01*
X160549753Y-107987760D01*
X160522392Y-108160510D01*
X160516500Y-108197713D01*
X160516500Y-108410287D01*
X160549754Y-108620243D01*
X160611637Y-108810699D01*
X160615444Y-108822414D01*
X160711951Y-109011820D01*
X160836890Y-109183786D01*
X160950430Y-109297326D01*
X160983915Y-109358649D01*
X160978931Y-109428341D01*
X160937059Y-109484274D01*
X160906083Y-109501189D01*
X160774669Y-109550203D01*
X160774664Y-109550206D01*
X160659455Y-109636452D01*
X160659452Y-109636455D01*
X160573206Y-109751664D01*
X160573202Y-109751671D01*
X160522908Y-109886517D01*
X160516501Y-109946116D01*
X160516501Y-109946123D01*
X160516500Y-109946135D01*
X160516500Y-111741870D01*
X160516501Y-111741876D01*
X160522908Y-111801483D01*
X160573202Y-111936328D01*
X160573206Y-111936335D01*
X160659452Y-112051544D01*
X160659455Y-112051547D01*
X160774664Y-112137793D01*
X160774671Y-112137797D01*
X160909517Y-112188091D01*
X160909516Y-112188091D01*
X160916444Y-112188835D01*
X160969127Y-112194500D01*
X162764872Y-112194499D01*
X162824483Y-112188091D01*
X162959331Y-112137796D01*
X163074546Y-112051546D01*
X163160796Y-111936331D01*
X163211091Y-111801483D01*
X163217500Y-111741873D01*
X163217499Y-109946128D01*
X163211091Y-109886517D01*
X163201018Y-109859511D01*
X163160797Y-109751671D01*
X163160793Y-109751664D01*
X163074547Y-109636455D01*
X163074544Y-109636452D01*
X162959335Y-109550206D01*
X162959328Y-109550202D01*
X162827917Y-109501189D01*
X162771983Y-109459318D01*
X162747566Y-109393853D01*
X162762418Y-109325580D01*
X162783563Y-109297332D01*
X162897104Y-109183792D01*
X162927253Y-109142296D01*
X163022048Y-109011820D01*
X163022047Y-109011820D01*
X163022051Y-109011816D01*
X163118557Y-108822412D01*
X163184246Y-108620243D01*
X163217500Y-108410287D01*
X163217500Y-108197713D01*
X163184246Y-107987757D01*
X163118557Y-107785588D01*
X163022051Y-107596184D01*
X163022049Y-107596181D01*
X163022048Y-107596179D01*
X162897109Y-107424213D01*
X162746786Y-107273890D01*
X162574820Y-107148951D01*
X162574115Y-107148591D01*
X162566054Y-107144485D01*
X162515259Y-107096512D01*
X162498463Y-107028692D01*
X162520999Y-106962556D01*
X162566054Y-106923515D01*
X162574816Y-106919051D01*
X162629752Y-106879138D01*
X162746786Y-106794109D01*
X162746788Y-106794106D01*
X162746792Y-106794104D01*
X162897104Y-106643792D01*
X162897106Y-106643788D01*
X162897109Y-106643786D01*
X163022048Y-106471820D01*
X163022047Y-106471820D01*
X163022051Y-106471816D01*
X163118557Y-106282412D01*
X163184246Y-106080243D01*
X163217500Y-105870287D01*
X163217500Y-105657713D01*
X163184246Y-105447757D01*
X163118557Y-105245588D01*
X163022051Y-105056184D01*
X163022049Y-105056181D01*
X163022048Y-105056179D01*
X162897109Y-104884213D01*
X162746786Y-104733890D01*
X162574817Y-104608949D01*
X162565504Y-104604204D01*
X162514707Y-104556230D01*
X162497912Y-104488409D01*
X162520449Y-104422274D01*
X162565507Y-104383232D01*
X162574555Y-104378622D01*
X162628716Y-104339270D01*
X162628717Y-104339270D01*
X161996408Y-103706962D01*
X162059993Y-103689925D01*
X162174007Y-103624099D01*
X162267099Y-103531007D01*
X162332925Y-103416993D01*
X162349962Y-103353408D01*
X162982270Y-103985717D01*
X162982270Y-103985716D01*
X163021622Y-103931554D01*
X163118095Y-103742217D01*
X163183757Y-103540130D01*
X163183757Y-103540127D01*
X163217000Y-103330246D01*
X163217000Y-103117753D01*
X163183757Y-102907872D01*
X163183757Y-102907869D01*
X163118095Y-102705782D01*
X163021624Y-102516449D01*
X162982270Y-102462282D01*
X162982269Y-102462282D01*
X162349962Y-103094590D01*
X162332925Y-103031007D01*
X162267099Y-102916993D01*
X162174007Y-102823901D01*
X162059993Y-102758075D01*
X161996409Y-102741037D01*
X162628716Y-102108728D01*
X162574550Y-102069375D01*
X162385217Y-101972904D01*
X162183129Y-101907242D01*
X161973246Y-101874000D01*
X161760754Y-101874000D01*
X161550872Y-101907242D01*
X161550869Y-101907242D01*
X161348782Y-101972904D01*
X161159439Y-102069380D01*
X161105282Y-102108727D01*
X161105282Y-102108728D01*
X161737591Y-102741037D01*
X161674007Y-102758075D01*
X161559993Y-102823901D01*
X161466901Y-102916993D01*
X161401075Y-103031007D01*
X161384037Y-103094591D01*
X160751728Y-102462282D01*
X160751727Y-102462282D01*
X160712380Y-102516439D01*
X160615904Y-102705782D01*
X160550242Y-102907869D01*
X160550242Y-102907872D01*
X160517000Y-103117753D01*
X160517000Y-103330246D01*
X160550242Y-103540127D01*
X160550242Y-103540130D01*
X160615904Y-103742217D01*
X160712375Y-103931550D01*
X160751728Y-103985716D01*
X161384037Y-103353408D01*
X161401075Y-103416993D01*
X161466901Y-103531007D01*
X161559993Y-103624099D01*
X161674007Y-103689925D01*
X161737590Y-103706962D01*
X161105282Y-104339269D01*
X161105282Y-104339270D01*
X161159452Y-104378626D01*
X161159451Y-104378626D01*
X161168495Y-104383234D01*
X161219292Y-104431208D01*
X161236087Y-104499029D01*
X161213550Y-104565164D01*
X161168499Y-104604202D01*
X161159182Y-104608949D01*
X160987213Y-104733890D01*
X160836890Y-104884213D01*
X160711951Y-105056179D01*
X160615444Y-105245585D01*
X160549753Y-105447760D01*
X160516500Y-105657713D01*
X159221128Y-105657713D01*
X159211738Y-105610510D01*
X159211737Y-105610503D01*
X159196040Y-105572606D01*
X159151397Y-105464827D01*
X159151390Y-105464814D01*
X159063789Y-105333711D01*
X159063786Y-105333707D01*
X158952292Y-105222213D01*
X158952288Y-105222210D01*
X158821185Y-105134609D01*
X158821172Y-105134602D01*
X158675501Y-105074264D01*
X158675489Y-105074261D01*
X158520845Y-105043500D01*
X158520842Y-105043500D01*
X158363158Y-105043500D01*
X158363155Y-105043500D01*
X158208510Y-105074261D01*
X158208498Y-105074264D01*
X158062827Y-105134602D01*
X158062814Y-105134609D01*
X157931711Y-105222210D01*
X157931707Y-105222213D01*
X157820213Y-105333707D01*
X157820210Y-105333711D01*
X157732609Y-105464814D01*
X157732602Y-105464827D01*
X157672264Y-105610498D01*
X157672261Y-105610510D01*
X157641500Y-105765153D01*
X129070032Y-105765153D01*
X129133966Y-105701219D01*
X129138597Y-105694844D01*
X129144893Y-105686180D01*
X129199878Y-105610498D01*
X129254287Y-105535610D01*
X129347220Y-105353219D01*
X129410477Y-105158534D01*
X129442500Y-104956352D01*
X129442500Y-104751648D01*
X129435436Y-104707047D01*
X129410477Y-104549465D01*
X129356464Y-104383232D01*
X129347220Y-104354781D01*
X129347218Y-104354778D01*
X129347218Y-104354776D01*
X129289049Y-104240614D01*
X129254287Y-104172390D01*
X129233372Y-104143603D01*
X129133971Y-104006786D01*
X128989213Y-103862028D01*
X128823613Y-103741715D01*
X128823612Y-103741714D01*
X128823610Y-103741713D01*
X128766653Y-103712691D01*
X128641223Y-103648781D01*
X128446534Y-103585522D01*
X128271995Y-103557878D01*
X128244352Y-103553500D01*
X128039648Y-103553500D01*
X128015329Y-103557351D01*
X127837465Y-103585522D01*
X127642776Y-103648781D01*
X127460386Y-103741715D01*
X127294786Y-103862028D01*
X127150028Y-104006786D01*
X127029715Y-104172386D01*
X126936781Y-104354776D01*
X126873522Y-104549465D01*
X126841500Y-104751648D01*
X107308079Y-104751648D01*
X107305266Y-104733890D01*
X107301015Y-104707049D01*
X107266955Y-104602221D01*
X107232896Y-104497396D01*
X107232895Y-104497393D01*
X107160229Y-104354781D01*
X107132815Y-104300978D01*
X107099410Y-104255000D01*
X107003247Y-104122641D01*
X107003243Y-104122636D01*
X106847363Y-103966756D01*
X106847358Y-103966752D01*
X106707745Y-103865318D01*
X106665079Y-103809989D01*
X106659100Y-103740375D01*
X106691705Y-103678580D01*
X106707745Y-103664682D01*
X106847358Y-103563247D01*
X106847356Y-103563247D01*
X106847365Y-103563242D01*
X107003242Y-103407365D01*
X107132815Y-103229022D01*
X107232895Y-103032606D01*
X107301015Y-102822951D01*
X107335500Y-102605222D01*
X107335500Y-102384778D01*
X107301015Y-102167049D01*
X107264752Y-102055441D01*
X107232896Y-101957396D01*
X107232895Y-101957393D01*
X107171065Y-101836048D01*
X107132815Y-101760978D01*
X107062322Y-101663952D01*
X107003247Y-101582641D01*
X107003243Y-101582636D01*
X106847363Y-101426756D01*
X106847358Y-101426752D01*
X106707745Y-101325318D01*
X106691746Y-101304570D01*
X106672889Y-101286383D01*
X106670751Y-101277344D01*
X106665079Y-101269989D01*
X106662837Y-101243886D01*
X106656806Y-101218389D01*
X106659894Y-101209627D01*
X106659100Y-101200375D01*
X106671325Y-101177203D01*
X106680037Y-101152495D01*
X106689234Y-101143263D01*
X106691705Y-101138580D01*
X106704539Y-101127091D01*
X106706128Y-101125856D01*
X106757734Y-101088362D01*
X119952604Y-101088362D01*
X119952604Y-101317845D01*
X119972155Y-101466338D01*
X119982556Y-101545342D01*
X120004265Y-101626362D01*
X120041946Y-101766991D01*
X120129754Y-101978980D01*
X120129761Y-101978994D01*
X120161324Y-102033662D01*
X120238334Y-102167049D01*
X120244496Y-102177721D01*
X120384185Y-102359765D01*
X120384193Y-102359774D01*
X120546434Y-102522015D01*
X120546442Y-102522022D01*
X120546443Y-102522023D01*
X120576387Y-102545000D01*
X120728486Y-102661711D01*
X120728489Y-102661712D01*
X120728492Y-102661715D01*
X120927216Y-102776448D01*
X120927221Y-102776450D01*
X120927227Y-102776453D01*
X121018584Y-102814294D01*
X121139217Y-102864262D01*
X121360866Y-102923652D01*
X121588370Y-102953604D01*
X121588377Y-102953604D01*
X121817831Y-102953604D01*
X121817838Y-102953604D01*
X122045342Y-102923652D01*
X122266991Y-102864262D01*
X122478992Y-102776448D01*
X122677716Y-102661715D01*
X122859765Y-102522023D01*
X122859769Y-102522018D01*
X122859774Y-102522015D01*
X123022015Y-102359774D01*
X123022018Y-102359769D01*
X123022023Y-102359765D01*
X123161715Y-102177716D01*
X123276448Y-101978992D01*
X123364262Y-101766991D01*
X123423652Y-101545342D01*
X123453604Y-101317838D01*
X123453604Y-101088370D01*
X123423652Y-100860866D01*
X123364262Y-100639217D01*
X123327414Y-100550258D01*
X123309138Y-100506135D01*
X144641500Y-100506135D01*
X144641500Y-101701870D01*
X144641501Y-101701876D01*
X144647908Y-101761483D01*
X144698202Y-101896328D01*
X144698206Y-101896335D01*
X144784452Y-102011544D01*
X144784455Y-102011547D01*
X144899664Y-102097793D01*
X144899671Y-102097797D01*
X145034517Y-102148091D01*
X145034516Y-102148091D01*
X145041444Y-102148835D01*
X145094127Y-102154500D01*
X146587500Y-102154499D01*
X146596185Y-102157049D01*
X146605147Y-102155761D01*
X146629187Y-102166739D01*
X146654539Y-102174184D01*
X146660466Y-102181024D01*
X146668703Y-102184786D01*
X146682990Y-102207018D01*
X146700294Y-102226987D01*
X146702581Y-102237502D01*
X146706477Y-102243564D01*
X146711500Y-102278499D01*
X146711500Y-102469500D01*
X146691815Y-102536539D01*
X146639011Y-102582294D01*
X146587500Y-102593500D01*
X145373441Y-102593500D01*
X145243351Y-102608157D01*
X145243341Y-102608159D01*
X145078395Y-102665877D01*
X144930423Y-102758853D01*
X144806853Y-102882423D01*
X144713877Y-103030395D01*
X144656159Y-103195341D01*
X144656157Y-103195351D01*
X144641501Y-103325435D01*
X144641500Y-103325445D01*
X144641500Y-103962558D01*
X144656157Y-104092648D01*
X144656159Y-104092658D01*
X144711952Y-104252103D01*
X144713878Y-104257606D01*
X144806853Y-104405576D01*
X144930424Y-104529147D01*
X145078394Y-104622122D01*
X145243343Y-104679841D01*
X145243349Y-104679841D01*
X145243351Y-104679842D01*
X145284750Y-104684506D01*
X145373442Y-104694499D01*
X145373445Y-104694500D01*
X145373448Y-104694500D01*
X146710555Y-104694500D01*
X146710556Y-104694499D01*
X146840657Y-104679841D01*
X147005606Y-104622122D01*
X147153576Y-104529147D01*
X147277147Y-104405576D01*
X147370122Y-104257606D01*
X147427841Y-104092657D01*
X147442500Y-103962552D01*
X147442500Y-103548500D01*
X147462185Y-103481461D01*
X147514989Y-103435706D01*
X147566500Y-103424500D01*
X148780555Y-103424500D01*
X148780556Y-103424499D01*
X148910657Y-103409841D01*
X149075606Y-103352122D01*
X149223576Y-103259147D01*
X149347147Y-103135576D01*
X149440122Y-102987606D01*
X149497841Y-102822657D01*
X149512500Y-102692552D01*
X149512500Y-102055448D01*
X149497841Y-101925343D01*
X149440122Y-101760394D01*
X149347147Y-101612424D01*
X149223576Y-101488853D01*
X149075606Y-101395878D01*
X149075605Y-101395877D01*
X149075604Y-101395877D01*
X148910658Y-101338159D01*
X148910648Y-101338157D01*
X148780558Y-101323500D01*
X148780552Y-101323500D01*
X147566499Y-101323500D01*
X147499460Y-101303815D01*
X147453705Y-101251011D01*
X147442499Y-101199500D01*
X147442499Y-100506129D01*
X147442498Y-100506123D01*
X147442497Y-100506116D01*
X147436091Y-100446517D01*
X147428896Y-100427227D01*
X147385797Y-100311671D01*
X147385793Y-100311664D01*
X147299547Y-100196455D01*
X147299544Y-100196452D01*
X147184335Y-100110206D01*
X147184328Y-100110202D01*
X147049482Y-100059908D01*
X147049483Y-100059908D01*
X146989883Y-100053501D01*
X146989881Y-100053500D01*
X146989873Y-100053500D01*
X146989864Y-100053500D01*
X145094129Y-100053500D01*
X145094123Y-100053501D01*
X145034516Y-100059908D01*
X144899671Y-100110202D01*
X144899664Y-100110206D01*
X144784455Y-100196452D01*
X144784452Y-100196455D01*
X144698206Y-100311664D01*
X144698202Y-100311671D01*
X144647908Y-100446517D01*
X144641501Y-100506116D01*
X144641501Y-100506123D01*
X144641500Y-100506135D01*
X123309138Y-100506135D01*
X123276453Y-100427227D01*
X123276450Y-100427221D01*
X123276448Y-100427216D01*
X123161715Y-100228492D01*
X123161712Y-100228489D01*
X123161711Y-100228486D01*
X123022022Y-100046442D01*
X123022015Y-100046434D01*
X122859774Y-99884193D01*
X122859765Y-99884185D01*
X122677721Y-99744496D01*
X122478994Y-99629761D01*
X122478980Y-99629754D01*
X122266991Y-99541946D01*
X122201847Y-99524491D01*
X122045342Y-99482556D01*
X122007319Y-99477550D01*
X121817845Y-99452604D01*
X121817838Y-99452604D01*
X121588370Y-99452604D01*
X121588362Y-99452604D01*
X121371819Y-99481113D01*
X121360866Y-99482556D01*
X121267180Y-99507658D01*
X121139216Y-99541946D01*
X120927227Y-99629754D01*
X120927213Y-99629761D01*
X120728486Y-99744496D01*
X120546442Y-99884185D01*
X120384185Y-100046442D01*
X120244496Y-100228486D01*
X120129761Y-100427213D01*
X120129754Y-100427227D01*
X120041946Y-100639216D01*
X119982557Y-100860863D01*
X119982555Y-100860874D01*
X119952604Y-101088362D01*
X106757734Y-101088362D01*
X106847365Y-101023242D01*
X107003242Y-100867365D01*
X107132815Y-100689022D01*
X107232895Y-100492606D01*
X107301015Y-100282951D01*
X107335500Y-100065222D01*
X107335500Y-99844778D01*
X107301015Y-99627049D01*
X107256500Y-99490044D01*
X107232896Y-99417396D01*
X107232895Y-99417393D01*
X107165122Y-99284384D01*
X107132815Y-99220978D01*
X107067898Y-99131627D01*
X107003247Y-99042641D01*
X107003243Y-99042636D01*
X106847363Y-98886756D01*
X106847358Y-98886752D01*
X106707745Y-98785318D01*
X106665079Y-98729989D01*
X106659100Y-98660375D01*
X106691705Y-98598580D01*
X106707745Y-98584682D01*
X106847358Y-98483247D01*
X106847356Y-98483247D01*
X106847365Y-98483242D01*
X107003242Y-98327365D01*
X107132815Y-98149022D01*
X107232895Y-97952606D01*
X107301015Y-97742951D01*
X107324979Y-97591648D01*
X129901500Y-97591648D01*
X129901500Y-97796351D01*
X129933522Y-97998534D01*
X129996781Y-98193223D01*
X130089715Y-98375613D01*
X130210028Y-98541213D01*
X130354786Y-98685971D01*
X130452806Y-98757185D01*
X130520390Y-98806287D01*
X130636607Y-98865503D01*
X130702776Y-98899218D01*
X130702778Y-98899218D01*
X130702781Y-98899220D01*
X130807137Y-98933127D01*
X130897465Y-98962477D01*
X130998557Y-98978488D01*
X131099648Y-98994500D01*
X131099649Y-98994500D01*
X131304351Y-98994500D01*
X131304352Y-98994500D01*
X131506534Y-98962477D01*
X131701219Y-98899220D01*
X131883610Y-98806287D01*
X131988626Y-98729989D01*
X132049213Y-98685971D01*
X132049215Y-98685968D01*
X132049219Y-98685966D01*
X132193966Y-98541219D01*
X132193968Y-98541215D01*
X132193971Y-98541213D01*
X132253590Y-98459153D01*
X132314287Y-98375610D01*
X132407220Y-98193219D01*
X132470477Y-97998534D01*
X132502500Y-97796352D01*
X132502500Y-97591648D01*
X145141500Y-97591648D01*
X145141500Y-97796351D01*
X145173522Y-97998534D01*
X145236781Y-98193223D01*
X145329715Y-98375613D01*
X145450028Y-98541213D01*
X145594786Y-98685971D01*
X145692806Y-98757185D01*
X145760390Y-98806287D01*
X145876607Y-98865503D01*
X145942776Y-98899218D01*
X145942778Y-98899218D01*
X145942781Y-98899220D01*
X146047137Y-98933127D01*
X146137465Y-98962477D01*
X146238557Y-98978488D01*
X146339648Y-98994500D01*
X146339649Y-98994500D01*
X146544351Y-98994500D01*
X146544352Y-98994500D01*
X146746534Y-98962477D01*
X146941219Y-98899220D01*
X147123610Y-98806287D01*
X147228626Y-98729989D01*
X147289213Y-98685971D01*
X147289215Y-98685968D01*
X147289219Y-98685966D01*
X147433966Y-98541219D01*
X147433968Y-98541215D01*
X147433971Y-98541213D01*
X147493590Y-98459153D01*
X147554287Y-98375610D01*
X147647220Y-98193219D01*
X147710477Y-97998534D01*
X147742500Y-97796352D01*
X147742500Y-97591648D01*
X147725290Y-97482992D01*
X147710477Y-97389465D01*
X147671301Y-97268895D01*
X147647220Y-97194781D01*
X147647218Y-97194778D01*
X147647218Y-97194776D01*
X147612486Y-97126612D01*
X147554287Y-97012390D01*
X147508051Y-96948751D01*
X147433971Y-96846786D01*
X147289213Y-96702028D01*
X147123613Y-96581715D01*
X147123612Y-96581714D01*
X147123610Y-96581713D01*
X147048295Y-96543338D01*
X146941223Y-96488781D01*
X146746534Y-96425522D01*
X146571995Y-96397878D01*
X146544352Y-96393500D01*
X146339648Y-96393500D01*
X146315329Y-96397351D01*
X146137465Y-96425522D01*
X145942776Y-96488781D01*
X145760386Y-96581715D01*
X145594786Y-96702028D01*
X145450028Y-96846786D01*
X145329715Y-97012386D01*
X145236781Y-97194776D01*
X145173522Y-97389465D01*
X145141500Y-97591648D01*
X132502500Y-97591648D01*
X132485290Y-97482992D01*
X132470477Y-97389465D01*
X132431301Y-97268895D01*
X132407220Y-97194781D01*
X132407218Y-97194778D01*
X132407218Y-97194776D01*
X132372486Y-97126612D01*
X132314287Y-97012390D01*
X132268051Y-96948751D01*
X132193971Y-96846786D01*
X132049213Y-96702028D01*
X131883613Y-96581715D01*
X131883612Y-96581714D01*
X131883610Y-96581713D01*
X131808295Y-96543338D01*
X131701223Y-96488781D01*
X131506534Y-96425522D01*
X131331995Y-96397878D01*
X131304352Y-96393500D01*
X131099648Y-96393500D01*
X131075329Y-96397351D01*
X130897465Y-96425522D01*
X130702776Y-96488781D01*
X130520386Y-96581715D01*
X130354786Y-96702028D01*
X130210028Y-96846786D01*
X130089715Y-97012386D01*
X129996781Y-97194776D01*
X129933522Y-97389465D01*
X129901500Y-97591648D01*
X107324979Y-97591648D01*
X107335500Y-97525222D01*
X107335500Y-97304778D01*
X107301015Y-97087049D01*
X107232895Y-96877394D01*
X107232895Y-96877393D01*
X107172248Y-96758369D01*
X107132815Y-96680978D01*
X107088264Y-96619658D01*
X107062144Y-96583707D01*
X107038664Y-96517901D01*
X107038467Y-96509730D01*
X107055898Y-94583778D01*
X115819500Y-94583778D01*
X115819500Y-94804221D01*
X115853985Y-95021952D01*
X115922103Y-95231603D01*
X115922104Y-95231606D01*
X115956218Y-95298556D01*
X116004854Y-95394009D01*
X116022187Y-95428025D01*
X116151752Y-95606358D01*
X116151756Y-95606363D01*
X116307636Y-95762243D01*
X116307641Y-95762247D01*
X116463192Y-95875260D01*
X116485978Y-95891815D01*
X116614375Y-95957237D01*
X116682393Y-95991895D01*
X116682396Y-95991896D01*
X116751966Y-96014500D01*
X116892049Y-96060015D01*
X117109778Y-96094500D01*
X117109779Y-96094500D01*
X117330221Y-96094500D01*
X117330222Y-96094500D01*
X117547951Y-96060015D01*
X117757606Y-95991895D01*
X117954022Y-95891815D01*
X118132365Y-95762242D01*
X118288242Y-95606365D01*
X118417815Y-95428022D01*
X118517895Y-95231606D01*
X118586015Y-95021951D01*
X118620500Y-94804222D01*
X118620500Y-94583778D01*
X118586015Y-94366049D01*
X118522316Y-94170000D01*
X118517896Y-94156396D01*
X118517890Y-94156383D01*
X118462223Y-94047131D01*
X118462221Y-94047129D01*
X118435142Y-93993983D01*
X123439500Y-93993983D01*
X123439500Y-95394001D01*
X123439501Y-95394018D01*
X123450000Y-95496796D01*
X123450001Y-95496799D01*
X123486308Y-95606365D01*
X123505186Y-95663334D01*
X123597288Y-95812656D01*
X123721344Y-95936712D01*
X123870666Y-96028814D01*
X124037203Y-96083999D01*
X124139991Y-96094500D01*
X125540008Y-96094499D01*
X125550307Y-96093447D01*
X125557895Y-96092671D01*
X125642797Y-96083999D01*
X125809334Y-96028814D01*
X125958656Y-95936712D01*
X126082712Y-95812656D01*
X126174814Y-95663334D01*
X126229999Y-95496797D01*
X126240500Y-95394009D01*
X126240499Y-93993992D01*
X126237024Y-93959978D01*
X126229999Y-93891203D01*
X126229998Y-93891200D01*
X126205901Y-93818480D01*
X126174814Y-93724666D01*
X126082712Y-93575344D01*
X125958656Y-93451288D01*
X125809334Y-93359186D01*
X125642797Y-93304001D01*
X125642795Y-93304000D01*
X125540010Y-93293500D01*
X124139998Y-93293500D01*
X124139981Y-93293501D01*
X124037203Y-93304000D01*
X124037200Y-93304001D01*
X123870668Y-93359185D01*
X123870663Y-93359187D01*
X123721342Y-93451289D01*
X123597289Y-93575342D01*
X123505187Y-93724663D01*
X123505185Y-93724668D01*
X123494583Y-93756663D01*
X123450001Y-93891203D01*
X123450001Y-93891204D01*
X123450000Y-93891204D01*
X123439500Y-93993983D01*
X118435142Y-93993983D01*
X118417815Y-93959978D01*
X118367848Y-93891204D01*
X118288247Y-93781641D01*
X118288243Y-93781636D01*
X118132363Y-93625756D01*
X118132358Y-93625752D01*
X117954025Y-93496187D01*
X117954024Y-93496186D01*
X117954022Y-93496185D01*
X117865908Y-93451288D01*
X117757606Y-93396104D01*
X117757603Y-93396103D01*
X117547952Y-93327985D01*
X117396516Y-93304000D01*
X117330222Y-93293500D01*
X117109778Y-93293500D01*
X117043484Y-93304000D01*
X116892047Y-93327985D01*
X116682396Y-93396103D01*
X116682393Y-93396104D01*
X116485974Y-93496187D01*
X116307641Y-93625752D01*
X116307636Y-93625756D01*
X116151756Y-93781636D01*
X116151752Y-93781641D01*
X116022187Y-93959974D01*
X115922104Y-94156393D01*
X115922103Y-94156396D01*
X115853985Y-94366047D01*
X115819500Y-94583778D01*
X107055898Y-94583778D01*
X107097839Y-89949818D01*
X112790000Y-89949818D01*
X112790000Y-90170181D01*
X112824473Y-90387835D01*
X112892567Y-90597410D01*
X112992611Y-90793756D01*
X113038932Y-90857513D01*
X113521988Y-90374457D01*
X113536436Y-90409337D01*
X113617147Y-90530129D01*
X113719871Y-90632853D01*
X113840663Y-90713564D01*
X113875540Y-90728010D01*
X113392485Y-91211065D01*
X113392485Y-91211066D01*
X113456243Y-91257388D01*
X113652589Y-91357432D01*
X113862164Y-91425526D01*
X114079819Y-91460000D01*
X114300181Y-91460000D01*
X114517835Y-91425526D01*
X114727410Y-91357432D01*
X114923760Y-91257386D01*
X114987513Y-91211066D01*
X114987514Y-91211066D01*
X114504458Y-90728011D01*
X114539337Y-90713564D01*
X114660129Y-90632853D01*
X114762853Y-90530129D01*
X114843564Y-90409337D01*
X114858010Y-90374458D01*
X115341065Y-90857513D01*
X115359680Y-90831893D01*
X115415010Y-90789227D01*
X115484623Y-90783248D01*
X115546419Y-90815853D01*
X115560317Y-90831893D01*
X115578931Y-90857513D01*
X115578932Y-90857513D01*
X116061988Y-90374457D01*
X116076436Y-90409337D01*
X116157147Y-90530129D01*
X116259871Y-90632853D01*
X116380663Y-90713564D01*
X116415540Y-90728010D01*
X115932485Y-91211065D01*
X115932485Y-91211066D01*
X115996243Y-91257388D01*
X116192589Y-91357432D01*
X116402164Y-91425526D01*
X116619819Y-91460000D01*
X116840181Y-91460000D01*
X117057835Y-91425526D01*
X117267410Y-91357432D01*
X117463760Y-91257386D01*
X117527513Y-91211066D01*
X117527514Y-91211066D01*
X117044458Y-90728011D01*
X117079337Y-90713564D01*
X117200129Y-90632853D01*
X117302853Y-90530129D01*
X117383564Y-90409337D01*
X117398010Y-90374458D01*
X117881065Y-90857513D01*
X117899680Y-90831893D01*
X117955010Y-90789227D01*
X118024623Y-90783248D01*
X118086419Y-90815853D01*
X118100317Y-90831893D01*
X118118931Y-90857513D01*
X118118932Y-90857513D01*
X118601988Y-90374457D01*
X118616436Y-90409337D01*
X118697147Y-90530129D01*
X118799871Y-90632853D01*
X118920663Y-90713564D01*
X118955540Y-90728010D01*
X118472485Y-91211065D01*
X118472485Y-91211066D01*
X118536243Y-91257388D01*
X118732589Y-91357432D01*
X118942164Y-91425526D01*
X119159819Y-91460000D01*
X119380181Y-91460000D01*
X119597835Y-91425526D01*
X119807410Y-91357432D01*
X120003760Y-91257386D01*
X120067513Y-91211066D01*
X120067514Y-91211066D01*
X119584458Y-90728011D01*
X119619337Y-90713564D01*
X119740129Y-90632853D01*
X119842853Y-90530129D01*
X119923564Y-90409337D01*
X119938010Y-90374458D01*
X120421065Y-90857513D01*
X120439680Y-90831893D01*
X120495010Y-90789227D01*
X120564623Y-90783248D01*
X120626419Y-90815853D01*
X120640317Y-90831893D01*
X120658931Y-90857513D01*
X120658932Y-90857513D01*
X121141988Y-90374457D01*
X121156436Y-90409337D01*
X121237147Y-90530129D01*
X121339871Y-90632853D01*
X121460663Y-90713564D01*
X121495540Y-90728010D01*
X121012485Y-91211065D01*
X121012485Y-91211066D01*
X121076243Y-91257388D01*
X121272589Y-91357432D01*
X121482164Y-91425526D01*
X121699819Y-91460000D01*
X121920181Y-91460000D01*
X122137835Y-91425526D01*
X122347410Y-91357432D01*
X122543760Y-91257386D01*
X122607513Y-91211066D01*
X122607514Y-91211066D01*
X122124458Y-90728011D01*
X122159337Y-90713564D01*
X122280129Y-90632853D01*
X122382853Y-90530129D01*
X122463564Y-90409337D01*
X122478010Y-90374458D01*
X122961066Y-90857514D01*
X122961066Y-90857513D01*
X123007386Y-90793760D01*
X123107432Y-90597410D01*
X123175526Y-90387835D01*
X123210000Y-90170181D01*
X123210000Y-89949818D01*
X123175526Y-89732164D01*
X123114748Y-89545106D01*
X123114745Y-89545096D01*
X123107430Y-89522586D01*
X123101857Y-89511648D01*
X126841500Y-89511648D01*
X126841500Y-89716351D01*
X126873522Y-89918534D01*
X126936781Y-90113223D01*
X127000691Y-90238653D01*
X127019273Y-90275121D01*
X127029715Y-90295613D01*
X127150028Y-90461213D01*
X127294786Y-90605971D01*
X127442878Y-90713564D01*
X127460390Y-90726287D01*
X127544529Y-90769158D01*
X127642776Y-90819218D01*
X127642778Y-90819218D01*
X127642781Y-90819220D01*
X127747137Y-90853127D01*
X127837465Y-90882477D01*
X127938557Y-90898488D01*
X128039648Y-90914500D01*
X128039649Y-90914500D01*
X128244351Y-90914500D01*
X128244352Y-90914500D01*
X128446534Y-90882477D01*
X128641219Y-90819220D01*
X128823610Y-90726287D01*
X128968309Y-90621158D01*
X128989213Y-90605971D01*
X128989215Y-90605968D01*
X128989219Y-90605966D01*
X129133966Y-90461219D01*
X129133968Y-90461215D01*
X129133971Y-90461213D01*
X129235970Y-90320821D01*
X129254287Y-90295610D01*
X129347220Y-90113219D01*
X129410477Y-89918534D01*
X129442500Y-89716352D01*
X129442500Y-89511648D01*
X129421370Y-89378242D01*
X129410477Y-89309465D01*
X129347218Y-89114776D01*
X129280983Y-88984784D01*
X129254287Y-88932390D01*
X129203594Y-88862616D01*
X129133971Y-88766786D01*
X128989213Y-88622028D01*
X128823613Y-88501715D01*
X128823612Y-88501714D01*
X128823610Y-88501713D01*
X128766653Y-88472691D01*
X128641223Y-88408781D01*
X128446534Y-88345522D01*
X128271995Y-88317878D01*
X128244352Y-88313500D01*
X128039648Y-88313500D01*
X128015329Y-88317351D01*
X127837465Y-88345522D01*
X127642776Y-88408781D01*
X127460386Y-88501715D01*
X127294786Y-88622028D01*
X127150028Y-88766786D01*
X127029715Y-88932386D01*
X126936781Y-89114776D01*
X126873522Y-89309465D01*
X126841500Y-89511648D01*
X123101857Y-89511648D01*
X123007388Y-89326243D01*
X122961066Y-89262485D01*
X122478010Y-89745540D01*
X122463564Y-89710663D01*
X122382853Y-89589871D01*
X122280129Y-89487147D01*
X122159337Y-89406436D01*
X122124456Y-89391988D01*
X122607513Y-88908932D01*
X122543756Y-88862611D01*
X122347410Y-88762567D01*
X122137835Y-88694473D01*
X121920181Y-88660000D01*
X121699819Y-88660000D01*
X121482164Y-88694473D01*
X121272589Y-88762567D01*
X121076233Y-88862616D01*
X121012485Y-88908931D01*
X121012485Y-88908932D01*
X121495541Y-89391988D01*
X121460663Y-89406436D01*
X121339871Y-89487147D01*
X121237147Y-89589871D01*
X121156436Y-89710663D01*
X121141988Y-89745541D01*
X120658932Y-89262485D01*
X120658930Y-89262485D01*
X120640317Y-89288105D01*
X120584988Y-89330771D01*
X120515374Y-89336750D01*
X120453579Y-89304145D01*
X120439681Y-89288105D01*
X120421067Y-89262485D01*
X120421065Y-89262485D01*
X119938010Y-89745540D01*
X119923564Y-89710663D01*
X119842853Y-89589871D01*
X119740129Y-89487147D01*
X119619337Y-89406436D01*
X119584456Y-89391988D01*
X120067513Y-88908932D01*
X120003756Y-88862611D01*
X119807410Y-88762567D01*
X119597835Y-88694473D01*
X119380181Y-88660000D01*
X119159819Y-88660000D01*
X118942164Y-88694473D01*
X118732589Y-88762567D01*
X118536233Y-88862616D01*
X118472485Y-88908931D01*
X118472485Y-88908932D01*
X118955541Y-89391988D01*
X118920663Y-89406436D01*
X118799871Y-89487147D01*
X118697147Y-89589871D01*
X118616436Y-89710663D01*
X118601988Y-89745541D01*
X118118932Y-89262485D01*
X118118930Y-89262485D01*
X118100317Y-89288105D01*
X118044988Y-89330771D01*
X117975374Y-89336750D01*
X117913579Y-89304145D01*
X117899681Y-89288105D01*
X117881067Y-89262485D01*
X117881065Y-89262485D01*
X117398010Y-89745540D01*
X117383564Y-89710663D01*
X117302853Y-89589871D01*
X117200129Y-89487147D01*
X117079337Y-89406436D01*
X117044456Y-89391988D01*
X117527513Y-88908932D01*
X117463756Y-88862611D01*
X117267410Y-88762567D01*
X117057835Y-88694473D01*
X116840181Y-88660000D01*
X116619819Y-88660000D01*
X116402164Y-88694473D01*
X116192589Y-88762567D01*
X115996233Y-88862616D01*
X115932485Y-88908931D01*
X115932485Y-88908932D01*
X116415541Y-89391988D01*
X116380663Y-89406436D01*
X116259871Y-89487147D01*
X116157147Y-89589871D01*
X116076436Y-89710663D01*
X116061988Y-89745541D01*
X115578932Y-89262485D01*
X115578930Y-89262485D01*
X115560317Y-89288105D01*
X115504988Y-89330771D01*
X115435374Y-89336750D01*
X115373579Y-89304145D01*
X115359681Y-89288105D01*
X115341067Y-89262485D01*
X115341065Y-89262485D01*
X114858010Y-89745540D01*
X114843564Y-89710663D01*
X114762853Y-89589871D01*
X114660129Y-89487147D01*
X114539337Y-89406436D01*
X114504456Y-89391988D01*
X114987513Y-88908932D01*
X114923756Y-88862611D01*
X114727410Y-88762567D01*
X114517835Y-88694473D01*
X114300181Y-88660000D01*
X114079819Y-88660000D01*
X113862164Y-88694473D01*
X113652589Y-88762567D01*
X113456233Y-88862616D01*
X113392485Y-88908931D01*
X113392485Y-88908932D01*
X113875541Y-89391988D01*
X113840663Y-89406436D01*
X113719871Y-89487147D01*
X113617147Y-89589871D01*
X113536436Y-89710663D01*
X113521988Y-89745541D01*
X113038932Y-89262485D01*
X113038931Y-89262485D01*
X112992616Y-89326233D01*
X112892567Y-89522589D01*
X112824473Y-89732164D01*
X112790000Y-89949818D01*
X107097839Y-89949818D01*
X107166805Y-82329818D01*
X112790000Y-82329818D01*
X112790000Y-82550181D01*
X112824473Y-82767835D01*
X112892567Y-82977410D01*
X112992611Y-83173756D01*
X113038932Y-83237513D01*
X113521988Y-82754457D01*
X113536436Y-82789337D01*
X113617147Y-82910129D01*
X113719871Y-83012853D01*
X113840663Y-83093564D01*
X113875540Y-83108010D01*
X113392485Y-83591065D01*
X113392485Y-83591066D01*
X113456243Y-83637388D01*
X113652589Y-83737432D01*
X113862164Y-83805526D01*
X114079819Y-83840000D01*
X114300181Y-83840000D01*
X114517835Y-83805526D01*
X114727410Y-83737432D01*
X114923760Y-83637386D01*
X114987513Y-83591066D01*
X114987514Y-83591066D01*
X114504458Y-83108011D01*
X114539337Y-83093564D01*
X114660129Y-83012853D01*
X114762853Y-82910129D01*
X114843564Y-82789337D01*
X114858010Y-82754458D01*
X115341065Y-83237513D01*
X115359680Y-83211893D01*
X115415010Y-83169227D01*
X115484623Y-83163248D01*
X115546419Y-83195853D01*
X115560317Y-83211893D01*
X115578931Y-83237513D01*
X115578932Y-83237513D01*
X116061988Y-82754457D01*
X116076436Y-82789337D01*
X116157147Y-82910129D01*
X116259871Y-83012853D01*
X116380663Y-83093564D01*
X116415540Y-83108010D01*
X115932485Y-83591065D01*
X115932485Y-83591066D01*
X115996243Y-83637388D01*
X116192589Y-83737432D01*
X116402164Y-83805526D01*
X116619819Y-83840000D01*
X116840181Y-83840000D01*
X117057835Y-83805526D01*
X117267410Y-83737432D01*
X117463760Y-83637386D01*
X117527513Y-83591066D01*
X117527514Y-83591066D01*
X117044458Y-83108011D01*
X117079337Y-83093564D01*
X117200129Y-83012853D01*
X117302853Y-82910129D01*
X117383564Y-82789337D01*
X117398010Y-82754458D01*
X117881065Y-83237513D01*
X117899680Y-83211893D01*
X117955010Y-83169227D01*
X118024623Y-83163248D01*
X118086419Y-83195853D01*
X118100317Y-83211893D01*
X118118931Y-83237513D01*
X118118932Y-83237513D01*
X118601988Y-82754457D01*
X118616436Y-82789337D01*
X118697147Y-82910129D01*
X118799871Y-83012853D01*
X118920663Y-83093564D01*
X118955540Y-83108010D01*
X118472485Y-83591065D01*
X118472485Y-83591066D01*
X118536243Y-83637388D01*
X118732589Y-83737432D01*
X118942164Y-83805526D01*
X119159819Y-83840000D01*
X119380181Y-83840000D01*
X119597835Y-83805526D01*
X119807410Y-83737432D01*
X120003760Y-83637386D01*
X120067513Y-83591066D01*
X120067514Y-83591066D01*
X119584458Y-83108011D01*
X119619337Y-83093564D01*
X119740129Y-83012853D01*
X119842853Y-82910129D01*
X119923564Y-82789337D01*
X119938010Y-82754458D01*
X120421065Y-83237513D01*
X120439680Y-83211893D01*
X120495010Y-83169227D01*
X120564623Y-83163248D01*
X120626419Y-83195853D01*
X120640317Y-83211893D01*
X120658931Y-83237513D01*
X120658932Y-83237513D01*
X121141988Y-82754457D01*
X121156436Y-82789337D01*
X121237147Y-82910129D01*
X121339871Y-83012853D01*
X121460663Y-83093564D01*
X121495540Y-83108010D01*
X121012485Y-83591065D01*
X121012485Y-83591066D01*
X121076243Y-83637388D01*
X121272589Y-83737432D01*
X121482164Y-83805526D01*
X121699819Y-83840000D01*
X121920181Y-83840000D01*
X122137835Y-83805526D01*
X122347410Y-83737432D01*
X122543760Y-83637386D01*
X122607513Y-83591066D01*
X122607514Y-83591066D01*
X122124458Y-83108011D01*
X122159337Y-83093564D01*
X122280129Y-83012853D01*
X122382853Y-82910129D01*
X122463564Y-82789337D01*
X122478010Y-82754458D01*
X122961066Y-83237514D01*
X122961066Y-83237513D01*
X123007386Y-83173760D01*
X123107432Y-82977410D01*
X123175526Y-82767835D01*
X123210000Y-82550181D01*
X123210000Y-82329818D01*
X123175526Y-82112164D01*
X123107432Y-81902589D01*
X123007388Y-81706243D01*
X122961066Y-81642485D01*
X122961065Y-81642485D01*
X122478010Y-82125540D01*
X122463564Y-82090663D01*
X122382853Y-81969871D01*
X122280129Y-81867147D01*
X122159337Y-81786436D01*
X122124456Y-81771988D01*
X122607513Y-81288932D01*
X122543756Y-81242611D01*
X122347410Y-81142567D01*
X122137835Y-81074473D01*
X121920181Y-81040000D01*
X121699819Y-81040000D01*
X121482164Y-81074473D01*
X121272589Y-81142567D01*
X121076233Y-81242616D01*
X121012485Y-81288931D01*
X121012485Y-81288932D01*
X121495541Y-81771988D01*
X121460663Y-81786436D01*
X121339871Y-81867147D01*
X121237147Y-81969871D01*
X121156436Y-82090663D01*
X121141988Y-82125541D01*
X120658932Y-81642485D01*
X120658930Y-81642485D01*
X120640317Y-81668105D01*
X120584988Y-81710771D01*
X120515374Y-81716750D01*
X120453579Y-81684145D01*
X120439681Y-81668105D01*
X120421067Y-81642485D01*
X120421065Y-81642485D01*
X119938010Y-82125540D01*
X119923564Y-82090663D01*
X119842853Y-81969871D01*
X119740129Y-81867147D01*
X119619337Y-81786436D01*
X119584456Y-81771988D01*
X120067513Y-81288932D01*
X120003756Y-81242611D01*
X119807410Y-81142567D01*
X119597835Y-81074473D01*
X119380181Y-81040000D01*
X119159819Y-81040000D01*
X118942164Y-81074473D01*
X118732589Y-81142567D01*
X118536233Y-81242616D01*
X118472485Y-81288931D01*
X118472485Y-81288932D01*
X118955541Y-81771988D01*
X118920663Y-81786436D01*
X118799871Y-81867147D01*
X118697147Y-81969871D01*
X118616436Y-82090663D01*
X118601988Y-82125541D01*
X118118932Y-81642485D01*
X118118930Y-81642485D01*
X118100317Y-81668105D01*
X118044988Y-81710771D01*
X117975374Y-81716750D01*
X117913579Y-81684145D01*
X117899681Y-81668105D01*
X117881067Y-81642485D01*
X117881065Y-81642485D01*
X117398010Y-82125540D01*
X117383564Y-82090663D01*
X117302853Y-81969871D01*
X117200129Y-81867147D01*
X117079337Y-81786436D01*
X117044456Y-81771988D01*
X117527513Y-81288932D01*
X117463756Y-81242611D01*
X117267410Y-81142567D01*
X117057835Y-81074473D01*
X116840181Y-81040000D01*
X116619819Y-81040000D01*
X116402164Y-81074473D01*
X116192589Y-81142567D01*
X115996233Y-81242616D01*
X115932485Y-81288931D01*
X115932485Y-81288932D01*
X116415541Y-81771988D01*
X116380663Y-81786436D01*
X116259871Y-81867147D01*
X116157147Y-81969871D01*
X116076436Y-82090663D01*
X116061988Y-82125541D01*
X115578932Y-81642485D01*
X115578930Y-81642485D01*
X115560317Y-81668105D01*
X115504988Y-81710771D01*
X115435374Y-81716750D01*
X115373579Y-81684145D01*
X115359681Y-81668105D01*
X115341067Y-81642485D01*
X115341065Y-81642485D01*
X114858010Y-82125540D01*
X114843564Y-82090663D01*
X114762853Y-81969871D01*
X114660129Y-81867147D01*
X114539337Y-81786436D01*
X114504456Y-81771988D01*
X114987513Y-81288932D01*
X114923756Y-81242611D01*
X114727410Y-81142567D01*
X114517835Y-81074473D01*
X114300181Y-81040000D01*
X114079819Y-81040000D01*
X113862164Y-81074473D01*
X113652589Y-81142567D01*
X113456233Y-81242616D01*
X113392485Y-81288931D01*
X113392485Y-81288932D01*
X113875541Y-81771988D01*
X113840663Y-81786436D01*
X113719871Y-81867147D01*
X113617147Y-81969871D01*
X113536436Y-82090663D01*
X113521988Y-82125541D01*
X113038932Y-81642485D01*
X113038931Y-81642485D01*
X112992616Y-81706233D01*
X112892567Y-81902589D01*
X112824473Y-82112164D01*
X112790000Y-82329818D01*
X107166805Y-82329818D01*
X107182298Y-80618034D01*
X107202589Y-80551176D01*
X107255805Y-80505901D01*
X107305131Y-80495162D01*
X150403739Y-80092460D01*
X150470960Y-80111518D01*
G37*
%TD.AperFunction*%
%TD*%
%TA.AperFunction,Conductor*%
%TO.N,GNDPWR*%
G36*
X107006910Y-92944320D02*
G01*
X107052665Y-92997124D01*
X107063859Y-93050334D01*
X107020291Y-96230739D01*
X106999690Y-96297502D01*
X106946265Y-96342529D01*
X106876976Y-96351525D01*
X106823418Y-96329359D01*
X106669021Y-96217184D01*
X106472606Y-96117104D01*
X106472603Y-96117103D01*
X106262952Y-96048985D01*
X106154086Y-96031742D01*
X106045222Y-96014500D01*
X105824778Y-96014500D01*
X105752201Y-96025995D01*
X105607047Y-96048985D01*
X105397396Y-96117103D01*
X105397393Y-96117104D01*
X105200974Y-96217187D01*
X105022641Y-96346752D01*
X105022636Y-96346756D01*
X104866756Y-96502636D01*
X104866752Y-96502641D01*
X104798896Y-96596038D01*
X104743566Y-96638704D01*
X104699334Y-96647151D01*
X102417712Y-96661061D01*
X102350554Y-96641785D01*
X102304478Y-96589261D01*
X102292961Y-96536029D01*
X102316941Y-93670761D01*
X102322157Y-93047597D01*
X102342402Y-92980725D01*
X102395587Y-92935413D01*
X102446153Y-92924635D01*
X106939871Y-92924635D01*
X107006910Y-92944320D01*
G37*
%TD.AperFunction*%
%TD*%
%TA.AperFunction,Conductor*%
%TO.N,GND*%
G36*
X101866223Y-80120115D02*
G01*
X101912363Y-80172583D01*
X101923945Y-80225957D01*
X101843768Y-89805971D01*
X101823523Y-89872843D01*
X101770338Y-89918155D01*
X101743967Y-89926550D01*
X101725304Y-89930262D01*
X101725298Y-89930264D01*
X101579627Y-89990602D01*
X101579614Y-89990609D01*
X101448511Y-90078210D01*
X101448507Y-90078213D01*
X101337013Y-90189707D01*
X101337010Y-90189711D01*
X101249409Y-90320814D01*
X101249402Y-90320827D01*
X101189064Y-90466498D01*
X101189061Y-90466510D01*
X101158300Y-90621153D01*
X101158300Y-90778846D01*
X101189061Y-90933489D01*
X101189064Y-90933501D01*
X101249402Y-91079172D01*
X101249409Y-91079185D01*
X101337010Y-91210288D01*
X101337013Y-91210292D01*
X101448507Y-91321786D01*
X101448511Y-91321789D01*
X101579614Y-91409390D01*
X101579627Y-91409397D01*
X101688882Y-91454651D01*
X101725303Y-91469737D01*
X101729004Y-91470473D01*
X101730763Y-91471393D01*
X101731138Y-91471507D01*
X101731116Y-91471577D01*
X101790916Y-91502856D01*
X101825492Y-91563571D01*
X101828812Y-91593129D01*
X101778293Y-97629394D01*
X101758048Y-97696266D01*
X101731698Y-97725233D01*
X99731975Y-99322940D01*
X99667312Y-99349407D01*
X99598605Y-99336713D01*
X99547668Y-99288889D01*
X99544089Y-99282357D01*
X99512814Y-99220976D01*
X99383247Y-99042641D01*
X99383243Y-99042636D01*
X99227363Y-98886756D01*
X99227358Y-98886752D01*
X99087745Y-98785318D01*
X99045079Y-98729989D01*
X99039100Y-98660375D01*
X99071705Y-98598580D01*
X99087745Y-98584682D01*
X99227358Y-98483247D01*
X99227356Y-98483247D01*
X99227365Y-98483242D01*
X99383242Y-98327365D01*
X99512815Y-98149022D01*
X99612895Y-97952606D01*
X99681015Y-97742951D01*
X99715500Y-97525222D01*
X99715500Y-97304778D01*
X99681015Y-97087049D01*
X99621039Y-96902459D01*
X99612896Y-96877396D01*
X99612895Y-96877393D01*
X99574201Y-96801454D01*
X99512815Y-96680978D01*
X99459912Y-96608163D01*
X99383247Y-96502641D01*
X99383243Y-96502636D01*
X99227363Y-96346756D01*
X99227358Y-96346752D01*
X99049025Y-96217187D01*
X99049024Y-96217186D01*
X99049022Y-96217185D01*
X98986096Y-96185122D01*
X98852606Y-96117104D01*
X98852603Y-96117103D01*
X98642952Y-96048985D01*
X98534086Y-96031742D01*
X98425222Y-96014500D01*
X98204778Y-96014500D01*
X98132201Y-96025995D01*
X97987047Y-96048985D01*
X97777396Y-96117103D01*
X97777393Y-96117104D01*
X97580974Y-96217187D01*
X97402641Y-96346752D01*
X97402636Y-96346756D01*
X97246756Y-96502636D01*
X97246752Y-96502641D01*
X97117187Y-96680974D01*
X97017104Y-96877393D01*
X97017103Y-96877396D01*
X96948985Y-97087047D01*
X96914500Y-97304778D01*
X96914500Y-97525221D01*
X96948985Y-97742952D01*
X97017103Y-97952603D01*
X97017104Y-97952606D01*
X97059817Y-98036433D01*
X97100228Y-98115743D01*
X97117187Y-98149025D01*
X97246752Y-98327358D01*
X97246756Y-98327363D01*
X97402636Y-98483243D01*
X97402641Y-98483247D01*
X97542254Y-98584682D01*
X97584920Y-98640012D01*
X97590899Y-98709625D01*
X97558293Y-98771420D01*
X97542254Y-98785318D01*
X97402641Y-98886752D01*
X97402636Y-98886756D01*
X97246756Y-99042636D01*
X97246752Y-99042641D01*
X97117187Y-99220974D01*
X97017104Y-99417393D01*
X97017103Y-99417396D01*
X96948985Y-99627047D01*
X96914500Y-99844778D01*
X96914500Y-100065221D01*
X96948985Y-100282952D01*
X97017103Y-100492603D01*
X97017104Y-100492606D01*
X97117187Y-100689025D01*
X97246752Y-100867358D01*
X97246756Y-100867363D01*
X97393972Y-101014579D01*
X97427457Y-101075902D01*
X97422473Y-101145594D01*
X97383692Y-101199137D01*
X91500000Y-105900000D01*
X91313381Y-125837060D01*
X91293069Y-125903912D01*
X91239839Y-125949171D01*
X91170591Y-125958466D01*
X91107310Y-125928848D01*
X91074825Y-125883351D01*
X91042932Y-125806353D01*
X91042925Y-125806340D01*
X90963532Y-125687521D01*
X90963529Y-125687517D01*
X90862482Y-125586470D01*
X90862478Y-125586467D01*
X90743659Y-125507074D01*
X90743650Y-125507069D01*
X90611620Y-125452381D01*
X90611614Y-125452379D01*
X90471457Y-125424500D01*
X90471455Y-125424500D01*
X90328545Y-125424500D01*
X90328543Y-125424500D01*
X90188373Y-125452381D01*
X90185986Y-125453106D01*
X90184675Y-125453117D01*
X90182406Y-125453569D01*
X90182320Y-125453138D01*
X90116119Y-125453725D01*
X90114014Y-125453106D01*
X90111626Y-125452381D01*
X89971457Y-125424500D01*
X89971455Y-125424500D01*
X89828545Y-125424500D01*
X89828543Y-125424500D01*
X89688373Y-125452381D01*
X89685986Y-125453106D01*
X89684675Y-125453117D01*
X89682406Y-125453569D01*
X89682320Y-125453138D01*
X89616119Y-125453725D01*
X89614014Y-125453106D01*
X89611626Y-125452381D01*
X89471457Y-125424500D01*
X89471455Y-125424500D01*
X89328545Y-125424500D01*
X89328543Y-125424500D01*
X89188373Y-125452381D01*
X89185986Y-125453106D01*
X89184675Y-125453117D01*
X89182406Y-125453569D01*
X89182320Y-125453138D01*
X89116119Y-125453725D01*
X89114014Y-125453106D01*
X89111626Y-125452381D01*
X88971457Y-125424500D01*
X88971455Y-125424500D01*
X88828545Y-125424500D01*
X88828543Y-125424500D01*
X88688373Y-125452381D01*
X88685986Y-125453106D01*
X88684675Y-125453117D01*
X88682406Y-125453569D01*
X88682320Y-125453138D01*
X88616119Y-125453725D01*
X88614014Y-125453106D01*
X88611626Y-125452381D01*
X88471457Y-125424500D01*
X88471455Y-125424500D01*
X88328545Y-125424500D01*
X88328543Y-125424500D01*
X88188385Y-125452379D01*
X88188379Y-125452381D01*
X88056349Y-125507069D01*
X88056340Y-125507074D01*
X87937521Y-125586467D01*
X87937517Y-125586470D01*
X87836470Y-125687517D01*
X87836467Y-125687521D01*
X87757074Y-125806340D01*
X87757069Y-125806349D01*
X87702381Y-125938379D01*
X87702379Y-125938385D01*
X87674500Y-126078542D01*
X87674500Y-126078545D01*
X87674500Y-126221455D01*
X87674500Y-126221457D01*
X87674499Y-126221457D01*
X87702381Y-126361626D01*
X87703106Y-126364014D01*
X87703117Y-126365324D01*
X87703569Y-126367594D01*
X87703138Y-126367679D01*
X87703725Y-126433881D01*
X87703106Y-126435986D01*
X87702381Y-126438373D01*
X87674500Y-126578542D01*
X87674500Y-126578545D01*
X87674500Y-126721455D01*
X87674500Y-126721457D01*
X87674499Y-126721457D01*
X87702381Y-126861626D01*
X87703106Y-126864014D01*
X87703117Y-126865324D01*
X87703569Y-126867594D01*
X87703138Y-126867679D01*
X87703725Y-126933881D01*
X87703106Y-126935986D01*
X87702381Y-126938373D01*
X87674500Y-127078542D01*
X87674500Y-127078545D01*
X87674500Y-127221455D01*
X87674500Y-127221457D01*
X87674499Y-127221457D01*
X87702381Y-127361626D01*
X87703106Y-127364014D01*
X87703117Y-127365324D01*
X87703569Y-127367594D01*
X87703138Y-127367679D01*
X87703725Y-127433881D01*
X87703106Y-127435986D01*
X87702381Y-127438373D01*
X87674500Y-127578542D01*
X87674500Y-127578545D01*
X87674500Y-127721455D01*
X87674500Y-127721457D01*
X87674499Y-127721457D01*
X87702381Y-127861626D01*
X87703106Y-127864014D01*
X87703117Y-127865324D01*
X87703569Y-127867594D01*
X87703138Y-127867679D01*
X87703725Y-127933881D01*
X87703106Y-127935986D01*
X87702381Y-127938373D01*
X87674500Y-128078542D01*
X87674500Y-128078545D01*
X87674500Y-128221455D01*
X87674500Y-128221457D01*
X87674499Y-128221457D01*
X87702379Y-128361614D01*
X87702381Y-128361620D01*
X87757069Y-128493650D01*
X87757074Y-128493659D01*
X87836467Y-128612478D01*
X87836470Y-128612482D01*
X87937517Y-128713529D01*
X87937521Y-128713532D01*
X88056340Y-128792925D01*
X88056346Y-128792928D01*
X88056347Y-128792929D01*
X88188380Y-128847619D01*
X88188384Y-128847619D01*
X88188385Y-128847620D01*
X88328542Y-128875500D01*
X88328545Y-128875500D01*
X88471457Y-128875500D01*
X88611620Y-128847619D01*
X88614001Y-128846897D01*
X88615310Y-128846885D01*
X88617594Y-128846431D01*
X88617680Y-128846864D01*
X88683867Y-128846271D01*
X88685999Y-128846897D01*
X88688379Y-128847619D01*
X88828542Y-128875500D01*
X88828545Y-128875500D01*
X88971457Y-128875500D01*
X89111620Y-128847619D01*
X89114001Y-128846897D01*
X89115310Y-128846885D01*
X89117594Y-128846431D01*
X89117680Y-128846864D01*
X89183867Y-128846271D01*
X89185999Y-128846897D01*
X89188379Y-128847619D01*
X89328542Y-128875500D01*
X89328545Y-128875500D01*
X89471457Y-128875500D01*
X89611620Y-128847619D01*
X89614001Y-128846897D01*
X89615310Y-128846885D01*
X89617594Y-128846431D01*
X89617680Y-128846864D01*
X89683867Y-128846271D01*
X89685999Y-128846897D01*
X89688379Y-128847619D01*
X89828542Y-128875500D01*
X89828545Y-128875500D01*
X89971457Y-128875500D01*
X90111620Y-128847619D01*
X90114001Y-128846897D01*
X90115310Y-128846885D01*
X90117594Y-128846431D01*
X90117680Y-128846864D01*
X90183867Y-128846271D01*
X90185999Y-128846897D01*
X90188379Y-128847619D01*
X90328542Y-128875500D01*
X90328545Y-128875500D01*
X90471457Y-128875500D01*
X90565751Y-128856742D01*
X90611620Y-128847619D01*
X90743653Y-128792929D01*
X90862479Y-128713532D01*
X90963532Y-128612479D01*
X91042929Y-128493653D01*
X91049655Y-128477412D01*
X91093495Y-128423010D01*
X91159789Y-128400944D01*
X91227489Y-128418222D01*
X91275100Y-128469359D01*
X91288211Y-128526025D01*
X90906330Y-169323801D01*
X90906303Y-169326661D01*
X90885991Y-169393513D01*
X90832761Y-169438772D01*
X90782308Y-169449500D01*
X53031198Y-169449500D01*
X52964159Y-169429815D01*
X52918404Y-169377011D01*
X52907210Y-169323801D01*
X52927766Y-167823615D01*
X56424500Y-167823615D01*
X56424500Y-167976384D01*
X56454300Y-168126197D01*
X56454302Y-168126205D01*
X56512759Y-168267334D01*
X56512764Y-168267343D01*
X56597629Y-168394351D01*
X56597632Y-168394355D01*
X56705644Y-168502367D01*
X56705648Y-168502370D01*
X56832656Y-168587235D01*
X56832662Y-168587238D01*
X56832663Y-168587239D01*
X56973795Y-168645698D01*
X57123615Y-168675499D01*
X57123619Y-168675500D01*
X57123620Y-168675500D01*
X57276381Y-168675500D01*
X57276382Y-168675499D01*
X57426205Y-168645698D01*
X57567337Y-168587239D01*
X57694352Y-168502370D01*
X57802370Y-168394352D01*
X57887239Y-168267337D01*
X57945698Y-168126205D01*
X57956159Y-168073615D01*
X62974500Y-168073615D01*
X62974500Y-168226384D01*
X63004300Y-168376197D01*
X63004302Y-168376205D01*
X63062759Y-168517334D01*
X63062764Y-168517343D01*
X63147629Y-168644351D01*
X63147632Y-168644355D01*
X63255644Y-168752367D01*
X63255648Y-168752370D01*
X63382656Y-168837235D01*
X63382662Y-168837238D01*
X63382663Y-168837239D01*
X63523795Y-168895698D01*
X63673615Y-168925499D01*
X63673619Y-168925500D01*
X63673620Y-168925500D01*
X63826381Y-168925500D01*
X63826382Y-168925499D01*
X63976205Y-168895698D01*
X64117337Y-168837239D01*
X64244352Y-168752370D01*
X64352370Y-168644352D01*
X64437239Y-168517337D01*
X64495698Y-168376205D01*
X64525500Y-168226380D01*
X64525500Y-168073620D01*
X64495698Y-167923795D01*
X64437239Y-167782663D01*
X64437238Y-167782662D01*
X64437235Y-167782656D01*
X64352370Y-167655648D01*
X64352367Y-167655644D01*
X64244355Y-167547632D01*
X64244351Y-167547629D01*
X64117343Y-167462764D01*
X64117334Y-167462759D01*
X63976205Y-167404302D01*
X63976197Y-167404300D01*
X63826384Y-167374500D01*
X63826380Y-167374500D01*
X63673620Y-167374500D01*
X63673615Y-167374500D01*
X63523802Y-167404300D01*
X63523794Y-167404302D01*
X63382665Y-167462759D01*
X63382656Y-167462764D01*
X63255648Y-167547629D01*
X63255644Y-167547632D01*
X63147632Y-167655644D01*
X63147629Y-167655648D01*
X63062764Y-167782656D01*
X63062759Y-167782665D01*
X63004302Y-167923794D01*
X63004300Y-167923802D01*
X62974500Y-168073615D01*
X57956159Y-168073615D01*
X57962182Y-168043337D01*
X57975499Y-167976384D01*
X57975500Y-167976381D01*
X57975500Y-167823619D01*
X57975499Y-167823615D01*
X57945698Y-167673795D01*
X57887239Y-167532663D01*
X57887238Y-167532662D01*
X57887235Y-167532656D01*
X57802370Y-167405648D01*
X57802367Y-167405644D01*
X57694355Y-167297632D01*
X57694351Y-167297629D01*
X57567343Y-167212764D01*
X57567334Y-167212759D01*
X57426205Y-167154302D01*
X57426197Y-167154300D01*
X57276384Y-167124500D01*
X57276380Y-167124500D01*
X57123620Y-167124500D01*
X57123615Y-167124500D01*
X56973802Y-167154300D01*
X56973794Y-167154302D01*
X56832665Y-167212759D01*
X56832656Y-167212764D01*
X56705648Y-167297629D01*
X56705644Y-167297632D01*
X56597632Y-167405644D01*
X56597629Y-167405648D01*
X56512764Y-167532656D01*
X56512759Y-167532665D01*
X56454302Y-167673794D01*
X56454300Y-167673802D01*
X56424500Y-167823615D01*
X52927766Y-167823615D01*
X52946273Y-166473007D01*
X52966873Y-166406248D01*
X53020299Y-166361220D01*
X53089587Y-166352225D01*
X53152739Y-166382118D01*
X53184821Y-166427257D01*
X53228759Y-166533334D01*
X53228764Y-166533343D01*
X53313629Y-166660351D01*
X53313632Y-166660355D01*
X53421644Y-166768367D01*
X53421648Y-166768370D01*
X53548656Y-166853235D01*
X53548662Y-166853238D01*
X53548663Y-166853239D01*
X53689795Y-166911698D01*
X53839615Y-166941499D01*
X53839619Y-166941500D01*
X53839620Y-166941500D01*
X53992381Y-166941500D01*
X53992382Y-166941499D01*
X54142205Y-166911698D01*
X54283337Y-166853239D01*
X54410352Y-166768370D01*
X54518370Y-166660352D01*
X54603239Y-166533337D01*
X54661698Y-166392205D01*
X54691500Y-166242380D01*
X54691500Y-166089620D01*
X54661698Y-165939795D01*
X54603239Y-165798663D01*
X54603238Y-165798662D01*
X54603235Y-165798656D01*
X54518370Y-165671648D01*
X54518367Y-165671644D01*
X54410355Y-165563632D01*
X54410351Y-165563629D01*
X54283343Y-165478764D01*
X54283334Y-165478759D01*
X54142205Y-165420302D01*
X54142197Y-165420300D01*
X53992384Y-165390500D01*
X53992380Y-165390500D01*
X53839620Y-165390500D01*
X53839615Y-165390500D01*
X53689802Y-165420300D01*
X53689794Y-165420302D01*
X53548665Y-165478759D01*
X53548656Y-165478764D01*
X53421648Y-165563629D01*
X53421644Y-165563632D01*
X53313632Y-165671644D01*
X53313629Y-165671648D01*
X53228764Y-165798656D01*
X53228759Y-165798666D01*
X53193571Y-165883618D01*
X53149730Y-165938021D01*
X53083436Y-165960086D01*
X53015736Y-165942807D01*
X52968126Y-165891669D01*
X52955022Y-165834468D01*
X52969558Y-164773615D01*
X54824500Y-164773615D01*
X54824500Y-164926384D01*
X54854300Y-165076197D01*
X54854302Y-165076205D01*
X54912759Y-165217334D01*
X54912764Y-165217343D01*
X54997629Y-165344351D01*
X54997632Y-165344355D01*
X55105644Y-165452367D01*
X55105648Y-165452370D01*
X55232656Y-165537235D01*
X55232662Y-165537238D01*
X55232663Y-165537239D01*
X55373795Y-165595698D01*
X55523615Y-165625499D01*
X55523619Y-165625500D01*
X55523620Y-165625500D01*
X55676381Y-165625500D01*
X55676382Y-165625499D01*
X55826205Y-165595698D01*
X55967337Y-165537239D01*
X56094352Y-165452370D01*
X56202370Y-165344352D01*
X56287239Y-165217337D01*
X56345698Y-165076205D01*
X56375500Y-164926380D01*
X56375500Y-164773620D01*
X56345698Y-164623795D01*
X56287239Y-164482663D01*
X56287238Y-164482662D01*
X56287235Y-164482656D01*
X56202370Y-164355648D01*
X56202367Y-164355644D01*
X56094355Y-164247632D01*
X56094351Y-164247629D01*
X55979115Y-164170630D01*
X55967341Y-164162763D01*
X55967334Y-164162759D01*
X55826205Y-164104302D01*
X55826197Y-164104300D01*
X55676384Y-164074500D01*
X55676380Y-164074500D01*
X55523620Y-164074500D01*
X55523615Y-164074500D01*
X55373802Y-164104300D01*
X55373794Y-164104302D01*
X55232665Y-164162759D01*
X55232656Y-164162764D01*
X55105648Y-164247629D01*
X55105644Y-164247632D01*
X54997632Y-164355644D01*
X54997629Y-164355648D01*
X54912764Y-164482656D01*
X54912759Y-164482665D01*
X54854302Y-164623794D01*
X54854300Y-164623802D01*
X54824500Y-164773615D01*
X52969558Y-164773615D01*
X52979150Y-164073615D01*
X58074500Y-164073615D01*
X58074500Y-164226384D01*
X58104300Y-164376197D01*
X58104302Y-164376205D01*
X58162759Y-164517334D01*
X58162764Y-164517343D01*
X58247629Y-164644351D01*
X58247632Y-164644355D01*
X58355644Y-164752367D01*
X58355648Y-164752370D01*
X58482656Y-164837235D01*
X58482662Y-164837238D01*
X58482663Y-164837239D01*
X58623795Y-164895698D01*
X58773615Y-164925499D01*
X58773619Y-164925500D01*
X58773620Y-164925500D01*
X58926381Y-164925500D01*
X58926382Y-164925499D01*
X59076205Y-164895698D01*
X59217337Y-164837239D01*
X59344352Y-164752370D01*
X59452370Y-164644352D01*
X59537239Y-164517337D01*
X59595698Y-164376205D01*
X59625500Y-164226380D01*
X59625500Y-164073620D01*
X59595698Y-163923795D01*
X59537239Y-163782663D01*
X59537238Y-163782662D01*
X59537235Y-163782656D01*
X59452370Y-163655648D01*
X59452367Y-163655644D01*
X59344355Y-163547632D01*
X59344351Y-163547629D01*
X59217343Y-163462764D01*
X59217334Y-163462759D01*
X59076205Y-163404302D01*
X59076197Y-163404300D01*
X58926384Y-163374500D01*
X58926380Y-163374500D01*
X58773620Y-163374500D01*
X58773615Y-163374500D01*
X58623802Y-163404300D01*
X58623794Y-163404302D01*
X58482665Y-163462759D01*
X58482656Y-163462764D01*
X58355648Y-163547629D01*
X58355644Y-163547632D01*
X58247632Y-163655644D01*
X58247629Y-163655648D01*
X58162764Y-163782656D01*
X58162759Y-163782665D01*
X58104302Y-163923794D01*
X58104300Y-163923802D01*
X58074500Y-164073615D01*
X52979150Y-164073615D01*
X52997366Y-162744234D01*
X68764500Y-162744234D01*
X68764500Y-162895765D01*
X68803719Y-163042136D01*
X68841602Y-163107750D01*
X68879485Y-163173365D01*
X68986635Y-163280515D01*
X69117865Y-163356281D01*
X69264234Y-163395500D01*
X69264236Y-163395500D01*
X69415764Y-163395500D01*
X69415766Y-163395500D01*
X69562135Y-163356281D01*
X69693365Y-163280515D01*
X69800515Y-163173365D01*
X69876281Y-163042135D01*
X69915500Y-162895766D01*
X69915500Y-162744234D01*
X74544500Y-162744234D01*
X74544500Y-162895765D01*
X74583719Y-163042136D01*
X74621602Y-163107750D01*
X74659485Y-163173365D01*
X74766635Y-163280515D01*
X74897865Y-163356281D01*
X75044234Y-163395500D01*
X75044236Y-163395500D01*
X75195764Y-163395500D01*
X75195766Y-163395500D01*
X75342135Y-163356281D01*
X75473365Y-163280515D01*
X75580515Y-163173365D01*
X75656281Y-163042135D01*
X75695500Y-162895766D01*
X75695500Y-162744234D01*
X75656281Y-162597865D01*
X75580515Y-162466635D01*
X75499138Y-162385258D01*
X86499500Y-162385258D01*
X86499500Y-162614741D01*
X86524446Y-162804215D01*
X86529452Y-162842238D01*
X86543795Y-162895766D01*
X86588842Y-163063887D01*
X86676650Y-163275876D01*
X86676657Y-163275890D01*
X86791392Y-163474617D01*
X86931081Y-163656661D01*
X86931089Y-163656670D01*
X87093330Y-163818911D01*
X87093338Y-163818918D01*
X87275382Y-163958607D01*
X87275385Y-163958608D01*
X87275388Y-163958611D01*
X87474112Y-164073344D01*
X87474117Y-164073346D01*
X87474123Y-164073349D01*
X87548846Y-164104300D01*
X87686113Y-164161158D01*
X87907762Y-164220548D01*
X88135266Y-164250500D01*
X88135273Y-164250500D01*
X88364727Y-164250500D01*
X88364734Y-164250500D01*
X88592238Y-164220548D01*
X88813887Y-164161158D01*
X89025888Y-164073344D01*
X89224612Y-163958611D01*
X89406661Y-163818919D01*
X89406665Y-163818914D01*
X89406670Y-163818911D01*
X89568911Y-163656670D01*
X89568914Y-163656665D01*
X89568919Y-163656661D01*
X89708611Y-163474612D01*
X89823344Y-163275888D01*
X89911158Y-163063887D01*
X89970548Y-162842238D01*
X90000500Y-162614734D01*
X90000500Y-162385266D01*
X89970548Y-162157762D01*
X89911158Y-161936113D01*
X89823344Y-161724112D01*
X89708611Y-161525388D01*
X89708608Y-161525385D01*
X89708607Y-161525382D01*
X89568918Y-161343338D01*
X89568911Y-161343330D01*
X89406670Y-161181089D01*
X89406661Y-161181081D01*
X89224617Y-161041392D01*
X89174536Y-161012478D01*
X89025888Y-160926656D01*
X89025876Y-160926650D01*
X88813887Y-160838842D01*
X88592238Y-160779452D01*
X88554215Y-160774446D01*
X88364741Y-160749500D01*
X88364734Y-160749500D01*
X88135266Y-160749500D01*
X88135258Y-160749500D01*
X87918715Y-160778009D01*
X87907762Y-160779452D01*
X87814076Y-160804554D01*
X87686112Y-160838842D01*
X87474123Y-160926650D01*
X87474109Y-160926657D01*
X87275382Y-161041392D01*
X87093338Y-161181081D01*
X86931081Y-161343338D01*
X86791392Y-161525382D01*
X86676657Y-161724109D01*
X86676650Y-161724123D01*
X86588842Y-161936112D01*
X86529453Y-162157759D01*
X86529451Y-162157770D01*
X86499500Y-162385258D01*
X75499138Y-162385258D01*
X75473365Y-162359485D01*
X75407750Y-162321602D01*
X75342136Y-162283719D01*
X75268950Y-162264109D01*
X75195766Y-162244500D01*
X75044234Y-162244500D01*
X74897863Y-162283719D01*
X74766635Y-162359485D01*
X74766632Y-162359487D01*
X74659487Y-162466632D01*
X74659485Y-162466635D01*
X74583719Y-162597863D01*
X74544500Y-162744234D01*
X69915500Y-162744234D01*
X69876281Y-162597865D01*
X69800515Y-162466635D01*
X69693365Y-162359485D01*
X69627750Y-162321602D01*
X69562136Y-162283719D01*
X69488950Y-162264109D01*
X69415766Y-162244500D01*
X69264234Y-162244500D01*
X69117863Y-162283719D01*
X68986635Y-162359485D01*
X68986632Y-162359487D01*
X68879487Y-162466632D01*
X68879485Y-162466635D01*
X68803719Y-162597863D01*
X68764500Y-162744234D01*
X52997366Y-162744234D01*
X53026453Y-160621457D01*
X56574499Y-160621457D01*
X56602379Y-160761614D01*
X56602381Y-160761620D01*
X56657069Y-160893650D01*
X56657074Y-160893659D01*
X56736467Y-161012478D01*
X56736470Y-161012482D01*
X56837517Y-161113529D01*
X56837521Y-161113532D01*
X56956340Y-161192925D01*
X56956346Y-161192928D01*
X56956347Y-161192929D01*
X57088380Y-161247619D01*
X57088384Y-161247619D01*
X57088385Y-161247620D01*
X57228542Y-161275500D01*
X57228545Y-161275500D01*
X57371457Y-161275500D01*
X57465751Y-161256742D01*
X57511620Y-161247619D01*
X57643653Y-161192929D01*
X57762479Y-161113532D01*
X57863532Y-161012479D01*
X57942929Y-160893653D01*
X57997619Y-160761620D01*
X58025500Y-160621455D01*
X58025500Y-160478545D01*
X58025500Y-160478542D01*
X57997620Y-160338385D01*
X57997619Y-160338384D01*
X57997619Y-160338380D01*
X57942929Y-160206347D01*
X57942928Y-160206346D01*
X57942925Y-160206340D01*
X57863532Y-160087521D01*
X57863529Y-160087517D01*
X57762482Y-159986470D01*
X57762478Y-159986467D01*
X57643659Y-159907074D01*
X57643650Y-159907069D01*
X57511620Y-159852381D01*
X57511614Y-159852379D01*
X57371457Y-159824500D01*
X57371455Y-159824500D01*
X57228545Y-159824500D01*
X57228543Y-159824500D01*
X57088385Y-159852379D01*
X57088379Y-159852381D01*
X56956349Y-159907069D01*
X56956340Y-159907074D01*
X56837521Y-159986467D01*
X56837517Y-159986470D01*
X56736470Y-160087517D01*
X56736467Y-160087521D01*
X56657074Y-160206340D01*
X56657069Y-160206349D01*
X56602381Y-160338379D01*
X56602379Y-160338385D01*
X56574500Y-160478542D01*
X56574500Y-160478545D01*
X56574500Y-160621455D01*
X56574500Y-160621457D01*
X56574499Y-160621457D01*
X53026453Y-160621457D01*
X53097021Y-155471457D01*
X68424499Y-155471457D01*
X68452379Y-155611614D01*
X68452381Y-155611620D01*
X68507069Y-155743650D01*
X68507074Y-155743659D01*
X68586467Y-155862478D01*
X68586470Y-155862482D01*
X68687517Y-155963529D01*
X68687521Y-155963532D01*
X68806340Y-156042925D01*
X68806346Y-156042928D01*
X68806347Y-156042929D01*
X68938380Y-156097619D01*
X68938384Y-156097619D01*
X68938385Y-156097620D01*
X69078542Y-156125500D01*
X69078545Y-156125500D01*
X69221457Y-156125500D01*
X69315751Y-156106742D01*
X69361620Y-156097619D01*
X69493653Y-156042929D01*
X69612479Y-155963532D01*
X69713532Y-155862479D01*
X69792929Y-155743653D01*
X69847619Y-155611620D01*
X69875500Y-155471455D01*
X69875500Y-155328545D01*
X69875500Y-155328542D01*
X69847620Y-155188385D01*
X69847619Y-155188384D01*
X69847619Y-155188380D01*
X69792929Y-155056347D01*
X69792928Y-155056346D01*
X69792925Y-155056340D01*
X69713532Y-154937521D01*
X69713529Y-154937517D01*
X69612482Y-154836470D01*
X69612478Y-154836467D01*
X69493659Y-154757074D01*
X69493650Y-154757069D01*
X69361620Y-154702381D01*
X69361614Y-154702379D01*
X69221457Y-154674500D01*
X69221455Y-154674500D01*
X69078545Y-154674500D01*
X69078543Y-154674500D01*
X68938385Y-154702379D01*
X68938379Y-154702381D01*
X68806349Y-154757069D01*
X68806340Y-154757074D01*
X68687521Y-154836467D01*
X68687517Y-154836470D01*
X68586470Y-154937517D01*
X68586467Y-154937521D01*
X68507074Y-155056340D01*
X68507069Y-155056349D01*
X68452381Y-155188379D01*
X68452379Y-155188385D01*
X68424500Y-155328542D01*
X68424500Y-155328545D01*
X68424500Y-155471455D01*
X68424500Y-155471457D01*
X68424499Y-155471457D01*
X53097021Y-155471457D01*
X53144294Y-152021457D01*
X66674499Y-152021457D01*
X66702379Y-152161614D01*
X66702381Y-152161620D01*
X66757069Y-152293650D01*
X66757074Y-152293659D01*
X66836467Y-152412478D01*
X66836470Y-152412482D01*
X66937517Y-152513529D01*
X66937521Y-152513532D01*
X67056340Y-152592925D01*
X67056346Y-152592928D01*
X67056347Y-152592929D01*
X67188380Y-152647619D01*
X67188384Y-152647619D01*
X67188385Y-152647620D01*
X67328542Y-152675500D01*
X67328545Y-152675500D01*
X67471457Y-152675500D01*
X67565751Y-152656742D01*
X67611620Y-152647619D01*
X67743653Y-152592929D01*
X67862479Y-152513532D01*
X67963532Y-152412479D01*
X68042929Y-152293653D01*
X68097619Y-152161620D01*
X68125500Y-152021457D01*
X69949499Y-152021457D01*
X69977379Y-152161614D01*
X69977381Y-152161620D01*
X70032069Y-152293650D01*
X70032074Y-152293659D01*
X70111467Y-152412478D01*
X70111470Y-152412482D01*
X70212517Y-152513529D01*
X70212521Y-152513532D01*
X70331340Y-152592925D01*
X70331346Y-152592928D01*
X70331347Y-152592929D01*
X70463380Y-152647619D01*
X70463384Y-152647619D01*
X70463385Y-152647620D01*
X70603542Y-152675500D01*
X70603545Y-152675500D01*
X70746457Y-152675500D01*
X70840751Y-152656742D01*
X70886620Y-152647619D01*
X71018653Y-152592929D01*
X71137479Y-152513532D01*
X71238532Y-152412479D01*
X71317929Y-152293653D01*
X71372619Y-152161620D01*
X71400500Y-152021455D01*
X71400500Y-151878545D01*
X71400500Y-151878542D01*
X71372620Y-151738385D01*
X71372619Y-151738384D01*
X71372619Y-151738380D01*
X71317929Y-151606347D01*
X71317928Y-151606346D01*
X71317925Y-151606340D01*
X71238532Y-151487521D01*
X71238529Y-151487517D01*
X71137482Y-151386470D01*
X71137478Y-151386467D01*
X71018659Y-151307074D01*
X71018650Y-151307069D01*
X70886620Y-151252381D01*
X70886614Y-151252379D01*
X70746457Y-151224500D01*
X70746455Y-151224500D01*
X70603545Y-151224500D01*
X70603543Y-151224500D01*
X70463385Y-151252379D01*
X70463379Y-151252381D01*
X70331349Y-151307069D01*
X70331340Y-151307074D01*
X70212521Y-151386467D01*
X70212517Y-151386470D01*
X70111470Y-151487517D01*
X70111467Y-151487521D01*
X70032074Y-151606340D01*
X70032069Y-151606349D01*
X69977381Y-151738379D01*
X69977379Y-151738385D01*
X69949500Y-151878542D01*
X69949500Y-151878545D01*
X69949500Y-152021455D01*
X69949500Y-152021457D01*
X69949499Y-152021457D01*
X68125500Y-152021457D01*
X68125500Y-152021455D01*
X68125500Y-151878545D01*
X68125500Y-151878542D01*
X68097620Y-151738385D01*
X68097619Y-151738384D01*
X68097619Y-151738380D01*
X68042929Y-151606347D01*
X68042928Y-151606346D01*
X68042925Y-151606340D01*
X67963532Y-151487521D01*
X67963529Y-151487517D01*
X67862482Y-151386470D01*
X67862478Y-151386467D01*
X67743659Y-151307074D01*
X67743650Y-151307069D01*
X67611620Y-151252381D01*
X67611614Y-151252379D01*
X67471457Y-151224500D01*
X67471455Y-151224500D01*
X67328545Y-151224500D01*
X67328543Y-151224500D01*
X67188385Y-151252379D01*
X67188379Y-151252381D01*
X67056349Y-151307069D01*
X67056340Y-151307074D01*
X66937521Y-151386467D01*
X66937517Y-151386470D01*
X66836470Y-151487517D01*
X66836467Y-151487521D01*
X66757074Y-151606340D01*
X66757069Y-151606349D01*
X66702381Y-151738379D01*
X66702379Y-151738385D01*
X66674500Y-151878542D01*
X66674500Y-151878545D01*
X66674500Y-152021455D01*
X66674500Y-152021457D01*
X66674499Y-152021457D01*
X53144294Y-152021457D01*
X53214862Y-146871457D01*
X53474499Y-146871457D01*
X53502379Y-147011614D01*
X53502381Y-147011620D01*
X53557069Y-147143650D01*
X53557074Y-147143659D01*
X53636467Y-147262478D01*
X53636470Y-147262482D01*
X53737517Y-147363529D01*
X53737521Y-147363532D01*
X53856340Y-147442925D01*
X53856346Y-147442928D01*
X53856347Y-147442929D01*
X53988380Y-147497619D01*
X53988384Y-147497619D01*
X53988385Y-147497620D01*
X54128542Y-147525500D01*
X54128545Y-147525500D01*
X54271457Y-147525500D01*
X54365751Y-147506742D01*
X54411620Y-147497619D01*
X54543653Y-147442929D01*
X54662479Y-147363532D01*
X54763532Y-147262479D01*
X54842929Y-147143653D01*
X54897619Y-147011620D01*
X54925500Y-146871455D01*
X54925500Y-146728545D01*
X54925500Y-146728542D01*
X54897620Y-146588385D01*
X54897619Y-146588384D01*
X54897619Y-146588380D01*
X54842929Y-146456347D01*
X54842928Y-146456346D01*
X54842925Y-146456340D01*
X54763532Y-146337521D01*
X54763529Y-146337517D01*
X54662482Y-146236470D01*
X54662478Y-146236467D01*
X54543659Y-146157074D01*
X54543650Y-146157069D01*
X54411620Y-146102381D01*
X54411614Y-146102379D01*
X54271457Y-146074500D01*
X54271455Y-146074500D01*
X54128545Y-146074500D01*
X54128543Y-146074500D01*
X53988385Y-146102379D01*
X53988379Y-146102381D01*
X53856349Y-146157069D01*
X53856340Y-146157074D01*
X53737521Y-146236467D01*
X53737517Y-146236470D01*
X53636470Y-146337517D01*
X53636467Y-146337521D01*
X53557074Y-146456340D01*
X53557069Y-146456349D01*
X53502381Y-146588379D01*
X53502379Y-146588385D01*
X53474500Y-146728542D01*
X53474500Y-146728545D01*
X53474500Y-146871455D01*
X53474500Y-146871457D01*
X53474499Y-146871457D01*
X53214862Y-146871457D01*
X53264889Y-143220517D01*
X53285490Y-143153756D01*
X53332581Y-143111734D01*
X53486433Y-143033343D01*
X53677510Y-142894517D01*
X53844517Y-142727510D01*
X53983343Y-142536433D01*
X54090568Y-142325992D01*
X54163553Y-142101368D01*
X54176210Y-142021457D01*
X57574499Y-142021457D01*
X57602379Y-142161614D01*
X57602381Y-142161620D01*
X57657069Y-142293650D01*
X57657074Y-142293659D01*
X57736467Y-142412478D01*
X57736470Y-142412482D01*
X57837517Y-142513529D01*
X57837521Y-142513532D01*
X57956340Y-142592925D01*
X57956346Y-142592928D01*
X57956347Y-142592929D01*
X58088380Y-142647619D01*
X58088384Y-142647619D01*
X58088385Y-142647620D01*
X58228542Y-142675500D01*
X58228545Y-142675500D01*
X58371457Y-142675500D01*
X58465751Y-142656742D01*
X58511620Y-142647619D01*
X58643653Y-142592929D01*
X58762479Y-142513532D01*
X58863532Y-142412479D01*
X58942929Y-142293653D01*
X58997619Y-142161620D01*
X59025500Y-142021455D01*
X59025500Y-141878545D01*
X59025500Y-141878542D01*
X58997620Y-141738385D01*
X58997619Y-141738384D01*
X58997619Y-141738380D01*
X58942929Y-141606347D01*
X58942928Y-141606346D01*
X58942925Y-141606340D01*
X58863532Y-141487521D01*
X58863529Y-141487517D01*
X58762482Y-141386470D01*
X58762478Y-141386467D01*
X58643659Y-141307074D01*
X58643650Y-141307069D01*
X58511620Y-141252381D01*
X58511614Y-141252379D01*
X58371457Y-141224500D01*
X58371455Y-141224500D01*
X58228545Y-141224500D01*
X58228543Y-141224500D01*
X58088385Y-141252379D01*
X58088379Y-141252381D01*
X57956349Y-141307069D01*
X57956340Y-141307074D01*
X57837521Y-141386467D01*
X57837517Y-141386470D01*
X57736470Y-141487517D01*
X57736467Y-141487521D01*
X57657074Y-141606340D01*
X57657069Y-141606349D01*
X57602381Y-141738379D01*
X57602379Y-141738385D01*
X57574500Y-141878542D01*
X57574500Y-141878545D01*
X57574500Y-142021455D01*
X57574500Y-142021457D01*
X57574499Y-142021457D01*
X54176210Y-142021457D01*
X54176210Y-142021455D01*
X54200500Y-141868097D01*
X54200500Y-141631902D01*
X54163553Y-141398631D01*
X54090566Y-141174003D01*
X53983342Y-140963566D01*
X53844517Y-140772490D01*
X53677510Y-140605483D01*
X53486433Y-140466657D01*
X53372648Y-140408680D01*
X53321852Y-140360705D01*
X53304955Y-140296498D01*
X53319001Y-139271457D01*
X75524499Y-139271457D01*
X75552379Y-139411614D01*
X75552381Y-139411620D01*
X75607069Y-139543650D01*
X75607074Y-139543659D01*
X75686467Y-139662478D01*
X75686470Y-139662482D01*
X75787517Y-139763529D01*
X75787521Y-139763532D01*
X75906340Y-139842925D01*
X75906346Y-139842928D01*
X75906347Y-139842929D01*
X76038380Y-139897619D01*
X76038384Y-139897619D01*
X76038385Y-139897620D01*
X76178542Y-139925500D01*
X76178545Y-139925500D01*
X76321457Y-139925500D01*
X76415751Y-139906742D01*
X76461620Y-139897619D01*
X76593653Y-139842929D01*
X76712479Y-139763532D01*
X76813532Y-139662479D01*
X76892929Y-139543653D01*
X76947619Y-139411620D01*
X76975500Y-139271455D01*
X76975500Y-139128545D01*
X76975500Y-139128542D01*
X76947620Y-138988385D01*
X76947619Y-138988384D01*
X76947619Y-138988380D01*
X76892929Y-138856347D01*
X76892928Y-138856346D01*
X76892925Y-138856340D01*
X76813532Y-138737521D01*
X76813529Y-138737517D01*
X76712482Y-138636470D01*
X76712478Y-138636467D01*
X76593659Y-138557074D01*
X76593650Y-138557069D01*
X76461620Y-138502381D01*
X76461614Y-138502379D01*
X76321457Y-138474500D01*
X76321455Y-138474500D01*
X76178545Y-138474500D01*
X76178543Y-138474500D01*
X76038385Y-138502379D01*
X76038379Y-138502381D01*
X75906349Y-138557069D01*
X75906340Y-138557074D01*
X75787521Y-138636467D01*
X75787517Y-138636470D01*
X75686470Y-138737517D01*
X75686467Y-138737521D01*
X75607074Y-138856340D01*
X75607069Y-138856349D01*
X75552381Y-138988379D01*
X75552379Y-138988385D01*
X75524500Y-139128542D01*
X75524500Y-139128545D01*
X75524500Y-139271455D01*
X75524500Y-139271457D01*
X75524499Y-139271457D01*
X53319001Y-139271457D01*
X53358837Y-136364234D01*
X53879500Y-136364234D01*
X53879500Y-136515765D01*
X53918719Y-136662136D01*
X53956602Y-136727750D01*
X53994485Y-136793365D01*
X54101635Y-136900515D01*
X54232865Y-136976281D01*
X54379234Y-137015500D01*
X54379236Y-137015500D01*
X54530764Y-137015500D01*
X54530766Y-137015500D01*
X54677135Y-136976281D01*
X54808365Y-136900515D01*
X54915515Y-136793365D01*
X54991281Y-136662135D01*
X55030500Y-136515766D01*
X55030500Y-136364234D01*
X54991281Y-136217865D01*
X54915515Y-136086635D01*
X54808365Y-135979485D01*
X54742750Y-135941602D01*
X54677136Y-135903719D01*
X54603950Y-135884109D01*
X54530766Y-135864500D01*
X54379234Y-135864500D01*
X54232863Y-135903719D01*
X54101635Y-135979485D01*
X54101632Y-135979487D01*
X53994487Y-136086632D01*
X53994485Y-136086635D01*
X53918719Y-136217863D01*
X53879500Y-136364234D01*
X53358837Y-136364234D01*
X53392360Y-133917770D01*
X53412961Y-133851007D01*
X53466387Y-133805979D01*
X53492157Y-133797852D01*
X53559360Y-133784483D01*
X53633497Y-133769737D01*
X53750790Y-133721153D01*
X57899500Y-133721153D01*
X57899500Y-133878846D01*
X57930261Y-134033489D01*
X57930264Y-134033501D01*
X57990602Y-134179172D01*
X57990609Y-134179185D01*
X58078210Y-134310288D01*
X58078213Y-134310292D01*
X58189707Y-134421786D01*
X58189711Y-134421789D01*
X58320814Y-134509390D01*
X58320827Y-134509397D01*
X58466498Y-134569735D01*
X58466503Y-134569737D01*
X58617212Y-134599715D01*
X58621153Y-134600499D01*
X58621156Y-134600500D01*
X58621158Y-134600500D01*
X58778844Y-134600500D01*
X58778845Y-134600499D01*
X58933497Y-134569737D01*
X59079179Y-134509394D01*
X59210289Y-134421789D01*
X59321789Y-134310289D01*
X59409394Y-134179179D01*
X59469737Y-134033497D01*
X59500500Y-133878842D01*
X59500500Y-133721158D01*
X59500500Y-133721155D01*
X59500499Y-133721153D01*
X59469738Y-133566510D01*
X59469737Y-133566503D01*
X59446452Y-133510288D01*
X59409397Y-133420827D01*
X59409390Y-133420814D01*
X59321789Y-133289711D01*
X59321786Y-133289707D01*
X59210292Y-133178213D01*
X59210288Y-133178210D01*
X59079185Y-133090609D01*
X59079172Y-133090602D01*
X58933501Y-133030264D01*
X58933489Y-133030261D01*
X58778845Y-132999500D01*
X58778842Y-132999500D01*
X58621158Y-132999500D01*
X58621155Y-132999500D01*
X58466510Y-133030261D01*
X58466498Y-133030264D01*
X58320827Y-133090602D01*
X58320814Y-133090609D01*
X58189711Y-133178210D01*
X58189707Y-133178213D01*
X58078213Y-133289707D01*
X58078210Y-133289711D01*
X57990609Y-133420814D01*
X57990602Y-133420827D01*
X57930264Y-133566498D01*
X57930261Y-133566510D01*
X57899500Y-133721153D01*
X53750790Y-133721153D01*
X53779179Y-133709394D01*
X53910289Y-133621789D01*
X54021789Y-133510289D01*
X54109394Y-133379179D01*
X54169737Y-133233497D01*
X54200500Y-133078842D01*
X54200500Y-132921158D01*
X54200500Y-132921155D01*
X54200499Y-132921153D01*
X54169738Y-132766510D01*
X54169737Y-132766503D01*
X54169735Y-132766498D01*
X54109397Y-132620827D01*
X54109390Y-132620814D01*
X54021789Y-132489711D01*
X54021786Y-132489707D01*
X53910292Y-132378213D01*
X53910288Y-132378210D01*
X53779185Y-132290609D01*
X53779172Y-132290602D01*
X53633501Y-132230264D01*
X53633491Y-132230261D01*
X53517285Y-132207146D01*
X53455374Y-132174761D01*
X53420800Y-132114045D01*
X53417489Y-132083830D01*
X53417604Y-132075500D01*
X53438038Y-130584234D01*
X53879500Y-130584234D01*
X53879500Y-130735765D01*
X53918719Y-130882136D01*
X53956602Y-130947750D01*
X53994485Y-131013365D01*
X54101635Y-131120515D01*
X54232865Y-131196281D01*
X54379234Y-131235500D01*
X54379236Y-131235500D01*
X54530764Y-131235500D01*
X54530766Y-131235500D01*
X54677135Y-131196281D01*
X54808365Y-131120515D01*
X54915515Y-131013365D01*
X54991281Y-130882135D01*
X55030500Y-130735766D01*
X55030500Y-130584234D01*
X54991281Y-130437865D01*
X54915515Y-130306635D01*
X54808365Y-130199485D01*
X54742750Y-130161602D01*
X54677136Y-130123719D01*
X54603950Y-130104109D01*
X54530766Y-130084500D01*
X54379234Y-130084500D01*
X54232863Y-130123719D01*
X54101635Y-130199485D01*
X54101632Y-130199487D01*
X53994487Y-130306632D01*
X53994485Y-130306635D01*
X53918719Y-130437863D01*
X53879500Y-130584234D01*
X53438038Y-130584234D01*
X53472473Y-128071153D01*
X66449500Y-128071153D01*
X66449500Y-128228846D01*
X66480261Y-128383489D01*
X66480264Y-128383501D01*
X66540602Y-128529172D01*
X66540609Y-128529185D01*
X66628210Y-128660288D01*
X66628213Y-128660292D01*
X66739707Y-128771786D01*
X66739711Y-128771789D01*
X66870814Y-128859390D01*
X66870827Y-128859397D01*
X67016498Y-128919735D01*
X67016503Y-128919737D01*
X67171153Y-128950499D01*
X67171156Y-128950500D01*
X67171158Y-128950500D01*
X67328844Y-128950500D01*
X67328845Y-128950499D01*
X67483497Y-128919737D01*
X67629179Y-128859394D01*
X67760289Y-128771789D01*
X67871789Y-128660289D01*
X67959394Y-128529179D01*
X67960701Y-128526025D01*
X68003370Y-128423010D01*
X68019737Y-128383497D01*
X68050500Y-128228842D01*
X68050500Y-128071158D01*
X68050500Y-128071155D01*
X68050499Y-128071153D01*
X68046001Y-128048542D01*
X72524499Y-128048542D01*
X72547117Y-128162242D01*
X72549500Y-128186434D01*
X72549500Y-134273544D01*
X72577041Y-134412001D01*
X72587946Y-134466828D01*
X72587949Y-134466837D01*
X72663364Y-134648907D01*
X72663371Y-134648920D01*
X72772860Y-134812781D01*
X72772863Y-134812785D01*
X72916537Y-134956459D01*
X72916559Y-134956479D01*
X73974715Y-136014636D01*
X73974719Y-136014639D01*
X74138579Y-136124127D01*
X74138583Y-136124129D01*
X74138586Y-136124131D01*
X74320664Y-136199551D01*
X74513955Y-136237999D01*
X74513958Y-136238000D01*
X74513960Y-136238000D01*
X74711042Y-136238000D01*
X74711043Y-136237999D01*
X74904336Y-136199551D01*
X75086414Y-136124131D01*
X75250281Y-136014639D01*
X75389639Y-135875281D01*
X75499131Y-135711414D01*
X75574551Y-135529336D01*
X75613000Y-135336040D01*
X75613000Y-135138960D01*
X75613000Y-135138957D01*
X75612999Y-135138955D01*
X75574552Y-134945671D01*
X75574551Y-134945664D01*
X75499131Y-134763586D01*
X75499129Y-134763583D01*
X75499127Y-134763579D01*
X75389639Y-134599719D01*
X75389636Y-134599715D01*
X74586819Y-133796898D01*
X74553334Y-133735575D01*
X74550500Y-133709217D01*
X74550500Y-131549102D01*
X74570185Y-131482063D01*
X74622989Y-131436308D01*
X74692147Y-131426364D01*
X74732960Y-131439747D01*
X74735857Y-131441295D01*
X74735864Y-131441300D01*
X74735870Y-131441302D01*
X74735873Y-131441304D01*
X74855327Y-131490783D01*
X74886096Y-131503528D01*
X74886100Y-131503528D01*
X74886101Y-131503529D01*
X75045577Y-131535252D01*
X75045580Y-131535252D01*
X75208192Y-131535252D01*
X75315483Y-131513909D01*
X75367674Y-131503528D01*
X75467828Y-131462042D01*
X75517904Y-131441301D01*
X75517908Y-131441299D01*
X75585054Y-131396432D01*
X75653110Y-131350960D01*
X75672763Y-131331307D01*
X76724499Y-131331307D01*
X76756222Y-131490783D01*
X76756225Y-131490793D01*
X76818450Y-131641019D01*
X76818452Y-131641023D01*
X76908788Y-131776220D01*
X76908794Y-131776228D01*
X77023771Y-131891205D01*
X77023779Y-131891211D01*
X77158976Y-131981547D01*
X77158980Y-131981549D01*
X77309206Y-132043774D01*
X77309211Y-132043776D01*
X77309215Y-132043776D01*
X77309216Y-132043777D01*
X77468692Y-132075500D01*
X77468695Y-132075500D01*
X77631307Y-132075500D01*
X77738598Y-132054157D01*
X77790789Y-132043776D01*
X77941021Y-131981548D01*
X77941023Y-131981547D01*
X78008169Y-131936680D01*
X78076225Y-131891208D01*
X78191208Y-131776225D01*
X78281548Y-131641021D01*
X78343776Y-131490789D01*
X78371590Y-131350963D01*
X78375500Y-131331307D01*
X78375500Y-131168692D01*
X78343777Y-131009216D01*
X78343776Y-131009215D01*
X78343776Y-131009211D01*
X78291140Y-130882135D01*
X78281549Y-130858980D01*
X78281547Y-130858976D01*
X78191211Y-130723779D01*
X78191205Y-130723771D01*
X78076228Y-130608794D01*
X78076220Y-130608788D01*
X77941023Y-130518452D01*
X77941019Y-130518450D01*
X77790793Y-130456225D01*
X77790783Y-130456222D01*
X77631307Y-130424500D01*
X77631305Y-130424500D01*
X77468695Y-130424500D01*
X77468693Y-130424500D01*
X77309216Y-130456222D01*
X77309206Y-130456225D01*
X77158980Y-130518450D01*
X77158976Y-130518452D01*
X77023779Y-130608788D01*
X77023771Y-130608794D01*
X76908794Y-130723771D01*
X76908788Y-130723779D01*
X76818452Y-130858976D01*
X76818450Y-130858980D01*
X76756225Y-131009206D01*
X76756222Y-131009216D01*
X76724500Y-131168692D01*
X76724500Y-131168695D01*
X76724500Y-131331305D01*
X76724500Y-131331307D01*
X76724499Y-131331307D01*
X75672763Y-131331307D01*
X75768093Y-131235977D01*
X75858433Y-131100773D01*
X75920661Y-130950541D01*
X75952385Y-130791057D01*
X75952385Y-130628447D01*
X75952385Y-130628444D01*
X75920662Y-130468968D01*
X75920661Y-130468967D01*
X75920661Y-130468963D01*
X75902244Y-130424500D01*
X75858434Y-130318732D01*
X75858432Y-130318728D01*
X75768096Y-130183531D01*
X75768090Y-130183523D01*
X75653113Y-130068546D01*
X75653105Y-130068540D01*
X75517908Y-129978204D01*
X75517904Y-129978202D01*
X75367678Y-129915977D01*
X75367668Y-129915974D01*
X75208192Y-129884252D01*
X75208190Y-129884252D01*
X75045580Y-129884252D01*
X75045578Y-129884252D01*
X74886101Y-129915974D01*
X74886091Y-129915977D01*
X74735865Y-129978202D01*
X74732950Y-129979761D01*
X74731248Y-129980115D01*
X74730235Y-129980535D01*
X74730155Y-129980342D01*
X74664546Y-129994001D01*
X74599303Y-129968998D01*
X74557935Y-129912692D01*
X74550500Y-129870401D01*
X74550500Y-128480100D01*
X74570185Y-128413061D01*
X74622989Y-128367306D01*
X74674500Y-128356100D01*
X77931943Y-128356100D01*
X78061982Y-128330232D01*
X78125235Y-128317651D01*
X78307314Y-128242232D01*
X78471182Y-128132739D01*
X78610539Y-127993382D01*
X78720032Y-127829514D01*
X78795451Y-127647435D01*
X78819166Y-127528213D01*
X78833900Y-127454143D01*
X78833900Y-127436907D01*
X81818899Y-127436907D01*
X81850622Y-127596383D01*
X81850625Y-127596393D01*
X81912850Y-127746619D01*
X81912852Y-127746623D01*
X82003188Y-127881820D01*
X82003194Y-127881828D01*
X82118171Y-127996805D01*
X82118179Y-127996811D01*
X82253376Y-128087147D01*
X82253380Y-128087149D01*
X82403606Y-128149374D01*
X82403611Y-128149376D01*
X82403615Y-128149376D01*
X82403616Y-128149377D01*
X82563092Y-128181100D01*
X82563095Y-128181100D01*
X82725707Y-128181100D01*
X82832998Y-128159757D01*
X82885189Y-128149376D01*
X83035421Y-128087148D01*
X83035423Y-128087147D01*
X83102569Y-128042280D01*
X83170625Y-127996808D01*
X83285608Y-127881825D01*
X83375948Y-127746621D01*
X83438176Y-127596389D01*
X83462106Y-127476089D01*
X83469900Y-127436907D01*
X83469900Y-127274292D01*
X83438177Y-127114816D01*
X83438176Y-127114815D01*
X83438176Y-127114811D01*
X83417030Y-127063760D01*
X83375949Y-126964580D01*
X83375947Y-126964576D01*
X83285611Y-126829379D01*
X83285605Y-126829371D01*
X83170628Y-126714394D01*
X83170620Y-126714388D01*
X83035423Y-126624052D01*
X83035419Y-126624050D01*
X82885193Y-126561825D01*
X82885183Y-126561822D01*
X82725707Y-126530100D01*
X82725705Y-126530100D01*
X82563095Y-126530100D01*
X82563093Y-126530100D01*
X82403616Y-126561822D01*
X82403606Y-126561825D01*
X82253380Y-126624050D01*
X82253376Y-126624052D01*
X82118179Y-126714388D01*
X82118171Y-126714394D01*
X82003194Y-126829371D01*
X82003188Y-126829379D01*
X81912852Y-126964576D01*
X81912850Y-126964580D01*
X81850625Y-127114806D01*
X81850622Y-127114816D01*
X81818900Y-127274292D01*
X81818900Y-127274295D01*
X81818900Y-127436905D01*
X81818900Y-127436907D01*
X81818899Y-127436907D01*
X78833900Y-127436907D01*
X78833900Y-127257056D01*
X78795452Y-127063770D01*
X78795451Y-127063769D01*
X78795451Y-127063765D01*
X78793642Y-127059397D01*
X78720035Y-126881692D01*
X78720028Y-126881679D01*
X78610539Y-126717818D01*
X78610536Y-126717814D01*
X78471185Y-126578463D01*
X78471181Y-126578460D01*
X78307320Y-126468971D01*
X78307307Y-126468964D01*
X78125239Y-126393550D01*
X78125229Y-126393547D01*
X77931943Y-126355100D01*
X77931941Y-126355100D01*
X74070859Y-126355100D01*
X74070855Y-126355100D01*
X73978667Y-126373437D01*
X73978655Y-126373440D01*
X73974212Y-126374324D01*
X73877564Y-126393549D01*
X73828025Y-126414069D01*
X73820960Y-126416995D01*
X73820954Y-126416997D01*
X73695492Y-126468964D01*
X73695479Y-126468971D01*
X73531619Y-126578459D01*
X73486029Y-126624050D01*
X73392261Y-126717818D01*
X73392258Y-126717821D01*
X73046537Y-127063541D01*
X73027747Y-127078962D01*
X72887219Y-127172860D01*
X72887215Y-127172863D01*
X72747863Y-127312215D01*
X72747860Y-127312219D01*
X72638372Y-127476079D01*
X72638367Y-127476089D01*
X72562949Y-127658163D01*
X72562947Y-127658171D01*
X72524500Y-127851455D01*
X72524500Y-127851460D01*
X72524500Y-128048540D01*
X72524500Y-128048542D01*
X72524499Y-128048542D01*
X68046001Y-128048542D01*
X68035029Y-127993381D01*
X68019737Y-127916503D01*
X67973889Y-127805815D01*
X67959395Y-127770823D01*
X67959390Y-127770814D01*
X67871789Y-127639711D01*
X67871786Y-127639707D01*
X67760292Y-127528213D01*
X67760288Y-127528210D01*
X67629185Y-127440609D01*
X67629172Y-127440602D01*
X67483501Y-127380264D01*
X67483489Y-127380261D01*
X67328845Y-127349500D01*
X67328842Y-127349500D01*
X67171158Y-127349500D01*
X67171155Y-127349500D01*
X67016510Y-127380261D01*
X67016498Y-127380264D01*
X66870827Y-127440602D01*
X66870814Y-127440609D01*
X66739711Y-127528210D01*
X66739707Y-127528213D01*
X66628213Y-127639707D01*
X66628210Y-127639711D01*
X66540609Y-127770814D01*
X66540602Y-127770827D01*
X66480264Y-127916498D01*
X66480261Y-127916510D01*
X66449500Y-128071153D01*
X53472473Y-128071153D01*
X53497138Y-126271153D01*
X60599500Y-126271153D01*
X60599500Y-126428846D01*
X60630261Y-126583489D01*
X60630264Y-126583501D01*
X60690602Y-126729172D01*
X60690609Y-126729185D01*
X60778210Y-126860288D01*
X60778213Y-126860292D01*
X60889707Y-126971786D01*
X60889711Y-126971789D01*
X61020814Y-127059390D01*
X61020827Y-127059397D01*
X61166498Y-127119735D01*
X61166503Y-127119737D01*
X61321153Y-127150499D01*
X61321156Y-127150500D01*
X61321158Y-127150500D01*
X61478844Y-127150500D01*
X61478845Y-127150499D01*
X61633497Y-127119737D01*
X61768614Y-127063770D01*
X61779172Y-127059397D01*
X61779172Y-127059396D01*
X61779179Y-127059394D01*
X61910289Y-126971789D01*
X62021789Y-126860289D01*
X62109394Y-126729179D01*
X62169737Y-126583497D01*
X62200500Y-126428842D01*
X62200500Y-126271158D01*
X62200500Y-126271155D01*
X62200499Y-126271153D01*
X62169738Y-126116510D01*
X62169737Y-126116503D01*
X62169735Y-126116498D01*
X62109397Y-125970827D01*
X62109390Y-125970814D01*
X62021789Y-125839711D01*
X62021786Y-125839707D01*
X61910292Y-125728213D01*
X61910288Y-125728210D01*
X61779185Y-125640609D01*
X61779172Y-125640602D01*
X61633501Y-125580264D01*
X61633489Y-125580261D01*
X61478845Y-125549500D01*
X61478842Y-125549500D01*
X61321158Y-125549500D01*
X61321155Y-125549500D01*
X61166510Y-125580261D01*
X61166498Y-125580264D01*
X61020827Y-125640602D01*
X61020814Y-125640609D01*
X60889711Y-125728210D01*
X60889707Y-125728213D01*
X60778213Y-125839707D01*
X60778210Y-125839711D01*
X60690609Y-125970814D01*
X60690602Y-125970827D01*
X60630264Y-126116498D01*
X60630261Y-126116510D01*
X60599500Y-126271153D01*
X53497138Y-126271153D01*
X53572995Y-120735102D01*
X62456700Y-120735102D01*
X62456700Y-120971297D01*
X62493646Y-121204568D01*
X62566633Y-121429196D01*
X62602414Y-121499419D01*
X62673857Y-121639633D01*
X62812683Y-121830710D01*
X62979690Y-121997717D01*
X63170767Y-122136543D01*
X63270191Y-122187202D01*
X63381203Y-122243766D01*
X63381205Y-122243766D01*
X63381208Y-122243768D01*
X63501612Y-122282889D01*
X63605831Y-122316753D01*
X63839103Y-122353700D01*
X63839108Y-122353700D01*
X64075297Y-122353700D01*
X64308568Y-122316753D01*
X64533192Y-122243768D01*
X64743633Y-122136543D01*
X64934710Y-121997717D01*
X65101717Y-121830710D01*
X65240543Y-121639633D01*
X65347768Y-121429192D01*
X65420753Y-121204568D01*
X65423107Y-121189707D01*
X87617299Y-121189707D01*
X87649022Y-121349183D01*
X87649025Y-121349193D01*
X87711250Y-121499419D01*
X87711252Y-121499423D01*
X87801588Y-121634620D01*
X87801594Y-121634628D01*
X87916571Y-121749605D01*
X87916579Y-121749611D01*
X88051776Y-121839947D01*
X88051780Y-121839949D01*
X88202006Y-121902174D01*
X88202011Y-121902176D01*
X88202015Y-121902176D01*
X88202016Y-121902177D01*
X88361492Y-121933900D01*
X88361495Y-121933900D01*
X88524107Y-121933900D01*
X88631398Y-121912557D01*
X88683589Y-121902176D01*
X88833821Y-121839948D01*
X88833823Y-121839947D01*
X88900969Y-121795080D01*
X88969025Y-121749608D01*
X89084008Y-121634625D01*
X89174348Y-121499421D01*
X89236576Y-121349189D01*
X89268300Y-121189705D01*
X89268300Y-121027095D01*
X89268300Y-121027092D01*
X89236577Y-120867616D01*
X89236576Y-120867615D01*
X89236576Y-120867611D01*
X89181692Y-120735108D01*
X89174349Y-120717380D01*
X89174347Y-120717376D01*
X89084011Y-120582179D01*
X89084005Y-120582171D01*
X88969028Y-120467194D01*
X88969020Y-120467188D01*
X88833823Y-120376852D01*
X88833819Y-120376850D01*
X88683593Y-120314625D01*
X88683583Y-120314622D01*
X88524107Y-120282900D01*
X88524105Y-120282900D01*
X88361495Y-120282900D01*
X88361493Y-120282900D01*
X88202016Y-120314622D01*
X88202006Y-120314625D01*
X88051780Y-120376850D01*
X88051776Y-120376852D01*
X87916579Y-120467188D01*
X87916571Y-120467194D01*
X87801594Y-120582171D01*
X87801588Y-120582179D01*
X87711252Y-120717376D01*
X87711250Y-120717380D01*
X87649025Y-120867606D01*
X87649022Y-120867616D01*
X87617300Y-121027092D01*
X87617300Y-121027095D01*
X87617300Y-121189705D01*
X87617300Y-121189707D01*
X87617299Y-121189707D01*
X65423107Y-121189707D01*
X65423107Y-121189705D01*
X65452900Y-121001605D01*
X65452900Y-121001604D01*
X65457700Y-120971298D01*
X65457700Y-120735102D01*
X65420753Y-120501831D01*
X65361013Y-120317972D01*
X65347768Y-120277208D01*
X65347766Y-120277205D01*
X65347766Y-120277203D01*
X65240542Y-120066766D01*
X65101717Y-119875690D01*
X64934710Y-119708683D01*
X64743633Y-119569857D01*
X64737682Y-119566825D01*
X64533196Y-119462633D01*
X64308568Y-119389646D01*
X64075297Y-119352700D01*
X64075292Y-119352700D01*
X63839108Y-119352700D01*
X63839103Y-119352700D01*
X63605831Y-119389646D01*
X63381203Y-119462633D01*
X63170766Y-119569857D01*
X63099411Y-119621700D01*
X62979690Y-119708683D01*
X62979688Y-119708685D01*
X62979687Y-119708685D01*
X62812685Y-119875687D01*
X62812685Y-119875688D01*
X62812683Y-119875690D01*
X62793969Y-119901448D01*
X62673857Y-120066766D01*
X62566633Y-120277203D01*
X62493646Y-120501831D01*
X62456700Y-120735102D01*
X53572995Y-120735102D01*
X53596929Y-118988377D01*
X68396300Y-118988377D01*
X68396300Y-119185222D01*
X68427090Y-119379626D01*
X68487917Y-119566829D01*
X68558477Y-119705310D01*
X68577276Y-119742205D01*
X68692972Y-119901446D01*
X68832154Y-120040628D01*
X68991395Y-120156324D01*
X69022752Y-120172301D01*
X69166770Y-120245682D01*
X69166772Y-120245682D01*
X69166775Y-120245684D01*
X69232948Y-120267185D01*
X69353973Y-120306509D01*
X69548378Y-120337300D01*
X69548383Y-120337300D01*
X69745222Y-120337300D01*
X69939626Y-120306509D01*
X70126825Y-120245684D01*
X70302205Y-120156324D01*
X70461446Y-120040628D01*
X70600628Y-119901446D01*
X70716324Y-119742205D01*
X70805684Y-119566825D01*
X70866509Y-119379626D01*
X70876426Y-119317011D01*
X70897300Y-119185222D01*
X70897300Y-118988377D01*
X70866509Y-118793973D01*
X70838287Y-118707117D01*
X70805684Y-118606775D01*
X70805682Y-118606772D01*
X70805682Y-118606770D01*
X70740140Y-118478137D01*
X70716324Y-118431395D01*
X70600628Y-118272154D01*
X70461446Y-118132972D01*
X70302205Y-118017276D01*
X70282088Y-118007026D01*
X70126829Y-117927917D01*
X69939626Y-117867090D01*
X69745222Y-117836300D01*
X69745217Y-117836300D01*
X69548383Y-117836300D01*
X69548378Y-117836300D01*
X69353973Y-117867090D01*
X69166770Y-117927917D01*
X68991394Y-118017276D01*
X68982422Y-118023795D01*
X68832154Y-118132972D01*
X68832152Y-118132974D01*
X68832151Y-118132974D01*
X68692974Y-118272151D01*
X68692974Y-118272152D01*
X68692972Y-118272154D01*
X68672087Y-118300900D01*
X68577276Y-118431394D01*
X68487917Y-118606770D01*
X68427090Y-118793973D01*
X68396300Y-118988377D01*
X53596929Y-118988377D01*
X53635642Y-116163102D01*
X60577100Y-116163102D01*
X60577100Y-116399297D01*
X60614046Y-116632568D01*
X60687033Y-116857196D01*
X60755045Y-116990675D01*
X60794257Y-117067633D01*
X60933083Y-117258710D01*
X61100090Y-117425717D01*
X61291167Y-117564543D01*
X61333485Y-117586105D01*
X61501603Y-117671766D01*
X61501605Y-117671766D01*
X61501608Y-117671768D01*
X61614417Y-117708422D01*
X61726231Y-117744753D01*
X61959503Y-117781700D01*
X61959508Y-117781700D01*
X62195697Y-117781700D01*
X62428968Y-117744753D01*
X62462404Y-117733889D01*
X62653592Y-117671768D01*
X62864033Y-117564543D01*
X63055110Y-117425717D01*
X63222117Y-117258710D01*
X63360943Y-117067633D01*
X63468168Y-116857192D01*
X63541153Y-116632568D01*
X63543696Y-116616510D01*
X63548648Y-116585248D01*
X63825100Y-116585248D01*
X63825100Y-116789951D01*
X63857122Y-116992134D01*
X63920381Y-117186823D01*
X63957011Y-117258712D01*
X64001779Y-117346574D01*
X64013315Y-117369213D01*
X64133628Y-117534813D01*
X64278386Y-117679571D01*
X64433349Y-117792156D01*
X64443990Y-117799887D01*
X64560207Y-117859103D01*
X64626376Y-117892818D01*
X64626378Y-117892818D01*
X64626381Y-117892820D01*
X64730737Y-117926727D01*
X64821065Y-117956077D01*
X64922157Y-117972088D01*
X65023248Y-117988100D01*
X65023249Y-117988100D01*
X65227951Y-117988100D01*
X65227952Y-117988100D01*
X65430134Y-117956077D01*
X65624819Y-117892820D01*
X65807210Y-117799887D01*
X65915132Y-117721478D01*
X65972813Y-117679571D01*
X65972815Y-117679568D01*
X65972819Y-117679566D01*
X66117566Y-117534819D01*
X66117568Y-117534815D01*
X66117571Y-117534813D01*
X66180796Y-117447790D01*
X66237887Y-117369210D01*
X66330820Y-117186819D01*
X66394077Y-116992134D01*
X66426100Y-116789952D01*
X66426100Y-116585248D01*
X66406961Y-116464413D01*
X66394077Y-116383065D01*
X66347789Y-116240606D01*
X66330820Y-116188381D01*
X66330818Y-116188378D01*
X66330818Y-116188376D01*
X66287011Y-116102402D01*
X66237887Y-116005990D01*
X66225242Y-115988586D01*
X66117571Y-115840386D01*
X65972813Y-115695628D01*
X65807213Y-115575315D01*
X65807212Y-115575314D01*
X65807210Y-115575313D01*
X65750253Y-115546291D01*
X65624823Y-115482381D01*
X65430134Y-115419122D01*
X65255595Y-115391478D01*
X65227952Y-115387100D01*
X65023248Y-115387100D01*
X64998929Y-115390951D01*
X64821065Y-115419122D01*
X64626376Y-115482381D01*
X64443986Y-115575315D01*
X64278386Y-115695628D01*
X64133628Y-115840386D01*
X64013315Y-116005986D01*
X63920381Y-116188376D01*
X63857122Y-116383065D01*
X63825100Y-116585248D01*
X63548648Y-116585248D01*
X63552492Y-116560978D01*
X63578100Y-116399297D01*
X63578100Y-116163102D01*
X63541153Y-115929831D01*
X63481413Y-115745972D01*
X63468168Y-115705208D01*
X63468166Y-115705205D01*
X63468166Y-115705203D01*
X63360942Y-115494766D01*
X63325254Y-115445646D01*
X63222117Y-115303690D01*
X63055110Y-115136683D01*
X62864033Y-114997857D01*
X62653596Y-114890633D01*
X62428968Y-114817646D01*
X62195697Y-114780700D01*
X62195692Y-114780700D01*
X61959508Y-114780700D01*
X61959503Y-114780700D01*
X61726231Y-114817646D01*
X61501603Y-114890633D01*
X61291166Y-114997857D01*
X61182150Y-115077062D01*
X61100090Y-115136683D01*
X61100088Y-115136685D01*
X61100087Y-115136685D01*
X60933085Y-115303687D01*
X60933085Y-115303688D01*
X60933083Y-115303690D01*
X60873462Y-115385750D01*
X60794257Y-115494766D01*
X60687033Y-115705203D01*
X60614046Y-115929831D01*
X60577100Y-116163102D01*
X53635642Y-116163102D01*
X53664071Y-114088377D01*
X68396300Y-114088377D01*
X68396300Y-114285222D01*
X68427090Y-114479626D01*
X68487917Y-114666829D01*
X68564763Y-114817647D01*
X68577276Y-114842205D01*
X68692972Y-115001446D01*
X68832154Y-115140628D01*
X68991395Y-115256324D01*
X69053471Y-115287953D01*
X69166770Y-115345682D01*
X69166772Y-115345682D01*
X69166775Y-115345684D01*
X69267117Y-115378287D01*
X69353973Y-115406509D01*
X69548378Y-115437300D01*
X69548383Y-115437300D01*
X69745222Y-115437300D01*
X69939626Y-115406509D01*
X69999360Y-115387100D01*
X70126825Y-115345684D01*
X70240129Y-115287953D01*
X75551900Y-115287953D01*
X75551900Y-115445646D01*
X75582661Y-115600289D01*
X75582664Y-115600301D01*
X75643002Y-115745972D01*
X75643009Y-115745985D01*
X75730610Y-115877088D01*
X75730613Y-115877092D01*
X75842107Y-115988586D01*
X75842111Y-115988589D01*
X75973214Y-116076190D01*
X75973227Y-116076197D01*
X76118898Y-116136535D01*
X76118903Y-116136537D01*
X76252484Y-116163108D01*
X76273553Y-116167299D01*
X76273556Y-116167300D01*
X76273558Y-116167300D01*
X76431244Y-116167300D01*
X76431245Y-116167299D01*
X76585897Y-116136537D01*
X76725780Y-116078595D01*
X76795249Y-116071127D01*
X76857728Y-116102402D01*
X76893380Y-116162491D01*
X76890886Y-116232316D01*
X76876334Y-116262048D01*
X76811409Y-116359214D01*
X76811402Y-116359227D01*
X76751064Y-116504898D01*
X76751061Y-116504910D01*
X76720300Y-116659553D01*
X76720300Y-116817246D01*
X76751061Y-116971889D01*
X76751064Y-116971901D01*
X76811402Y-117117572D01*
X76811409Y-117117585D01*
X76899010Y-117248688D01*
X76899013Y-117248692D01*
X77010507Y-117360186D01*
X77010511Y-117360189D01*
X77141614Y-117447790D01*
X77141627Y-117447797D01*
X77199550Y-117471789D01*
X77287303Y-117508137D01*
X77421442Y-117534819D01*
X77441953Y-117538899D01*
X77441956Y-117538900D01*
X77441958Y-117538900D01*
X77599644Y-117538900D01*
X77669399Y-117525024D01*
X77724022Y-117514159D01*
X77754493Y-117516885D01*
X77785078Y-117517383D01*
X77788962Y-117519969D01*
X77793613Y-117520386D01*
X77817771Y-117539153D01*
X77843234Y-117556108D01*
X77846474Y-117561449D01*
X77848790Y-117563249D01*
X77861830Y-117586105D01*
X77862313Y-117587211D01*
X77878206Y-117625579D01*
X77880754Y-117629393D01*
X77885003Y-117639111D01*
X77888820Y-117669120D01*
X77894986Y-117698735D01*
X77893186Y-117703431D01*
X77893821Y-117708422D01*
X77880808Y-117735730D01*
X77869984Y-117763978D01*
X77865823Y-117767180D01*
X77863766Y-117771498D01*
X77845517Y-117782810D01*
X77818845Y-117803341D01*
X77807781Y-117807924D01*
X77807773Y-117807928D01*
X77676670Y-117895529D01*
X77676666Y-117895532D01*
X77565172Y-118007026D01*
X77565169Y-118007030D01*
X77477568Y-118138133D01*
X77477561Y-118138146D01*
X77417223Y-118283817D01*
X77417220Y-118283829D01*
X77386459Y-118438472D01*
X77386459Y-118596165D01*
X77417220Y-118750808D01*
X77417223Y-118750820D01*
X77477561Y-118896491D01*
X77477567Y-118896502D01*
X77518857Y-118958297D01*
X77539734Y-119024974D01*
X77521249Y-119092354D01*
X77469270Y-119139044D01*
X77439946Y-119148804D01*
X77338108Y-119169061D01*
X77338098Y-119169064D01*
X77192427Y-119229402D01*
X77192414Y-119229409D01*
X77061311Y-119317010D01*
X77061307Y-119317013D01*
X76949813Y-119428507D01*
X76949810Y-119428511D01*
X76862209Y-119559614D01*
X76862202Y-119559627D01*
X76801864Y-119705298D01*
X76801861Y-119705310D01*
X76771100Y-119859953D01*
X76771100Y-120017646D01*
X76801861Y-120172289D01*
X76801864Y-120172301D01*
X76862202Y-120317972D01*
X76862209Y-120317985D01*
X76949810Y-120449088D01*
X76949813Y-120449092D01*
X77061307Y-120560586D01*
X77061311Y-120560589D01*
X77192414Y-120648190D01*
X77192427Y-120648197D01*
X77289729Y-120688500D01*
X77338103Y-120708537D01*
X77471684Y-120735108D01*
X77492753Y-120739299D01*
X77492756Y-120739300D01*
X77492758Y-120739300D01*
X77650444Y-120739300D01*
X77650445Y-120739299D01*
X77805097Y-120708537D01*
X77950779Y-120648194D01*
X78074124Y-120565776D01*
X78140799Y-120544900D01*
X78208179Y-120563384D01*
X78211904Y-120565778D01*
X78236438Y-120582171D01*
X78259221Y-120597394D01*
X78259223Y-120597395D01*
X78259227Y-120597397D01*
X78381864Y-120648194D01*
X78404903Y-120657737D01*
X78559553Y-120688499D01*
X78559556Y-120688500D01*
X78559558Y-120688500D01*
X78717244Y-120688500D01*
X78717245Y-120688499D01*
X78871897Y-120657737D01*
X79017579Y-120597394D01*
X79148689Y-120509789D01*
X79260189Y-120398289D01*
X79347794Y-120267179D01*
X79408137Y-120121497D01*
X79438900Y-119966842D01*
X79438900Y-119809158D01*
X79438900Y-119809155D01*
X79438899Y-119809153D01*
X79425582Y-119742205D01*
X79408137Y-119654503D01*
X79381808Y-119590938D01*
X79347797Y-119508827D01*
X79347790Y-119508814D01*
X79260189Y-119377711D01*
X79260186Y-119377707D01*
X79148692Y-119266213D01*
X79148688Y-119266210D01*
X79017585Y-119178609D01*
X79017575Y-119178604D01*
X78914587Y-119135945D01*
X78860184Y-119092104D01*
X78838119Y-119025810D01*
X78855398Y-118958110D01*
X78858939Y-118952492D01*
X78896348Y-118896506D01*
X78896350Y-118896502D01*
X78896353Y-118896498D01*
X78956696Y-118750816D01*
X78987459Y-118596161D01*
X78987459Y-118438477D01*
X78987459Y-118438474D01*
X78987458Y-118438472D01*
X78960093Y-118300900D01*
X78956696Y-118283822D01*
X78911049Y-118173620D01*
X78896355Y-118138144D01*
X78893814Y-118133390D01*
X78879572Y-118064988D01*
X78904571Y-117999744D01*
X78955722Y-117960374D01*
X78956862Y-117959901D01*
X78966779Y-117955794D01*
X79097889Y-117868189D01*
X79209389Y-117756689D01*
X79209391Y-117756685D01*
X79211114Y-117754963D01*
X79272437Y-117721478D01*
X79322988Y-117721027D01*
X79471155Y-117750500D01*
X79471158Y-117750500D01*
X79628844Y-117750500D01*
X79712310Y-117733897D01*
X79783497Y-117719737D01*
X79783498Y-117719736D01*
X79788296Y-117718782D01*
X79857888Y-117725009D01*
X79913065Y-117767872D01*
X79936310Y-117833761D01*
X79934105Y-117864590D01*
X79918285Y-117944122D01*
X79918285Y-118101815D01*
X79949046Y-118256458D01*
X79949049Y-118256470D01*
X80009389Y-118402146D01*
X80015613Y-118411460D01*
X80036492Y-118478137D01*
X80027074Y-118527803D01*
X80002262Y-118587706D01*
X80002260Y-118587711D01*
X79971500Y-118742353D01*
X79971500Y-118900046D01*
X80002261Y-119054689D01*
X80002264Y-119054701D01*
X80062602Y-119200372D01*
X80062609Y-119200385D01*
X80150210Y-119331488D01*
X80150213Y-119331492D01*
X80261707Y-119442986D01*
X80261711Y-119442989D01*
X80392814Y-119530590D01*
X80392827Y-119530597D01*
X80538498Y-119590935D01*
X80538503Y-119590937D01*
X80693153Y-119621699D01*
X80693156Y-119621700D01*
X80693158Y-119621700D01*
X80850844Y-119621700D01*
X80850845Y-119621699D01*
X81005497Y-119590937D01*
X81151179Y-119530594D01*
X81282289Y-119442989D01*
X81393789Y-119331489D01*
X81481394Y-119200379D01*
X81541737Y-119054697D01*
X81572500Y-118900042D01*
X81572500Y-118742358D01*
X81572500Y-118742355D01*
X81572499Y-118742353D01*
X81541737Y-118587703D01*
X81496354Y-118478137D01*
X81481397Y-118442027D01*
X81481391Y-118442016D01*
X81475172Y-118432709D01*
X81454292Y-118366032D01*
X81463712Y-118316361D01*
X81470117Y-118300900D01*
X81488522Y-118256466D01*
X81519285Y-118101811D01*
X81519285Y-117944127D01*
X81519285Y-117944124D01*
X81519284Y-117944122D01*
X81506447Y-117879585D01*
X81488522Y-117789472D01*
X81475227Y-117757376D01*
X81467759Y-117687909D01*
X81499034Y-117625429D01*
X81542332Y-117595366D01*
X81629179Y-117559394D01*
X81760289Y-117471789D01*
X81810525Y-117421553D01*
X85559500Y-117421553D01*
X85559500Y-117579246D01*
X85590261Y-117733889D01*
X85590264Y-117733901D01*
X85650602Y-117879572D01*
X85650609Y-117879585D01*
X85738210Y-118010688D01*
X85738213Y-118010692D01*
X85849707Y-118122186D01*
X85849711Y-118122189D01*
X85980814Y-118209790D01*
X85980827Y-118209797D01*
X86093510Y-118256471D01*
X86126503Y-118270137D01*
X86281153Y-118300899D01*
X86281156Y-118300900D01*
X86281158Y-118300900D01*
X86438844Y-118300900D01*
X86438845Y-118300899D01*
X86593497Y-118270137D01*
X86739179Y-118209794D01*
X86870289Y-118122189D01*
X86981789Y-118010689D01*
X87069394Y-117879579D01*
X87074112Y-117868190D01*
X87088372Y-117833761D01*
X87129737Y-117733897D01*
X87160500Y-117579242D01*
X87160500Y-117421558D01*
X87160500Y-117421555D01*
X87160499Y-117421553D01*
X87148292Y-117360186D01*
X87129737Y-117266903D01*
X87114111Y-117229179D01*
X87069396Y-117121225D01*
X87066525Y-117115854D01*
X87068607Y-117114740D01*
X87050843Y-117058060D01*
X87069310Y-116990675D01*
X87071722Y-116986922D01*
X87075119Y-116981839D01*
X87092645Y-116955608D01*
X87120189Y-116914387D01*
X87120190Y-116914384D01*
X87120194Y-116914379D01*
X87180537Y-116768697D01*
X87211300Y-116614042D01*
X87211300Y-116456358D01*
X87211300Y-116456355D01*
X87211299Y-116456353D01*
X87191977Y-116359217D01*
X87180537Y-116301703D01*
X87180535Y-116301698D01*
X87120197Y-116156027D01*
X87120190Y-116156014D01*
X87032589Y-116024911D01*
X87032586Y-116024907D01*
X86921092Y-115913413D01*
X86921088Y-115913410D01*
X86789985Y-115825809D01*
X86789972Y-115825802D01*
X86644301Y-115765464D01*
X86644289Y-115765461D01*
X86489645Y-115734700D01*
X86489642Y-115734700D01*
X86331958Y-115734700D01*
X86331955Y-115734700D01*
X86177310Y-115765461D01*
X86177298Y-115765464D01*
X86031627Y-115825802D01*
X86031614Y-115825809D01*
X85900511Y-115913410D01*
X85900507Y-115913413D01*
X85789013Y-116024907D01*
X85789010Y-116024911D01*
X85701409Y-116156014D01*
X85701402Y-116156027D01*
X85641064Y-116301698D01*
X85641061Y-116301710D01*
X85610300Y-116456353D01*
X85610300Y-116614046D01*
X85641061Y-116768689D01*
X85641064Y-116768701D01*
X85701403Y-116914374D01*
X85704275Y-116919746D01*
X85702194Y-116920857D01*
X85719956Y-116977557D01*
X85701479Y-117044939D01*
X85699078Y-117048675D01*
X85650612Y-117121209D01*
X85650602Y-117121227D01*
X85590264Y-117266898D01*
X85590261Y-117266910D01*
X85559500Y-117421553D01*
X81810525Y-117421553D01*
X81871789Y-117360289D01*
X81959394Y-117229179D01*
X82019737Y-117083497D01*
X82050500Y-116928842D01*
X82050500Y-116771158D01*
X82050500Y-116771155D01*
X82050499Y-116771153D01*
X82024033Y-116638102D01*
X82019737Y-116616503D01*
X82018719Y-116614046D01*
X81959397Y-116470827D01*
X81959390Y-116470814D01*
X81871789Y-116339711D01*
X81871786Y-116339707D01*
X81760292Y-116228213D01*
X81760288Y-116228210D01*
X81629185Y-116140609D01*
X81629172Y-116140602D01*
X81483501Y-116080264D01*
X81483489Y-116080261D01*
X81328845Y-116049500D01*
X81328842Y-116049500D01*
X81171158Y-116049500D01*
X81171155Y-116049500D01*
X81016510Y-116080261D01*
X81016498Y-116080264D01*
X80870827Y-116140602D01*
X80870814Y-116140609D01*
X80739711Y-116228210D01*
X80739707Y-116228213D01*
X80628213Y-116339707D01*
X80628210Y-116339711D01*
X80540609Y-116470814D01*
X80540604Y-116470824D01*
X80493850Y-116583699D01*
X80450009Y-116638102D01*
X80383715Y-116660167D01*
X80316015Y-116642888D01*
X80268405Y-116591750D01*
X80264727Y-116583696D01*
X80259395Y-116570824D01*
X80259394Y-116570821D01*
X80259392Y-116570818D01*
X80259390Y-116570814D01*
X80171789Y-116439711D01*
X80171786Y-116439707D01*
X80060292Y-116328213D01*
X80060288Y-116328210D01*
X79929185Y-116240609D01*
X79929172Y-116240602D01*
X79783501Y-116180264D01*
X79783489Y-116180261D01*
X79628845Y-116149500D01*
X79628842Y-116149500D01*
X79471158Y-116149500D01*
X79471155Y-116149500D01*
X79316510Y-116180261D01*
X79316498Y-116180264D01*
X79170827Y-116240602D01*
X79170814Y-116240609D01*
X79039711Y-116328210D01*
X79039707Y-116328213D01*
X78926485Y-116441436D01*
X78865162Y-116474921D01*
X78814613Y-116475372D01*
X78666446Y-116445900D01*
X78666442Y-116445900D01*
X78508758Y-116445900D01*
X78508753Y-116445900D01*
X78384377Y-116470640D01*
X78314785Y-116464413D01*
X78259608Y-116421550D01*
X78245625Y-116396475D01*
X78230196Y-116359227D01*
X78230194Y-116359221D01*
X78230192Y-116359219D01*
X78230192Y-116359217D01*
X78142589Y-116228111D01*
X78142586Y-116228107D01*
X78031092Y-116116613D01*
X78031088Y-116116610D01*
X77899985Y-116029009D01*
X77899972Y-116029002D01*
X77754301Y-115968664D01*
X77754289Y-115968661D01*
X77599645Y-115937900D01*
X77599642Y-115937900D01*
X77441958Y-115937900D01*
X77441955Y-115937900D01*
X77287310Y-115968661D01*
X77287307Y-115968662D01*
X77287306Y-115968662D01*
X77287303Y-115968663D01*
X77204898Y-116002796D01*
X77147419Y-116026604D01*
X77077949Y-116034072D01*
X77015470Y-116002796D01*
X76979818Y-115942707D01*
X76982313Y-115872882D01*
X76996861Y-115843157D01*
X77061794Y-115745979D01*
X77122137Y-115600297D01*
X77152900Y-115445642D01*
X77152900Y-115287958D01*
X77152900Y-115287955D01*
X77152899Y-115287953D01*
X77122137Y-115133303D01*
X77122135Y-115133298D01*
X77061797Y-114987627D01*
X77061790Y-114987614D01*
X76974189Y-114856511D01*
X76974186Y-114856507D01*
X76862692Y-114745013D01*
X76862688Y-114745010D01*
X76731585Y-114657409D01*
X76731572Y-114657402D01*
X76585901Y-114597064D01*
X76585889Y-114597061D01*
X76431245Y-114566300D01*
X76431242Y-114566300D01*
X76273558Y-114566300D01*
X76273555Y-114566300D01*
X76118910Y-114597061D01*
X76118898Y-114597064D01*
X75973227Y-114657402D01*
X75973214Y-114657409D01*
X75842111Y-114745010D01*
X75842107Y-114745013D01*
X75730613Y-114856507D01*
X75730610Y-114856511D01*
X75643009Y-114987614D01*
X75643002Y-114987627D01*
X75582664Y-115133298D01*
X75582661Y-115133310D01*
X75551900Y-115287953D01*
X70240129Y-115287953D01*
X70302205Y-115256324D01*
X70461446Y-115140628D01*
X70600628Y-115001446D01*
X70716324Y-114842205D01*
X70805684Y-114666825D01*
X70866509Y-114479626D01*
X70883161Y-114374489D01*
X70897300Y-114285222D01*
X70897300Y-114088381D01*
X70895254Y-114075462D01*
X70895254Y-114075459D01*
X70893147Y-114062153D01*
X81089100Y-114062153D01*
X81089100Y-114219846D01*
X81119861Y-114374489D01*
X81119864Y-114374501D01*
X81180202Y-114520172D01*
X81180209Y-114520185D01*
X81267810Y-114651288D01*
X81267813Y-114651292D01*
X81379307Y-114762786D01*
X81379311Y-114762789D01*
X81510414Y-114850390D01*
X81510427Y-114850397D01*
X81607567Y-114890633D01*
X81656103Y-114910737D01*
X81810753Y-114941499D01*
X81810756Y-114941500D01*
X81810758Y-114941500D01*
X81968444Y-114941500D01*
X81968445Y-114941499D01*
X82123097Y-114910737D01*
X82268779Y-114850394D01*
X82399889Y-114762789D01*
X82511389Y-114651289D01*
X82598994Y-114520179D01*
X82659337Y-114374497D01*
X82690100Y-114219842D01*
X82690100Y-114062158D01*
X82690100Y-114062155D01*
X82690099Y-114062153D01*
X82659338Y-113907510D01*
X82659337Y-113907503D01*
X82603118Y-113771777D01*
X82598997Y-113761827D01*
X82598990Y-113761814D01*
X82511389Y-113630711D01*
X82511386Y-113630707D01*
X82399892Y-113519213D01*
X82399888Y-113519210D01*
X82268785Y-113431609D01*
X82268772Y-113431602D01*
X82123101Y-113371264D01*
X82123089Y-113371261D01*
X81968445Y-113340500D01*
X81968442Y-113340500D01*
X81810758Y-113340500D01*
X81810755Y-113340500D01*
X81656110Y-113371261D01*
X81656098Y-113371264D01*
X81510427Y-113431602D01*
X81510414Y-113431609D01*
X81379311Y-113519210D01*
X81379307Y-113519213D01*
X81267813Y-113630707D01*
X81267810Y-113630711D01*
X81180209Y-113761814D01*
X81180202Y-113761827D01*
X81119864Y-113907498D01*
X81119861Y-113907510D01*
X81089100Y-114062153D01*
X70893147Y-114062153D01*
X70866509Y-113893973D01*
X70837112Y-113803500D01*
X70805684Y-113706775D01*
X70805682Y-113706772D01*
X70805682Y-113706770D01*
X70716323Y-113531394D01*
X70707473Y-113519213D01*
X70600628Y-113372154D01*
X70461446Y-113232972D01*
X70302205Y-113117276D01*
X70188435Y-113059307D01*
X87617299Y-113059307D01*
X87649022Y-113218783D01*
X87649025Y-113218793D01*
X87711250Y-113369019D01*
X87711252Y-113369023D01*
X87801588Y-113504220D01*
X87801594Y-113504228D01*
X87916571Y-113619205D01*
X87916579Y-113619211D01*
X88051776Y-113709547D01*
X88051780Y-113709549D01*
X88177977Y-113761821D01*
X88202011Y-113771776D01*
X88202015Y-113771776D01*
X88202016Y-113771777D01*
X88361492Y-113803500D01*
X88361495Y-113803500D01*
X88524107Y-113803500D01*
X88631398Y-113782157D01*
X88683589Y-113771776D01*
X88833821Y-113709548D01*
X88833823Y-113709547D01*
X88951815Y-113630707D01*
X88969025Y-113619208D01*
X89084008Y-113504225D01*
X89172257Y-113372151D01*
X89174347Y-113369023D01*
X89174349Y-113369019D01*
X89236574Y-113218793D01*
X89236576Y-113218789D01*
X89268300Y-113059305D01*
X89268300Y-112896695D01*
X89268300Y-112896692D01*
X89236577Y-112737216D01*
X89236576Y-112737215D01*
X89236576Y-112737211D01*
X89236574Y-112737206D01*
X89174349Y-112586980D01*
X89174347Y-112586976D01*
X89084011Y-112451779D01*
X89084005Y-112451771D01*
X88969028Y-112336794D01*
X88969020Y-112336788D01*
X88833823Y-112246452D01*
X88833819Y-112246450D01*
X88683593Y-112184225D01*
X88683583Y-112184222D01*
X88524107Y-112152500D01*
X88524105Y-112152500D01*
X88361495Y-112152500D01*
X88361493Y-112152500D01*
X88202016Y-112184222D01*
X88202006Y-112184225D01*
X88051780Y-112246450D01*
X88051776Y-112246452D01*
X87916579Y-112336788D01*
X87916571Y-112336794D01*
X87801594Y-112451771D01*
X87801588Y-112451779D01*
X87711252Y-112586976D01*
X87711250Y-112586980D01*
X87649025Y-112737206D01*
X87649022Y-112737216D01*
X87617300Y-112896692D01*
X87617300Y-112896695D01*
X87617300Y-113059305D01*
X87617300Y-113059307D01*
X87617299Y-113059307D01*
X70188435Y-113059307D01*
X70126829Y-113027917D01*
X70092672Y-113016819D01*
X70043854Y-113000956D01*
X69939626Y-112967090D01*
X69745222Y-112936300D01*
X69745217Y-112936300D01*
X69548383Y-112936300D01*
X69548378Y-112936300D01*
X69353973Y-112967090D01*
X69166770Y-113027917D01*
X68991394Y-113117276D01*
X68900541Y-113183285D01*
X68832154Y-113232972D01*
X68832152Y-113232974D01*
X68832151Y-113232974D01*
X68692974Y-113372151D01*
X68692974Y-113372152D01*
X68692972Y-113372154D01*
X68649780Y-113431602D01*
X68577276Y-113531394D01*
X68487917Y-113706770D01*
X68427090Y-113893973D01*
X68396300Y-114088377D01*
X53664071Y-114088377D01*
X53695911Y-111764679D01*
X53704289Y-111724040D01*
X53703714Y-111723854D01*
X53768476Y-111524538D01*
X53768476Y-111524537D01*
X53768477Y-111524534D01*
X53783243Y-111431307D01*
X77924499Y-111431307D01*
X77956222Y-111590783D01*
X77956225Y-111590793D01*
X78018450Y-111741019D01*
X78018452Y-111741023D01*
X78108788Y-111876220D01*
X78108794Y-111876228D01*
X78223771Y-111991205D01*
X78223779Y-111991211D01*
X78358976Y-112081547D01*
X78358980Y-112081549D01*
X78509206Y-112143774D01*
X78509211Y-112143776D01*
X78509215Y-112143776D01*
X78509216Y-112143777D01*
X78668692Y-112175500D01*
X78668695Y-112175500D01*
X78831307Y-112175500D01*
X78946931Y-112152500D01*
X78990789Y-112143776D01*
X79141021Y-112081548D01*
X79141023Y-112081547D01*
X79208169Y-112036680D01*
X79276225Y-111991208D01*
X79391208Y-111876225D01*
X79436680Y-111808169D01*
X79481547Y-111741023D01*
X79481549Y-111741019D01*
X79543774Y-111590793D01*
X79543776Y-111590789D01*
X79575500Y-111431305D01*
X79575500Y-111268695D01*
X79575500Y-111268692D01*
X79543777Y-111109216D01*
X79543776Y-111109215D01*
X79543776Y-111109211D01*
X79515017Y-111039783D01*
X79507549Y-110970315D01*
X79526476Y-110923442D01*
X79581548Y-110841021D01*
X79643776Y-110690789D01*
X79675500Y-110531305D01*
X79675500Y-110368695D01*
X79675500Y-110368692D01*
X79648894Y-110234941D01*
X79655121Y-110165350D01*
X79697983Y-110110172D01*
X79701572Y-110107680D01*
X79726225Y-110091208D01*
X79841208Y-109976225D01*
X79931548Y-109841021D01*
X79993776Y-109690789D01*
X80025500Y-109531305D01*
X80025500Y-109368695D01*
X80025500Y-109368692D01*
X79993777Y-109209216D01*
X79993776Y-109209215D01*
X79993776Y-109209211D01*
X79992116Y-109205203D01*
X79931549Y-109058980D01*
X79931547Y-109058976D01*
X79841211Y-108923779D01*
X79841205Y-108923771D01*
X79726228Y-108808794D01*
X79726220Y-108808788D01*
X79591023Y-108718452D01*
X79591019Y-108718450D01*
X79440793Y-108656225D01*
X79440783Y-108656222D01*
X79281307Y-108624500D01*
X79281305Y-108624500D01*
X79118695Y-108624500D01*
X79118693Y-108624500D01*
X78959216Y-108656222D01*
X78959206Y-108656225D01*
X78808980Y-108718450D01*
X78808976Y-108718452D01*
X78673779Y-108808788D01*
X78673771Y-108808794D01*
X78558794Y-108923771D01*
X78558788Y-108923779D01*
X78468452Y-109058976D01*
X78468450Y-109058980D01*
X78406225Y-109209206D01*
X78406222Y-109209216D01*
X78374500Y-109368692D01*
X78374500Y-109368695D01*
X78374500Y-109531305D01*
X78374500Y-109531307D01*
X78374499Y-109531307D01*
X78401105Y-109665057D01*
X78394878Y-109734649D01*
X78352015Y-109789826D01*
X78348381Y-109792350D01*
X78323773Y-109808792D01*
X78208794Y-109923771D01*
X78208788Y-109923779D01*
X78118452Y-110058976D01*
X78118450Y-110058980D01*
X78056225Y-110209206D01*
X78056222Y-110209216D01*
X78024500Y-110368692D01*
X78024500Y-110368695D01*
X78024500Y-110531305D01*
X78024500Y-110531307D01*
X78024499Y-110531307D01*
X78056222Y-110690783D01*
X78056225Y-110690793D01*
X78084981Y-110760216D01*
X78092450Y-110829685D01*
X78073523Y-110876558D01*
X78018450Y-110958982D01*
X77956225Y-111109206D01*
X77956222Y-111109216D01*
X77924500Y-111268692D01*
X77924500Y-111268695D01*
X77924500Y-111431305D01*
X77924500Y-111431307D01*
X77924499Y-111431307D01*
X53783243Y-111431307D01*
X53800500Y-111322352D01*
X53800500Y-111117648D01*
X53768477Y-110915466D01*
X53716350Y-110755037D01*
X53710294Y-110715027D01*
X53724708Y-109663102D01*
X60577100Y-109663102D01*
X60577100Y-109899297D01*
X60614046Y-110132568D01*
X60687033Y-110357196D01*
X60775747Y-110531305D01*
X60794257Y-110567633D01*
X60933083Y-110758710D01*
X61100090Y-110925717D01*
X61291167Y-111064543D01*
X61378823Y-111109206D01*
X61501603Y-111171766D01*
X61501605Y-111171766D01*
X61501608Y-111171768D01*
X61622012Y-111210889D01*
X61726231Y-111244753D01*
X61959503Y-111281700D01*
X61959508Y-111281700D01*
X62195697Y-111281700D01*
X62428968Y-111244753D01*
X62653592Y-111171768D01*
X62653597Y-111171765D01*
X62653601Y-111171764D01*
X62692153Y-111152120D01*
X62692157Y-111152118D01*
X62864033Y-111064543D01*
X63055110Y-110925717D01*
X63222117Y-110758710D01*
X63360943Y-110567633D01*
X63468168Y-110357192D01*
X63541153Y-110132568D01*
X63547704Y-110091205D01*
X63578100Y-109899297D01*
X63578100Y-109663102D01*
X63541153Y-109429831D01*
X63469470Y-109209216D01*
X63468168Y-109205208D01*
X63468166Y-109205205D01*
X63468166Y-109205203D01*
X63393661Y-109058980D01*
X63360943Y-108994767D01*
X63222117Y-108803690D01*
X63055110Y-108636683D01*
X62864033Y-108497857D01*
X62653596Y-108390633D01*
X62428968Y-108317646D01*
X62195697Y-108280700D01*
X62195692Y-108280700D01*
X61959508Y-108280700D01*
X61959503Y-108280700D01*
X61726231Y-108317646D01*
X61501603Y-108390633D01*
X61291166Y-108497857D01*
X61194106Y-108568376D01*
X61100090Y-108636683D01*
X61100088Y-108636685D01*
X61100087Y-108636685D01*
X60933085Y-108803687D01*
X60933085Y-108803688D01*
X60933083Y-108803690D01*
X60929375Y-108808794D01*
X60794257Y-108994766D01*
X60687033Y-109205203D01*
X60614046Y-109429831D01*
X60577100Y-109663102D01*
X53724708Y-109663102D01*
X53767076Y-106571153D01*
X55299500Y-106571153D01*
X55299500Y-106728846D01*
X55330261Y-106883489D01*
X55330264Y-106883501D01*
X55390602Y-107029172D01*
X55390609Y-107029185D01*
X55478210Y-107160288D01*
X55478213Y-107160292D01*
X55589707Y-107271786D01*
X55589711Y-107271789D01*
X55720814Y-107359390D01*
X55720827Y-107359397D01*
X55866498Y-107419735D01*
X55866503Y-107419737D01*
X56011083Y-107448496D01*
X56021153Y-107450499D01*
X56021156Y-107450500D01*
X56021158Y-107450500D01*
X56178844Y-107450500D01*
X56178845Y-107450499D01*
X56333497Y-107419737D01*
X56479179Y-107359394D01*
X56610289Y-107271789D01*
X56721789Y-107160289D01*
X56809394Y-107029179D01*
X56869737Y-106883497D01*
X56900500Y-106728842D01*
X56900500Y-106571158D01*
X56900500Y-106571155D01*
X56900499Y-106571153D01*
X56897710Y-106557134D01*
X56869737Y-106416503D01*
X56863322Y-106401015D01*
X56809397Y-106270827D01*
X56809390Y-106270814D01*
X56721789Y-106139711D01*
X56721786Y-106139707D01*
X56610292Y-106028213D01*
X56610288Y-106028210D01*
X56479185Y-105940609D01*
X56479172Y-105940602D01*
X56333501Y-105880264D01*
X56333489Y-105880261D01*
X56178845Y-105849500D01*
X56178842Y-105849500D01*
X56021158Y-105849500D01*
X56021155Y-105849500D01*
X55866510Y-105880261D01*
X55866498Y-105880264D01*
X55720827Y-105940602D01*
X55720814Y-105940609D01*
X55589711Y-106028210D01*
X55589707Y-106028213D01*
X55478213Y-106139707D01*
X55478210Y-106139711D01*
X55390609Y-106270814D01*
X55390602Y-106270827D01*
X55330264Y-106416498D01*
X55330261Y-106416510D01*
X55299500Y-106571153D01*
X53767076Y-106571153D01*
X53799422Y-104210560D01*
X53800500Y-104200009D01*
X53800499Y-104131894D01*
X53813642Y-103172801D01*
X53834243Y-103106037D01*
X53887669Y-103061010D01*
X53937630Y-103050500D01*
X59096953Y-103050500D01*
X59163992Y-103070185D01*
X59184634Y-103086819D01*
X59521299Y-103423484D01*
X59554784Y-103484807D01*
X59549800Y-103554499D01*
X59507928Y-103610432D01*
X59489916Y-103621648D01*
X59458388Y-103637713D01*
X59292786Y-103758028D01*
X59148028Y-103902786D01*
X59027715Y-104068386D01*
X58934781Y-104250776D01*
X58871522Y-104445465D01*
X58839500Y-104647648D01*
X58839500Y-104852351D01*
X58871522Y-105054534D01*
X58934781Y-105249223D01*
X58986140Y-105350018D01*
X59005381Y-105387782D01*
X59027715Y-105431613D01*
X59148028Y-105597213D01*
X59292786Y-105741971D01*
X59409851Y-105827022D01*
X59458390Y-105862287D01*
X59561984Y-105915071D01*
X59640776Y-105955218D01*
X59640778Y-105955218D01*
X59640781Y-105955220D01*
X59731856Y-105984812D01*
X59835465Y-106018477D01*
X59936557Y-106034488D01*
X60037648Y-106050500D01*
X60037649Y-106050500D01*
X60242351Y-106050500D01*
X60242352Y-106050500D01*
X60444534Y-106018477D01*
X60639219Y-105955220D01*
X60821610Y-105862287D01*
X60925485Y-105786818D01*
X60987213Y-105741971D01*
X60987215Y-105741968D01*
X60987219Y-105741966D01*
X61131966Y-105597219D01*
X61131968Y-105597215D01*
X61131971Y-105597213D01*
X61252284Y-105431614D01*
X61252285Y-105431613D01*
X61252287Y-105431610D01*
X61268349Y-105400085D01*
X61316323Y-105349290D01*
X61384144Y-105332495D01*
X61450279Y-105355032D01*
X61466515Y-105368700D01*
X64088781Y-107990966D01*
X64103484Y-108017893D01*
X64120077Y-108043712D01*
X64120968Y-108049912D01*
X64122266Y-108052289D01*
X64125100Y-108078647D01*
X64125100Y-108191837D01*
X64105415Y-108258876D01*
X64101418Y-108264722D01*
X64013315Y-108385986D01*
X63920381Y-108568376D01*
X63857122Y-108763065D01*
X63825100Y-108965248D01*
X63825100Y-109169951D01*
X63857122Y-109372134D01*
X63920381Y-109566823D01*
X63969442Y-109663108D01*
X64008652Y-109740063D01*
X64013315Y-109749213D01*
X64133628Y-109914813D01*
X64278386Y-110059571D01*
X64423981Y-110165350D01*
X64443990Y-110179887D01*
X64560207Y-110239103D01*
X64626376Y-110272818D01*
X64626378Y-110272818D01*
X64626381Y-110272820D01*
X64730737Y-110306727D01*
X64821065Y-110336077D01*
X64922157Y-110352088D01*
X65023248Y-110368100D01*
X65023249Y-110368100D01*
X65227951Y-110368100D01*
X65227952Y-110368100D01*
X65430134Y-110336077D01*
X65624819Y-110272820D01*
X65807210Y-110179887D01*
X65906643Y-110107645D01*
X65972813Y-110059571D01*
X65972815Y-110059568D01*
X65972819Y-110059566D01*
X66117566Y-109914819D01*
X66117568Y-109914815D01*
X66117571Y-109914813D01*
X66208378Y-109789826D01*
X66237887Y-109749210D01*
X66330820Y-109566819D01*
X66394077Y-109372134D01*
X66426100Y-109169952D01*
X66426100Y-108965248D01*
X66401320Y-108808794D01*
X66394077Y-108763065D01*
X66330818Y-108568376D01*
X66294886Y-108497857D01*
X66237887Y-108385990D01*
X66225254Y-108368603D01*
X66149782Y-108264722D01*
X66126302Y-108198916D01*
X66126100Y-108191837D01*
X66126100Y-107514321D01*
X66087652Y-107321034D01*
X66087651Y-107321032D01*
X66087651Y-107321030D01*
X66079147Y-107300500D01*
X66072161Y-107283635D01*
X66021070Y-107160289D01*
X66021069Y-107160286D01*
X66012234Y-107138955D01*
X66012231Y-107138950D01*
X65902739Y-106975082D01*
X65760286Y-106832629D01*
X65760255Y-106832600D01*
X63077638Y-104149983D01*
X66459500Y-104149983D01*
X66459500Y-105350001D01*
X66459501Y-105350018D01*
X66470000Y-105452796D01*
X66470001Y-105452799D01*
X66509702Y-105572606D01*
X66525186Y-105619334D01*
X66617288Y-105768656D01*
X66741344Y-105892712D01*
X66890666Y-105984814D01*
X67057203Y-106039999D01*
X67159991Y-106050500D01*
X68360008Y-106050499D01*
X68365706Y-106049917D01*
X68377895Y-106048671D01*
X68462797Y-106039999D01*
X68629334Y-105984814D01*
X68778656Y-105892712D01*
X68884550Y-105786818D01*
X68945873Y-105753334D01*
X68972231Y-105750500D01*
X77098130Y-105750500D01*
X77165169Y-105770185D01*
X77210924Y-105822989D01*
X77220868Y-105892147D01*
X77191843Y-105955703D01*
X77185811Y-105962181D01*
X77081381Y-106066610D01*
X77081381Y-106066611D01*
X77081379Y-106066613D01*
X77050199Y-106109529D01*
X76972622Y-106216303D01*
X76888620Y-106381164D01*
X76888619Y-106381167D01*
X76831445Y-106557134D01*
X76802500Y-106739886D01*
X76802500Y-106924913D01*
X76831445Y-107107665D01*
X76888619Y-107283632D01*
X76888620Y-107283635D01*
X76957969Y-107419738D01*
X76972622Y-107448496D01*
X77081379Y-107598187D01*
X77212213Y-107729021D01*
X77361904Y-107837778D01*
X77415224Y-107864946D01*
X77526764Y-107921779D01*
X77526767Y-107921780D01*
X77614750Y-107950367D01*
X77702736Y-107978955D01*
X77885486Y-108007900D01*
X77885487Y-108007900D01*
X78070513Y-108007900D01*
X78070514Y-108007900D01*
X78253264Y-107978955D01*
X78429235Y-107921779D01*
X78594096Y-107837778D01*
X78743787Y-107729021D01*
X78874621Y-107598187D01*
X78877680Y-107593976D01*
X78933006Y-107551309D01*
X79002619Y-107545326D01*
X79064415Y-107577929D01*
X79078315Y-107593970D01*
X79081379Y-107598187D01*
X79212213Y-107729021D01*
X79361904Y-107837778D01*
X79415224Y-107864946D01*
X79526764Y-107921779D01*
X79526767Y-107921780D01*
X79614750Y-107950367D01*
X79702736Y-107978955D01*
X79885486Y-108007900D01*
X79885487Y-108007900D01*
X80070513Y-108007900D01*
X80070514Y-108007900D01*
X80253264Y-107978955D01*
X80429235Y-107921779D01*
X80594096Y-107837778D01*
X80709608Y-107753853D01*
X80775412Y-107730374D01*
X80843466Y-107746199D01*
X80881758Y-107779860D01*
X80945455Y-107864947D01*
X81060664Y-107951193D01*
X81060671Y-107951197D01*
X81195517Y-108001491D01*
X81195516Y-108001491D01*
X81202444Y-108002235D01*
X81255127Y-108007900D01*
X82700872Y-108007899D01*
X82760483Y-108001491D01*
X82895331Y-107951196D01*
X83010546Y-107864946D01*
X83096796Y-107749731D01*
X83147091Y-107614883D01*
X83153500Y-107555273D01*
X83153499Y-106109528D01*
X83147154Y-106050499D01*
X83147091Y-106049916D01*
X83096797Y-105915071D01*
X83096793Y-105915064D01*
X83010547Y-105799855D01*
X83010544Y-105799852D01*
X82895335Y-105713606D01*
X82895328Y-105713602D01*
X82760482Y-105663308D01*
X82760483Y-105663308D01*
X82700883Y-105656901D01*
X82700881Y-105656900D01*
X82700873Y-105656900D01*
X82700864Y-105656900D01*
X81255129Y-105656900D01*
X81255123Y-105656901D01*
X81195516Y-105663308D01*
X81060671Y-105713602D01*
X81060664Y-105713606D01*
X80945455Y-105799852D01*
X80881758Y-105884939D01*
X80876305Y-105889020D01*
X80873258Y-105895111D01*
X80848692Y-105909690D01*
X80825823Y-105926810D01*
X80819029Y-105927295D01*
X80813174Y-105930771D01*
X80784631Y-105929755D01*
X80756132Y-105931793D01*
X80748495Y-105928469D01*
X80743348Y-105928286D01*
X80717217Y-105914856D01*
X80711785Y-105912492D01*
X80710669Y-105911717D01*
X80594096Y-105827022D01*
X80573620Y-105816589D01*
X80566708Y-105811791D01*
X80549854Y-105790882D01*
X80530325Y-105772439D01*
X80528257Y-105764089D01*
X80522860Y-105757394D01*
X80519985Y-105730687D01*
X80513529Y-105704618D01*
X80516302Y-105696478D01*
X80515382Y-105687925D01*
X80527403Y-105663902D01*
X80536065Y-105638483D01*
X80543992Y-105630751D01*
X80546649Y-105625442D01*
X80553766Y-105621217D01*
X80568522Y-105606825D01*
X80687782Y-105527139D01*
X80827139Y-105387782D01*
X80827140Y-105387780D01*
X80834206Y-105380714D01*
X80834209Y-105380710D01*
X85186778Y-101028141D01*
X85186782Y-101028139D01*
X85326139Y-100888782D01*
X85435632Y-100724914D01*
X85511051Y-100542835D01*
X85549500Y-100349541D01*
X85549500Y-97367513D01*
X85558939Y-97320060D01*
X85565269Y-97304778D01*
X85612052Y-97191835D01*
X85650501Y-96998540D01*
X85650501Y-96801459D01*
X85650501Y-96801456D01*
X85650500Y-96801454D01*
X85612052Y-96608164D01*
X85536632Y-96426085D01*
X85536631Y-96426084D01*
X85536628Y-96426078D01*
X85427140Y-96262218D01*
X85427137Y-96262214D01*
X85287785Y-96122862D01*
X85287781Y-96122859D01*
X85123921Y-96013371D01*
X85123912Y-96013366D01*
X84941836Y-95937948D01*
X84941828Y-95937946D01*
X84748544Y-95899499D01*
X84748541Y-95899499D01*
X84551460Y-95899499D01*
X84551457Y-95899499D01*
X84358172Y-95937946D01*
X84358164Y-95937948D01*
X84176088Y-96013366D01*
X84176079Y-96013371D01*
X84012220Y-96122858D01*
X83961720Y-96173359D01*
X83911219Y-96223860D01*
X83911218Y-96223861D01*
X83872865Y-96262214D01*
X83771859Y-96363219D01*
X83662371Y-96527079D01*
X83662364Y-96527092D01*
X83609663Y-96654327D01*
X83609663Y-96654328D01*
X83594561Y-96690789D01*
X83589177Y-96703785D01*
X83586948Y-96709167D01*
X83586947Y-96709171D01*
X83548500Y-96902454D01*
X83548500Y-99785218D01*
X83528815Y-99852257D01*
X83512181Y-99872899D01*
X79671899Y-103713181D01*
X79610576Y-103746666D01*
X79584218Y-103749500D01*
X68972231Y-103749500D01*
X68905192Y-103729815D01*
X68884550Y-103713182D01*
X68864183Y-103692815D01*
X68778656Y-103607288D01*
X68629334Y-103515186D01*
X68462797Y-103460001D01*
X68462795Y-103460000D01*
X68360010Y-103449500D01*
X67159998Y-103449500D01*
X67159981Y-103449501D01*
X67057203Y-103460000D01*
X67057200Y-103460001D01*
X66890668Y-103515185D01*
X66890663Y-103515187D01*
X66741342Y-103607289D01*
X66617289Y-103731342D01*
X66525187Y-103880663D01*
X66525186Y-103880666D01*
X66470001Y-104047203D01*
X66470001Y-104047204D01*
X66470000Y-104047204D01*
X66459500Y-104149983D01*
X63077638Y-104149983D01*
X60598808Y-101671153D01*
X71299500Y-101671153D01*
X71299500Y-101828846D01*
X71330261Y-101983489D01*
X71330264Y-101983501D01*
X71390602Y-102129172D01*
X71390609Y-102129185D01*
X71478210Y-102260288D01*
X71478213Y-102260292D01*
X71589707Y-102371786D01*
X71589711Y-102371789D01*
X71720814Y-102459390D01*
X71720827Y-102459397D01*
X71866498Y-102519735D01*
X71866503Y-102519737D01*
X72021153Y-102550499D01*
X72021156Y-102550500D01*
X72021158Y-102550500D01*
X72178844Y-102550500D01*
X72178845Y-102550499D01*
X72333497Y-102519737D01*
X72479179Y-102459394D01*
X72610289Y-102371789D01*
X72721789Y-102260289D01*
X72809394Y-102129179D01*
X72869737Y-101983497D01*
X72900500Y-101828842D01*
X72900500Y-101671158D01*
X72900500Y-101671155D01*
X72900499Y-101671153D01*
X72869737Y-101516503D01*
X72832564Y-101426758D01*
X72809397Y-101370827D01*
X72809390Y-101370814D01*
X72721789Y-101239711D01*
X72721786Y-101239707D01*
X72610292Y-101128213D01*
X72610288Y-101128210D01*
X72479185Y-101040609D01*
X72479172Y-101040602D01*
X72333501Y-100980264D01*
X72333489Y-100980261D01*
X72178845Y-100949500D01*
X72178842Y-100949500D01*
X72021158Y-100949500D01*
X72021155Y-100949500D01*
X71866510Y-100980261D01*
X71866498Y-100980264D01*
X71720827Y-101040602D01*
X71720814Y-101040609D01*
X71589711Y-101128210D01*
X71589707Y-101128213D01*
X71478213Y-101239707D01*
X71478210Y-101239711D01*
X71390609Y-101370814D01*
X71390602Y-101370827D01*
X71330264Y-101516498D01*
X71330261Y-101516510D01*
X71299500Y-101671153D01*
X60598808Y-101671153D01*
X60344214Y-101416559D01*
X60344194Y-101416537D01*
X60200520Y-101272863D01*
X60200516Y-101272860D01*
X60036655Y-101163371D01*
X60036646Y-101163366D01*
X59951773Y-101128211D01*
X59907900Y-101110038D01*
X59854571Y-101087949D01*
X59854567Y-101087948D01*
X59854563Y-101087946D01*
X59757923Y-101068724D01*
X59661279Y-101049500D01*
X59661276Y-101049500D01*
X59074500Y-101049500D01*
X59007461Y-101029815D01*
X58961706Y-100977011D01*
X58950500Y-100925500D01*
X58950500Y-100871155D01*
X58950499Y-100871153D01*
X58921410Y-100724914D01*
X58919737Y-100716503D01*
X58908354Y-100689022D01*
X58859397Y-100570827D01*
X58859390Y-100570814D01*
X58771789Y-100439711D01*
X58771786Y-100439707D01*
X58660292Y-100328213D01*
X58660288Y-100328210D01*
X58529185Y-100240609D01*
X58529172Y-100240602D01*
X58383501Y-100180264D01*
X58383489Y-100180261D01*
X58228845Y-100149500D01*
X58228842Y-100149500D01*
X58071158Y-100149500D01*
X58071155Y-100149500D01*
X57916510Y-100180261D01*
X57916498Y-100180264D01*
X57770827Y-100240602D01*
X57770814Y-100240609D01*
X57639711Y-100328210D01*
X57639707Y-100328213D01*
X57528213Y-100439707D01*
X57528210Y-100439711D01*
X57440609Y-100570814D01*
X57440602Y-100570827D01*
X57380264Y-100716498D01*
X57380261Y-100716510D01*
X57349500Y-100871153D01*
X57349500Y-100925500D01*
X57329815Y-100992539D01*
X57277011Y-101038294D01*
X57225500Y-101049500D01*
X53968446Y-101049500D01*
X53901407Y-101029815D01*
X53855652Y-100977011D01*
X53844458Y-100923803D01*
X53904646Y-96531307D01*
X55324499Y-96531307D01*
X55356222Y-96690783D01*
X55356225Y-96690793D01*
X55418450Y-96841019D01*
X55418452Y-96841023D01*
X55508788Y-96976220D01*
X55508794Y-96976228D01*
X55623771Y-97091205D01*
X55623779Y-97091211D01*
X55758976Y-97181547D01*
X55758980Y-97181549D01*
X55909206Y-97243774D01*
X55909211Y-97243776D01*
X55909215Y-97243776D01*
X55909216Y-97243777D01*
X56068692Y-97275500D01*
X56068695Y-97275500D01*
X56231307Y-97275500D01*
X56338598Y-97254157D01*
X56390789Y-97243776D01*
X56541021Y-97181548D01*
X56541023Y-97181547D01*
X56615322Y-97131902D01*
X58449500Y-97131902D01*
X58449500Y-97368097D01*
X58486446Y-97601368D01*
X58559433Y-97825996D01*
X58616685Y-97938358D01*
X58666657Y-98036433D01*
X58805483Y-98227510D01*
X58972490Y-98394517D01*
X59163567Y-98533343D01*
X59262991Y-98584002D01*
X59374003Y-98640566D01*
X59374005Y-98640566D01*
X59374008Y-98640568D01*
X59458475Y-98668013D01*
X59598631Y-98713553D01*
X59831903Y-98750500D01*
X59831908Y-98750500D01*
X60068097Y-98750500D01*
X60301368Y-98713553D01*
X60337075Y-98701951D01*
X60525992Y-98640568D01*
X60736433Y-98533343D01*
X60927510Y-98394517D01*
X61094517Y-98227510D01*
X61233343Y-98036433D01*
X61340568Y-97825992D01*
X61413553Y-97601368D01*
X61450500Y-97368097D01*
X61450500Y-97131902D01*
X61413553Y-96898631D01*
X61351991Y-96709165D01*
X61340568Y-96674008D01*
X61340566Y-96674005D01*
X61340566Y-96674003D01*
X61267857Y-96531305D01*
X61233343Y-96463567D01*
X61094517Y-96272490D01*
X61024162Y-96202135D01*
X66049500Y-96202135D01*
X66049500Y-98297870D01*
X66049501Y-98297876D01*
X66055908Y-98357483D01*
X66106202Y-98492328D01*
X66106206Y-98492335D01*
X66192452Y-98607544D01*
X66192455Y-98607547D01*
X66307664Y-98693793D01*
X66307671Y-98693797D01*
X66442517Y-98744091D01*
X66442516Y-98744091D01*
X66449444Y-98744835D01*
X66502127Y-98750500D01*
X68597872Y-98750499D01*
X68657483Y-98744091D01*
X68792331Y-98693796D01*
X68907546Y-98607546D01*
X68993796Y-98492331D01*
X69044091Y-98357483D01*
X69050500Y-98297873D01*
X69050499Y-96202128D01*
X69044091Y-96142517D01*
X69036760Y-96122862D01*
X68993797Y-96007671D01*
X68993793Y-96007664D01*
X68907547Y-95892455D01*
X68907544Y-95892452D01*
X68792335Y-95806206D01*
X68792328Y-95806202D01*
X68657482Y-95755908D01*
X68657483Y-95755908D01*
X68597883Y-95749501D01*
X68597881Y-95749500D01*
X68597873Y-95749500D01*
X68597864Y-95749500D01*
X66502129Y-95749500D01*
X66502123Y-95749501D01*
X66442516Y-95755908D01*
X66307671Y-95806202D01*
X66307664Y-95806206D01*
X66192455Y-95892452D01*
X66192452Y-95892455D01*
X66106206Y-96007664D01*
X66106202Y-96007671D01*
X66055908Y-96142517D01*
X66049501Y-96202116D01*
X66049501Y-96202123D01*
X66049500Y-96202135D01*
X61024162Y-96202135D01*
X60927510Y-96105483D01*
X60736433Y-95966657D01*
X60525996Y-95859433D01*
X60301368Y-95786446D01*
X60068097Y-95749500D01*
X60068092Y-95749500D01*
X59831908Y-95749500D01*
X59831903Y-95749500D01*
X59598631Y-95786446D01*
X59374003Y-95859433D01*
X59163566Y-95966657D01*
X59097717Y-96014500D01*
X58972490Y-96105483D01*
X58972488Y-96105485D01*
X58972487Y-96105485D01*
X58805485Y-96272487D01*
X58805485Y-96272488D01*
X58805483Y-96272490D01*
X58751528Y-96346752D01*
X58666657Y-96463566D01*
X58559433Y-96674003D01*
X58486446Y-96898631D01*
X58449500Y-97131902D01*
X56615322Y-97131902D01*
X56676225Y-97091208D01*
X56680386Y-97087047D01*
X56728079Y-97039355D01*
X56791205Y-96976228D01*
X56791208Y-96976225D01*
X56857243Y-96877396D01*
X56881547Y-96841023D01*
X56881549Y-96841019D01*
X56936162Y-96709171D01*
X56943776Y-96690789D01*
X56960210Y-96608171D01*
X56975500Y-96531307D01*
X56975500Y-96368692D01*
X56943777Y-96209216D01*
X56943776Y-96209215D01*
X56943776Y-96209211D01*
X56940837Y-96202116D01*
X56881549Y-96058981D01*
X56876969Y-96052127D01*
X56809772Y-95951559D01*
X56788895Y-95884882D01*
X56807380Y-95817502D01*
X56843980Y-95779570D01*
X56976225Y-95691208D01*
X57091208Y-95576225D01*
X57181548Y-95441021D01*
X57243776Y-95290789D01*
X57275500Y-95131305D01*
X57275500Y-94968695D01*
X57275500Y-94968692D01*
X57246657Y-94823692D01*
X57252884Y-94754100D01*
X57295747Y-94698923D01*
X57361637Y-94675678D01*
X57368274Y-94675500D01*
X57431307Y-94675500D01*
X57538598Y-94654157D01*
X57590789Y-94643776D01*
X57741021Y-94581548D01*
X57741023Y-94581547D01*
X57827491Y-94523771D01*
X57876225Y-94491208D01*
X57991208Y-94376225D01*
X58071391Y-94256222D01*
X58081547Y-94241023D01*
X58081549Y-94241019D01*
X58143774Y-94090793D01*
X58143776Y-94090789D01*
X58175500Y-93931305D01*
X58175500Y-93768695D01*
X58175500Y-93768692D01*
X58143777Y-93609216D01*
X58143776Y-93609215D01*
X58143776Y-93609211D01*
X58123934Y-93561308D01*
X58081549Y-93458980D01*
X58081547Y-93458976D01*
X57991211Y-93323779D01*
X57991205Y-93323771D01*
X57876228Y-93208794D01*
X57876220Y-93208788D01*
X57741023Y-93118452D01*
X57741019Y-93118450D01*
X57590793Y-93056225D01*
X57590783Y-93056222D01*
X57431307Y-93024500D01*
X57431305Y-93024500D01*
X57268695Y-93024500D01*
X57268693Y-93024500D01*
X57109216Y-93056222D01*
X57109206Y-93056225D01*
X56958980Y-93118450D01*
X56958976Y-93118452D01*
X56823779Y-93208788D01*
X56823771Y-93208794D01*
X56708794Y-93323771D01*
X56708788Y-93323779D01*
X56618452Y-93458976D01*
X56618450Y-93458980D01*
X56556225Y-93609206D01*
X56556222Y-93609216D01*
X56524500Y-93768692D01*
X56524500Y-93931306D01*
X56553343Y-94076308D01*
X56547116Y-94145900D01*
X56504253Y-94201077D01*
X56438363Y-94224322D01*
X56431726Y-94224500D01*
X56368693Y-94224500D01*
X56209216Y-94256222D01*
X56209206Y-94256225D01*
X56058980Y-94318450D01*
X56058976Y-94318452D01*
X55923779Y-94408788D01*
X55923771Y-94408794D01*
X55808794Y-94523771D01*
X55808788Y-94523779D01*
X55718452Y-94658976D01*
X55718450Y-94658980D01*
X55656225Y-94809206D01*
X55656222Y-94809216D01*
X55624500Y-94968692D01*
X55624500Y-94968695D01*
X55624500Y-95131305D01*
X55624500Y-95131307D01*
X55624499Y-95131307D01*
X55656222Y-95290783D01*
X55656225Y-95290793D01*
X55718449Y-95441017D01*
X55790226Y-95548439D01*
X55811103Y-95615116D01*
X55792618Y-95682496D01*
X55756014Y-95720431D01*
X55623775Y-95808791D01*
X55623771Y-95808794D01*
X55508794Y-95923771D01*
X55508788Y-95923779D01*
X55418452Y-96058976D01*
X55418450Y-96058980D01*
X55356225Y-96209206D01*
X55356222Y-96209216D01*
X55324500Y-96368692D01*
X55324500Y-96368695D01*
X55324500Y-96531305D01*
X55324500Y-96531307D01*
X55324499Y-96531307D01*
X53904646Y-96531307D01*
X54123968Y-80525261D01*
X54124980Y-80511070D01*
X54132884Y-80449942D01*
X54149778Y-80449818D01*
X54100000Y-91650000D01*
X68449500Y-91586365D01*
X68449500Y-93738696D01*
X68484103Y-93912660D01*
X68484104Y-93912665D01*
X68487148Y-93920012D01*
X68491825Y-93931303D01*
X68491826Y-93931306D01*
X68551984Y-94076542D01*
X68551985Y-94076544D01*
X68600708Y-94149463D01*
X68600710Y-94149465D01*
X68650534Y-94224034D01*
X68650538Y-94224039D01*
X72870536Y-98444035D01*
X72995965Y-98569464D01*
X73143453Y-98668013D01*
X73225393Y-98701953D01*
X73307334Y-98735895D01*
X73481303Y-98770499D01*
X73481307Y-98770500D01*
X73481308Y-98770500D01*
X73481309Y-98770500D01*
X74752303Y-98770500D01*
X74819342Y-98790185D01*
X74865097Y-98842989D01*
X74875041Y-98912147D01*
X74873920Y-98918692D01*
X74849500Y-99041456D01*
X74849500Y-99041459D01*
X74849500Y-99238541D01*
X74849500Y-99238543D01*
X74849499Y-99238543D01*
X74887947Y-99431829D01*
X74887950Y-99431839D01*
X74963364Y-99613907D01*
X74963371Y-99613920D01*
X75072860Y-99777781D01*
X75072863Y-99777785D01*
X75212214Y-99917136D01*
X75212218Y-99917139D01*
X75376079Y-100026628D01*
X75376092Y-100026635D01*
X75469251Y-100065222D01*
X75558165Y-100102051D01*
X75558169Y-100102051D01*
X75558170Y-100102052D01*
X75751456Y-100140500D01*
X75751459Y-100140500D01*
X75948543Y-100140500D01*
X76078582Y-100114632D01*
X76141835Y-100102051D01*
X76323914Y-100026632D01*
X76323923Y-100026625D01*
X76324543Y-100026295D01*
X76343484Y-100018114D01*
X76351015Y-100015581D01*
X76399716Y-100005895D01*
X76481656Y-99971953D01*
X76563597Y-99938013D01*
X76629911Y-99893703D01*
X76663067Y-99871549D01*
X76679074Y-99860853D01*
X76711086Y-99839464D01*
X77949464Y-98601086D01*
X77994729Y-98533342D01*
X78017814Y-98498793D01*
X78028201Y-98483247D01*
X78048013Y-98453597D01*
X78094243Y-98341987D01*
X78115895Y-98289716D01*
X78150500Y-98115742D01*
X78150500Y-97938358D01*
X78150500Y-93361309D01*
X78150500Y-89011309D01*
X78150500Y-89011306D01*
X78150499Y-89011304D01*
X78115896Y-88837341D01*
X78115893Y-88837332D01*
X78048016Y-88673459D01*
X78048009Y-88673446D01*
X77949464Y-88525965D01*
X77949461Y-88525961D01*
X77824038Y-88400538D01*
X77824034Y-88400535D01*
X77676553Y-88301990D01*
X77676540Y-88301983D01*
X77512667Y-88234106D01*
X77512658Y-88234103D01*
X77338694Y-88199500D01*
X77338691Y-88199500D01*
X77161309Y-88199500D01*
X77161306Y-88199500D01*
X76987341Y-88234103D01*
X76987332Y-88234106D01*
X76823459Y-88301983D01*
X76823446Y-88301990D01*
X76675965Y-88400535D01*
X76675961Y-88400538D01*
X76622480Y-88454018D01*
X76593743Y-85221153D01*
X81299500Y-85221153D01*
X81299500Y-85378846D01*
X81330261Y-85533489D01*
X81330264Y-85533501D01*
X81390602Y-85679172D01*
X81390609Y-85679185D01*
X81478210Y-85810288D01*
X81478213Y-85810292D01*
X81589707Y-85921786D01*
X81589711Y-85921789D01*
X81720814Y-86009390D01*
X81720827Y-86009397D01*
X81866498Y-86069735D01*
X81866503Y-86069737D01*
X82021153Y-86100499D01*
X82021156Y-86100500D01*
X82021158Y-86100500D01*
X82178844Y-86100500D01*
X82178845Y-86100499D01*
X82333497Y-86069737D01*
X82479179Y-86009394D01*
X82610289Y-85921789D01*
X82721789Y-85810289D01*
X82809394Y-85679179D01*
X82869737Y-85533497D01*
X82900500Y-85378842D01*
X82900500Y-85221158D01*
X82900500Y-85221155D01*
X82900499Y-85221153D01*
X82869737Y-85066503D01*
X82869735Y-85066498D01*
X82809397Y-84920827D01*
X82809390Y-84920814D01*
X82721789Y-84789711D01*
X82721786Y-84789707D01*
X82610292Y-84678213D01*
X82610288Y-84678210D01*
X82479185Y-84590609D01*
X82479172Y-84590602D01*
X82333501Y-84530264D01*
X82333489Y-84530261D01*
X82178845Y-84499500D01*
X82178842Y-84499500D01*
X82021158Y-84499500D01*
X82021155Y-84499500D01*
X81866510Y-84530261D01*
X81866498Y-84530264D01*
X81720827Y-84590602D01*
X81720814Y-84590609D01*
X81589711Y-84678210D01*
X81589707Y-84678213D01*
X81478213Y-84789707D01*
X81478210Y-84789711D01*
X81390609Y-84920814D01*
X81390602Y-84920827D01*
X81330264Y-85066498D01*
X81330261Y-85066510D01*
X81299500Y-85221153D01*
X76593743Y-85221153D01*
X76549873Y-80285800D01*
X77723187Y-80277209D01*
X77790366Y-80296402D01*
X77836506Y-80348870D01*
X77838653Y-80353754D01*
X77890602Y-80479172D01*
X77890609Y-80479185D01*
X77978210Y-80610288D01*
X77978213Y-80610292D01*
X78089707Y-80721786D01*
X78089711Y-80721789D01*
X78220814Y-80809390D01*
X78220827Y-80809397D01*
X78366498Y-80869735D01*
X78366503Y-80869737D01*
X78521153Y-80900499D01*
X78521156Y-80900500D01*
X78521158Y-80900500D01*
X78678844Y-80900500D01*
X78678845Y-80900499D01*
X78833497Y-80869737D01*
X78979179Y-80809394D01*
X79110289Y-80721789D01*
X79221789Y-80610289D01*
X79309394Y-80479179D01*
X79366677Y-80340883D01*
X79410515Y-80286484D01*
X79476809Y-80264418D01*
X79480199Y-80264344D01*
X84107097Y-80230465D01*
X84174277Y-80249659D01*
X84220417Y-80302126D01*
X84229618Y-80330261D01*
X84230259Y-80333484D01*
X84230264Y-80333501D01*
X84290602Y-80479172D01*
X84290609Y-80479185D01*
X84378210Y-80610288D01*
X84378213Y-80610292D01*
X84489707Y-80721786D01*
X84489711Y-80721789D01*
X84620814Y-80809390D01*
X84620827Y-80809397D01*
X84766498Y-80869735D01*
X84766503Y-80869737D01*
X84921153Y-80900499D01*
X84921156Y-80900500D01*
X84921158Y-80900500D01*
X85078844Y-80900500D01*
X85078845Y-80900499D01*
X85233497Y-80869737D01*
X85379179Y-80809394D01*
X85510289Y-80721789D01*
X85621789Y-80610289D01*
X85709394Y-80479179D01*
X85769737Y-80333497D01*
X85772980Y-80317189D01*
X85805364Y-80255279D01*
X85866080Y-80220704D01*
X85893680Y-80217384D01*
X101799042Y-80100922D01*
X101866223Y-80120115D01*
G37*
%TD.AperFunction*%
%TA.AperFunction,Conductor*%
G36*
X76349500Y-95475500D02*
G01*
X76329815Y-95542539D01*
X76277011Y-95588294D01*
X76225500Y-95599500D01*
X75302129Y-95599500D01*
X75302123Y-95599501D01*
X75242516Y-95605908D01*
X75107671Y-95656202D01*
X75107664Y-95656206D01*
X74992455Y-95742452D01*
X74992452Y-95742455D01*
X74906206Y-95857664D01*
X74906202Y-95857671D01*
X74855908Y-95992517D01*
X74853545Y-96014500D01*
X74849500Y-96052127D01*
X74849500Y-96502641D01*
X74849501Y-96845500D01*
X74829817Y-96912539D01*
X74777013Y-96958294D01*
X74725501Y-96969500D01*
X73994361Y-96969500D01*
X73927322Y-96949815D01*
X73906680Y-96933181D01*
X70286819Y-93313319D01*
X70253334Y-93251996D01*
X70250500Y-93225638D01*
X70250500Y-91578379D01*
X76349500Y-91551332D01*
X76349500Y-95475500D01*
G37*
%TD.AperFunction*%
%TD*%
M02*
