M48
; DRILL file {KiCad 9.0.7} date 2026-02-19T04:12:03+0300
; FORMAT={-:-/ absolute / metric / decimal}
; #@! TF.CreationDate,2026-02-19T04:12:03+03:00
; #@! TF.GenerationSoftware,Kicad,Pcbnew,9.0.7
; #@! TF.FileFunction,Plated,1,4,PTH
FMAT,2
METRIC
; #@! TA.AperFunction,Plated,PTH,ComponentDrill
T1C0.200
; #@! TA.AperFunction,Plated,PTH,ViaDrill
T2C0.250
; #@! TA.AperFunction,Plated,PTH,ViaDrill
T3C0.300
; #@! TA.AperFunction,Plated,PTH,ComponentDrill
T4C0.300
; #@! TA.AperFunction,Plated,PTH,ViaDrill
T5C0.400
; #@! TA.AperFunction,Plated,PTH,ComponentDrill
T6C0.600
; #@! TA.AperFunction,Plated,PTH,ComponentDrill
T7C0.650
; #@! TA.AperFunction,Plated,PTH,ComponentDrill
T8C0.750
; #@! TA.AperFunction,Plated,PTH,ComponentDrill
T9C0.800
; #@! TA.AperFunction,Plated,PTH,ComponentDrill
T10C0.900
; #@! TA.AperFunction,Plated,PTH,ComponentDrill
T11C1.000
; #@! TA.AperFunction,Plated,PTH,ComponentDrill
T12C1.100
; #@! TA.AperFunction,Plated,PTH,ComponentDrill
T13C1.300
; #@! TA.AperFunction,Plated,PTH,ComponentDrill
T14C1.475
%
G90
G05
T1
X79.527Y-76.792
X79.527Y-78.092
X80.827Y-76.792
X80.827Y-78.092
X82.127Y-76.792
X82.127Y-78.092
X83.427Y-76.792
X83.427Y-78.092
T2
X51.2Y-155.35
X53.85Y-168.75
X54.2Y-146.8
X55.425Y-168.6
X57.3Y-160.55
X57.95Y-148.05
X58.3Y-141.95
X67.4Y-151.95
X69.15Y-155.4
X69.15Y-157.475
X70.675Y-151.95
X76.175Y-159.775
X76.25Y-139.2
X88.4Y-126.15
X88.4Y-126.65
X88.4Y-127.15
X88.4Y-127.65
X88.4Y-128.15
X88.9Y-126.15
X88.9Y-126.65
X88.9Y-127.15
X88.9Y-127.65
X88.9Y-128.15
X89.4Y-126.15
X89.4Y-126.65
X89.4Y-127.15
X89.4Y-127.65
X89.4Y-128.15
X89.9Y-126.15
X89.9Y-126.65
X89.9Y-127.15
X89.9Y-127.65
X89.9Y-128.15
X90.4Y-126.15
X90.4Y-126.65
X90.4Y-127.15
X90.4Y-127.65
X90.4Y-128.15
T3
X52.0Y-118.25
X53.4Y-133.0
X53.9Y-164.05
X53.916Y-166.166
X54.6Y-120.5
X54.7Y-127.5
X55.6Y-164.85
X56.1Y-106.65
X56.168Y-152.925
X57.05Y-158.7
X57.2Y-167.9
X57.45Y-125.25
X58.15Y-100.95
X58.7Y-133.8
X58.85Y-164.15
X61.4Y-126.35
X61.75Y-159.5
X63.75Y-168.15
X67.25Y-128.15
X69.0Y-110.0
X69.0Y-135.45
X69.05Y-132.6
X69.35Y-89.5
X69.888Y-134.05
X70.65Y-135.5
X70.7Y-132.65
X72.1Y-101.75
X73.25Y-112.75
X73.25Y-120.75
X76.352Y-115.367
X77.25Y-89.1
X77.521Y-116.738
X77.572Y-111.354
X77.572Y-119.939
X78.187Y-118.517
X78.45Y-96.0
X78.588Y-117.246
X78.6Y-80.1
X78.638Y-119.888
X79.2Y-153.1
X79.55Y-116.95
X80.3Y-114.9
X80.719Y-118.023
X80.772Y-118.821
X81.25Y-116.85
X81.75Y-119.939
X81.89Y-114.141
X82.1Y-85.3
X82.7Y-92.55
X82.95Y-99.35
X84.25Y-127.75
X84.65Y-96.9
X85.0Y-80.1
X86.36Y-117.5
X86.411Y-116.535
X87.239Y-98.138
X131.2Y-100.6
X133.75Y-100.65
X136.906Y-114.757
X138.242Y-113.294
X138.242Y-114.094
X140.617Y-117.831
X141.042Y-113.294
X141.342Y-114.244
X149.758Y-113.995
X149.809Y-112.065
X150.419Y-96.164
X150.419Y-99.06
X151.79Y-97.638
X152.298Y-107.645
X152.349Y-110.49
X153.568Y-109.118
X156.75Y-134.25
X156.75Y-138.0
X157.75Y-136.0
X158.392Y-108.394
X158.442Y-105.844
X158.592Y-111.544
X160.63Y-101.956
X160.63Y-116.381
X161.087Y-131.369
X161.138Y-127.66
X162.148Y-117.862
X162.204Y-133.452
X162.217Y-120.142
X162.217Y-122.682
X163.373Y-101.905
X163.424Y-104.292
X163.424Y-127.66
X163.474Y-131.42
T4
X99.709Y-86.175
X101.959Y-90.7
X103.809Y-86.175
T5
X48.85Y-115.95
X56.125Y-81.475
X56.15Y-96.45
X56.25Y-103.2
X56.45Y-95.05
X57.35Y-93.85
X73.525Y-127.95
X74.612Y-135.237
X75.05Y-137.55
X75.127Y-130.71
X77.55Y-131.25
X77.833Y-127.356
X78.75Y-111.35
X78.85Y-110.45
X79.2Y-109.45
X82.644Y-127.356
X88.443Y-112.978
X88.443Y-121.108
T7
X75.85Y-96.6
X75.85Y-97.87
X75.85Y-99.14
T8
X146.442Y-101.104
X146.442Y-103.644
X147.712Y-102.374
T9
X48.6Y-76.55
X48.6Y-78.55
X48.7Y-92.2
X48.7Y-94.2
X48.7Y-96.2
X48.7Y-98.2
X48.7Y-100.2
X49.2Y-123.95
X49.2Y-125.95
X49.3Y-106.1
X49.3Y-108.1
X52.032Y-74.29
X52.032Y-81.91
X52.5Y-103.6
X52.5Y-111.22
X60.14Y-104.75
X61.525Y-87.45
X61.525Y-89.45
X65.126Y-109.068
X65.126Y-116.688
X67.76Y-104.75
X69.647Y-114.187
X69.647Y-119.087
X75.978Y-106.832
X77.978Y-106.832
X79.978Y-106.832
X81.978Y-106.832
X121.525Y-54.68
X121.525Y-69.92
X128.142Y-89.614
X128.142Y-104.854
X131.202Y-97.694
X139.175Y-63.15
X139.175Y-70.77
X146.442Y-97.694
X156.775Y-54.55
X156.775Y-69.79
T10
X70.2Y-86.0
X72.74Y-86.0
X117.22Y-94.694
X124.84Y-94.694
T11
X52.7Y-141.75
X59.95Y-97.25
X63.957Y-120.853
X63.957Y-125.853
X67.55Y-97.25
X103.104Y-158.761
X105.644Y-158.761
X108.184Y-158.761
X110.724Y-158.761
X113.264Y-158.761
X115.804Y-158.761
X118.344Y-158.761
X120.884Y-158.761
X123.424Y-158.761
X125.964Y-158.761
X128.504Y-158.761
X131.044Y-158.761
X133.584Y-158.761
X136.124Y-158.761
X138.664Y-158.761
X141.204Y-158.761
X143.744Y-158.761
X146.284Y-158.761
X148.824Y-158.761
X151.364Y-158.761
X161.867Y-103.224
X161.867Y-105.764
X161.867Y-108.304
X161.867Y-110.844
T12
X57.578Y-109.781
X57.578Y-116.281
X62.078Y-109.781
X62.078Y-116.281
X126.195Y-58.0
X126.325Y-69.5
X128.735Y-58.0
X128.865Y-69.5
X131.275Y-58.0
X131.405Y-69.5
X147.095Y-69.55
X147.125Y-57.15
X149.635Y-69.55
X149.665Y-57.15
X152.175Y-69.55
X152.205Y-57.15
T13
X116.775Y-55.18
X116.775Y-70.42
X161.925Y-54.58
X161.925Y-69.82
T14
X98.315Y-97.415
X98.315Y-99.955
X98.315Y-102.495
X98.315Y-105.035
X100.115Y-69.69
X100.115Y-77.31
X102.655Y-69.69
X102.655Y-77.31
X105.195Y-69.69
X105.195Y-77.31
X105.935Y-97.415
X105.935Y-99.955
X105.935Y-102.495
X105.935Y-105.035
X107.735Y-69.69
X107.735Y-77.31
X114.19Y-82.44
X114.19Y-90.06
X116.73Y-82.44
X116.73Y-90.06
X119.27Y-82.44
X119.27Y-90.06
X121.81Y-82.44
X121.81Y-90.06
X155.865Y-80.69
X155.865Y-88.31
X158.405Y-80.69
X158.405Y-88.31
X160.945Y-80.69
X160.945Y-88.31
X163.485Y-80.69
X163.485Y-88.31
T6
G00X51.075Y-129.23
M15
G01X50.475Y-129.23
M16
G05
G00X51.075Y-137.87
M15
G01X50.475Y-137.87
M16
G05
G00X55.505Y-129.23
M15
G01X54.405Y-129.23
M16
G05
G00X55.505Y-137.87
M15
G01X54.405Y-137.87
M16
G05
G00X67.91Y-161.77
M15
G01X67.91Y-162.87
M16
G05
G00X67.91Y-166.2
M15
G01X67.91Y-166.8
M16
G05
G00X76.55Y-161.77
M15
G01X76.55Y-162.87
M16
G05
G00X76.55Y-166.2
M15
G01X76.55Y-166.8
M16
G05
M30
