%TF.GenerationSoftware,KiCad,Pcbnew,9.0.7*%
%TF.CreationDate,2026-02-19T04:12:07+03:00*%
%TF.ProjectId,shell-bms,7368656c-6c2d-4626-9d73-2e6b69636164,rev?*%
%TF.SameCoordinates,Original*%
%TF.FileFunction,Copper,L4,Bot*%
%TF.FilePolarity,Positive*%
%FSLAX46Y46*%
G04 Gerber Fmt 4.6, Leading zero omitted, Abs format (unit mm)*
G04 Created by KiCad (PCBNEW 9.0.7) date 2026-02-19 04:12:07*
%MOMM*%
%LPD*%
G01*
G04 APERTURE LIST*
G04 Aperture macros list*
%AMRoundRect*
0 Rectangle with rounded corners*
0 $1 Rounding radius*
0 $2 $3 $4 $5 $6 $7 $8 $9 X,Y pos of 4 corners*
0 Add a 4 corners polygon primitive as box body*
4,1,4,$2,$3,$4,$5,$6,$7,$8,$9,$2,$3,0*
0 Add four circle primitives for the rounded corners*
1,1,$1+$1,$2,$3*
1,1,$1+$1,$4,$5*
1,1,$1+$1,$6,$7*
1,1,$1+$1,$8,$9*
0 Add four rect primitives between the rounded corners*
20,1,$1+$1,$2,$3,$4,$5,0*
20,1,$1+$1,$4,$5,$6,$7,0*
20,1,$1+$1,$6,$7,$8,$9,0*
20,1,$1+$1,$8,$9,$2,$3,0*%
G04 Aperture macros list end*
%TA.AperFunction,Conductor*%
%ADD10C,0.200000*%
%TD*%
%TA.AperFunction,EtchedComponent*%
%ADD11C,0.000000*%
%TD*%
%TA.AperFunction,ComponentPad*%
%ADD12RoundRect,0.250000X-0.550000X0.550000X-0.550000X-0.550000X0.550000X-0.550000X0.550000X0.550000X0*%
%TD*%
%TA.AperFunction,ComponentPad*%
%ADD13C,1.600000*%
%TD*%
%TA.AperFunction,ComponentPad*%
%ADD14R,1.350000X1.350000*%
%TD*%
%TA.AperFunction,ComponentPad*%
%ADD15C,1.350000*%
%TD*%
%TA.AperFunction,ComponentPad*%
%ADD16RoundRect,0.250000X0.550000X0.550000X-0.550000X0.550000X-0.550000X-0.550000X0.550000X-0.550000X0*%
%TD*%
%TA.AperFunction,ComponentPad*%
%ADD17C,1.800000*%
%TD*%
%TA.AperFunction,ComponentPad*%
%ADD18C,2.000000*%
%TD*%
%TA.AperFunction,ComponentPad*%
%ADD19R,1.905000X2.000000*%
%TD*%
%TA.AperFunction,ComponentPad*%
%ADD20O,1.905000X2.000000*%
%TD*%
%TA.AperFunction,ComponentPad*%
%ADD21C,0.600000*%
%TD*%
%TA.AperFunction,ComponentPad*%
%ADD22RoundRect,0.250000X-1.050000X1.050000X-1.050000X-1.050000X1.050000X-1.050000X1.050000X1.050000X0*%
%TD*%
%TA.AperFunction,ComponentPad*%
%ADD23C,2.600000*%
%TD*%
%TA.AperFunction,ComponentPad*%
%ADD24R,2.000000X2.000000*%
%TD*%
%TA.AperFunction,ComponentPad*%
%ADD25C,1.500000*%
%TD*%
%TA.AperFunction,HeatsinkPad*%
%ADD26C,0.500000*%
%TD*%
%TA.AperFunction,HeatsinkPad*%
%ADD27R,4.400000X1.800000*%
%TD*%
%TA.AperFunction,ComponentPad*%
%ADD28RoundRect,0.250000X0.550000X-0.550000X0.550000X0.550000X-0.550000X0.550000X-0.550000X-0.550000X0*%
%TD*%
%TA.AperFunction,HeatsinkPad*%
%ADD29O,1.000000X2.100000*%
%TD*%
%TA.AperFunction,HeatsinkPad*%
%ADD30O,1.000000X1.600000*%
%TD*%
%TA.AperFunction,ComponentPad*%
%ADD31C,1.700000*%
%TD*%
%TA.AperFunction,ComponentPad*%
%ADD32R,1.700000X1.700000*%
%TD*%
%TA.AperFunction,ComponentPad*%
%ADD33R,1.800000X1.100000*%
%TD*%
%TA.AperFunction,ComponentPad*%
%ADD34RoundRect,0.275000X-0.625000X0.275000X-0.625000X-0.275000X0.625000X-0.275000X0.625000X0.275000X0*%
%TD*%
%TA.AperFunction,ComponentPad*%
%ADD35R,1.000000X1.000000*%
%TD*%
%TA.AperFunction,ComponentPad*%
%ADD36C,1.000000*%
%TD*%
%TA.AperFunction,ComponentPad*%
%ADD37RoundRect,0.250000X0.650000X0.650000X-0.650000X0.650000X-0.650000X-0.650000X0.650000X-0.650000X0*%
%TD*%
%TA.AperFunction,ComponentPad*%
%ADD38R,1.800000X1.800000*%
%TD*%
%TA.AperFunction,HeatsinkPad*%
%ADD39O,2.100000X1.000000*%
%TD*%
%TA.AperFunction,HeatsinkPad*%
%ADD40O,1.600000X1.000000*%
%TD*%
%TA.AperFunction,SMDPad,CuDef*%
%ADD41RoundRect,0.250000X0.337500X1.450000X-0.337500X1.450000X-0.337500X-1.450000X0.337500X-1.450000X0*%
%TD*%
%TA.AperFunction,SMDPad,CuDef*%
%ADD42RoundRect,0.250000X-1.075000X0.400000X-1.075000X-0.400000X1.075000X-0.400000X1.075000X0.400000X0*%
%TD*%
%TA.AperFunction,SMDPad,CuDef*%
%ADD43RoundRect,0.237500X-0.237500X0.300000X-0.237500X-0.300000X0.237500X-0.300000X0.237500X0.300000X0*%
%TD*%
%TA.AperFunction,SMDPad,CuDef*%
%ADD44RoundRect,0.250000X1.450000X-0.337500X1.450000X0.337500X-1.450000X0.337500X-1.450000X-0.337500X0*%
%TD*%
%TA.AperFunction,SMDPad,CuDef*%
%ADD45RoundRect,0.237500X-0.300000X-0.237500X0.300000X-0.237500X0.300000X0.237500X-0.300000X0.237500X0*%
%TD*%
%TA.AperFunction,SMDPad,CuDef*%
%ADD46RoundRect,0.237500X0.237500X-0.300000X0.237500X0.300000X-0.237500X0.300000X-0.237500X-0.300000X0*%
%TD*%
%TA.AperFunction,SMDPad,CuDef*%
%ADD47RoundRect,0.150000X-0.587500X-0.150000X0.587500X-0.150000X0.587500X0.150000X-0.587500X0.150000X0*%
%TD*%
%TA.AperFunction,SMDPad,CuDef*%
%ADD48RoundRect,0.250000X0.412500X1.100000X-0.412500X1.100000X-0.412500X-1.100000X0.412500X-1.100000X0*%
%TD*%
%TA.AperFunction,SMDPad,CuDef*%
%ADD49RoundRect,0.250000X-0.337500X-1.450000X0.337500X-1.450000X0.337500X1.450000X-0.337500X1.450000X0*%
%TD*%
%TA.AperFunction,ViaPad*%
%ADD50C,0.600000*%
%TD*%
%TA.AperFunction,ViaPad*%
%ADD51C,0.450000*%
%TD*%
%TA.AperFunction,ViaPad*%
%ADD52C,0.550000*%
%TD*%
%TA.AperFunction,ViaPad*%
%ADD53C,0.650000*%
%TD*%
%TA.AperFunction,Conductor*%
%ADD54C,0.800000*%
%TD*%
%TA.AperFunction,Conductor*%
%ADD55C,0.300000*%
%TD*%
%TA.AperFunction,Conductor*%
%ADD56C,0.250000*%
%TD*%
%TA.AperFunction,Conductor*%
%ADD57C,0.500000*%
%TD*%
%TA.AperFunction,Conductor*%
%ADD58C,1.000000*%
%TD*%
%TA.AperFunction,Conductor*%
%ADD59C,2.000000*%
%TD*%
G04 APERTURE END LIST*
%TO.N,Net-(MP2-Pad1)*%
D10*
X97032000Y-89816845D02*
X106903600Y-89816845D01*
X106903600Y-100504400D01*
X97032000Y-100504400D01*
X97032000Y-89816845D01*
%TA.AperFunction,Conductor*%
G36*
X97032000Y-89816845D02*
G01*
X106903600Y-89816845D01*
X106903600Y-100504400D01*
X97032000Y-100504400D01*
X97032000Y-89816845D01*
G37*
%TD.AperFunction*%
D11*
%TA.AperFunction,EtchedComponent*%
%TD*%
%TO.C,NT1*%
G36*
X104008800Y-90975890D02*
G01*
X99708800Y-90975890D01*
X99708800Y-85975890D01*
X104008800Y-85975890D01*
X104008800Y-90975890D01*
G37*
%TD.AperFunction*%
D12*
%TO.P,D7,1,K*%
%TO.N,+5V*%
X52500000Y-103600000D03*
D13*
%TO.P,D7,2,A*%
%TO.N,Net-(D7-A)*%
X52500000Y-111220000D03*
%TD*%
%TO.P,R32,1*%
%TO.N,/Protection/B_Pos*%
X121525000Y-69920000D03*
%TO.P,R32,2*%
%TO.N,Net-(D3-K)*%
X121525000Y-54680000D03*
%TD*%
D14*
%TO.P,J7,1,Pin_1*%
%TO.N,+5V*%
X49300000Y-106100000D03*
D15*
%TO.P,J7,2,Pin_2*%
%TO.N,Net-(D7-A)*%
X49300000Y-108100000D03*
%TD*%
D16*
%TO.P,D5,1,K*%
%TO.N,+5V*%
X67760000Y-104750000D03*
D13*
%TO.P,D5,2,A*%
%TO.N,Net-(BZ1--)*%
X60140000Y-104750000D03*
%TD*%
D14*
%TO.P,J9,1,Pin_1*%
%TO.N,Net-(J9-Pin_1)*%
X81978000Y-106832400D03*
D15*
%TO.P,J9,2,Pin_2*%
%TO.N,Net-(J9-Pin_2)*%
X79978000Y-106832400D03*
%TO.P,J9,3,Pin_3*%
%TO.N,+3V3*%
X77978000Y-106832400D03*
%TO.P,J9,4,Pin_4*%
%TO.N,GND*%
X75978000Y-106832400D03*
%TD*%
D13*
%TO.P,R22,1*%
%TO.N,BAT*%
X128142000Y-104854000D03*
%TO.P,R22,2*%
%TO.N,Net-(D1-K)*%
X128142000Y-89614000D03*
%TD*%
D17*
%TO.P,MP3,1*%
%TO.N,Net-(D4-A)*%
X155865000Y-80690000D03*
%TO.P,MP3,2*%
X158405000Y-80690000D03*
%TO.P,MP3,3*%
X160945000Y-80690000D03*
%TO.P,MP3,4*%
X163485000Y-80690000D03*
%TO.P,MP3,5*%
X163485000Y-88310000D03*
%TO.P,MP3,6*%
X160945000Y-88310000D03*
%TO.P,MP3,7*%
X158405000Y-88310000D03*
%TO.P,MP3,8*%
X155865000Y-88310000D03*
%TD*%
D18*
%TO.P,TP1,1,1*%
%TO.N,Net-(U7-TOUT)*%
X52700000Y-141750000D03*
%TD*%
%TO.P,SW1,1,1*%
%TO.N,GND*%
X57577600Y-116281200D03*
X57577600Y-109781200D03*
%TO.P,SW1,2,2*%
%TO.N,/MCU/NRST*%
X62077600Y-116281200D03*
X62077600Y-109781200D03*
%TD*%
D19*
%TO.P,Q9,1,D*%
%TO.N,/Protection/CD*%
X131275000Y-58000000D03*
D20*
%TO.P,Q9,2,G*%
%TO.N,Net-(D3-K)*%
X128735000Y-58000000D03*
%TO.P,Q9,3,S*%
%TO.N,/Protection/B_Pos*%
X126195000Y-58000000D03*
%TD*%
D14*
%TO.P,J8,1,Pin_1*%
%TO.N,+5V*%
X48600000Y-78550000D03*
D15*
%TO.P,J8,2,Pin_2*%
%TO.N,Net-(D8-A)*%
X48600000Y-76550000D03*
%TD*%
D14*
%TO.P,J10,1,Pin_1*%
%TO.N,GND*%
X48700000Y-92200000D03*
D15*
%TO.P,J10,2,Pin_2*%
%TO.N,/Data_Utils/PB3*%
X48700000Y-94200000D03*
%TO.P,J10,3,Pin_3*%
%TO.N,/Data_Utils/PB4*%
X48700000Y-96200000D03*
%TO.P,J10,4,Pin_4*%
%TO.N,/Data_Utils/PB5*%
X48700000Y-98200000D03*
%TO.P,J10,5,Pin_5*%
%TO.N,+3V3*%
X48700000Y-100200000D03*
%TD*%
D18*
%TO.P,NT1,1,1*%
%TO.N,GND*%
X99708800Y-86175000D03*
%TO.P,NT1,2,2*%
%TO.N,GNDPWR*%
X103808800Y-86175000D03*
D21*
%TO.P,NT1,3,3*%
%TO.N,Net-(MP2-Pad1)*%
X101958800Y-90700000D03*
%TD*%
D14*
%TO.P,J13,1,Pin_1*%
%TO.N,GND*%
X61525000Y-87450000D03*
D15*
%TO.P,J13,2,Pin_2*%
%TO.N,Net-(J13-Pin_2)*%
X61525000Y-89450000D03*
%TD*%
D22*
%TO.P,D3,1,K*%
%TO.N,Net-(D3-K)*%
X116775000Y-55180000D03*
D23*
%TO.P,D3,2,A*%
%TO.N,/Protection/B_Pos*%
X116775000Y-70420000D03*
%TD*%
D24*
%TO.P,BZ1,1,+*%
%TO.N,+5V*%
X67550000Y-97250000D03*
D18*
%TO.P,BZ1,2,-*%
%TO.N,Net-(BZ1--)*%
X59950000Y-97250000D03*
%TD*%
D14*
%TO.P,J6,1,Pin_1*%
%TO.N,Net-(J6-Pin_1)*%
X49200000Y-123950000D03*
D15*
%TO.P,J6,2,Pin_2*%
%TO.N,Net-(J6-Pin_2)*%
X49200000Y-125950000D03*
%TD*%
D25*
%TO.P,Y1,1,1*%
%TO.N,Net-(U3-PF0)*%
X69646800Y-114186800D03*
%TO.P,Y1,2,2*%
%TO.N,Net-(U3-PF1)*%
X69646800Y-119086800D03*
%TD*%
D17*
%TO.P,MP2,1*%
%TO.N,Net-(MP2-Pad1)*%
X98315000Y-105035000D03*
%TO.P,MP2,2*%
X98315000Y-102495000D03*
%TO.P,MP2,3*%
X98315000Y-99955000D03*
%TO.P,MP2,4*%
X98315000Y-97415000D03*
%TO.P,MP2,5*%
X105935000Y-97415000D03*
%TO.P,MP2,6*%
X105935000Y-99955000D03*
%TO.P,MP2,7*%
X105935000Y-102495000D03*
%TO.P,MP2,8*%
X105935000Y-105035000D03*
%TD*%
D26*
%TO.P,U2,9,RTNPAD*%
%TO.N,GNDPWR*%
X83427400Y-76791531D03*
X82127400Y-76791531D03*
X80827400Y-76791531D03*
X79527400Y-76791531D03*
D27*
X81477400Y-77441531D03*
D26*
X83427400Y-78091531D03*
X82127400Y-78091531D03*
X80827400Y-78091531D03*
X79527400Y-78091531D03*
%TD*%
D13*
%TO.P,R55,1*%
%TO.N,/MCU/NRST*%
X65125600Y-116687600D03*
%TO.P,R55,2*%
%TO.N,+3V3*%
X65125600Y-109067600D03*
%TD*%
%TO.P,R30,1*%
%TO.N,Net-(D2-K)*%
X131202000Y-97694000D03*
%TO.P,R30,2*%
%TO.N,Net-(Q1-C)*%
X146442000Y-97694000D03*
%TD*%
D19*
%TO.P,Q3,1,D*%
%TO.N,/Protection/CD*%
X147095000Y-69550000D03*
D20*
%TO.P,Q3,2,G*%
%TO.N,Net-(D4-K)*%
X149635000Y-69550000D03*
%TO.P,Q3,3,S*%
%TO.N,Net-(D4-A)*%
X152175000Y-69550000D03*
%TD*%
D19*
%TO.P,Q2,1,D*%
%TO.N,/Protection/CD*%
X131405000Y-69500000D03*
D20*
%TO.P,Q2,2,G*%
%TO.N,Net-(D3-K)*%
X128865000Y-69500000D03*
%TO.P,Q2,3,S*%
%TO.N,/Protection/B_Pos*%
X126325000Y-69500000D03*
%TD*%
D28*
%TO.P,D2,1,K*%
%TO.N,Net-(D2-K)*%
X139175000Y-70770000D03*
D13*
%TO.P,D2,2,A*%
%TO.N,/Protection/CD*%
X139175000Y-63150000D03*
%TD*%
D29*
%TO.P,J11,S1,SHIELD*%
%TO.N,GND*%
X67910000Y-162320000D03*
D30*
X67910000Y-166500000D03*
D29*
X76550000Y-162320000D03*
D30*
X76550000Y-166500000D03*
%TD*%
D31*
%TO.P,J2,1,Pin_1*%
%TO.N,/ReaderIC/Balance-Input/B_0*%
X151364000Y-158761500D03*
%TO.P,J2,2,Pin_2*%
%TO.N,/ReaderIC/Balance-Input/B_1*%
X148824000Y-158761500D03*
%TO.P,J2,3,Pin_3*%
%TO.N,/ReaderIC/Balance-Input/B_2*%
X146284000Y-158761500D03*
%TO.P,J2,4,Pin_4*%
%TO.N,/ReaderIC/Balance-Input/B_3*%
X143744000Y-158761500D03*
%TO.P,J2,5,Pin_5*%
%TO.N,/ReaderIC/Balance-Input/B_4*%
X141204000Y-158761500D03*
%TO.P,J2,6,Pin_6*%
%TO.N,/ReaderIC/Balance-Input/B_5*%
X138664000Y-158761500D03*
%TO.P,J2,7,Pin_7*%
%TO.N,/ReaderIC/Balance-Input/B_6*%
X136124000Y-158761500D03*
%TO.P,J2,8,Pin_8*%
%TO.N,/ReaderIC/Balance-Input/B_7*%
X133584000Y-158761500D03*
%TO.P,J2,9,Pin_9*%
%TO.N,/ReaderIC/Balance-Input/B_8*%
X131044000Y-158761500D03*
%TO.P,J2,10,Pin_10*%
%TO.N,/ReaderIC/Balance-Input/B_9*%
X128504000Y-158761500D03*
%TO.P,J2,11,Pin_11*%
%TO.N,/ReaderIC/Balance-Input/B_10*%
X125964000Y-158761500D03*
%TO.P,J2,12,Pin_12*%
%TO.N,/ReaderIC/Balance-Input/B_11*%
X123424000Y-158761500D03*
%TO.P,J2,13,Pin_13*%
%TO.N,/ReaderIC/Balance-Input/B_12*%
X120884000Y-158761500D03*
%TO.P,J2,14,Pin_14*%
%TO.N,/ReaderIC/Balance-Input/B_13*%
X118344000Y-158761500D03*
%TO.P,J2,15,Pin_15*%
%TO.N,/ReaderIC/Balance-Input/B_14*%
X115804000Y-158761500D03*
%TO.P,J2,16,Pin_16*%
%TO.N,/ReaderIC/Balance-Input/B_15*%
X113264000Y-158761500D03*
%TO.P,J2,17,Pin_17*%
%TO.N,/ReaderIC/Balance-Input/B_16*%
X110724000Y-158761500D03*
%TO.P,J2,18,Pin_18*%
%TO.N,unconnected-(J2-Pin_18-Pad18)*%
X108184000Y-158761500D03*
%TO.P,J2,19,Pin_19*%
%TO.N,unconnected-(J2-Pin_19-Pad19)*%
X105644000Y-158761500D03*
D32*
%TO.P,J2,20,Pin_20*%
%TO.N,unconnected-(J2-Pin_20-Pad20)*%
X103104000Y-158761500D03*
%TD*%
D33*
%TO.P,Q1,1,C*%
%TO.N,Net-(Q1-C)*%
X146042000Y-101104000D03*
D34*
%TO.P,Q1,2,B*%
%TO.N,Net-(Q1-B)*%
X148112000Y-102374000D03*
%TO.P,Q1,3,E*%
%TO.N,Net-(Q1-E)*%
X146042000Y-103644000D03*
%TD*%
D22*
%TO.P,D4,1,K*%
%TO.N,Net-(D4-K)*%
X161925000Y-54580000D03*
D23*
%TO.P,D4,2,A*%
%TO.N,Net-(D4-A)*%
X161925000Y-69820000D03*
%TD*%
D28*
%TO.P,D8,1,K*%
%TO.N,+5V*%
X52032500Y-81910000D03*
D13*
%TO.P,D8,2,A*%
%TO.N,Net-(D8-A)*%
X52032500Y-74290000D03*
%TD*%
D35*
%TO.P,JP1,1,A*%
%TO.N,Net-(JP1-A)*%
X75850000Y-96600000D03*
D36*
%TO.P,JP1,2,C*%
%TO.N,Net-(JP1-C)*%
X75850000Y-97870000D03*
%TO.P,JP1,3,B*%
%TO.N,Net-(JP1-B)*%
X75850000Y-99140000D03*
%TD*%
D19*
%TO.P,Q8,1,D*%
%TO.N,/Protection/CD*%
X147125000Y-57150000D03*
D20*
%TO.P,Q8,2,G*%
%TO.N,Net-(D4-K)*%
X149665000Y-57150000D03*
%TO.P,Q8,3,S*%
%TO.N,Net-(D4-A)*%
X152205000Y-57150000D03*
%TD*%
D37*
%TO.P,D1,1,K*%
%TO.N,Net-(D1-K)*%
X124840000Y-94694000D03*
D17*
%TO.P,D1,2,A*%
%TO.N,/ReaderIC/Balance-Input/B_16*%
X117220000Y-94694000D03*
%TD*%
%TO.P,MP4,1*%
%TO.N,GNDPWR*%
X114190000Y-82440000D03*
%TO.P,MP4,2*%
X116730000Y-82440000D03*
%TO.P,MP4,3*%
X119270000Y-82440000D03*
%TO.P,MP4,4*%
X121810000Y-82440000D03*
%TO.P,MP4,5*%
X121810000Y-90060000D03*
%TO.P,MP4,6*%
X119270000Y-90060000D03*
%TO.P,MP4,7*%
X116730000Y-90060000D03*
%TO.P,MP4,8*%
X114190000Y-90060000D03*
%TD*%
%TO.P,MP1,1*%
%TO.N,/Protection/B_Pos*%
X100115000Y-69690000D03*
%TO.P,MP1,2*%
X102655000Y-69690000D03*
%TO.P,MP1,3*%
X105195000Y-69690000D03*
%TO.P,MP1,4*%
X107735000Y-69690000D03*
%TO.P,MP1,5*%
X107735000Y-77310000D03*
%TO.P,MP1,6*%
X105195000Y-77310000D03*
%TO.P,MP1,7*%
X102655000Y-77310000D03*
%TO.P,MP1,8*%
X100115000Y-77310000D03*
%TD*%
D38*
%TO.P,D6,1,K*%
%TO.N,GND*%
X70200000Y-86000000D03*
D17*
%TO.P,D6,2,A*%
%TO.N,Net-(D6-A)*%
X72740000Y-86000000D03*
%TD*%
D18*
%TO.P,C58,1*%
%TO.N,GND*%
X63957200Y-125853200D03*
%TO.P,C58,2*%
%TO.N,/MCU/NRST*%
X63957200Y-120853200D03*
%TD*%
D13*
%TO.P,R39,1*%
%TO.N,Net-(D4-A)*%
X156775000Y-69790000D03*
%TO.P,R39,2*%
%TO.N,Net-(D4-K)*%
X156775000Y-54550000D03*
%TD*%
D32*
%TO.P,J3,1,Pin_1*%
%TO.N,/ReaderIC/Balance-Input/TS1*%
X161867000Y-110844000D03*
D31*
%TO.P,J3,2,Pin_2*%
%TO.N,/ReaderIC/Balance-Input/TS2*%
X161867000Y-108304000D03*
%TO.P,J3,3,Pin_3*%
%TO.N,/ReaderIC/Balance-Input/TS3*%
X161867000Y-105764000D03*
%TO.P,J3,4,Pin_4*%
%TO.N,GNDPWR*%
X161867000Y-103224000D03*
%TD*%
D39*
%TO.P,J5,S1,SHIELD*%
%TO.N,GND*%
X54955000Y-129230000D03*
D40*
X50775000Y-129230000D03*
D39*
X54955000Y-137870000D03*
D40*
X50775000Y-137870000D03*
%TD*%
D41*
%TO.P,R66,1*%
%TO.N,+3V3*%
X65575000Y-162225000D03*
%TO.P,R66,2*%
%TO.N,Net-(U7-IO2)*%
X63900000Y-162225000D03*
%TD*%
D42*
%TO.P,R28,1*%
%TO.N,/MCU/IC_SDA*%
X88442800Y-118008400D03*
%TO.P,R28,2*%
%TO.N,+3V3*%
X88442800Y-121108400D03*
%TD*%
D41*
%TO.P,R64,1*%
%TO.N,/MCU/esp32/3V3*%
X65700000Y-167300000D03*
%TO.P,R64,2*%
%TO.N,Net-(SW2-A)*%
X64025000Y-167300000D03*
%TD*%
D43*
%TO.P,C54,1*%
%TO.N,GND*%
X76402450Y-112727400D03*
%TO.P,C54,2*%
%TO.N,+3V3*%
X76402450Y-114452400D03*
%TD*%
D44*
%TO.P,R62,1*%
%TO.N,Net-(U7-IO15)*%
X57150000Y-160375000D03*
%TO.P,R62,2*%
%TO.N,GND*%
X57150000Y-158700000D03*
%TD*%
D45*
%TO.P,C61,1*%
%TO.N,Net-(U7-RST)*%
X54150000Y-148050000D03*
%TO.P,C61,2*%
%TO.N,GND*%
X55875000Y-148050000D03*
%TD*%
D42*
%TO.P,R29,1*%
%TO.N,+3V3*%
X88442800Y-112978000D03*
%TO.P,R29,2*%
%TO.N,/MCU/IC_SCL*%
X88442800Y-116078000D03*
%TD*%
D46*
%TO.P,C47,1*%
%TO.N,GND*%
X78128000Y-115669400D03*
%TO.P,C47,2*%
%TO.N,+3V3*%
X78128000Y-113944400D03*
%TD*%
D41*
%TO.P,R65,1*%
%TO.N,+3V3*%
X55900000Y-150750000D03*
%TO.P,R65,2*%
%TO.N,Net-(U7-RST)*%
X54225000Y-150750000D03*
%TD*%
D47*
%TO.P,Q4,1,B*%
%TO.N,Net-(Q4-B)*%
X56162500Y-105800000D03*
%TO.P,Q4,2,E*%
%TO.N,GND*%
X56162500Y-103900000D03*
%TO.P,Q4,3,C*%
%TO.N,Net-(BZ1--)*%
X58037500Y-104850000D03*
%TD*%
D42*
%TO.P,R57,1*%
%TO.N,Net-(Q5-B)*%
X49550000Y-116100000D03*
%TO.P,R57,2*%
%TO.N,GND*%
X49550000Y-119200000D03*
%TD*%
D46*
%TO.P,C45,1*%
%TO.N,GND*%
X79601200Y-115669400D03*
%TO.P,C45,2*%
%TO.N,+3V3*%
X79601200Y-113944400D03*
%TD*%
D41*
%TO.P,R67,1*%
%TO.N,+3V3*%
X54250000Y-157100000D03*
%TO.P,R67,2*%
%TO.N,Net-(U7-EN)*%
X52575000Y-157100000D03*
%TD*%
D48*
%TO.P,C19,1*%
%TO.N,/ReaderIC/Balance-Input/TS2*%
X159742000Y-108344000D03*
%TO.P,C19,2*%
%TO.N,GNDPWR*%
X156617000Y-108344000D03*
%TD*%
D49*
%TO.P,R63,1*%
%TO.N,GND*%
X55462500Y-167250000D03*
%TO.P,R63,2*%
%TO.N,Net-(SW2-C)*%
X57137500Y-167250000D03*
%TD*%
D46*
%TO.P,C42,1*%
%TO.N,GND*%
X81127600Y-115670500D03*
%TO.P,C42,2*%
%TO.N,+3V3*%
X81127600Y-113945500D03*
%TD*%
%TO.P,C62,1*%
%TO.N,Net-(U7-EN)*%
X52500000Y-154325000D03*
%TO.P,C62,2*%
%TO.N,GND*%
X52500000Y-152600000D03*
%TD*%
D48*
%TO.P,C20,1*%
%TO.N,/ReaderIC/Balance-Input/TS1*%
X159717000Y-111544000D03*
%TO.P,C20,2*%
%TO.N,GNDPWR*%
X156592000Y-111544000D03*
%TD*%
D43*
%TO.P,C53,1*%
%TO.N,GND*%
X74908450Y-112727400D03*
%TO.P,C53,2*%
%TO.N,+3V3*%
X74908450Y-114452400D03*
%TD*%
%TO.P,C52,1*%
%TO.N,GND*%
X73405250Y-112727400D03*
%TO.P,C52,2*%
%TO.N,+3V3*%
X73405250Y-114452400D03*
%TD*%
D48*
%TO.P,C18,1*%
%TO.N,/ReaderIC/Balance-Input/TS3*%
X159742000Y-105094000D03*
%TO.P,C18,2*%
%TO.N,GNDPWR*%
X156617000Y-105094000D03*
%TD*%
D50*
%TO.N,+5V*%
X84650000Y-96900000D03*
D51*
%TO.N,GND*%
X53850000Y-168750000D03*
D50*
X69887500Y-134050000D03*
D52*
X57050000Y-158700000D03*
X73250000Y-120750000D03*
D50*
X57450000Y-125250000D03*
X81750000Y-119938800D03*
D52*
X73250000Y-112750000D03*
X84250000Y-127750000D03*
X61750000Y-159500000D03*
D50*
X78450000Y-96000000D03*
X69050000Y-132600000D03*
X80300000Y-114900000D03*
X70700000Y-132650000D03*
D52*
X56168037Y-152925000D03*
X69000000Y-110000000D03*
D51*
X57950000Y-148050000D03*
D50*
X82700000Y-92550000D03*
D51*
X69150000Y-157475000D03*
D53*
X75050000Y-137550000D03*
D50*
X54600000Y-120500000D03*
X54700000Y-127500000D03*
D51*
X55425000Y-168600000D03*
D53*
X56250000Y-103200000D03*
D50*
X70650000Y-135500000D03*
X82950000Y-99350000D03*
D52*
X79200000Y-153100000D03*
X53900000Y-164050000D03*
D50*
X87238500Y-98138500D03*
X77571600Y-111353600D03*
X69000000Y-135450000D03*
D51*
X76175000Y-159775000D03*
D50*
%TO.N,/ReaderIC/Balance-Input/TS3*%
X138242000Y-113293997D03*
X158442000Y-105844000D03*
%TO.N,/ReaderIC/Balance-Input/TS2*%
X158392000Y-108394000D03*
X140617000Y-117831500D03*
%TO.N,/ReaderIC/Balance-Input/TS1*%
X158592000Y-111544000D03*
X138242000Y-114094000D03*
D51*
%TO.N,+3V3*%
X89400000Y-127150000D03*
X88400000Y-126150000D03*
D53*
X73525000Y-127950000D03*
X88442800Y-121108400D03*
X88442800Y-112978000D03*
X74612500Y-135237500D03*
D52*
X53916000Y-166166000D03*
D51*
X88900000Y-127650000D03*
X89900000Y-127150000D03*
X88400000Y-128150000D03*
D50*
X81889600Y-114141000D03*
D51*
X89400000Y-126150000D03*
X88400000Y-127150000D03*
X70675000Y-151950000D03*
X88400000Y-127650000D03*
X88400000Y-126650000D03*
X88900000Y-126150000D03*
X89900000Y-128150000D03*
D50*
X76352400Y-115366800D03*
D51*
X89900000Y-127650000D03*
D52*
X55600000Y-164850000D03*
D51*
X90400000Y-128150000D03*
X89400000Y-128150000D03*
X69150000Y-155400000D03*
X90400000Y-126650000D03*
D53*
X82644400Y-127355600D03*
D51*
X88900000Y-126650000D03*
X88900000Y-127150000D03*
X89900000Y-126650000D03*
X88900000Y-128150000D03*
D53*
X77833400Y-127355600D03*
D51*
X89400000Y-127650000D03*
X89400000Y-126650000D03*
X90400000Y-126150000D03*
X89900000Y-126150000D03*
X90400000Y-127150000D03*
X90400000Y-127650000D03*
D50*
%TO.N,GNDPWR*%
X150418800Y-96164400D03*
D52*
X156750000Y-138000000D03*
D50*
X131200000Y-100600000D03*
X161086800Y-131368800D03*
X149809200Y-112064800D03*
X153568400Y-109118400D03*
X163423600Y-127660400D03*
X150418800Y-99060000D03*
X160629600Y-116381500D03*
X162217000Y-122682000D03*
X152349200Y-110490000D03*
X162217000Y-120142000D03*
X162147550Y-117862050D03*
X161137600Y-127660400D03*
X162204400Y-133451600D03*
X151790400Y-97637600D03*
X133750000Y-100650000D03*
X163474400Y-131419600D03*
X163372800Y-101904800D03*
X136906000Y-114757200D03*
X152298400Y-107645200D03*
D52*
X156750000Y-134250000D03*
X157750000Y-136000000D03*
D50*
X149758400Y-113995200D03*
X163423600Y-104292400D03*
X160629600Y-101955600D03*
%TO.N,Net-(U2-FB)*%
X82100000Y-85300000D03*
X78600000Y-80100000D03*
X85000000Y-80100000D03*
%TO.N,/MCU/NRST*%
X77520800Y-116738400D03*
%TO.N,/Data_Utils/USB-*%
X53400000Y-133000000D03*
X58700000Y-133800000D03*
D53*
%TO.N,/Data_Utils/PB4*%
X56450000Y-95050000D03*
X78850000Y-110450000D03*
%TO.N,/Data_Utils/PB5*%
X78750000Y-111350000D03*
X56150000Y-96450000D03*
%TO.N,/Data_Utils/PB3*%
X57350000Y-93850000D03*
X79200000Y-109450000D03*
D50*
%TO.N,Net-(JP1-C)*%
X69350000Y-89500000D03*
%TO.N,Net-(JP1-B)*%
X77250000Y-89100000D03*
%TO.N,/Data_Utils/STAT_LED*%
X72100000Y-101750000D03*
X80718785Y-118022969D03*
%TO.N,Net-(Q4-B)*%
X56100000Y-106650000D03*
D53*
%TO.N,Net-(Q5-B)*%
X48850000Y-115950000D03*
D50*
%TO.N,/MCU/IC_SDA*%
X141042000Y-113294000D03*
X86360000Y-117500400D03*
%TO.N,/MCU/IC_SCL*%
X141342000Y-114244000D03*
X86410800Y-116535200D03*
%TO.N,/Data_Utils/BUZZER*%
X58150000Y-100950000D03*
X80772000Y-118821200D03*
D52*
%TO.N,/Data_Utils/FAN1*%
X52000000Y-118250000D03*
D50*
X78186959Y-118517319D03*
D53*
%TO.N,/Data_Utils/FAN2*%
X56125000Y-81475000D03*
D50*
X78587600Y-117246400D03*
%TO.N,/Data_Utils/CAN_TX*%
X79550000Y-116950000D03*
X61400000Y-126350000D03*
%TO.N,/Data_Utils/CAN_RX*%
X67250000Y-128150000D03*
X81250000Y-116850000D03*
%TO.N,/Data_Utils/TXD*%
X78638400Y-119888000D03*
D53*
X77550000Y-131250000D03*
%TO.N,/Data_Utils/RXD*%
X75126885Y-130709752D03*
D50*
X77571600Y-119938800D03*
D51*
X76250000Y-139200000D03*
%TO.N,Net-(U7-RST)*%
X54200000Y-146800000D03*
%TO.N,Net-(U7-EN)*%
X51200000Y-155350000D03*
%TO.N,Net-(JP2-A)*%
X58300000Y-141950000D03*
X67400000Y-151950000D03*
%TO.N,Net-(U7-IO15)*%
X57300000Y-160550000D03*
D52*
%TO.N,Net-(SW2-C)*%
X57200000Y-167900000D03*
%TO.N,Net-(SW2-A)*%
X63750000Y-168150000D03*
%TO.N,Net-(U7-IO2)*%
X58850000Y-164150000D03*
%TD*%
D54*
%TO.N,Net-(BZ1--)*%
X58250000Y-104850000D02*
X60040000Y-104850000D01*
X60040000Y-104850000D02*
X60140000Y-104750000D01*
D55*
%TO.N,GND*%
X49950000Y-120500000D02*
X54600000Y-120500000D01*
X49550000Y-119200000D02*
X49550000Y-120100000D01*
X56250000Y-103850000D02*
X56200000Y-103900000D01*
X56200000Y-103900000D02*
X56162500Y-103900000D01*
X76550000Y-162320000D02*
X76550000Y-166500000D01*
X80357100Y-114900000D02*
X81127600Y-115670500D01*
D54*
X76197800Y-112727400D02*
X73405250Y-112727400D01*
D56*
X53100000Y-152600000D02*
X52500000Y-152600000D01*
D55*
X49550000Y-120100000D02*
X49950000Y-120500000D01*
D54*
X77571600Y-111353600D02*
X76197800Y-112727400D01*
D57*
X55875000Y-148050000D02*
X57950000Y-148050000D01*
X78128000Y-115669400D02*
X81126500Y-115669400D01*
D54*
X76402450Y-112727400D02*
X73405250Y-112727400D01*
D55*
X67910000Y-162320000D02*
X67910000Y-166500000D01*
X56250000Y-103200000D02*
X56250000Y-103850000D01*
D57*
X55462500Y-168562500D02*
X55425000Y-168600000D01*
D55*
X80300000Y-114900000D02*
X80357100Y-114900000D01*
D57*
X81126500Y-115669400D02*
X81127600Y-115670500D01*
D56*
X53425000Y-152925000D02*
X53100000Y-152600000D01*
D57*
X55462500Y-167250000D02*
X55462500Y-168562500D01*
D56*
X56168037Y-152925000D02*
X53425000Y-152925000D01*
D58*
%TO.N,/ReaderIC/Balance-Input/TS3*%
X158442000Y-105844000D02*
X160332000Y-105844000D01*
X160412000Y-105764000D02*
X161867000Y-105764000D01*
X160332000Y-105844000D02*
X160412000Y-105764000D01*
X158442000Y-105844000D02*
X158992000Y-105844000D01*
%TO.N,/ReaderIC/Balance-Input/TS2*%
X158392000Y-108394000D02*
X159692000Y-108394000D01*
X161867000Y-108304000D02*
X160064500Y-108304000D01*
X159782000Y-108304000D02*
X161867000Y-108304000D01*
X160064500Y-108304000D02*
X159804500Y-108044000D01*
X159692000Y-108394000D02*
X159782000Y-108304000D01*
%TO.N,/ReaderIC/Balance-Input/TS1*%
X159717000Y-111544000D02*
X158592000Y-111544000D01*
X158592000Y-111544000D02*
X161167000Y-111544000D01*
X161167000Y-111544000D02*
X161867000Y-110844000D01*
D54*
%TO.N,+3V3*%
X76402450Y-114452400D02*
X76402450Y-115316750D01*
D59*
X82644400Y-127355600D02*
X82650000Y-127350000D01*
D57*
X53950000Y-165976708D02*
X55076708Y-164850000D01*
X81126500Y-113944400D02*
X81127600Y-113945500D01*
D55*
X81498842Y-114141000D02*
X81302242Y-113944400D01*
D57*
X55076708Y-164850000D02*
X55600000Y-164850000D01*
X78750000Y-113944400D02*
X76910450Y-113944400D01*
X78128000Y-113944400D02*
X78750000Y-113944400D01*
X53950000Y-166150000D02*
X53950000Y-165976708D01*
D54*
X76402450Y-115316750D02*
X76352400Y-115366800D01*
D57*
X78750000Y-113944400D02*
X81126500Y-113944400D01*
X55900000Y-150750000D02*
X60050000Y-150750000D01*
D59*
X77833400Y-127355600D02*
X82644400Y-127355600D01*
D55*
X81889600Y-114141000D02*
X81498842Y-114141000D01*
D57*
X76910450Y-113944400D02*
X76402450Y-114452400D01*
D54*
X73405250Y-114452400D02*
X76402450Y-114452400D01*
D57*
%TO.N,GNDPWR*%
X156617000Y-105094000D02*
X156617000Y-111519000D01*
X154342800Y-108344000D02*
X153568400Y-109118400D01*
X156617000Y-111519000D02*
X156592000Y-111544000D01*
X156617000Y-108344000D02*
X154342800Y-108344000D01*
D55*
%TO.N,/Data_Utils/PB4*%
X77850000Y-108750000D02*
X68341479Y-108750000D01*
X78200000Y-109800000D02*
X78200000Y-109100000D01*
X56700000Y-95050000D02*
X56450000Y-95050000D01*
X61955619Y-102364141D02*
X57655621Y-102364141D01*
X68341479Y-108750000D02*
X61955619Y-102364141D01*
X56913500Y-101622021D02*
X56899000Y-101607520D01*
X56899000Y-95249000D02*
X56700000Y-95050000D01*
X78200000Y-109100000D02*
X77850000Y-108750000D01*
X57655621Y-102364141D02*
X56913500Y-101622021D01*
X56899000Y-101607520D02*
X56899000Y-95249000D01*
X78850000Y-110450000D02*
X78200000Y-109800000D01*
%TO.N,/Data_Utils/PB5*%
X68051000Y-109251000D02*
X63950000Y-105150000D01*
X63950000Y-105150000D02*
X61800000Y-103000000D01*
X57582947Y-103000000D02*
X56150000Y-101567053D01*
X77650000Y-110250000D02*
X77650000Y-109650000D01*
X77251000Y-109251000D02*
X75600000Y-109251000D01*
X61800000Y-103000000D02*
X59900000Y-103000000D01*
X56150000Y-101567053D02*
X56150000Y-96450000D01*
X78750000Y-111350000D02*
X77650000Y-110250000D01*
X77650000Y-109650000D02*
X77251000Y-109251000D01*
X59900000Y-103000000D02*
X57582947Y-103000000D01*
X75600000Y-109251000D02*
X68051000Y-109251000D01*
%TO.N,/Data_Utils/PB3*%
X57700000Y-101700000D02*
X57400000Y-101400000D01*
X57400000Y-101400000D02*
X57400000Y-93900000D01*
X57400000Y-93900000D02*
X57350000Y-93850000D01*
X78550000Y-107950000D02*
X68250000Y-107950000D01*
X79200000Y-109450000D02*
X79200000Y-108600000D01*
X79200000Y-108600000D02*
X78550000Y-107950000D01*
X62000000Y-101700000D02*
X57700000Y-101700000D01*
X68250000Y-107950000D02*
X62000000Y-101700000D01*
%TO.N,/Data_Utils/STAT_LED*%
X82827031Y-118022969D02*
X84500000Y-116350000D01*
X80718785Y-118022969D02*
X82827031Y-118022969D01*
X84500000Y-116350000D02*
X84500000Y-107000000D01*
X84500000Y-107000000D02*
X82800000Y-105300000D01*
X79250000Y-101750000D02*
X72100000Y-101750000D01*
X82800000Y-105300000D02*
X79250000Y-101750000D01*
D54*
%TO.N,Net-(Q4-B)*%
X56162500Y-106587500D02*
X56100000Y-106650000D01*
X56162500Y-105800000D02*
X56162500Y-106587500D01*
D56*
%TO.N,/MCU/IC_SDA*%
X138970898Y-117500400D02*
X86360000Y-117500400D01*
X141277298Y-113294000D02*
X141968000Y-113984702D01*
X141968000Y-114503298D02*
X138970898Y-117500400D01*
X141968000Y-113984702D02*
X141968000Y-114503298D01*
X141042000Y-113294000D02*
X141277298Y-113294000D01*
D55*
%TO.N,/MCU/IC_SCL*%
X139050800Y-116535200D02*
X141342000Y-114244000D01*
X86410800Y-116535200D02*
X139050800Y-116535200D01*
%TO.N,/Data_Utils/BUZZER*%
X84528800Y-118821200D02*
X80772000Y-118821200D01*
X85000000Y-105550000D02*
X85000000Y-118350000D01*
X58150000Y-100950000D02*
X80400000Y-100950000D01*
X85000000Y-118350000D02*
X84528800Y-118821200D01*
X80400000Y-100950000D02*
X85000000Y-105550000D01*
%TO.N,/Data_Utils/FAN1*%
X77882681Y-118517319D02*
X72700000Y-123700000D01*
X78186959Y-118517319D02*
X77882681Y-118517319D01*
X53500000Y-118200000D02*
X52200000Y-118200000D01*
X72700000Y-123700000D02*
X59000000Y-123700000D01*
X59000000Y-123700000D02*
X53500000Y-118200000D01*
%TO.N,/Data_Utils/FAN2*%
X78587600Y-117246400D02*
X78444600Y-117389400D01*
D57*
X55050000Y-101600000D02*
X54350000Y-100900000D01*
X54350000Y-83250000D02*
X54350000Y-100900000D01*
D55*
X78444600Y-117389400D02*
X77710600Y-117389400D01*
X59450000Y-123050000D02*
X55050000Y-118650000D01*
X56125000Y-81475000D02*
X56200000Y-81400000D01*
D57*
X56125000Y-81475000D02*
X54350000Y-83250000D01*
X54974000Y-101676000D02*
X54974000Y-118574000D01*
X55050000Y-101600000D02*
X54974000Y-101676000D01*
D55*
X72050000Y-123050000D02*
X59450000Y-123050000D01*
D57*
X54974000Y-118574000D02*
X55050000Y-118650000D01*
D55*
X77710600Y-117389400D02*
X72050000Y-123050000D01*
%TO.N,/Data_Utils/CAN_TX*%
X72242854Y-127204200D02*
X62254200Y-127204200D01*
X79550000Y-116950000D02*
X79550000Y-119897054D01*
X79550000Y-119897054D02*
X72242854Y-127204200D01*
X62254200Y-127204200D02*
X61400000Y-126350000D01*
%TO.N,/Data_Utils/CAN_RX*%
X72005574Y-128150000D02*
X80067785Y-120087789D01*
X80067785Y-117382215D02*
X80600000Y-116850000D01*
X80067785Y-120087789D02*
X80067785Y-117382215D01*
X80600000Y-116850000D02*
X81250000Y-116850000D01*
X67250000Y-128150000D02*
X72005574Y-128150000D01*
D57*
%TO.N,Net-(U7-RST)*%
X54200000Y-148000000D02*
X54150000Y-148050000D01*
X54225000Y-150750000D02*
X54225000Y-148125000D01*
X54225000Y-148125000D02*
X54150000Y-148050000D01*
X54200000Y-146800000D02*
X54200000Y-148000000D01*
%TO.N,Net-(U7-EN)*%
X52500000Y-155150000D02*
X52500000Y-157025000D01*
X52500000Y-157025000D02*
X52575000Y-157100000D01*
X51400000Y-155150000D02*
X52500000Y-155150000D01*
X51200000Y-155350000D02*
X51400000Y-155150000D01*
X52500000Y-154325000D02*
X52500000Y-155150000D01*
D55*
%TO.N,Net-(JP2-A)*%
X64200000Y-142000000D02*
X64150000Y-141950000D01*
X67400000Y-151950000D02*
X67400000Y-145200000D01*
X67400000Y-145200000D02*
X64200000Y-142000000D01*
X64150000Y-141950000D02*
X58300000Y-141950000D01*
%TO.N,Net-(U7-IO15)*%
X57150000Y-160400000D02*
X57300000Y-160550000D01*
X57150000Y-160375000D02*
X57150000Y-160400000D01*
D57*
%TO.N,Net-(U7-IO2)*%
X63900000Y-162225000D02*
X63900000Y-164275000D01*
X63900000Y-164275000D02*
X63750000Y-164425000D01*
X58850000Y-164150000D02*
X59125000Y-164425000D01*
X59125000Y-164425000D02*
X63750000Y-164425000D01*
%TD*%
%TA.AperFunction,Conductor*%
%TO.N,/Protection/B_Pos*%
G36*
X103783743Y-67455389D02*
G01*
X103829727Y-67507993D01*
X103841148Y-67558418D01*
X104003188Y-80302379D01*
X103984357Y-80369664D01*
X103932139Y-80416086D01*
X103879223Y-80427956D01*
X85901345Y-80431584D01*
X85834302Y-80411913D01*
X85788536Y-80359118D01*
X85778579Y-80289962D01*
X85779699Y-80283412D01*
X85791964Y-80221752D01*
X85800500Y-80178844D01*
X85800500Y-80021155D01*
X85800499Y-80021153D01*
X85769738Y-79866510D01*
X85769737Y-79866503D01*
X85769735Y-79866498D01*
X85709397Y-79720827D01*
X85709390Y-79720814D01*
X85621789Y-79589711D01*
X85621786Y-79589707D01*
X85510292Y-79478213D01*
X85510288Y-79478210D01*
X85379185Y-79390609D01*
X85379172Y-79390602D01*
X85233501Y-79330264D01*
X85233489Y-79330261D01*
X85078845Y-79299500D01*
X85078842Y-79299500D01*
X84921158Y-79299500D01*
X84921155Y-79299500D01*
X84766510Y-79330261D01*
X84766498Y-79330264D01*
X84620827Y-79390602D01*
X84620814Y-79390609D01*
X84489711Y-79478210D01*
X84489707Y-79478213D01*
X84378213Y-79589707D01*
X84378210Y-79589711D01*
X84290609Y-79720814D01*
X84290602Y-79720827D01*
X84230264Y-79866498D01*
X84230261Y-79866510D01*
X84199500Y-80021153D01*
X84199500Y-80178846D01*
X84220368Y-80283756D01*
X84214141Y-80353347D01*
X84171278Y-80408525D01*
X84105388Y-80431769D01*
X84098776Y-80431947D01*
X80684330Y-80432637D01*
X80617287Y-80412966D01*
X80571521Y-80360171D01*
X80560317Y-80310327D01*
X80560039Y-80289962D01*
X80554267Y-79866510D01*
X80542014Y-78967720D01*
X80544673Y-78958184D01*
X80543264Y-78948383D01*
X80553902Y-78925086D01*
X80560782Y-78900419D01*
X80568175Y-78893833D01*
X80572289Y-78884827D01*
X80593833Y-78870981D01*
X80612958Y-78853948D01*
X80624305Y-78851398D01*
X80631067Y-78847053D01*
X80666002Y-78842030D01*
X80739040Y-78842030D01*
X80739048Y-78842031D01*
X80753482Y-78842031D01*
X80925981Y-78842031D01*
X80925985Y-78842030D01*
X82053478Y-78842030D01*
X82053482Y-78842031D01*
X82201318Y-78842031D01*
X82201321Y-78842030D01*
X83347348Y-78842030D01*
X83347368Y-78842031D01*
X83353482Y-78842031D01*
X83508914Y-78842031D01*
X83508930Y-78842030D01*
X83725271Y-78842030D01*
X83725272Y-78842030D01*
X83784883Y-78835622D01*
X83919731Y-78785327D01*
X84034946Y-78699077D01*
X84121196Y-78583862D01*
X84171491Y-78449014D01*
X84177900Y-78389404D01*
X84177899Y-76865453D01*
X84177900Y-76865449D01*
X84177900Y-76717613D01*
X84177899Y-76717608D01*
X84177899Y-76493659D01*
X84171491Y-76434048D01*
X84121196Y-76299200D01*
X84121195Y-76299199D01*
X84121193Y-76299195D01*
X84034947Y-76183986D01*
X84034944Y-76183983D01*
X83919735Y-76097737D01*
X83919728Y-76097733D01*
X83784882Y-76047439D01*
X83784883Y-76047439D01*
X83725283Y-76041032D01*
X83725281Y-76041031D01*
X83725273Y-76041031D01*
X83501318Y-76041031D01*
X83353482Y-76041031D01*
X83353481Y-76041031D01*
X82201319Y-76041031D01*
X82201318Y-76041031D01*
X82053482Y-76041031D01*
X82053480Y-76041031D01*
X80901321Y-76041031D01*
X80901318Y-76041031D01*
X80753482Y-76041031D01*
X80753478Y-76041031D01*
X80624435Y-76041031D01*
X80557396Y-76021346D01*
X80511641Y-75968542D01*
X80500447Y-75918721D01*
X80387891Y-67662606D01*
X80406659Y-67595305D01*
X80458835Y-67548834D01*
X80511336Y-67536917D01*
X103716621Y-67435996D01*
X103783743Y-67455389D01*
G37*
%TD.AperFunction*%
%TD*%
%TA.AperFunction,Conductor*%
%TO.N,GND*%
G36*
X76393672Y-69069937D02*
G01*
X76439664Y-69122535D01*
X76451097Y-69173451D01*
X76623405Y-88558177D01*
X76604317Y-88625389D01*
X76602513Y-88628169D01*
X76540608Y-88720817D01*
X76540602Y-88720828D01*
X76480264Y-88866498D01*
X76480261Y-88866510D01*
X76449500Y-89021153D01*
X76449500Y-89178846D01*
X76480261Y-89333489D01*
X76480264Y-89333501D01*
X76540602Y-89479172D01*
X76540609Y-89479185D01*
X76612254Y-89586409D01*
X76633132Y-89653087D01*
X76633147Y-89654198D01*
X76648892Y-91425451D01*
X76629804Y-91492663D01*
X76577409Y-91538885D01*
X76525447Y-91550552D01*
X55225050Y-91645010D01*
X55157924Y-91625623D01*
X55111935Y-91573022D01*
X55100500Y-91521011D01*
X55100500Y-89357486D01*
X60349500Y-89357486D01*
X60349500Y-89542514D01*
X60356452Y-89586409D01*
X60378445Y-89725265D01*
X60435619Y-89901232D01*
X60435620Y-89901235D01*
X60491186Y-90010288D01*
X60519622Y-90066096D01*
X60628379Y-90215787D01*
X60759213Y-90346621D01*
X60908904Y-90455378D01*
X60989763Y-90496577D01*
X61073764Y-90539379D01*
X61073767Y-90539380D01*
X61161750Y-90567967D01*
X61249736Y-90596555D01*
X61432486Y-90625500D01*
X61432487Y-90625500D01*
X61617513Y-90625500D01*
X61617514Y-90625500D01*
X61800264Y-90596555D01*
X61976235Y-90539379D01*
X62141096Y-90455378D01*
X62290787Y-90346621D01*
X62421621Y-90215787D01*
X62530378Y-90066096D01*
X62614379Y-89901235D01*
X62671555Y-89725264D01*
X62700500Y-89542514D01*
X62700500Y-89421153D01*
X68549500Y-89421153D01*
X68549500Y-89578846D01*
X68580261Y-89733489D01*
X68580264Y-89733501D01*
X68640602Y-89879172D01*
X68640609Y-89879185D01*
X68728210Y-90010288D01*
X68728213Y-90010292D01*
X68839707Y-90121786D01*
X68839711Y-90121789D01*
X68970814Y-90209390D01*
X68970827Y-90209397D01*
X69116498Y-90269735D01*
X69116503Y-90269737D01*
X69271153Y-90300499D01*
X69271156Y-90300500D01*
X69271158Y-90300500D01*
X69428844Y-90300500D01*
X69428845Y-90300499D01*
X69583497Y-90269737D01*
X69713740Y-90215789D01*
X69729172Y-90209397D01*
X69729172Y-90209396D01*
X69729179Y-90209394D01*
X69860289Y-90121789D01*
X69971789Y-90010289D01*
X70059394Y-89879179D01*
X70119737Y-89733497D01*
X70150500Y-89578842D01*
X70150500Y-89421158D01*
X70150500Y-89421155D01*
X70150499Y-89421153D01*
X70119738Y-89266510D01*
X70119737Y-89266503D01*
X70083427Y-89178842D01*
X70059397Y-89120827D01*
X70059390Y-89120814D01*
X69971789Y-88989711D01*
X69971786Y-88989707D01*
X69860292Y-88878213D01*
X69860288Y-88878210D01*
X69729185Y-88790609D01*
X69729172Y-88790602D01*
X69583501Y-88730264D01*
X69583489Y-88730261D01*
X69428845Y-88699500D01*
X69428842Y-88699500D01*
X69271158Y-88699500D01*
X69271155Y-88699500D01*
X69116510Y-88730261D01*
X69116498Y-88730264D01*
X68970827Y-88790602D01*
X68970814Y-88790609D01*
X68839711Y-88878210D01*
X68839707Y-88878213D01*
X68728213Y-88989707D01*
X68728210Y-88989711D01*
X68640609Y-89120814D01*
X68640602Y-89120827D01*
X68580264Y-89266498D01*
X68580261Y-89266510D01*
X68549500Y-89421153D01*
X62700500Y-89421153D01*
X62700500Y-89357486D01*
X62671555Y-89174736D01*
X62621655Y-89021158D01*
X62614380Y-88998767D01*
X62614379Y-88998764D01*
X62571577Y-88914763D01*
X62530378Y-88833904D01*
X62446159Y-88717987D01*
X62422680Y-88652183D01*
X62438505Y-88584129D01*
X62472167Y-88545836D01*
X62557190Y-88482186D01*
X62643350Y-88367093D01*
X62643354Y-88367086D01*
X62693596Y-88232379D01*
X62693598Y-88232372D01*
X62699999Y-88172844D01*
X62700000Y-88172827D01*
X62700000Y-87700000D01*
X61840686Y-87700000D01*
X61845080Y-87695606D01*
X61897741Y-87604394D01*
X61925000Y-87502661D01*
X61925000Y-87397339D01*
X61897741Y-87295606D01*
X61845080Y-87204394D01*
X61840686Y-87200000D01*
X62700000Y-87200000D01*
X62700000Y-86727172D01*
X62699999Y-86727155D01*
X62693598Y-86667627D01*
X62693596Y-86667620D01*
X62643354Y-86532913D01*
X62643350Y-86532906D01*
X62557190Y-86417812D01*
X62557187Y-86417809D01*
X62442093Y-86331649D01*
X62442086Y-86331645D01*
X62396975Y-86314820D01*
X62307379Y-86281403D01*
X62307372Y-86281401D01*
X62247844Y-86275000D01*
X61775000Y-86275000D01*
X61775000Y-87134314D01*
X61770606Y-87129920D01*
X61679394Y-87077259D01*
X61577661Y-87050000D01*
X61472339Y-87050000D01*
X61370606Y-87077259D01*
X61279394Y-87129920D01*
X61275000Y-87134314D01*
X61275000Y-86275000D01*
X60802155Y-86275000D01*
X60742627Y-86281401D01*
X60742620Y-86281403D01*
X60607913Y-86331645D01*
X60607906Y-86331649D01*
X60492812Y-86417809D01*
X60492809Y-86417812D01*
X60406649Y-86532906D01*
X60406645Y-86532913D01*
X60356403Y-86667620D01*
X60356401Y-86667627D01*
X60350000Y-86727155D01*
X60350000Y-87200000D01*
X61209314Y-87200000D01*
X61204920Y-87204394D01*
X61152259Y-87295606D01*
X61125000Y-87397339D01*
X61125000Y-87502661D01*
X61152259Y-87604394D01*
X61204920Y-87695606D01*
X61209314Y-87700000D01*
X60350000Y-87700000D01*
X60350000Y-88172844D01*
X60356401Y-88232372D01*
X60356403Y-88232379D01*
X60406645Y-88367086D01*
X60406649Y-88367093D01*
X60492809Y-88482186D01*
X60577832Y-88545835D01*
X60619703Y-88601769D01*
X60624687Y-88671461D01*
X60603839Y-88717987D01*
X60519624Y-88833900D01*
X60435620Y-88998764D01*
X60435619Y-88998767D01*
X60378445Y-89174734D01*
X60353299Y-89333501D01*
X60349500Y-89357486D01*
X55100500Y-89357486D01*
X55100500Y-85052155D01*
X68800000Y-85052155D01*
X68800000Y-85750000D01*
X69824722Y-85750000D01*
X69780667Y-85826306D01*
X69750000Y-85940756D01*
X69750000Y-86059244D01*
X69780667Y-86173694D01*
X69824722Y-86250000D01*
X68800000Y-86250000D01*
X68800000Y-86947844D01*
X68806401Y-87007372D01*
X68806403Y-87007379D01*
X68856645Y-87142086D01*
X68856649Y-87142093D01*
X68942809Y-87257187D01*
X68942812Y-87257190D01*
X69057906Y-87343350D01*
X69057913Y-87343354D01*
X69192620Y-87393596D01*
X69192627Y-87393598D01*
X69252155Y-87399999D01*
X69252172Y-87400000D01*
X69950000Y-87400000D01*
X69950000Y-86375277D01*
X70026306Y-86419333D01*
X70140756Y-86450000D01*
X70259244Y-86450000D01*
X70373694Y-86419333D01*
X70450000Y-86375277D01*
X70450000Y-87400000D01*
X71147828Y-87400000D01*
X71147844Y-87399999D01*
X71207372Y-87393598D01*
X71207379Y-87393596D01*
X71342086Y-87343354D01*
X71342093Y-87343350D01*
X71457187Y-87257190D01*
X71457190Y-87257187D01*
X71543350Y-87142093D01*
X71543354Y-87142086D01*
X71573213Y-87062031D01*
X71615084Y-87006097D01*
X71680548Y-86981680D01*
X71748821Y-86996531D01*
X71777076Y-87017683D01*
X71827636Y-87068243D01*
X71827641Y-87068247D01*
X71983192Y-87181260D01*
X72005978Y-87197815D01*
X72122501Y-87257187D01*
X72202393Y-87297895D01*
X72202396Y-87297896D01*
X72307221Y-87331955D01*
X72412049Y-87366015D01*
X72629778Y-87400500D01*
X72629779Y-87400500D01*
X72850221Y-87400500D01*
X72850222Y-87400500D01*
X73067951Y-87366015D01*
X73277606Y-87297895D01*
X73474022Y-87197815D01*
X73652365Y-87068242D01*
X73808242Y-86912365D01*
X73937815Y-86734022D01*
X74037895Y-86537606D01*
X74106015Y-86327951D01*
X74140500Y-86110222D01*
X74140500Y-85889778D01*
X74106015Y-85672049D01*
X74071955Y-85567221D01*
X74037896Y-85462396D01*
X74037895Y-85462393D01*
X74003237Y-85394375D01*
X73937815Y-85265978D01*
X73921260Y-85243192D01*
X73808247Y-85087641D01*
X73808243Y-85087636D01*
X73652363Y-84931756D01*
X73652358Y-84931752D01*
X73474025Y-84802187D01*
X73474024Y-84802186D01*
X73474022Y-84802185D01*
X73411096Y-84770122D01*
X73277606Y-84702104D01*
X73277603Y-84702103D01*
X73067952Y-84633985D01*
X72959086Y-84616742D01*
X72850222Y-84599500D01*
X72629778Y-84599500D01*
X72557201Y-84610995D01*
X72412047Y-84633985D01*
X72202396Y-84702103D01*
X72202393Y-84702104D01*
X72005974Y-84802187D01*
X71827641Y-84931752D01*
X71827636Y-84931756D01*
X71777075Y-84982317D01*
X71715752Y-85015801D01*
X71646060Y-85010816D01*
X71590127Y-84968945D01*
X71573213Y-84937968D01*
X71543354Y-84857913D01*
X71543350Y-84857906D01*
X71457190Y-84742812D01*
X71457187Y-84742809D01*
X71342093Y-84656649D01*
X71342086Y-84656645D01*
X71207379Y-84606403D01*
X71207372Y-84606401D01*
X71147844Y-84600000D01*
X70450000Y-84600000D01*
X70450000Y-85624722D01*
X70373694Y-85580667D01*
X70259244Y-85550000D01*
X70140756Y-85550000D01*
X70026306Y-85580667D01*
X69950000Y-85624722D01*
X69950000Y-84600000D01*
X69252155Y-84600000D01*
X69192627Y-84606401D01*
X69192620Y-84606403D01*
X69057913Y-84656645D01*
X69057906Y-84656649D01*
X68942812Y-84742809D01*
X68942809Y-84742812D01*
X68856649Y-84857906D01*
X68856645Y-84857913D01*
X68806403Y-84992620D01*
X68806401Y-84992627D01*
X68800000Y-85052155D01*
X55100500Y-85052155D01*
X55100500Y-83612229D01*
X55120185Y-83545190D01*
X55136814Y-83524553D01*
X56394105Y-82267261D01*
X56434327Y-82240385D01*
X56516021Y-82206548D01*
X56651225Y-82116208D01*
X56766208Y-82001225D01*
X56856548Y-81866021D01*
X56918776Y-81715789D01*
X56950500Y-81556305D01*
X56950500Y-81393695D01*
X56950500Y-81393692D01*
X56918777Y-81234216D01*
X56918776Y-81234215D01*
X56918776Y-81234211D01*
X56907048Y-81205896D01*
X56856549Y-81083980D01*
X56856547Y-81083976D01*
X56766211Y-80948779D01*
X56766205Y-80948771D01*
X56651228Y-80833794D01*
X56651220Y-80833788D01*
X56516023Y-80743452D01*
X56516019Y-80743450D01*
X56365793Y-80681225D01*
X56365783Y-80681222D01*
X56206307Y-80649500D01*
X56206305Y-80649500D01*
X56043695Y-80649500D01*
X56043693Y-80649500D01*
X55884216Y-80681222D01*
X55884206Y-80681225D01*
X55733980Y-80743450D01*
X55733976Y-80743452D01*
X55598779Y-80833788D01*
X55598771Y-80833794D01*
X55483794Y-80948771D01*
X55483791Y-80948775D01*
X55393455Y-81083972D01*
X55393452Y-81083979D01*
X55359614Y-81165669D01*
X55332734Y-81205896D01*
X54354140Y-82184490D01*
X54292817Y-82217975D01*
X54223125Y-82212991D01*
X54167192Y-82171119D01*
X54142775Y-82105655D01*
X54142460Y-82096286D01*
X54199453Y-69272892D01*
X54219436Y-69205944D01*
X54272442Y-69160424D01*
X54322891Y-69149447D01*
X67767473Y-69089022D01*
X67834598Y-69108405D01*
X67866402Y-69137532D01*
X67875545Y-69149447D01*
X67881081Y-69156661D01*
X67997312Y-69272892D01*
X68043338Y-69318918D01*
X68225382Y-69458607D01*
X68225385Y-69458608D01*
X68225388Y-69458611D01*
X68424112Y-69573344D01*
X68424117Y-69573346D01*
X68424123Y-69573349D01*
X68515480Y-69611190D01*
X68636113Y-69661158D01*
X68857762Y-69720548D01*
X69085266Y-69750500D01*
X69085273Y-69750500D01*
X69314727Y-69750500D01*
X69314734Y-69750500D01*
X69542238Y-69720548D01*
X69763887Y-69661158D01*
X69975888Y-69573344D01*
X70174612Y-69458611D01*
X70356661Y-69318919D01*
X70356665Y-69318914D01*
X70356670Y-69318911D01*
X70518914Y-69156666D01*
X70518919Y-69156661D01*
X70543507Y-69124617D01*
X70599929Y-69083416D01*
X70641315Y-69076106D01*
X76326547Y-69050554D01*
X76393672Y-69069937D01*
G37*
%TD.AperFunction*%
%TD*%
%TA.AperFunction,Conductor*%
%TO.N,+3V3*%
G36*
X90693179Y-125869685D02*
G01*
X90738934Y-125922489D01*
X90750140Y-125973860D01*
X90799180Y-169325362D01*
X90779572Y-169392421D01*
X90726820Y-169438236D01*
X90675181Y-169449500D01*
X66698730Y-169449500D01*
X66631691Y-169429815D01*
X66585936Y-169377011D01*
X66575992Y-169307853D01*
X66605017Y-169244297D01*
X66611049Y-169237819D01*
X66630212Y-169218656D01*
X66722314Y-169069334D01*
X66777499Y-168902797D01*
X66788000Y-168800009D01*
X66787999Y-167328604D01*
X66807684Y-167261567D01*
X66860487Y-167215812D01*
X66929646Y-167205868D01*
X66993202Y-167234893D01*
X67021358Y-167270155D01*
X67023366Y-167273912D01*
X67132860Y-167437781D01*
X67132863Y-167437785D01*
X67272214Y-167577136D01*
X67272218Y-167577139D01*
X67436079Y-167686628D01*
X67436092Y-167686635D01*
X67618160Y-167762049D01*
X67618165Y-167762051D01*
X67618169Y-167762051D01*
X67618170Y-167762052D01*
X67811456Y-167800500D01*
X67811459Y-167800500D01*
X68008543Y-167800500D01*
X68138582Y-167774632D01*
X68201835Y-167762051D01*
X68383914Y-167686632D01*
X68547782Y-167577139D01*
X68687139Y-167437782D01*
X68796632Y-167273914D01*
X68872051Y-167091835D01*
X68910500Y-166898541D01*
X68910500Y-166101459D01*
X68910500Y-166101456D01*
X68872052Y-165908170D01*
X68872051Y-165908169D01*
X68872051Y-165908165D01*
X68827245Y-165799992D01*
X68796635Y-165726092D01*
X68796628Y-165726079D01*
X68687139Y-165562218D01*
X68687136Y-165562214D01*
X68596819Y-165471897D01*
X68563334Y-165410574D01*
X68560500Y-165384216D01*
X68560500Y-163685783D01*
X68580185Y-163618744D01*
X68596814Y-163598106D01*
X68687139Y-163507782D01*
X68796632Y-163343914D01*
X68800540Y-163334478D01*
X68844376Y-163280074D01*
X68910669Y-163258004D01*
X68978369Y-163275279D01*
X68983028Y-163278432D01*
X68986633Y-163280513D01*
X68986635Y-163280515D01*
X69117865Y-163356281D01*
X69264234Y-163395500D01*
X69264236Y-163395500D01*
X69415764Y-163395500D01*
X69415766Y-163395500D01*
X69562135Y-163356281D01*
X69693365Y-163280515D01*
X69800515Y-163173365D01*
X69876281Y-163042135D01*
X69915500Y-162895766D01*
X69915500Y-162744234D01*
X74544500Y-162744234D01*
X74544500Y-162895766D01*
X74558992Y-162949850D01*
X74583719Y-163042136D01*
X74621602Y-163107750D01*
X74659485Y-163173365D01*
X74766635Y-163280515D01*
X74897865Y-163356281D01*
X75044234Y-163395500D01*
X75044236Y-163395500D01*
X75195764Y-163395500D01*
X75195766Y-163395500D01*
X75342135Y-163356281D01*
X75473365Y-163280515D01*
X75473366Y-163280513D01*
X75480403Y-163276451D01*
X75481749Y-163278783D01*
X75534553Y-163258357D01*
X75603001Y-163272381D01*
X75653001Y-163321185D01*
X75659458Y-163334474D01*
X75663367Y-163343913D01*
X75663371Y-163343920D01*
X75772859Y-163507780D01*
X75772860Y-163507781D01*
X75772861Y-163507782D01*
X75863182Y-163598103D01*
X75896666Y-163659424D01*
X75899500Y-163685783D01*
X75899500Y-165384216D01*
X75879815Y-165451255D01*
X75863181Y-165471897D01*
X75772863Y-165562214D01*
X75772860Y-165562218D01*
X75663371Y-165726079D01*
X75663364Y-165726092D01*
X75587950Y-165908160D01*
X75587947Y-165908170D01*
X75549500Y-166101456D01*
X75549500Y-166101459D01*
X75549500Y-166898541D01*
X75549500Y-166898543D01*
X75549499Y-166898543D01*
X75587947Y-167091829D01*
X75587950Y-167091839D01*
X75663364Y-167273907D01*
X75663371Y-167273920D01*
X75772860Y-167437781D01*
X75772863Y-167437785D01*
X75912214Y-167577136D01*
X75912218Y-167577139D01*
X76076079Y-167686628D01*
X76076092Y-167686635D01*
X76258160Y-167762049D01*
X76258165Y-167762051D01*
X76258169Y-167762051D01*
X76258170Y-167762052D01*
X76451456Y-167800500D01*
X76451459Y-167800500D01*
X76648543Y-167800500D01*
X76778582Y-167774632D01*
X76841835Y-167762051D01*
X77023914Y-167686632D01*
X77187782Y-167577139D01*
X77327139Y-167437782D01*
X77436632Y-167273914D01*
X77512051Y-167091835D01*
X77550500Y-166898541D01*
X77550500Y-166101459D01*
X77550500Y-166101456D01*
X77512052Y-165908170D01*
X77512051Y-165908169D01*
X77512051Y-165908165D01*
X77467245Y-165799992D01*
X77436635Y-165726092D01*
X77436628Y-165726079D01*
X77327139Y-165562218D01*
X77327136Y-165562214D01*
X77236819Y-165471897D01*
X77203334Y-165410574D01*
X77200500Y-165384216D01*
X77200500Y-163685783D01*
X77220185Y-163618744D01*
X77236814Y-163598106D01*
X77327139Y-163507782D01*
X77436632Y-163343914D01*
X77512051Y-163161835D01*
X77550500Y-162968541D01*
X77550500Y-162385258D01*
X86499500Y-162385258D01*
X86499500Y-162614741D01*
X86524446Y-162804215D01*
X86529452Y-162842238D01*
X86563295Y-162968543D01*
X86588842Y-163063887D01*
X86676650Y-163275876D01*
X86676657Y-163275890D01*
X86791392Y-163474617D01*
X86931081Y-163656661D01*
X86931089Y-163656670D01*
X87093330Y-163818911D01*
X87093338Y-163818918D01*
X87093339Y-163818919D01*
X87099703Y-163823802D01*
X87275382Y-163958607D01*
X87275385Y-163958608D01*
X87275388Y-163958611D01*
X87474112Y-164073344D01*
X87474117Y-164073346D01*
X87474123Y-164073349D01*
X87565480Y-164111190D01*
X87686113Y-164161158D01*
X87907762Y-164220548D01*
X88135266Y-164250500D01*
X88135273Y-164250500D01*
X88364727Y-164250500D01*
X88364734Y-164250500D01*
X88592238Y-164220548D01*
X88813887Y-164161158D01*
X89025888Y-164073344D01*
X89224612Y-163958611D01*
X89406661Y-163818919D01*
X89406665Y-163818914D01*
X89406670Y-163818911D01*
X89568911Y-163656670D01*
X89568914Y-163656665D01*
X89568919Y-163656661D01*
X89708611Y-163474612D01*
X89823344Y-163275888D01*
X89911158Y-163063887D01*
X89970548Y-162842238D01*
X90000500Y-162614734D01*
X90000500Y-162385266D01*
X89970548Y-162157762D01*
X89911158Y-161936113D01*
X89861190Y-161815480D01*
X89823349Y-161724123D01*
X89823346Y-161724117D01*
X89823344Y-161724112D01*
X89708611Y-161525388D01*
X89708608Y-161525385D01*
X89708607Y-161525382D01*
X89568918Y-161343338D01*
X89568911Y-161343330D01*
X89406670Y-161181089D01*
X89406661Y-161181081D01*
X89224617Y-161041392D01*
X89025890Y-160926657D01*
X89025876Y-160926650D01*
X88813887Y-160838842D01*
X88592238Y-160779452D01*
X88554215Y-160774446D01*
X88364741Y-160749500D01*
X88364734Y-160749500D01*
X88135266Y-160749500D01*
X88135258Y-160749500D01*
X87918715Y-160778009D01*
X87907762Y-160779452D01*
X87814076Y-160804554D01*
X87686112Y-160838842D01*
X87474123Y-160926650D01*
X87474109Y-160926657D01*
X87275382Y-161041392D01*
X87093338Y-161181081D01*
X86931081Y-161343338D01*
X86791392Y-161525382D01*
X86676657Y-161724109D01*
X86676650Y-161724123D01*
X86588842Y-161936112D01*
X86529453Y-162157759D01*
X86529451Y-162157770D01*
X86499500Y-162385258D01*
X77550500Y-162385258D01*
X77550500Y-161671459D01*
X77550500Y-161671456D01*
X77512052Y-161478170D01*
X77512051Y-161478169D01*
X77512051Y-161478165D01*
X77501420Y-161452499D01*
X77436635Y-161296092D01*
X77436628Y-161296079D01*
X77327139Y-161132218D01*
X77327136Y-161132214D01*
X77187785Y-160992863D01*
X77187781Y-160992860D01*
X77023920Y-160883371D01*
X77023907Y-160883364D01*
X76841839Y-160807950D01*
X76841829Y-160807947D01*
X76648543Y-160769500D01*
X76648541Y-160769500D01*
X76451459Y-160769500D01*
X76451457Y-160769500D01*
X76258170Y-160807947D01*
X76258160Y-160807950D01*
X76076092Y-160883364D01*
X76076079Y-160883371D01*
X75912218Y-160992860D01*
X75912214Y-160992863D01*
X75772863Y-161132214D01*
X75772860Y-161132218D01*
X75663371Y-161296079D01*
X75663364Y-161296092D01*
X75587950Y-161478160D01*
X75587947Y-161478170D01*
X75549500Y-161671456D01*
X75549500Y-162188666D01*
X75529815Y-162255705D01*
X75477011Y-162301460D01*
X75407853Y-162311404D01*
X75363501Y-162296054D01*
X75342137Y-162283719D01*
X75237584Y-162255705D01*
X75195766Y-162244500D01*
X75044234Y-162244500D01*
X74897863Y-162283719D01*
X74766635Y-162359485D01*
X74766632Y-162359487D01*
X74659487Y-162466632D01*
X74659485Y-162466635D01*
X74583719Y-162597863D01*
X74579199Y-162614734D01*
X74544500Y-162744234D01*
X69915500Y-162744234D01*
X69876281Y-162597865D01*
X69800515Y-162466635D01*
X69693365Y-162359485D01*
X69610087Y-162311404D01*
X69562136Y-162283719D01*
X69457584Y-162255705D01*
X69415766Y-162244500D01*
X69264234Y-162244500D01*
X69117862Y-162283719D01*
X69096499Y-162296054D01*
X69028598Y-162312525D01*
X68962572Y-162289673D01*
X68919382Y-162234751D01*
X68910500Y-162188666D01*
X68910500Y-161671456D01*
X68872052Y-161478170D01*
X68872051Y-161478169D01*
X68872051Y-161478165D01*
X68861420Y-161452499D01*
X68796635Y-161296092D01*
X68796628Y-161296079D01*
X68687139Y-161132218D01*
X68687136Y-161132214D01*
X68547785Y-160992863D01*
X68547781Y-160992860D01*
X68383920Y-160883371D01*
X68383907Y-160883364D01*
X68201839Y-160807950D01*
X68201829Y-160807947D01*
X68008543Y-160769500D01*
X68008541Y-160769500D01*
X67811459Y-160769500D01*
X67811457Y-160769500D01*
X67618170Y-160807947D01*
X67618160Y-160807950D01*
X67436092Y-160883364D01*
X67436079Y-160883371D01*
X67272218Y-160992860D01*
X67272214Y-160992863D01*
X67132863Y-161132214D01*
X67132860Y-161132218D01*
X67023371Y-161296079D01*
X67023364Y-161296092D01*
X66947950Y-161478160D01*
X66947947Y-161478170D01*
X66908311Y-161677434D01*
X66906026Y-161676979D01*
X66883730Y-161732174D01*
X66826690Y-161772525D01*
X66756889Y-161775632D01*
X66696490Y-161740509D01*
X66664667Y-161678307D01*
X66662499Y-161655219D01*
X66662499Y-160725028D01*
X66662498Y-160725012D01*
X66652005Y-160622302D01*
X66596858Y-160455880D01*
X66596856Y-160455875D01*
X66504815Y-160306654D01*
X66380845Y-160182684D01*
X66231624Y-160090643D01*
X66231619Y-160090641D01*
X66065197Y-160035494D01*
X66065190Y-160035493D01*
X65962486Y-160025000D01*
X65825000Y-160025000D01*
X65825000Y-164424999D01*
X65962472Y-164424999D01*
X65962486Y-164424998D01*
X66065197Y-164414505D01*
X66231619Y-164359358D01*
X66231624Y-164359356D01*
X66380845Y-164267315D01*
X66504815Y-164143345D01*
X66596856Y-163994124D01*
X66596858Y-163994119D01*
X66652005Y-163827697D01*
X66652006Y-163827690D01*
X66662499Y-163724986D01*
X66662499Y-162984785D01*
X66682183Y-162917746D01*
X66734987Y-162871991D01*
X66804146Y-162862047D01*
X66867702Y-162891072D01*
X66905476Y-162949850D01*
X66907962Y-162962635D01*
X66908311Y-162962566D01*
X66947947Y-163161829D01*
X66947950Y-163161839D01*
X67023364Y-163343907D01*
X67023371Y-163343920D01*
X67132859Y-163507780D01*
X67132860Y-163507781D01*
X67132861Y-163507782D01*
X67223182Y-163598103D01*
X67256666Y-163659424D01*
X67259500Y-163685783D01*
X67259500Y-165384216D01*
X67239815Y-165451255D01*
X67223181Y-165471897D01*
X67132863Y-165562214D01*
X67132860Y-165562218D01*
X67023371Y-165726079D01*
X67023366Y-165726088D01*
X67016500Y-165742665D01*
X66972657Y-165797067D01*
X66906362Y-165819130D01*
X66838663Y-165801849D01*
X66791054Y-165750710D01*
X66778582Y-165707807D01*
X66777499Y-165697204D01*
X66777498Y-165697200D01*
X66760931Y-165647204D01*
X66722314Y-165530666D01*
X66630212Y-165381344D01*
X66506156Y-165257288D01*
X66405470Y-165195185D01*
X66356836Y-165165187D01*
X66356831Y-165165185D01*
X66300920Y-165146658D01*
X66190297Y-165110001D01*
X66190295Y-165110000D01*
X66087510Y-165099500D01*
X65312498Y-165099500D01*
X65312480Y-165099501D01*
X65209703Y-165110000D01*
X65209700Y-165110001D01*
X65043168Y-165165185D01*
X65043159Y-165165189D01*
X64927596Y-165236469D01*
X64860204Y-165254909D01*
X64797404Y-165236469D01*
X64681840Y-165165189D01*
X64681835Y-165165187D01*
X64681834Y-165165186D01*
X64515297Y-165110001D01*
X64515295Y-165110000D01*
X64422014Y-165100471D01*
X64357323Y-165074075D01*
X64317171Y-165016894D01*
X64314308Y-164947083D01*
X64346934Y-164889433D01*
X64482952Y-164753416D01*
X64548526Y-164655276D01*
X64565084Y-164630495D01*
X64621658Y-164493913D01*
X64643107Y-164386082D01*
X64675492Y-164324172D01*
X64736207Y-164289598D01*
X64805977Y-164293337D01*
X64829821Y-164304735D01*
X64918375Y-164359356D01*
X64918380Y-164359358D01*
X65084802Y-164414505D01*
X65084809Y-164414506D01*
X65187519Y-164424999D01*
X65324999Y-164424999D01*
X65325000Y-164424998D01*
X65325000Y-160025000D01*
X65187527Y-160025000D01*
X65187512Y-160025001D01*
X65084802Y-160035494D01*
X64918380Y-160090641D01*
X64918375Y-160090643D01*
X64803073Y-160161763D01*
X64735680Y-160180203D01*
X64672880Y-160161763D01*
X64556840Y-160090189D01*
X64556835Y-160090187D01*
X64556834Y-160090186D01*
X64390297Y-160035001D01*
X64390295Y-160035000D01*
X64287510Y-160024500D01*
X63512498Y-160024500D01*
X63512480Y-160024501D01*
X63409703Y-160035000D01*
X63409700Y-160035001D01*
X63243168Y-160090185D01*
X63243163Y-160090187D01*
X63093842Y-160182289D01*
X62969789Y-160306342D01*
X62877687Y-160455663D01*
X62877685Y-160455668D01*
X62872068Y-160472619D01*
X62822501Y-160622203D01*
X62822501Y-160622204D01*
X62822500Y-160622204D01*
X62812000Y-160724983D01*
X62812000Y-160724991D01*
X62812000Y-162188666D01*
X62812001Y-163550500D01*
X62792316Y-163617539D01*
X62739513Y-163663294D01*
X62688001Y-163674500D01*
X59522584Y-163674500D01*
X59455545Y-163654815D01*
X59434907Y-163638185D01*
X59344352Y-163547630D01*
X59344351Y-163547629D01*
X59344350Y-163547628D01*
X59217343Y-163462764D01*
X59217334Y-163462759D01*
X59076205Y-163404302D01*
X59076197Y-163404300D01*
X58926384Y-163374500D01*
X58926380Y-163374500D01*
X58773620Y-163374500D01*
X58773615Y-163374500D01*
X58623802Y-163404300D01*
X58623794Y-163404302D01*
X58482665Y-163462759D01*
X58482656Y-163462764D01*
X58355648Y-163547629D01*
X58355644Y-163547632D01*
X58247632Y-163655644D01*
X58247629Y-163655648D01*
X58162764Y-163782656D01*
X58162759Y-163782665D01*
X58104302Y-163923794D01*
X58104300Y-163923802D01*
X58074500Y-164073615D01*
X58074500Y-164226384D01*
X58104300Y-164376197D01*
X58104302Y-164376205D01*
X58162759Y-164517334D01*
X58162764Y-164517343D01*
X58247629Y-164644351D01*
X58247632Y-164644355D01*
X58355644Y-164752367D01*
X58355652Y-164752373D01*
X58452039Y-164816777D01*
X58470830Y-164832198D01*
X58646584Y-165007952D01*
X58667591Y-165021988D01*
X58708767Y-165049501D01*
X58708768Y-165049501D01*
X58769505Y-165090084D01*
X58792238Y-165099500D01*
X58792239Y-165099501D01*
X58792240Y-165099501D01*
X58906088Y-165146659D01*
X59022241Y-165169763D01*
X59041468Y-165173587D01*
X59051081Y-165175500D01*
X59051082Y-165175500D01*
X59051083Y-165175500D01*
X59198918Y-165175500D01*
X63001423Y-165175500D01*
X63068462Y-165195185D01*
X63114217Y-165247989D01*
X63124161Y-165317147D01*
X63098688Y-165376413D01*
X63094787Y-165381345D01*
X63002687Y-165530663D01*
X63002685Y-165530668D01*
X62974849Y-165614670D01*
X62947501Y-165697203D01*
X62947501Y-165697204D01*
X62947500Y-165697204D01*
X62937000Y-165799983D01*
X62937000Y-168800001D01*
X62937001Y-168800018D01*
X62947500Y-168902796D01*
X62947501Y-168902799D01*
X63002685Y-169069331D01*
X63002687Y-169069336D01*
X63094789Y-169218657D01*
X63113951Y-169237819D01*
X63147436Y-169299142D01*
X63142452Y-169368834D01*
X63100580Y-169424767D01*
X63035116Y-169449184D01*
X63026270Y-169449500D01*
X58086230Y-169449500D01*
X58019191Y-169429815D01*
X57973436Y-169377011D01*
X57963492Y-169307853D01*
X57992517Y-169244297D01*
X57998549Y-169237819D01*
X58023889Y-169212479D01*
X58067712Y-169168656D01*
X58159814Y-169019334D01*
X58214999Y-168852797D01*
X58225500Y-168750009D01*
X58225499Y-165749992D01*
X58214999Y-165647203D01*
X58159814Y-165480666D01*
X58067712Y-165331344D01*
X57943656Y-165207288D01*
X57794334Y-165115186D01*
X57627797Y-165060001D01*
X57627795Y-165060000D01*
X57525010Y-165049500D01*
X56749998Y-165049500D01*
X56749980Y-165049501D01*
X56647203Y-165060000D01*
X56647200Y-165060001D01*
X56480668Y-165115185D01*
X56480659Y-165115189D01*
X56365096Y-165186469D01*
X56297704Y-165204909D01*
X56234904Y-165186469D01*
X56119340Y-165115189D01*
X56119335Y-165115187D01*
X56119334Y-165115186D01*
X55952797Y-165060001D01*
X55952795Y-165060000D01*
X55850010Y-165049500D01*
X55074998Y-165049500D01*
X55074980Y-165049501D01*
X54972203Y-165060000D01*
X54972200Y-165060001D01*
X54805668Y-165115185D01*
X54805663Y-165115187D01*
X54656342Y-165207289D01*
X54532289Y-165331342D01*
X54440187Y-165480663D01*
X54440185Y-165480668D01*
X54423617Y-165530668D01*
X54385001Y-165647203D01*
X54385001Y-165647204D01*
X54385000Y-165647204D01*
X54374500Y-165749983D01*
X54374500Y-167996853D01*
X54354815Y-168063892D01*
X54302011Y-168109647D01*
X54232853Y-168119591D01*
X54199578Y-168108684D01*
X54199281Y-168109402D01*
X54061620Y-168052381D01*
X54061614Y-168052379D01*
X53921457Y-168024500D01*
X53921455Y-168024500D01*
X53778545Y-168024500D01*
X53778543Y-168024500D01*
X53638385Y-168052379D01*
X53638379Y-168052381D01*
X53506349Y-168107069D01*
X53506340Y-168107074D01*
X53387521Y-168186467D01*
X53387517Y-168186470D01*
X53286470Y-168287517D01*
X53286467Y-168287521D01*
X53228361Y-168374483D01*
X53174749Y-168419288D01*
X53105424Y-168427995D01*
X53042396Y-168397840D01*
X53005677Y-168338397D01*
X53001319Y-168301737D01*
X53114801Y-164656961D01*
X53136561Y-164590572D01*
X53190764Y-164546482D01*
X53260198Y-164538696D01*
X53322820Y-164569684D01*
X53326421Y-164573144D01*
X53405644Y-164652367D01*
X53405648Y-164652370D01*
X53532656Y-164737235D01*
X53532662Y-164737238D01*
X53532663Y-164737239D01*
X53673795Y-164795698D01*
X53813877Y-164823562D01*
X53823615Y-164825499D01*
X53823619Y-164825500D01*
X53823620Y-164825500D01*
X53976381Y-164825500D01*
X53976382Y-164825499D01*
X54126205Y-164795698D01*
X54267337Y-164737239D01*
X54394352Y-164652370D01*
X54502370Y-164544352D01*
X54587239Y-164417337D01*
X54645698Y-164276205D01*
X54675500Y-164126380D01*
X54675500Y-163973620D01*
X54645698Y-163823795D01*
X54600482Y-163714636D01*
X54587240Y-163682665D01*
X54587235Y-163682656D01*
X54502370Y-163555648D01*
X54502367Y-163555644D01*
X54394355Y-163447632D01*
X54394351Y-163447629D01*
X54267343Y-163362764D01*
X54267334Y-163362759D01*
X54126205Y-163304302D01*
X54126197Y-163304300D01*
X53976384Y-163274500D01*
X53976380Y-163274500D01*
X53823620Y-163274500D01*
X53823615Y-163274500D01*
X53673802Y-163304300D01*
X53673794Y-163304302D01*
X53532665Y-163362759D01*
X53532656Y-163362764D01*
X53405648Y-163447629D01*
X53405643Y-163447633D01*
X53365679Y-163487597D01*
X53304356Y-163521082D01*
X53234664Y-163516096D01*
X53178731Y-163474224D01*
X53154315Y-163408760D01*
X53154059Y-163396085D01*
X53282561Y-159268905D01*
X53285133Y-159261057D01*
X53284109Y-159252855D01*
X53295855Y-159228343D01*
X53304321Y-159202516D01*
X53311513Y-159195671D01*
X53314305Y-159189847D01*
X53341396Y-159167235D01*
X53347879Y-159163237D01*
X53415268Y-159144796D01*
X53478072Y-159163236D01*
X53593375Y-159234356D01*
X53593380Y-159234358D01*
X53759802Y-159289505D01*
X53759809Y-159289506D01*
X53862519Y-159299999D01*
X53999999Y-159299999D01*
X54500000Y-159299999D01*
X54637472Y-159299999D01*
X54637486Y-159299998D01*
X54740195Y-159289506D01*
X54850168Y-159253064D01*
X54919997Y-159250662D01*
X54980039Y-159286393D01*
X54997808Y-159310984D01*
X55003299Y-159320961D01*
X55015186Y-159356834D01*
X55088075Y-159475006D01*
X55089565Y-159477714D01*
X55096466Y-159508941D01*
X55104909Y-159539796D01*
X55103982Y-159542950D01*
X55104643Y-159545938D01*
X55097134Y-159566274D01*
X55086469Y-159602596D01*
X55015189Y-159718159D01*
X55015185Y-159718168D01*
X55012524Y-159726199D01*
X54960001Y-159884703D01*
X54960001Y-159884704D01*
X54960000Y-159884704D01*
X54949500Y-159987483D01*
X54949500Y-160762501D01*
X54949501Y-160762519D01*
X54960000Y-160865296D01*
X54960001Y-160865299D01*
X55015185Y-161031831D01*
X55015187Y-161031836D01*
X55021081Y-161041392D01*
X55107288Y-161181156D01*
X55231344Y-161305212D01*
X55380666Y-161397314D01*
X55547203Y-161452499D01*
X55649991Y-161463000D01*
X58650008Y-161462999D01*
X58752797Y-161452499D01*
X58919334Y-161397314D01*
X59068656Y-161305212D01*
X59192712Y-161181156D01*
X59284814Y-161031834D01*
X59339999Y-160865297D01*
X59350500Y-160762509D01*
X59350499Y-159987492D01*
X59350409Y-159986614D01*
X59339999Y-159884703D01*
X59339998Y-159884700D01*
X59334243Y-159867334D01*
X59284814Y-159718166D01*
X59213529Y-159602594D01*
X59209419Y-159587574D01*
X59200759Y-159574632D01*
X59200387Y-159554564D01*
X59195090Y-159535204D01*
X59199735Y-159519382D01*
X59199465Y-159504774D01*
X59213527Y-159472407D01*
X59243623Y-159423615D01*
X60974500Y-159423615D01*
X60974500Y-159576384D01*
X61004300Y-159726197D01*
X61004302Y-159726205D01*
X61062759Y-159867334D01*
X61062764Y-159867343D01*
X61147629Y-159994351D01*
X61147632Y-159994355D01*
X61255644Y-160102367D01*
X61255648Y-160102370D01*
X61382656Y-160187235D01*
X61382662Y-160187238D01*
X61382663Y-160187239D01*
X61523795Y-160245698D01*
X61673615Y-160275499D01*
X61673619Y-160275500D01*
X61673620Y-160275500D01*
X61826381Y-160275500D01*
X61826382Y-160275499D01*
X61976205Y-160245698D01*
X62117337Y-160187239D01*
X62244352Y-160102370D01*
X62352370Y-159994352D01*
X62437239Y-159867337D01*
X62445888Y-159846457D01*
X75449499Y-159846457D01*
X75477379Y-159986614D01*
X75477381Y-159986620D01*
X75532069Y-160118650D01*
X75532074Y-160118659D01*
X75611467Y-160237478D01*
X75611470Y-160237482D01*
X75712517Y-160338529D01*
X75712521Y-160338532D01*
X75831340Y-160417925D01*
X75831346Y-160417928D01*
X75831347Y-160417929D01*
X75963380Y-160472619D01*
X75963384Y-160472619D01*
X75963385Y-160472620D01*
X76103542Y-160500500D01*
X76103545Y-160500500D01*
X76246457Y-160500500D01*
X76340751Y-160481742D01*
X76386620Y-160472619D01*
X76518653Y-160417929D01*
X76637479Y-160338532D01*
X76738532Y-160237479D01*
X76817929Y-160118653D01*
X76872619Y-159986620D01*
X76892892Y-159884703D01*
X76900500Y-159846457D01*
X76900500Y-159703542D01*
X76872620Y-159563385D01*
X76872619Y-159563384D01*
X76872619Y-159563380D01*
X76817929Y-159431347D01*
X76817928Y-159431346D01*
X76817925Y-159431340D01*
X76738532Y-159312521D01*
X76738529Y-159312517D01*
X76637482Y-159211470D01*
X76637478Y-159211467D01*
X76518659Y-159132074D01*
X76518650Y-159132069D01*
X76386620Y-159077381D01*
X76386614Y-159077379D01*
X76246457Y-159049500D01*
X76246455Y-159049500D01*
X76103545Y-159049500D01*
X76103543Y-159049500D01*
X75963385Y-159077379D01*
X75963379Y-159077381D01*
X75831349Y-159132069D01*
X75831340Y-159132074D01*
X75712521Y-159211467D01*
X75712517Y-159211470D01*
X75611470Y-159312517D01*
X75611467Y-159312521D01*
X75532074Y-159431340D01*
X75532069Y-159431349D01*
X75477381Y-159563379D01*
X75477379Y-159563385D01*
X75449500Y-159703542D01*
X75449500Y-159703545D01*
X75449500Y-159846455D01*
X75449500Y-159846457D01*
X75449499Y-159846457D01*
X62445888Y-159846457D01*
X62495698Y-159726205D01*
X62497750Y-159715886D01*
X62506230Y-159673261D01*
X62506230Y-159673260D01*
X62525499Y-159576384D01*
X62525500Y-159576381D01*
X62525500Y-159423619D01*
X62525499Y-159423615D01*
X62501010Y-159300500D01*
X62495698Y-159273795D01*
X62442265Y-159144796D01*
X62437240Y-159132665D01*
X62437235Y-159132656D01*
X62352370Y-159005648D01*
X62352367Y-159005644D01*
X62244355Y-158897632D01*
X62244351Y-158897629D01*
X62117343Y-158812764D01*
X62117334Y-158812759D01*
X61976205Y-158754302D01*
X61976197Y-158754300D01*
X61826384Y-158724500D01*
X61826380Y-158724500D01*
X61673620Y-158724500D01*
X61673615Y-158724500D01*
X61523802Y-158754300D01*
X61523794Y-158754302D01*
X61382665Y-158812759D01*
X61382656Y-158812764D01*
X61255648Y-158897629D01*
X61255644Y-158897632D01*
X61147632Y-159005644D01*
X61147629Y-159005648D01*
X61062764Y-159132656D01*
X61062759Y-159132665D01*
X61004302Y-159273794D01*
X61004300Y-159273802D01*
X60974500Y-159423615D01*
X59243623Y-159423615D01*
X59284814Y-159356834D01*
X59339999Y-159190297D01*
X59350500Y-159087509D01*
X59350499Y-158312492D01*
X59339999Y-158209703D01*
X59284814Y-158043166D01*
X59192712Y-157893844D01*
X59068656Y-157769788D01*
X58975888Y-157712569D01*
X58919336Y-157677687D01*
X58919331Y-157677685D01*
X58917862Y-157677198D01*
X58752797Y-157622501D01*
X58752795Y-157622500D01*
X58650010Y-157612000D01*
X55649998Y-157612000D01*
X55649981Y-157612001D01*
X55547203Y-157622500D01*
X55547196Y-157622502D01*
X55500502Y-157637975D01*
X55472045Y-157638953D01*
X55443851Y-157643007D01*
X55437570Y-157640138D01*
X55430673Y-157640376D01*
X55406200Y-157625811D01*
X55380296Y-157613981D01*
X55376564Y-157608174D01*
X55370632Y-157604644D01*
X55357917Y-157579158D01*
X55342522Y-157555203D01*
X55341264Y-157546457D01*
X68424499Y-157546457D01*
X68452379Y-157686614D01*
X68452381Y-157686620D01*
X68507069Y-157818650D01*
X68507074Y-157818659D01*
X68586467Y-157937478D01*
X68586470Y-157937482D01*
X68687517Y-158038529D01*
X68687521Y-158038532D01*
X68806340Y-158117925D01*
X68806346Y-158117928D01*
X68806347Y-158117929D01*
X68938380Y-158172619D01*
X68938384Y-158172619D01*
X68938385Y-158172620D01*
X69078542Y-158200500D01*
X69078545Y-158200500D01*
X69221457Y-158200500D01*
X69315751Y-158181742D01*
X69361620Y-158172619D01*
X69493653Y-158117929D01*
X69612479Y-158038532D01*
X69713532Y-157937479D01*
X69792929Y-157818653D01*
X69847619Y-157686620D01*
X69860373Y-157622501D01*
X69875500Y-157546457D01*
X69875500Y-157403542D01*
X69847620Y-157263385D01*
X69847619Y-157263384D01*
X69847619Y-157263380D01*
X69792929Y-157131347D01*
X69792928Y-157131346D01*
X69792925Y-157131340D01*
X69713532Y-157012521D01*
X69713529Y-157012517D01*
X69612482Y-156911470D01*
X69612478Y-156911467D01*
X69493659Y-156832074D01*
X69493650Y-156832069D01*
X69361620Y-156777381D01*
X69361614Y-156777379D01*
X69221457Y-156749500D01*
X69221455Y-156749500D01*
X69078545Y-156749500D01*
X69078543Y-156749500D01*
X68938385Y-156777379D01*
X68938379Y-156777381D01*
X68806349Y-156832069D01*
X68806340Y-156832074D01*
X68687521Y-156911467D01*
X68687517Y-156911470D01*
X68586470Y-157012517D01*
X68586467Y-157012521D01*
X68507074Y-157131340D01*
X68507069Y-157131349D01*
X68452381Y-157263379D01*
X68452379Y-157263385D01*
X68424500Y-157403542D01*
X68424500Y-157403545D01*
X68424500Y-157546455D01*
X68424500Y-157546457D01*
X68424499Y-157546457D01*
X55341264Y-157546457D01*
X55341127Y-157545505D01*
X55339440Y-157542123D01*
X55337499Y-157520268D01*
X55337500Y-157397452D01*
X55337500Y-157350000D01*
X54500000Y-157350000D01*
X54500000Y-159299999D01*
X53999999Y-159299999D01*
X54000000Y-159299998D01*
X54000000Y-156850000D01*
X54500000Y-156850000D01*
X55337499Y-156850000D01*
X55337499Y-155600028D01*
X55337498Y-155600013D01*
X55327005Y-155497302D01*
X55271858Y-155330880D01*
X55271856Y-155330875D01*
X55179815Y-155181654D01*
X55055845Y-155057684D01*
X54906624Y-154965643D01*
X54906619Y-154965641D01*
X54740197Y-154910494D01*
X54740190Y-154910493D01*
X54637486Y-154900000D01*
X54500000Y-154900000D01*
X54500000Y-156850000D01*
X54000000Y-156850000D01*
X54000000Y-154900000D01*
X53862527Y-154900000D01*
X53862512Y-154900001D01*
X53759802Y-154910494D01*
X53612862Y-154959185D01*
X53543033Y-154961587D01*
X53482991Y-154925855D01*
X53451799Y-154863334D01*
X53456152Y-154802477D01*
X53465174Y-154775253D01*
X53475500Y-154674177D01*
X53475499Y-153975824D01*
X53465174Y-153874747D01*
X53458687Y-153855172D01*
X53457929Y-153849958D01*
X53456387Y-153847386D01*
X53452455Y-153812322D01*
X53456866Y-153670635D01*
X53478626Y-153604247D01*
X53532829Y-153560157D01*
X53580805Y-153550500D01*
X55670686Y-153550500D01*
X55737725Y-153570185D01*
X55739577Y-153571398D01*
X55800700Y-153612239D01*
X55941832Y-153670698D01*
X56091652Y-153700499D01*
X56091656Y-153700500D01*
X56091657Y-153700500D01*
X56244418Y-153700500D01*
X56244419Y-153700499D01*
X56394242Y-153670698D01*
X56535374Y-153612239D01*
X56662389Y-153527370D01*
X56770407Y-153419352D01*
X56855276Y-153292337D01*
X56913735Y-153151205D01*
X56939113Y-153023620D01*
X56939114Y-153023615D01*
X78424500Y-153023615D01*
X78424500Y-153176384D01*
X78454300Y-153326197D01*
X78454302Y-153326205D01*
X78512759Y-153467334D01*
X78512764Y-153467343D01*
X78597629Y-153594351D01*
X78597632Y-153594355D01*
X78705644Y-153702367D01*
X78705648Y-153702370D01*
X78832656Y-153787235D01*
X78832662Y-153787238D01*
X78832663Y-153787239D01*
X78973795Y-153845698D01*
X79123615Y-153875499D01*
X79123619Y-153875500D01*
X79123620Y-153875500D01*
X79276381Y-153875500D01*
X79276382Y-153875499D01*
X79426205Y-153845698D01*
X79567337Y-153787239D01*
X79694352Y-153702370D01*
X79802370Y-153594352D01*
X79887239Y-153467337D01*
X79945698Y-153326205D01*
X79975500Y-153176380D01*
X79975500Y-153023620D01*
X79945698Y-152873795D01*
X79887239Y-152732663D01*
X79887238Y-152732662D01*
X79887235Y-152732656D01*
X79802370Y-152605648D01*
X79802367Y-152605644D01*
X79694355Y-152497632D01*
X79694351Y-152497629D01*
X79567343Y-152412764D01*
X79567334Y-152412759D01*
X79426205Y-152354302D01*
X79426197Y-152354300D01*
X79276384Y-152324500D01*
X79276380Y-152324500D01*
X79123620Y-152324500D01*
X79123615Y-152324500D01*
X78973802Y-152354300D01*
X78973794Y-152354302D01*
X78832665Y-152412759D01*
X78832656Y-152412764D01*
X78705648Y-152497629D01*
X78705644Y-152497632D01*
X78597632Y-152605644D01*
X78597629Y-152605648D01*
X78512764Y-152732656D01*
X78512759Y-152732665D01*
X78454302Y-152873794D01*
X78454300Y-152873802D01*
X78424500Y-153023615D01*
X56939114Y-153023615D01*
X56943537Y-153001382D01*
X56943537Y-152848619D01*
X56943536Y-152848615D01*
X56920472Y-152732665D01*
X56913735Y-152698795D01*
X56896739Y-152657765D01*
X56889271Y-152588296D01*
X56905764Y-152545213D01*
X56921856Y-152519124D01*
X56921858Y-152519120D01*
X56977005Y-152352697D01*
X56977006Y-152352690D01*
X56987499Y-152249986D01*
X56987500Y-152249973D01*
X56987500Y-151000000D01*
X56024000Y-151000000D01*
X55956961Y-150980315D01*
X55911206Y-150927511D01*
X55900000Y-150876000D01*
X55900000Y-150624000D01*
X55919685Y-150556961D01*
X55972489Y-150511206D01*
X56024000Y-150500000D01*
X56987499Y-150500000D01*
X56987499Y-149250028D01*
X56987498Y-149250013D01*
X56977005Y-149147302D01*
X56921858Y-148980881D01*
X56920004Y-148976904D01*
X56909513Y-148907826D01*
X56938033Y-148844043D01*
X56996510Y-148805804D01*
X57032387Y-148800500D01*
X58023920Y-148800500D01*
X58121462Y-148781096D01*
X58168913Y-148771658D01*
X58305495Y-148715084D01*
X58428416Y-148632951D01*
X58532951Y-148528416D01*
X58615084Y-148405495D01*
X58671658Y-148268913D01*
X58700500Y-148123918D01*
X58700500Y-147976082D01*
X58700500Y-147976079D01*
X58671659Y-147831092D01*
X58671658Y-147831091D01*
X58671658Y-147831087D01*
X58671656Y-147831082D01*
X58615087Y-147694511D01*
X58615080Y-147694498D01*
X58532951Y-147571584D01*
X58532948Y-147571580D01*
X58428419Y-147467051D01*
X58428415Y-147467048D01*
X58305501Y-147384919D01*
X58305488Y-147384912D01*
X58168917Y-147328343D01*
X58168907Y-147328340D01*
X58023920Y-147299500D01*
X58023918Y-147299500D01*
X56757052Y-147299500D01*
X56690013Y-147279815D01*
X56669371Y-147263181D01*
X56635851Y-147229661D01*
X56635850Y-147229660D01*
X56489016Y-147139092D01*
X56325253Y-147084826D01*
X56325251Y-147084825D01*
X56224178Y-147074500D01*
X55525830Y-147074500D01*
X55525812Y-147074501D01*
X55424747Y-147084825D01*
X55260984Y-147139092D01*
X55260977Y-147139095D01*
X55139596Y-147213964D01*
X55072204Y-147232404D01*
X55005540Y-147211481D01*
X54960771Y-147157839D01*
X54950500Y-147108425D01*
X54950500Y-146726079D01*
X54921659Y-146581092D01*
X54921658Y-146581091D01*
X54921658Y-146581087D01*
X54921656Y-146581082D01*
X54865087Y-146444511D01*
X54865080Y-146444498D01*
X54782951Y-146321584D01*
X54782948Y-146321580D01*
X54678419Y-146217051D01*
X54678415Y-146217048D01*
X54555501Y-146134919D01*
X54555488Y-146134912D01*
X54418917Y-146078343D01*
X54418907Y-146078340D01*
X54273920Y-146049500D01*
X54273918Y-146049500D01*
X54126082Y-146049500D01*
X54126080Y-146049500D01*
X53981092Y-146078340D01*
X53981087Y-146078342D01*
X53866860Y-146125655D01*
X53797391Y-146133123D01*
X53734912Y-146101847D01*
X53699260Y-146041758D01*
X53695470Y-146007246D01*
X53794550Y-142825036D01*
X53801764Y-142803024D01*
X53804528Y-142780023D01*
X53813781Y-142766359D01*
X53816310Y-142758646D01*
X53822914Y-142749896D01*
X53826646Y-142745380D01*
X53844517Y-142727510D01*
X53867016Y-142696541D01*
X53869470Y-142693574D01*
X53895335Y-142676089D01*
X53920054Y-142657027D01*
X53924915Y-142656092D01*
X53927354Y-142654444D01*
X53934331Y-142654281D01*
X53963966Y-142648583D01*
X57981178Y-142613877D01*
X58029690Y-142623308D01*
X58088380Y-142647619D01*
X58088384Y-142647619D01*
X58088385Y-142647620D01*
X58228542Y-142675500D01*
X58228545Y-142675500D01*
X58371457Y-142675500D01*
X58478128Y-142654281D01*
X58511620Y-142647619D01*
X58583842Y-142617703D01*
X58630215Y-142608270D01*
X59529046Y-142600504D01*
X59530117Y-142600500D01*
X63829192Y-142600500D01*
X63896231Y-142620185D01*
X63916873Y-142636819D01*
X66713181Y-145433127D01*
X66746666Y-145494450D01*
X66749500Y-145520808D01*
X66749500Y-151599958D01*
X66740061Y-151647410D01*
X66702382Y-151738375D01*
X66702379Y-151738385D01*
X66674500Y-151878542D01*
X66674500Y-151878545D01*
X66674500Y-152021455D01*
X66674500Y-152021457D01*
X66674499Y-152021457D01*
X66702379Y-152161614D01*
X66702381Y-152161620D01*
X66757069Y-152293650D01*
X66757074Y-152293659D01*
X66836467Y-152412478D01*
X66836470Y-152412482D01*
X66937517Y-152513529D01*
X66937521Y-152513532D01*
X67056340Y-152592925D01*
X67056346Y-152592928D01*
X67056347Y-152592929D01*
X67188380Y-152647619D01*
X67188384Y-152647619D01*
X67188385Y-152647620D01*
X67328542Y-152675500D01*
X67328545Y-152675500D01*
X67471457Y-152675500D01*
X67565751Y-152656742D01*
X67611620Y-152647619D01*
X67743653Y-152592929D01*
X67862479Y-152513532D01*
X67963532Y-152412479D01*
X68042929Y-152293653D01*
X68097619Y-152161620D01*
X68125500Y-152021455D01*
X68125500Y-151878545D01*
X68125500Y-151878542D01*
X68097620Y-151738385D01*
X68097619Y-151738384D01*
X68097619Y-151738380D01*
X68097617Y-151738375D01*
X68059939Y-151647410D01*
X68050500Y-151599958D01*
X68050500Y-145135928D01*
X68025502Y-145010261D01*
X68025501Y-145010260D01*
X68025501Y-145010256D01*
X67976465Y-144891873D01*
X67976464Y-144891870D01*
X67905277Y-144785331D01*
X67905271Y-144785324D01*
X65876540Y-142756594D01*
X65843055Y-142695271D01*
X65848039Y-142625579D01*
X65889911Y-142569646D01*
X65955375Y-142545229D01*
X65963124Y-142544919D01*
X76950000Y-142450000D01*
X83350000Y-135650000D01*
X88150000Y-129100000D01*
X88150000Y-125974000D01*
X88169685Y-125906961D01*
X88222489Y-125861206D01*
X88274000Y-125850000D01*
X90626140Y-125850000D01*
X90693179Y-125869685D01*
G37*
%TD.AperFunction*%
%TD*%
M02*
