%TF.GenerationSoftware,KiCad,Pcbnew,9.0.7*%
%TF.CreationDate,2026-02-19T04:12:07+03:00*%
%TF.ProjectId,shell-bms,7368656c-6c2d-4626-9d73-2e6b69636164,rev?*%
%TF.SameCoordinates,Original*%
%TF.FileFunction,Paste,Top*%
%TF.FilePolarity,Positive*%
%FSLAX46Y46*%
G04 Gerber Fmt 4.6, Leading zero omitted, Abs format (unit mm)*
G04 Created by KiCad (PCBNEW 9.0.7) date 2026-02-19 04:12:07*
%MOMM*%
%LPD*%
G01*
G04 APERTURE LIST*
G04 Aperture macros list*
%AMRoundRect*
0 Rectangle with rounded corners*
0 $1 Rounding radius*
0 $2 $3 $4 $5 $6 $7 $8 $9 X,Y pos of 4 corners*
0 Add a 4 corners polygon primitive as box body*
4,1,4,$2,$3,$4,$5,$6,$7,$8,$9,$2,$3,0*
0 Add four circle primitives for the rounded corners*
1,1,$1+$1,$2,$3*
1,1,$1+$1,$4,$5*
1,1,$1+$1,$6,$7*
1,1,$1+$1,$8,$9*
0 Add four rect primitives between the rounded corners*
20,1,$1+$1,$2,$3,$4,$5,0*
20,1,$1+$1,$4,$5,$6,$7,0*
20,1,$1+$1,$6,$7,$8,$9,0*
20,1,$1+$1,$8,$9,$2,$3,0*%
%AMFreePoly0*
4,1,83,1.042816,1.072236,1.072613,1.072236,1.081945,1.068370,1.088357,1.067737,1.095036,1.062947,1.108661,1.057304,1.123242,1.042722,1.130424,1.037573,1.132104,1.033860,1.136251,1.029714,1.151183,0.993666,1.151427,0.991179,1.151773,0.990417,1.151637,0.989047,1.153104,0.974157,1.153104,0.147677,1.151183,0.128168,1.149302,0.123628,1.149244,0.120163,1.144799,0.112757,
1.136251,0.092120,1.126655,0.082524,1.122607,0.075779,1.116546,0.072415,1.108661,0.064530,1.083729,0.054202,1.077346,0.050660,1.077347,0.050660,0.975563,0.025306,0.780742,-0.052508,0.598179,-0.155859,0.431205,-0.282864,0.282864,-0.431205,0.155859,-0.598179,0.052508,-0.780742,-0.025306,-0.975563,-0.050660,-1.077347,-0.050660,-1.077346,-0.054202,-1.083729,-0.064530,-1.108661,
-0.072415,-1.116546,-0.075779,-1.122607,-0.082524,-1.126655,-0.092120,-1.136251,-0.112757,-1.144799,-0.120163,-1.149244,-0.123628,-1.149302,-0.128168,-1.151183,-0.147677,-1.153104,-0.974157,-1.153104,-0.989047,-1.151637,-0.990417,-1.151773,-0.991179,-1.151427,-0.993666,-1.151183,-1.029714,-1.136251,-1.033860,-1.132104,-1.037573,-1.130424,-1.042722,-1.123242,-1.057304,-1.108661,-1.062947,-1.095036,
-1.067737,-1.088357,-1.068370,-1.081945,-1.072236,-1.072613,-1.072236,-1.042816,-1.072826,-1.036844,-1.072236,-1.034204,-1.072236,-1.033595,-1.071940,-1.032881,-1.009706,-0.754420,-0.915115,-0.480924,-0.790260,-0.219852,-0.636738,0.025461,-0.456510,0.251879,-0.251879,0.456510,-0.025461,0.636738,0.219852,0.790260,0.480924,0.915115,0.754420,1.009706,1.032881,1.071940,1.033595,1.072236,
1.034204,1.072236,1.036844,1.072826,1.042816,1.072236,1.042816,1.072236,$1*%
%AMFreePoly1*
4,1,83,-0.128168,1.151183,-0.123628,1.149302,-0.120163,1.149244,-0.112757,1.144799,-0.092120,1.136251,-0.082524,1.126655,-0.075779,1.122607,-0.072415,1.116546,-0.064530,1.108661,-0.054202,1.083729,-0.050660,1.077346,-0.050660,1.077347,-0.025306,0.975563,0.052508,0.780742,0.155859,0.598179,0.282864,0.431205,0.431205,0.282864,0.598179,0.155859,0.780742,0.052508,0.975563,-0.025306,
1.077347,-0.050660,1.077346,-0.050660,1.083729,-0.054202,1.108661,-0.064530,1.116546,-0.072415,1.122607,-0.075779,1.126655,-0.082524,1.136251,-0.092120,1.144799,-0.112757,1.149244,-0.120163,1.149302,-0.123628,1.151183,-0.128168,1.153104,-0.147677,1.153104,-0.974157,1.151637,-0.989047,1.151773,-0.990417,1.151427,-0.991179,1.151183,-0.993666,1.136251,-1.029714,1.132104,-1.033860,
1.130424,-1.037573,1.123242,-1.042722,1.108661,-1.057304,1.095036,-1.062947,1.088357,-1.067737,1.081945,-1.068370,1.072613,-1.072236,1.042816,-1.072236,1.036844,-1.072826,1.034204,-1.072236,1.033595,-1.072236,1.032881,-1.071940,0.754420,-1.009706,0.480924,-0.915115,0.219852,-0.790260,-0.025461,-0.636738,-0.251879,-0.456510,-0.456510,-0.251879,-0.636738,-0.025461,-0.790260,0.219852,
-0.915115,0.480924,-1.009706,0.754420,-1.071940,1.032881,-1.072236,1.033595,-1.072236,1.034204,-1.072826,1.036844,-1.072236,1.042816,-1.072236,1.072613,-1.068370,1.081945,-1.067737,1.088357,-1.062947,1.095036,-1.057304,1.108661,-1.042722,1.123242,-1.037573,1.130424,-1.033860,1.132104,-1.029714,1.136251,-0.993666,1.151183,-0.991179,1.151427,-0.990417,1.151773,-0.989047,1.151637,
-0.974157,1.153104,-0.147677,1.153104,-0.128168,1.151183,-0.128168,1.151183,$1*%
%AMFreePoly2*
4,1,83,-1.034204,1.072236,-1.033595,1.072236,-1.032881,1.071940,-0.754420,1.009706,-0.480924,0.915115,-0.219852,0.790260,0.025461,0.636738,0.251879,0.456510,0.456510,0.251879,0.636738,0.025461,0.790260,-0.219852,0.915115,-0.480924,1.009706,-0.754420,1.071940,-1.032881,1.072236,-1.033595,1.072236,-1.034204,1.072826,-1.036844,1.072236,-1.042816,1.072236,-1.072613,1.068370,-1.081945,
1.067737,-1.088357,1.062947,-1.095036,1.057304,-1.108661,1.042722,-1.123242,1.037573,-1.130424,1.033860,-1.132104,1.029714,-1.136251,0.993666,-1.151183,0.991179,-1.151427,0.990417,-1.151773,0.989047,-1.151637,0.974157,-1.153104,0.147677,-1.153104,0.128168,-1.151183,0.123628,-1.149302,0.120163,-1.149244,0.112757,-1.144799,0.092120,-1.136251,0.082524,-1.126655,0.075779,-1.122607,
0.072415,-1.116546,0.064530,-1.108661,0.054202,-1.083729,0.050660,-1.077346,0.050660,-1.077347,0.025306,-0.975563,-0.052508,-0.780742,-0.155859,-0.598179,-0.282864,-0.431205,-0.431205,-0.282864,-0.598179,-0.155859,-0.780742,-0.052508,-0.975563,0.025306,-1.077347,0.050660,-1.077346,0.050660,-1.083729,0.054202,-1.108661,0.064530,-1.116546,0.072415,-1.122607,0.075779,-1.126655,0.082524,
-1.136251,0.092120,-1.144799,0.112757,-1.149244,0.120163,-1.149302,0.123628,-1.151183,0.128168,-1.153104,0.147677,-1.153104,0.974157,-1.151637,0.989047,-1.151773,0.990417,-1.151427,0.991179,-1.151183,0.993666,-1.136251,1.029714,-1.132104,1.033860,-1.130424,1.037573,-1.123242,1.042722,-1.108661,1.057304,-1.095036,1.062947,-1.088357,1.067737,-1.081945,1.068370,-1.072613,1.072236,
-1.042816,1.072236,-1.036844,1.072826,-1.034204,1.072236,-1.034204,1.072236,$1*%
%AMFreePoly3*
4,1,83,0.989047,1.151637,0.990417,1.151773,0.991179,1.151427,0.993666,1.151183,1.029714,1.136251,1.033860,1.132104,1.037573,1.130424,1.042722,1.123242,1.057304,1.108661,1.062947,1.095036,1.067737,1.088357,1.068370,1.081945,1.072236,1.072613,1.072236,1.042816,1.072826,1.036844,1.072236,1.034204,1.072236,1.033595,1.071940,1.032881,1.009706,0.754420,0.915115,0.480924,
0.790260,0.219852,0.636738,-0.025461,0.456510,-0.251879,0.251879,-0.456510,0.025461,-0.636738,-0.219852,-0.790260,-0.480924,-0.915115,-0.754420,-1.009706,-1.032881,-1.071940,-1.033595,-1.072236,-1.034204,-1.072236,-1.036844,-1.072826,-1.042816,-1.072236,-1.072613,-1.072236,-1.081945,-1.068370,-1.088357,-1.067737,-1.095036,-1.062947,-1.108661,-1.057304,-1.123242,-1.042722,-1.130424,-1.037573,
-1.132104,-1.033860,-1.136251,-1.029714,-1.151183,-0.993666,-1.151427,-0.991179,-1.151773,-0.990417,-1.151637,-0.989047,-1.153104,-0.974157,-1.153104,-0.147677,-1.151183,-0.128168,-1.149302,-0.123628,-1.149244,-0.120163,-1.144799,-0.112757,-1.136251,-0.092120,-1.126655,-0.082524,-1.122607,-0.075779,-1.116546,-0.072415,-1.108661,-0.064530,-1.083729,-0.054202,-1.077346,-0.050660,-1.077347,-0.050660,
-0.975563,-0.025306,-0.780742,0.052508,-0.598179,0.155859,-0.431205,0.282864,-0.282864,0.431205,-0.155859,0.598179,-0.052508,0.780742,0.025306,0.975563,0.050660,1.077347,0.050660,1.077346,0.054202,1.083729,0.064530,1.108661,0.072415,1.116546,0.075779,1.122607,0.082524,1.126655,0.092120,1.136251,0.112757,1.144799,0.120163,1.149244,0.123628,1.149302,0.128168,1.151183,
0.147677,1.153104,0.974157,1.153104,0.989047,1.151637,0.989047,1.151637,$1*%
G04 Aperture macros list end*
%ADD10RoundRect,0.237500X0.300000X0.237500X-0.300000X0.237500X-0.300000X-0.237500X0.300000X-0.237500X0*%
%ADD11RoundRect,0.250000X1.075000X-0.400000X1.075000X0.400000X-1.075000X0.400000X-1.075000X-0.400000X0*%
%ADD12RoundRect,0.250000X-0.400000X-1.075000X0.400000X-1.075000X0.400000X1.075000X-0.400000X1.075000X0*%
%ADD13RoundRect,0.250000X0.412500X1.100000X-0.412500X1.100000X-0.412500X-1.100000X0.412500X-1.100000X0*%
%ADD14RoundRect,0.250000X-0.825000X0.312500X-0.825000X-0.312500X0.825000X-0.312500X0.825000X0.312500X0*%
%ADD15RoundRect,0.250000X-0.337500X-0.475000X0.337500X-0.475000X0.337500X0.475000X-0.337500X0.475000X0*%
%ADD16RoundRect,0.237500X-0.300000X-0.237500X0.300000X-0.237500X0.300000X0.237500X-0.300000X0.237500X0*%
%ADD17RoundRect,0.237500X-0.237500X0.250000X-0.237500X-0.250000X0.237500X-0.250000X0.237500X0.250000X0*%
%ADD18RoundRect,0.250000X0.475000X-0.337500X0.475000X0.337500X-0.475000X0.337500X-0.475000X-0.337500X0*%
%ADD19RoundRect,0.075000X-0.662500X-0.075000X0.662500X-0.075000X0.662500X0.075000X-0.662500X0.075000X0*%
%ADD20RoundRect,0.075000X-0.075000X-0.662500X0.075000X-0.662500X0.075000X0.662500X-0.075000X0.662500X0*%
%ADD21RoundRect,0.237500X0.237500X-0.250000X0.237500X0.250000X-0.237500X0.250000X-0.237500X-0.250000X0*%
%ADD22RoundRect,0.250000X-0.625000X0.312500X-0.625000X-0.312500X0.625000X-0.312500X0.625000X0.312500X0*%
%ADD23RoundRect,0.237500X-0.237500X0.300000X-0.237500X-0.300000X0.237500X-0.300000X0.237500X0.300000X0*%
%ADD24RoundRect,0.250000X0.400000X1.075000X-0.400000X1.075000X-0.400000X-1.075000X0.400000X-1.075000X0*%
%ADD25RoundRect,0.250000X0.337500X0.475000X-0.337500X0.475000X-0.337500X-0.475000X0.337500X-0.475000X0*%
%ADD26RoundRect,0.237500X0.250000X0.237500X-0.250000X0.237500X-0.250000X-0.237500X0.250000X-0.237500X0*%
%ADD27RoundRect,0.250000X-0.312500X-0.825000X0.312500X-0.825000X0.312500X0.825000X-0.312500X0.825000X0*%
%ADD28FreePoly0,0.000000*%
%ADD29FreePoly1,0.000000*%
%ADD30FreePoly2,0.000000*%
%ADD31FreePoly3,0.000000*%
%ADD32RoundRect,0.250000X0.595000X1.080000X-0.595000X1.080000X-0.595000X-1.080000X0.595000X-1.080000X0*%
%ADD33RoundRect,0.150000X0.687500X0.150000X-0.687500X0.150000X-0.687500X-0.150000X0.687500X-0.150000X0*%
%ADD34RoundRect,0.150000X0.150000X-0.587500X0.150000X0.587500X-0.150000X0.587500X-0.150000X-0.587500X0*%
%ADD35RoundRect,0.237500X-0.008839X-0.344715X0.344715X0.008839X0.008839X0.344715X-0.344715X-0.008839X0*%
%ADD36RoundRect,0.250000X-0.250000X-0.550000X0.250000X-0.550000X0.250000X0.550000X-0.250000X0.550000X0*%
%ADD37RoundRect,0.237500X0.237500X-0.300000X0.237500X0.300000X-0.237500X0.300000X-0.237500X-0.300000X0*%
%ADD38RoundRect,0.250000X-0.475000X0.337500X-0.475000X-0.337500X0.475000X-0.337500X0.475000X0.337500X0*%
%ADD39RoundRect,0.250000X-0.412500X-1.100000X0.412500X-1.100000X0.412500X1.100000X-0.412500X1.100000X0*%
%ADD40RoundRect,0.250000X-1.075000X0.400000X-1.075000X-0.400000X1.075000X-0.400000X1.075000X0.400000X0*%
%ADD41RoundRect,0.250000X-0.435000X0.295000X-0.435000X-0.295000X0.435000X-0.295000X0.435000X0.295000X0*%
%ADD42RoundRect,0.150000X-0.150000X0.737500X-0.150000X-0.737500X0.150000X-0.737500X0.150000X0.737500X0*%
%ADD43RoundRect,0.150000X0.512500X0.150000X-0.512500X0.150000X-0.512500X-0.150000X0.512500X-0.150000X0*%
%ADD44RoundRect,0.250000X-0.595000X-1.080000X0.595000X-1.080000X0.595000X1.080000X-0.595000X1.080000X0*%
%ADD45RoundRect,0.150000X-0.687500X-0.150000X0.687500X-0.150000X0.687500X0.150000X-0.687500X0.150000X0*%
%ADD46RoundRect,0.250000X0.312500X0.625000X-0.312500X0.625000X-0.312500X-0.625000X0.312500X-0.625000X0*%
%ADD47RoundRect,0.250001X-1.074999X0.462499X-1.074999X-0.462499X1.074999X-0.462499X1.074999X0.462499X0*%
%ADD48RoundRect,0.150000X-0.150000X-0.500000X0.150000X-0.500000X0.150000X0.500000X-0.150000X0.500000X0*%
%ADD49RoundRect,0.075000X-0.075000X-0.575000X0.075000X-0.575000X0.075000X0.575000X-0.075000X0.575000X0*%
%ADD50RoundRect,0.150000X-0.512500X-0.150000X0.512500X-0.150000X0.512500X0.150000X-0.512500X0.150000X0*%
%ADD51RoundRect,0.150000X0.587500X0.150000X-0.587500X0.150000X-0.587500X-0.150000X0.587500X-0.150000X0*%
%ADD52RoundRect,0.150000X0.825000X0.150000X-0.825000X0.150000X-0.825000X-0.150000X0.825000X-0.150000X0*%
%ADD53R,0.900000X1.500000*%
%ADD54R,4.000000X4.000000*%
%ADD55RoundRect,0.250000X-0.450000X0.350000X-0.450000X-0.350000X0.450000X-0.350000X0.450000X0.350000X0*%
%ADD56RoundRect,0.250000X-1.100000X0.412500X-1.100000X-0.412500X1.100000X-0.412500X1.100000X0.412500X0*%
%ADD57RoundRect,0.035000X-0.745000X-0.105000X0.745000X-0.105000X0.745000X0.105000X-0.745000X0.105000X0*%
%ADD58RoundRect,0.035000X-0.105000X-0.745000X0.105000X-0.745000X0.105000X0.745000X-0.105000X0.745000X0*%
%ADD59RoundRect,0.150000X-0.500000X0.150000X-0.500000X-0.150000X0.500000X-0.150000X0.500000X0.150000X0*%
%ADD60RoundRect,0.075000X-0.575000X0.075000X-0.575000X-0.075000X0.575000X-0.075000X0.575000X0.075000X0*%
%ADD61R,1.000000X1.900000*%
G04 APERTURE END LIST*
D10*
%TO.C,C63*%
X53925000Y-167500000D03*
X52200000Y-167500000D03*
%TD*%
D11*
%TO.C,R8*%
X131292000Y-141694000D03*
X131292000Y-138594000D03*
%TD*%
D12*
%TO.C,R51*%
X55050000Y-103400000D03*
X58150000Y-103400000D03*
%TD*%
D13*
%TO.C,C15*%
X108842000Y-132744000D03*
X105717000Y-132744000D03*
%TD*%
D11*
%TO.C,R5*%
X140892000Y-141744000D03*
X140892000Y-138644000D03*
%TD*%
D12*
%TO.C,R56*%
X48850000Y-118000000D03*
X51950000Y-118000000D03*
%TD*%
D14*
%TO.C,R35*%
X152716401Y-89275000D03*
X152716401Y-90600000D03*
%TD*%
D15*
%TO.C,C51*%
X77833400Y-127355600D03*
X79908400Y-127355600D03*
%TD*%
D13*
%TO.C,C1*%
X156567000Y-136044000D03*
X153442000Y-136044000D03*
%TD*%
D16*
%TO.C,C41*%
X79625000Y-99350000D03*
X81350000Y-99350000D03*
%TD*%
D17*
%TO.C,R44*%
X86400000Y-80087500D03*
X86400000Y-81912500D03*
%TD*%
D11*
%TO.C,R10*%
X124892000Y-141694000D03*
X124892000Y-138594000D03*
%TD*%
D18*
%TO.C,C25*%
X155727000Y-120956500D03*
X155727000Y-118881500D03*
%TD*%
D11*
%TO.C,R15*%
X108912000Y-141744000D03*
X108912000Y-138644000D03*
%TD*%
D19*
%TO.C,U3*%
X75037800Y-114316000D03*
X75037800Y-114816000D03*
X75037800Y-115316000D03*
X75037800Y-115816000D03*
X75037800Y-116316000D03*
X75037800Y-116816000D03*
X75037800Y-117316000D03*
X75037800Y-117816000D03*
X75037800Y-118316000D03*
X75037800Y-118816000D03*
X75037800Y-119316000D03*
X75037800Y-119816000D03*
D20*
X76450300Y-121228500D03*
X76950300Y-121228500D03*
X77450300Y-121228500D03*
X77950300Y-121228500D03*
X78450300Y-121228500D03*
X78950300Y-121228500D03*
X79450300Y-121228500D03*
X79950300Y-121228500D03*
X80450300Y-121228500D03*
X80950300Y-121228500D03*
X81450300Y-121228500D03*
X81950300Y-121228500D03*
D19*
X83362800Y-119816000D03*
X83362800Y-119316000D03*
X83362800Y-118816000D03*
X83362800Y-118316000D03*
X83362800Y-117816000D03*
X83362800Y-117316000D03*
X83362800Y-116816000D03*
X83362800Y-116316000D03*
X83362800Y-115816000D03*
X83362800Y-115316000D03*
X83362800Y-114816000D03*
X83362800Y-114316000D03*
D20*
X81950300Y-112903500D03*
X81450300Y-112903500D03*
X80950300Y-112903500D03*
X80450300Y-112903500D03*
X79950300Y-112903500D03*
X79450300Y-112903500D03*
X78950300Y-112903500D03*
X78450300Y-112903500D03*
X77950300Y-112903500D03*
X77450300Y-112903500D03*
X76950300Y-112903500D03*
X76450300Y-112903500D03*
%TD*%
D11*
%TO.C,R17*%
X102492000Y-141694000D03*
X102492000Y-138594000D03*
%TD*%
D12*
%TO.C,R52*%
X55050000Y-106600000D03*
X58150000Y-106600000D03*
%TD*%
D21*
%TO.C,R42*%
X57550000Y-137600000D03*
X57550000Y-135775000D03*
%TD*%
D11*
%TO.C,R11*%
X121692000Y-141694000D03*
X121692000Y-138594000D03*
%TD*%
D10*
%TO.C,C59*%
X84515800Y-124591600D03*
X82790800Y-124591600D03*
%TD*%
D22*
%TO.C,R38*%
X149675000Y-71987500D03*
X149675000Y-74912500D03*
%TD*%
D23*
%TO.C,C56*%
X73253600Y-114048200D03*
X73253600Y-115773200D03*
%TD*%
D24*
%TO.C,R40*%
X65100000Y-130500000D03*
X62000000Y-130500000D03*
%TD*%
D25*
%TO.C,C28*%
X148642000Y-106494000D03*
X146567000Y-106494000D03*
%TD*%
D24*
%TO.C,R54*%
X75900000Y-89100000D03*
X72800000Y-89100000D03*
%TD*%
D11*
%TO.C,R9*%
X128092000Y-141694000D03*
X128092000Y-138594000D03*
%TD*%
%TO.C,R1*%
X153692000Y-141694000D03*
X153692000Y-138594000D03*
%TD*%
D26*
%TO.C,R18*%
X103967000Y-119844000D03*
X102142000Y-119844000D03*
%TD*%
D27*
%TO.C,R34*%
X149900000Y-87100000D03*
X151225000Y-87100000D03*
%TD*%
D13*
%TO.C,C10*%
X125042000Y-136044000D03*
X121917000Y-136044000D03*
%TD*%
D28*
%TO.C,H1*%
X166189440Y-160189440D03*
D29*
X166189440Y-163095648D03*
D30*
X169095648Y-160189440D03*
D31*
X169095648Y-163095648D03*
%TD*%
D13*
%TO.C,C3*%
X147292000Y-132894000D03*
X144167000Y-132894000D03*
%TD*%
D24*
%TO.C,R41*%
X63100000Y-134000000D03*
X60000000Y-134000000D03*
%TD*%
D32*
%TO.C,U9*%
X74800000Y-153100000D03*
D33*
X77437500Y-155100000D03*
X77437500Y-154100000D03*
X77437500Y-153100000D03*
X77437500Y-152100000D03*
X77437500Y-151100000D03*
X72162500Y-151100000D03*
X72162500Y-152100000D03*
X72162500Y-153100000D03*
X72162500Y-154100000D03*
X72162500Y-155100000D03*
%TD*%
D11*
%TO.C,R3*%
X147292000Y-141744000D03*
X147292000Y-138644000D03*
%TD*%
D34*
%TO.C,Q7*%
X74800000Y-93837500D03*
X76700000Y-93837500D03*
X75750000Y-91962500D03*
%TD*%
D26*
%TO.C,R68*%
X77150000Y-157250000D03*
X75325000Y-157250000D03*
%TD*%
D13*
%TO.C,C11*%
X121792000Y-132794000D03*
X118667000Y-132794000D03*
%TD*%
D35*
%TO.C,R69*%
X71834530Y-158215470D03*
X73125000Y-156925000D03*
%TD*%
D36*
%TO.C,SW2*%
X58400000Y-168150000D03*
X60150000Y-165850000D03*
X61900000Y-168150000D03*
%TD*%
D37*
%TO.C,C32*%
X52500000Y-122200000D03*
X52500000Y-120475000D03*
%TD*%
D38*
%TO.C,C31*%
X74700000Y-135325000D03*
X74700000Y-137400000D03*
%TD*%
D24*
%TO.C,R25*%
X162217000Y-131361500D03*
X159117000Y-131361500D03*
%TD*%
D39*
%TO.C,C4*%
X141292000Y-136094000D03*
X144417000Y-136094000D03*
%TD*%
D38*
%TO.C,C30*%
X169455000Y-90425000D03*
X169455000Y-92500000D03*
%TD*%
D17*
%TO.C,R46*%
X84937600Y-81889600D03*
X84937600Y-83714600D03*
%TD*%
D23*
%TO.C,C44*%
X74980800Y-109425400D03*
X74980800Y-111150400D03*
%TD*%
D21*
%TO.C,R21*%
X105492000Y-123169000D03*
X105492000Y-121344000D03*
%TD*%
D13*
%TO.C,C9*%
X128342000Y-132794000D03*
X125217000Y-132794000D03*
%TD*%
%TO.C,C2*%
X150467000Y-136144000D03*
X147342000Y-136144000D03*
%TD*%
D40*
%TO.C,R72*%
X72100000Y-94200000D03*
X72100000Y-97300000D03*
%TD*%
D11*
%TO.C,R12*%
X118512000Y-141744000D03*
X118512000Y-138644000D03*
%TD*%
D13*
%TO.C,C6*%
X137954500Y-136044000D03*
X134829500Y-136044000D03*
%TD*%
%TO.C,C16*%
X105767000Y-136044000D03*
X102642000Y-136044000D03*
%TD*%
D34*
%TO.C,Q5*%
X48950000Y-114475000D03*
X50850000Y-114475000D03*
X49900000Y-112600000D03*
%TD*%
D14*
%TO.C,R36*%
X152716401Y-92250000D03*
X152716401Y-93575000D03*
%TD*%
D23*
%TO.C,C49*%
X81127600Y-123393200D03*
X81127600Y-125118200D03*
%TD*%
D11*
%TO.C,R13*%
X115292000Y-141744000D03*
X115292000Y-138644000D03*
%TD*%
D26*
%TO.C,R71*%
X70425000Y-159600000D03*
X68600000Y-159600000D03*
%TD*%
D40*
%TO.C,R58*%
X56300000Y-78300000D03*
X56300000Y-81400000D03*
%TD*%
D25*
%TO.C,C27*%
X150417000Y-97644000D03*
X148342000Y-97644000D03*
%TD*%
D23*
%TO.C,C50*%
X79633600Y-123342400D03*
X79633600Y-125067400D03*
%TD*%
D13*
%TO.C,C13*%
X115292000Y-132794000D03*
X112167000Y-132794000D03*
%TD*%
D18*
%TO.C,C23*%
X135800000Y-105200000D03*
X135800000Y-103125000D03*
%TD*%
D28*
%TO.C,H5*%
X120250000Y-99750000D03*
D29*
X120250000Y-102656208D03*
D30*
X123156208Y-99750000D03*
D31*
X123156208Y-102656208D03*
%TD*%
D23*
%TO.C,C46*%
X73507600Y-109425400D03*
X73507600Y-111150400D03*
%TD*%
D28*
%TO.C,H2*%
X86796896Y-161046896D03*
D29*
X86796896Y-163953104D03*
D30*
X89703104Y-161046896D03*
D31*
X89703104Y-163953104D03*
%TD*%
D28*
%TO.C,H6*%
X107296896Y-57546896D03*
D29*
X107296896Y-60453104D03*
D30*
X110203104Y-57546896D03*
D31*
X110203104Y-60453104D03*
%TD*%
D41*
%TO.C,U2*%
X82327400Y-76761531D03*
X80627400Y-76761531D03*
X82327400Y-78121531D03*
X80627400Y-78121531D03*
D42*
X83382400Y-74879031D03*
X82112400Y-74879031D03*
X80842400Y-74879031D03*
X79572400Y-74879031D03*
X79572400Y-80004031D03*
X80842400Y-80004031D03*
X82112400Y-80004031D03*
X83382400Y-80004031D03*
%TD*%
D27*
%TO.C,R33*%
X146900000Y-87100000D03*
X148225000Y-87100000D03*
%TD*%
D15*
%TO.C,C29*%
X165530000Y-88600000D03*
X167605000Y-88600000D03*
%TD*%
D11*
%TO.C,R14*%
X112092000Y-141694000D03*
X112092000Y-138594000D03*
%TD*%
D26*
%TO.C,R70*%
X76175000Y-159775000D03*
X74350000Y-159775000D03*
%TD*%
D11*
%TO.C,R2*%
X150492000Y-141744000D03*
X150492000Y-138644000D03*
%TD*%
D17*
%TO.C,R50*%
X51600000Y-123950000D03*
X51600000Y-125775000D03*
%TD*%
D23*
%TO.C,C36*%
X86400000Y-83500000D03*
X86400000Y-85225000D03*
%TD*%
D43*
%TO.C,U4*%
X88400000Y-96900000D03*
X88400000Y-95950000D03*
X88400000Y-95000000D03*
X86125000Y-95000000D03*
X86125000Y-96900000D03*
%TD*%
D28*
%TO.C,H3*%
X67746896Y-66546896D03*
D29*
X67746896Y-69453104D03*
D30*
X70653104Y-66546896D03*
D31*
X70653104Y-69453104D03*
%TD*%
D44*
%TO.C,U5*%
X69887500Y-134050000D03*
D45*
X67250000Y-132050000D03*
X67250000Y-133050000D03*
X67250000Y-134050000D03*
X67250000Y-135050000D03*
X67250000Y-136050000D03*
X72525000Y-136050000D03*
X72525000Y-135050000D03*
X72525000Y-134050000D03*
X72525000Y-133050000D03*
X72525000Y-132050000D03*
%TD*%
D46*
%TO.C,R37*%
X147700000Y-75150000D03*
X144775000Y-75150000D03*
%TD*%
D17*
%TO.C,R43*%
X79578200Y-70625831D03*
X79578200Y-72450831D03*
%TD*%
D10*
%TO.C,C38*%
X88525000Y-93400000D03*
X86800000Y-93400000D03*
%TD*%
D24*
%TO.C,R61*%
X162267000Y-127681500D03*
X159167000Y-127681500D03*
%TD*%
D40*
%TO.C,R24*%
X147792000Y-108994000D03*
X147792000Y-112094000D03*
%TD*%
D47*
%TO.C,L1*%
X88800000Y-82100000D03*
X88800000Y-85075000D03*
%TD*%
D13*
%TO.C,C5*%
X141167000Y-132844000D03*
X138042000Y-132844000D03*
%TD*%
D11*
%TO.C,R4*%
X144092000Y-141744000D03*
X144092000Y-138644000D03*
%TD*%
D48*
%TO.C,J11*%
X69030000Y-161680000D03*
X69830000Y-161680000D03*
D49*
X70980000Y-161680000D03*
X71980000Y-161680000D03*
X72480000Y-161680000D03*
X73480000Y-161680000D03*
D48*
X74630000Y-161680000D03*
X75430000Y-161680000D03*
X75430000Y-161680000D03*
X74630000Y-161680000D03*
D49*
X73980000Y-161680000D03*
X72980000Y-161680000D03*
X71480000Y-161680000D03*
X70480000Y-161680000D03*
D48*
X69830000Y-161680000D03*
X69030000Y-161680000D03*
%TD*%
D10*
%TO.C,C43*%
X84478200Y-126085600D03*
X82753200Y-126085600D03*
%TD*%
D23*
%TO.C,C40*%
X84400000Y-96950000D03*
X84400000Y-98675000D03*
%TD*%
D21*
%TO.C,R20*%
X102142000Y-123169000D03*
X102142000Y-121344000D03*
%TD*%
D23*
%TO.C,C48*%
X76444800Y-109406600D03*
X76444800Y-111131600D03*
%TD*%
D10*
%TO.C,C60*%
X84579800Y-123088400D03*
X82854800Y-123088400D03*
%TD*%
D24*
%TO.C,R53*%
X67100000Y-89150000D03*
X64000000Y-89150000D03*
%TD*%
D22*
%TO.C,R60*%
X129000000Y-78750000D03*
X129000000Y-81675000D03*
%TD*%
D13*
%TO.C,C17*%
X153517000Y-132844000D03*
X150392000Y-132844000D03*
%TD*%
%TO.C,C14*%
X112142000Y-136044000D03*
X109017000Y-136044000D03*
%TD*%
D24*
%TO.C,R27*%
X158767000Y-123381500D03*
X155667000Y-123381500D03*
%TD*%
D37*
%TO.C,C34*%
X83439000Y-83667600D03*
X83439000Y-81942600D03*
%TD*%
D39*
%TO.C,C55*%
X56425000Y-120000000D03*
X59550000Y-120000000D03*
%TD*%
D24*
%TO.C,R26*%
X158717000Y-116381500D03*
X155617000Y-116381500D03*
%TD*%
D26*
%TO.C,R45*%
X89725000Y-80100000D03*
X87900000Y-80100000D03*
%TD*%
D38*
%TO.C,C22*%
X131200000Y-101825000D03*
X131200000Y-103900000D03*
%TD*%
D18*
%TO.C,C24*%
X152717000Y-120956500D03*
X152717000Y-118881500D03*
%TD*%
D50*
%TO.C,U6*%
X79812500Y-95950000D03*
X79812500Y-97850000D03*
X82087500Y-96900000D03*
%TD*%
D11*
%TO.C,R16*%
X105692000Y-141744000D03*
X105692000Y-138644000D03*
%TD*%
D21*
%TO.C,R49*%
X57550000Y-131675000D03*
X57550000Y-129850000D03*
%TD*%
D51*
%TO.C,Q6*%
X56225000Y-75150000D03*
X56225000Y-73250000D03*
X54350000Y-74200000D03*
%TD*%
D26*
%TO.C,R19*%
X107317000Y-119844000D03*
X105492000Y-119844000D03*
%TD*%
D13*
%TO.C,C8*%
X131592000Y-136044000D03*
X128467000Y-136044000D03*
%TD*%
%TO.C,C12*%
X118592000Y-136094000D03*
X115467000Y-136094000D03*
%TD*%
D28*
%TO.C,H4*%
X168296896Y-61546896D03*
D29*
X168296896Y-64453104D03*
D30*
X171203104Y-61546896D03*
D31*
X171203104Y-64453104D03*
%TD*%
D26*
%TO.C,R48*%
X110664000Y-119837200D03*
X108839000Y-119837200D03*
%TD*%
D13*
%TO.C,C7*%
X134742000Y-132794000D03*
X131617000Y-132794000D03*
%TD*%
D15*
%TO.C,C26*%
X150242000Y-109094000D03*
X152317000Y-109094000D03*
%TD*%
D37*
%TO.C,C39*%
X82750000Y-95125000D03*
X82750000Y-93400000D03*
%TD*%
D52*
%TO.C,U8*%
X59475000Y-126405000D03*
X59475000Y-125135000D03*
X59475000Y-123865000D03*
X59475000Y-122595000D03*
X54525000Y-122595000D03*
X54525000Y-123865000D03*
X54525000Y-125135000D03*
X54525000Y-126405000D03*
%TD*%
D11*
%TO.C,R6*%
X137692000Y-141744000D03*
X137692000Y-138644000D03*
%TD*%
D37*
%TO.C,C57*%
X73253600Y-119073000D03*
X73253600Y-117348000D03*
%TD*%
D53*
%TO.C,U7*%
X49700000Y-162450000D03*
X51200000Y-162450000D03*
X52700000Y-162450000D03*
X54200000Y-162450000D03*
X55700000Y-162450000D03*
X57200000Y-162450000D03*
X58700000Y-162450000D03*
X60200000Y-162450000D03*
X61700000Y-162450000D03*
X61700000Y-144950000D03*
X60200000Y-144950000D03*
X58700000Y-144950000D03*
X57200000Y-144950000D03*
X55700000Y-144950000D03*
X54200000Y-144950000D03*
X52700000Y-144950000D03*
X51200000Y-144950000D03*
X49700000Y-144950000D03*
D54*
X56310000Y-152600000D03*
%TD*%
D16*
%TO.C,C35*%
X83075000Y-85300000D03*
X84800000Y-85300000D03*
%TD*%
D55*
%TO.C,FB1*%
X77927200Y-123444000D03*
X77927200Y-125444000D03*
%TD*%
D17*
%TO.C,R47*%
X108458000Y-121365000D03*
X108458000Y-123190000D03*
%TD*%
D56*
%TO.C,C37*%
X87900000Y-87900000D03*
X87900000Y-91025000D03*
%TD*%
D57*
%TO.C,U1*%
X134642000Y-109244000D03*
X134642000Y-109744000D03*
X134642000Y-110244000D03*
X134642000Y-110744000D03*
X134642000Y-111244000D03*
X134642000Y-111744000D03*
X134642000Y-112244000D03*
X134642000Y-112744000D03*
X134642000Y-113244000D03*
X134642000Y-113744000D03*
X134642000Y-114244000D03*
X134642000Y-114744000D03*
D58*
X136072000Y-116174000D03*
X136572000Y-116174000D03*
X137072000Y-116174000D03*
X137572000Y-116174000D03*
X138072000Y-116174000D03*
X138572000Y-116174000D03*
X139072000Y-116174000D03*
X139572000Y-116174000D03*
X140072000Y-116174000D03*
X140572000Y-116174000D03*
X141072000Y-116174000D03*
X141572000Y-116174000D03*
D57*
X143002000Y-114744000D03*
X143002000Y-114244000D03*
X143002000Y-113744000D03*
X143002000Y-113244000D03*
X143002000Y-112744000D03*
X143002000Y-112244000D03*
X143002000Y-111744000D03*
X143002000Y-111244000D03*
X143002000Y-110744000D03*
X143002000Y-110244000D03*
X143002000Y-109744000D03*
X143002000Y-109244000D03*
D58*
X141572000Y-107814000D03*
X141072000Y-107814000D03*
X140572000Y-107814000D03*
X140072000Y-107814000D03*
X139572000Y-107814000D03*
X139072000Y-107814000D03*
X138572000Y-107814000D03*
X138072000Y-107814000D03*
X137572000Y-107814000D03*
X137072000Y-107814000D03*
X136572000Y-107814000D03*
X136072000Y-107814000D03*
%TD*%
D38*
%TO.C,C21*%
X133700000Y-101825000D03*
X133700000Y-103900000D03*
%TD*%
D10*
%TO.C,C64*%
X53925000Y-164990000D03*
X52200000Y-164990000D03*
%TD*%
D11*
%TO.C,R7*%
X134492000Y-141694000D03*
X134492000Y-138594000D03*
%TD*%
%TO.C,R23*%
X147792000Y-117094000D03*
X147792000Y-113994000D03*
%TD*%
D59*
%TO.C,J5*%
X55595000Y-130350000D03*
X55595000Y-131150000D03*
D60*
X55595000Y-132300000D03*
X55595000Y-133300000D03*
X55595000Y-133800000D03*
X55595000Y-134800000D03*
D59*
X55595000Y-135950000D03*
X55595000Y-136750000D03*
X55595000Y-136750000D03*
X55595000Y-135950000D03*
D60*
X55595000Y-135300000D03*
X55595000Y-134300000D03*
X55595000Y-132800000D03*
X55595000Y-131800000D03*
D59*
X55595000Y-131150000D03*
X55595000Y-130350000D03*
%TD*%
D12*
%TO.C,R59*%
X58300000Y-75300000D03*
X61400000Y-75300000D03*
%TD*%
D38*
%TO.C,C65*%
X69150000Y-155400000D03*
X69150000Y-157475000D03*
%TD*%
D13*
%TO.C,C33*%
X80525000Y-82800000D03*
X77400000Y-82800000D03*
%TD*%
D22*
%TO.C,R31*%
X129025000Y-74037500D03*
X129025000Y-76962500D03*
%TD*%
D61*
%TO.C,J1*%
X151427000Y-155281500D03*
X148887000Y-151981500D03*
X146347000Y-155281500D03*
X143807000Y-151981500D03*
X141267000Y-155281500D03*
X138727000Y-151981500D03*
X136187000Y-155281500D03*
X133647000Y-151981500D03*
X131107000Y-155281500D03*
X128567000Y-151981500D03*
X126027000Y-155281500D03*
X123487000Y-151981500D03*
X120947000Y-155281500D03*
X118407000Y-151981500D03*
X115867000Y-155281500D03*
X113327000Y-151981500D03*
X110787000Y-155281500D03*
X108247000Y-151981500D03*
X105707000Y-155281500D03*
X103167000Y-151981500D03*
%TD*%
M02*
